<?xml version="1.0" encoding="utf-8"?>
<!-- Generator: Adobe Illustrator 26.3.1, SVG Export Plug-In . SVG Version: 6.00 Build 0)  -->
<svg version="1.1" id="Layer_1" xmlns="http://www.w3.org/2000/svg" xmlns:xlink="http://www.w3.org/1999/xlink" x="0px" y="0px"
	 viewBox="0 0 229 76" style="enable-background:new 0 0 229 76;" xml:space="preserve">
<style type="text/css">
	.st0{fill:#F290D7;}
</style>
<path class="st0" d="M35.9,31.7c-1-3.5-3.3-7.8-8.7-10.7c-3-1.6-4.9-4.6-6-8.2c-1.1-3.5-1.4-7.2-1.3-9.4c0.1-1.4-1-2.6-2.4-2.7
	c-1.4-0.1-2.6,1-2.7,2.4c-0.1,2.7,0.2,7,1.5,11.2c1.4,4.2,3.9,8.6,8.4,11c4,2.1,5.6,5.1,6.3,7.6c0.3,1.2,0.4,2.4,0.4,3.2
	c0,0.4,0,0.7,0,0.9c0,0.1,0,0.2,0,0.2v0c0,0,0,0,0,0.1c0,0.1,0,0.2-0.1,0.4c-0.1,0.3-0.2,0.8-0.4,1.3c-0.4,1.1-1,2.4-1.9,3.4
	c-0.9,1-2,1.8-3.5,2c-1.5,0.2-3.8-0.1-7.2-1.8c-4.6-2.4-9.5-2-13.1,0.5c-3.6,2.5-5.6,7.1-4.7,12.3c0.2,1.4,1.5,2.3,2.9,2.1
	c1.4-0.2,2.3-1.5,2.1-2.9c-0.6-3.5,0.7-6,2.6-7.3c1.9-1.4,4.8-1.7,7.8-0.1c3.9,2.1,7.3,2.8,10.2,2.3c3-0.4,5.1-2,6.6-3.7
	c1.5-1.7,2.3-3.7,2.8-5.1c0.2-0.7,0.4-1.4,0.5-1.8c0.1-0.2,0.1-0.4,0.1-0.6c0-0.1,0-0.1,0-0.2v-0.1l0,0v0l0,0c0,0,0-0.1,0-0.1
	c0-0.1,0-0.2,0-0.4c0-0.3,0.1-0.8,0-1.4C36.5,35,36.3,33.5,35.9,31.7L35.9,31.7z"/>
<path class="st0" d="M40.3,72.1c-0.3,0-0.6,0-0.9,0c-7-0.3-13.5-4.1-19.3-11.3c-2.1-2-4.3-2.3-6.1-0.8c-2,1.6-2.9,4.9-0.7,8.2
	c0.8,1.2,0.4,2.7-0.7,3.5c-1.2,0.8-2.7,0.4-3.5-0.7C6.2,66.6,5.9,60,10.8,56c4.5-3.6,9.7-2,12.9,1.3c0.1,0.1,0.1,0.1,0.2,0.2
	c4.9,6.1,10.2,9.3,15.7,9.5c8,0.4,14.1-5.7,14.2-5.7c1-1,2.6-1,3.6,0c1,1,1,2.6,0,3.6C57,65.1,50.1,72.1,40.3,72.1L40.3,72.1z
	 M66.2,47.1c-0.3,0-0.7-0.1-1-0.2c-1.3-0.6-1.9-2-1.3-3.3c4.8-11-0.3-24.4-8.2-29.9c-6.2-4.4-13.1-3.5-19.4,2.4
	c-0.3,0.3-0.7,0.5-1.2,0.6c-2.1,0.5-4,0-5.6-1.3C25.5,12,25.8,4.1,25.9,3.3c0.1-1.4,1.3-2.5,2.7-2.4C30,1,31,2.1,30.9,3.5
	c-0.2,2.9,0.5,6.8,1.9,8c0.2,0.1,0.3,0.3,0.7,0.3c7.9-7,17.3-7.9,25.2-2.3c9.4,6.6,15.8,22.3,9.9,36C68.1,46.6,67.2,47.1,66.2,47.1
	L66.2,47.1z"/>
<path class="st0" d="M51,32c-1,0-2-0.6-2.4-1.7l-1.8-5.1c-0.5-1.3,0.2-2.8,1.5-3.2c1.3-0.5,2.8,0.2,3.2,1.5l1.8,5.1
	c0.5,1.3-0.2,2.8-1.5,3.2C51.6,31.9,51.3,32,51,32L51,32z"/>
<path class="st0" d="M60.4,32c-1,0-2-0.6-2.4-1.7l-1.8-5.1c-0.5-1.3,0.2-2.8,1.5-3.2c1.3-0.5,2.8,0.2,3.2,1.5l1.8,5.1
	c0.5,1.3-0.2,2.8-1.5,3.2C61,31.9,60.7,32,60.4,32L60.4,32z"/>
<path class="st0" d="M35.9,62.8c-1.1,0-2.2-0.2-3.2-0.7c-3.2-1.4-4.7-4.8-3.6-8.2c1.1-3.4,4.1-4.7,6.5-5.7c3.3-1.4,3.9-1.9,3.5-4.3
	c-0.2-1.3,0.6-2.6,1.8-2.9c1.3-0.3,2.6,0.3,3,1.6c0,0.1,2.3,6,7.4,8.1c3.1,1.3,6.7,1,10.8-0.9c1.3-0.6,2.8,0,3.3,1.3
	c0.6,1.3,0,2.8-1.3,3.3c-5.4,2.5-10.5,2.8-14.9,0.9c-3.1-1.3-5.4-3.4-7-5.5c-1.4,1.5-3.4,2.4-4.8,3c-2.1,0.9-3.3,1.5-3.7,2.6
	c-0.4,1.2,0.2,1.7,0.8,2c1.4,0.6,3.7,0,5.4-3c0.7-1.2,2.2-1.6,3.4-0.9c1.2,0.7,1.6,2.2,0.9,3.5C42.2,61.2,38.8,62.8,35.9,62.8
	L35.9,62.8z"/>
<path class="st0" d="M98.9,51.7c-2.4,0-4.5-0.4-6.4-1.3c-1.9-0.9-3.3-2.1-4.4-3.6c-1.1-1.6-1.6-3.3-1.6-5.2c0-0.8,0-1.3,0.1-1.7
	l1.5-8.5c0.4-2.5,1.4-4.7,2.9-6.6c1.6-1.9,3.5-3.4,5.9-4.5c2.4-1.1,5-1.6,7.8-1.6c2.3,0,4.4,0.4,6.2,1.3c1.8,0.9,3.2,2,4.2,3.6
	s1.5,3.3,1.5,5.2c0,0.7-0.1,1.4-0.2,2.2l-0.6,3.6c-0.2,1-0.7,1.8-1.5,2.4c-0.8,0.6-1.7,0.9-2.8,0.9H94.7l-0.3,1.4
	c-0.1,0.6-0.1,1-0.1,1.3c0,1.6,0.5,2.8,1.5,3.6c1,0.9,2.4,1.3,4.2,1.3c2,0,3.6-0.4,4.9-1.3s2-2.1,2.3-3.7c0.4,0,0.9-0.1,1.5-0.1
	c1.4,0,2.6,0.3,3.3,0.8c0.8,0.5,1.2,1.3,1.2,2.3c0,1.5-0.7,2.8-2,4.1c-1.3,1.3-3.1,2.3-5.3,3.1C103.8,51.3,101.4,51.7,98.9,51.7z
	 M108.9,32.1l0.3-1.2c0.1-0.3,0.1-0.8,0.1-1.5c0-1.5-0.5-2.6-1.5-3.3c-1-0.8-2.4-1.2-4.2-1.2c-2,0-3.6,0.6-5.1,1.7
	c-1.4,1.1-2.3,2.5-2.6,4.4l-0.3,1.2H108.9z"/>
<path class="st0" d="M128.5,51.7c-3,0-5.5-0.8-7.4-2.4c-1.9-1.6-2.8-3.7-2.8-6.3c0-2.5,0.6-4.7,1.9-6.7c1.3-2,3.1-3.5,5.4-4.6
	c2.3-1.1,4.9-1.7,7.8-1.7c1.9,0,3.5,0.3,5,0.9c1.5,0.6,2.8,1.5,4,2.8l0.3-0.3c-0.1-0.2-0.7-0.7-1.7-1.7l0.2-1.3
	c0-0.3,0.1-0.6,0.1-1.2c0-1.5-0.5-2.6-1.5-3.4c-1-0.8-2.5-1.2-4.5-1.2s-3.8,0.4-5.4,1.2c-1.6,0.7-3,1.8-4.1,3.2
	c-0.8-0.2-1.5-0.6-2-1.2c-0.5-0.6-0.8-1.2-0.8-1.9c0-1.4,0.6-2.6,1.9-3.8c1.3-1.2,3-2,5.1-2.7c2.2-0.7,4.5-1,7.1-1
	c3.8,0,6.8,0.9,9,2.6c2.2,1.7,3.3,4,3.3,7c0,0.7-0.1,1.5-0.2,2.2l-2.8,16c-0.3,1.9-1.2,3.2-2.5,4.1c-1.3,0.9-3.3,1.3-5.9,1.3
	l0.4-2.6c0.8-0.6,1.4-1.2,1.9-1.6l-0.3-0.3c-1.8,1.6-3.5,2.7-5.4,3.5C132.8,51.4,130.8,51.7,128.5,51.7z M131.7,45.9
	c2.4,0,4.3-0.5,5.8-1.5c1.5-1.1,2.2-2.5,2.2-4.2c0-1.3-0.6-2.3-1.7-3.1c-1.1-0.7-2.6-1.1-4.5-1.1c-2.2,0-3.9,0.6-5.3,1.7
	c-1.3,1.1-2,2.6-2,4.4C126.2,44.6,128,45.9,131.7,45.9z"/>
<path class="st0" d="M164.9,51.7c-2.7,0-4.8-0.7-6.3-2.1c-1.5-1.5-2.2-3.5-2.2-6c0-0.5,0.1-1.3,0.3-2.6l2.8-15.9h-6.5
	c0.3-1.9,0.9-3.3,1.8-4.4c0.9-1.1,2.1-1.6,3.5-1.6h2.5l0.9-5.3c0.3-1.7,1.1-2.9,2.5-3.7c1.4-0.8,3.5-1.2,6.1-1.2l-1.8,10.2h8.5
	c-0.3,2.1-1,3.6-2,4.5c-1,0.9-2.4,1.4-4.2,1.4h-3.3l-2.8,15.6c-0.1,0.8-0.1,1.3-0.1,1.5c0,0.9,0.3,1.6,0.8,2
	c0.5,0.4,1.3,0.6,2.5,0.6c1.5,0,3.1-0.4,4.8-1.2c0.3,0.3,0.4,0.6,0.6,1c0.2,0.4,0.3,0.9,0.3,1.3c0,1.6-0.8,3-2.5,4.1
	C169.3,51.2,167.3,51.7,164.9,51.7z"/>
<path class="st0" d="M190.2,15.6c-1.3,0-2.4-0.4-3.3-1.1c-0.9-0.8-1.3-1.7-1.3-2.9c0-1.6,0.6-2.9,1.9-4c1.2-1.2,2.7-1.7,4.4-1.7
	c1.3,0,2.4,0.4,3.2,1.1c0.9,0.7,1.3,1.7,1.3,2.9c0,1.6-0.6,2.9-1.9,4.1C193.4,15,191.9,15.6,190.2,15.6z M184.8,23.4
	c0.3-1.7,1.2-2.9,2.6-3.6c1.5-0.8,3.5-1.2,6.3-1.2l-5,28.3c-0.3,1.7-1.2,2.9-2.6,3.7c-1.4,0.8-3.5,1.2-6.3,1.2L184.8,23.4z"/>
<path class="st0" d="M210.7,51.7c-2.4,0-4.5-0.4-6.4-1.3c-1.9-0.9-3.4-2.1-4.4-3.6c-1.1-1.6-1.6-3.3-1.6-5.2c0-0.8,0-1.3,0.1-1.7
	l1.5-8.5c0.4-2.5,1.4-4.7,2.9-6.6c1.6-1.9,3.5-3.4,5.9-4.5c2.4-1.1,5-1.6,7.8-1.6c2.3,0,4.4,0.4,6.2,1.3c1.8,0.9,3.2,2,4.2,3.6
	c1,1.5,1.5,3.3,1.5,5.2c0,0.7-0.1,1.4-0.2,2.2l-0.6,3.6c-0.2,1-0.7,1.8-1.5,2.4c-0.8,0.6-1.7,0.9-2.8,0.9h-16.8l-0.3,1.4
	c-0.1,0.6-0.1,1-0.1,1.3c0,1.6,0.5,2.8,1.5,3.6c1,0.9,2.4,1.3,4.2,1.3c2,0,3.6-0.4,4.9-1.3s2-2.1,2.3-3.7c0.4,0,0.9-0.1,1.5-0.1
	c1.5,0,2.6,0.3,3.3,0.8c0.8,0.5,1.2,1.3,1.2,2.3c0,1.5-0.7,2.8-2,4.1c-1.3,1.3-3.1,2.3-5.3,3.1C215.6,51.3,213.2,51.7,210.7,51.7z
	 M220.7,32.1l0.3-1.2c0.1-0.3,0.1-0.8,0.1-1.5c0-1.5-0.5-2.6-1.5-3.3c-1-0.8-2.4-1.2-4.2-1.2c-2,0-3.6,0.6-5.1,1.7
	c-1.4,1.1-2.3,2.5-2.6,4.4l-0.3,1.2H220.7z"/>
<path class="st0" d="M97.5,71.8c-0.7,0-1.3-0.1-1.8-0.4c-0.5-0.3-1-0.6-1.3-1c-0.3-0.5-0.5-1-0.5-1.5c0-0.2,0-0.4,0-0.5l0.4-2.4
	c0.1-0.7,0.4-1.3,0.8-1.9c0.5-0.6,1-1,1.7-1.3c0.7-0.3,1.4-0.5,2.2-0.5c0.7,0,1.3,0.1,1.8,0.4c0.5,0.2,0.9,0.6,1.2,1
	c0.3,0.4,0.4,0.9,0.4,1.5c0,0.2,0,0.4-0.1,0.6l-0.2,1c-0.1,0.3-0.2,0.5-0.4,0.7c-0.2,0.2-0.5,0.3-0.8,0.3h-4.8l-0.1,0.4
	c0,0.2,0,0.3,0,0.4c0,0.5,0.1,0.8,0.4,1c0.3,0.2,0.7,0.4,1.2,0.4c0.6,0,1-0.1,1.4-0.4c0.4-0.3,0.6-0.6,0.7-1.1c0.1,0,0.3,0,0.4,0
	c0.4,0,0.7,0.1,1,0.2c0.2,0.1,0.3,0.4,0.3,0.7c0,0.4-0.2,0.8-0.6,1.2c-0.4,0.4-0.9,0.7-1.5,0.9C98.9,71.6,98.3,71.8,97.5,71.8z
	 M100.4,66.1l0.1-0.3c0-0.1,0-0.2,0-0.4c0-0.4-0.1-0.7-0.4-1c-0.3-0.2-0.7-0.3-1.2-0.3c-0.6,0-1,0.2-1.5,0.5
	c-0.4,0.3-0.7,0.7-0.8,1.3l-0.1,0.3H100.4z"/>
<path class="st0" d="M106.1,71.8c-0.9,0-1.6-0.2-2.1-0.7c-0.5-0.5-0.8-1.1-0.8-1.8c0-0.7,0.2-1.3,0.6-1.9c0.4-0.6,0.9-1,1.5-1.3
	c0.7-0.3,1.4-0.5,2.2-0.5c0.5,0,1,0.1,1.4,0.3c0.4,0.2,0.8,0.4,1.1,0.8l0.1-0.1c0,0-0.2-0.2-0.5-0.5l0.1-0.4c0-0.1,0-0.2,0-0.3
	c0-0.4-0.1-0.8-0.4-1c-0.3-0.2-0.7-0.3-1.3-0.3c-0.6,0-1.1,0.1-1.6,0.3c-0.5,0.2-0.9,0.5-1.2,0.9c-0.2-0.1-0.4-0.2-0.6-0.3
	c-0.1-0.2-0.2-0.4-0.2-0.6c0-0.4,0.2-0.8,0.5-1.1c0.4-0.3,0.9-0.6,1.5-0.8c0.6-0.2,1.3-0.3,2-0.3c1.1,0,2,0.2,2.6,0.7s0.9,1.2,0.9,2
	c0,0.2,0,0.4-0.1,0.6l-0.8,4.6c-0.1,0.5-0.3,0.9-0.7,1.2c-0.4,0.2-0.9,0.4-1.7,0.4l0.1-0.8c0.2-0.2,0.4-0.3,0.5-0.5l-0.1-0.1
	c-0.5,0.5-1,0.8-1.5,1C107.3,71.6,106.7,71.8,106.1,71.8z M107,70.1c0.7,0,1.2-0.1,1.7-0.4c0.4-0.3,0.6-0.7,0.6-1.2
	c0-0.4-0.2-0.7-0.5-0.9c-0.3-0.2-0.7-0.3-1.3-0.3c-0.6,0-1.1,0.2-1.5,0.5c-0.4,0.3-0.6,0.7-0.6,1.3C105.4,69.7,105.9,70.1,107,70.1z
	"/>
<path class="st0" d="M116.5,71.8c-0.8,0-1.4-0.2-1.8-0.6c-0.4-0.4-0.6-1-0.6-1.7c0-0.1,0-0.4,0.1-0.8l0.8-4.6H113
	c0.1-0.5,0.3-1,0.5-1.3c0.3-0.3,0.6-0.5,1-0.5h0.7l0.3-1.5c0.1-0.5,0.3-0.8,0.7-1.1c0.4-0.2,1-0.3,1.8-0.3l-0.5,2.9h2.4
	c-0.1,0.6-0.3,1-0.6,1.3c-0.3,0.3-0.7,0.4-1.2,0.4h-0.9l-0.8,4.5c0,0.2,0,0.4,0,0.4c0,0.3,0.1,0.5,0.2,0.6c0.1,0.1,0.4,0.2,0.7,0.2
	c0.4,0,0.9-0.1,1.4-0.3c0.1,0.1,0.1,0.2,0.2,0.3c0,0.1,0.1,0.3,0.1,0.4c0,0.5-0.2,0.9-0.7,1.2C117.8,71.6,117.2,71.8,116.5,71.8z"/>
<path class="st0" d="M134,63.8c0.1-0.5,0.3-0.9,0.8-1.2c0.4-0.3,1-0.4,1.6-0.4l-0.2,1c-0.2,0.2-0.3,0.3-0.4,0.5l0.1,0.1
	c0.5-0.5,1-0.9,1.5-1.2c0.5-0.3,1.1-0.4,1.8-0.4c0.9,0,1.6,0.2,2.1,0.7c0.5,0.5,0.8,1.1,0.8,1.9c0,0.2,0,0.4-0.1,0.6l-0.5,2.9
	c-0.2,1-0.6,1.9-1.4,2.4c-0.8,0.6-1.7,0.9-2.9,0.9c-0.5,0-0.9-0.1-1.4-0.3c-0.4-0.2-0.8-0.5-1-0.8l-0.1,0.1c0.1,0.1,0.2,0.3,0.3,0.4
	l-0.5,2.7c-0.1,0.5-0.4,0.9-0.8,1.1c-0.4,0.3-1,0.4-1.8,0.4L134,63.8z M137.1,69.8c0.6,0,1.1-0.1,1.5-0.4c0.4-0.3,0.6-0.6,0.7-1.1
	l0.5-2.6c0-0.1,0-0.2,0-0.3c0-0.4-0.1-0.7-0.4-0.9c-0.3-0.2-0.7-0.3-1.2-0.3c-0.5,0-1,0.1-1.4,0.4c-0.4,0.3-0.6,0.6-0.7,1l-0.5,2.8
	c0,0,0,0.1,0,0.2c0,0.3,0.2,0.6,0.5,0.8C136.2,69.7,136.6,69.8,137.1,69.8z"/>
<path class="st0" d="M145.8,71.8c-0.8,0-1.4-0.2-1.9-0.7c-0.5-0.5-0.7-1-0.7-1.8c0-0.2,0-0.4,0.1-0.6l1.5-8.7
	c0.1-0.5,0.3-0.8,0.7-1.1c0.4-0.2,1-0.3,1.8-0.3l-1.8,10c0,0.1,0,0.2,0,0.4c0,0.3,0.1,0.5,0.2,0.6c0.2,0.1,0.4,0.2,0.8,0.2
	c0.4,0,0.9-0.1,1.4-0.3c0.2,0.2,0.3,0.4,0.3,0.7c0,0.5-0.2,0.8-0.7,1.2C147,71.6,146.5,71.8,145.8,71.8z"/>
<path class="st0" d="M152.1,71.8c-0.9,0-1.6-0.2-2.1-0.7c-0.5-0.5-0.8-1.1-0.8-1.8c0-0.7,0.2-1.3,0.6-1.9s0.9-1,1.5-1.3
	c0.7-0.3,1.4-0.5,2.2-0.5c0.5,0,1,0.1,1.4,0.3c0.4,0.2,0.8,0.4,1.1,0.8l0.1-0.1c0,0-0.2-0.2-0.5-0.5l0.1-0.4c0-0.1,0-0.2,0-0.3
	c0-0.4-0.1-0.8-0.4-1c-0.3-0.2-0.7-0.3-1.3-0.3c-0.6,0-1.1,0.1-1.6,0.3c-0.5,0.2-0.9,0.5-1.2,0.9c-0.2-0.1-0.4-0.2-0.6-0.3
	c-0.1-0.2-0.2-0.4-0.2-0.6c0-0.4,0.2-0.8,0.5-1.1c0.4-0.3,0.9-0.6,1.5-0.8c0.6-0.2,1.3-0.3,2-0.3c1.1,0,2,0.2,2.6,0.7
	c0.6,0.5,0.9,1.2,0.9,2c0,0.2,0,0.4-0.1,0.6l-0.8,4.6c-0.1,0.5-0.3,0.9-0.7,1.2c-0.4,0.2-0.9,0.4-1.7,0.4l0.1-0.8
	c0.2-0.2,0.4-0.3,0.5-0.5l-0.1-0.1c-0.5,0.5-1,0.8-1.5,1C153.3,71.6,152.8,71.8,152.1,71.8z M153,70.1c0.7,0,1.2-0.1,1.7-0.4
	c0.4-0.3,0.6-0.7,0.6-1.2c0-0.4-0.2-0.7-0.5-0.9c-0.3-0.2-0.7-0.3-1.3-0.3c-0.6,0-1.1,0.2-1.5,0.5c-0.4,0.3-0.6,0.7-0.6,1.3
	C151.4,69.7,151.9,70.1,153,70.1z"/>
<path class="st0" d="M158.6,75.4c-0.4,0-0.7-0.1-1-0.4c-0.2-0.2-0.3-0.6-0.3-1c0-0.2,0-0.3,0.1-0.6c0.3,0.1,0.6,0.1,0.9,0.1
	c0.5,0,0.9-0.1,1.2-0.4c0.3-0.2,0.7-0.7,1.2-1.5l0.4-0.7l-2-8.7c0.1,0,0.2-0.1,0.4-0.1c0.2,0,0.4-0.1,0.6-0.1c0.4,0,0.7,0.1,0.9,0.2
	c0.3,0.2,0.4,0.4,0.5,0.6l1.1,5.2l-0.4,0.9l0.1,0.1l3.5-6.1c0.1-0.3,0.4-0.5,0.7-0.6c0.3-0.2,0.6-0.2,1-0.2c0.2,0,0.4,0,0.6,0.1
	c0.2,0,0.4,0.1,0.4,0.1l-5.9,10c-0.6,1.1-1.2,1.8-1.8,2.3C160.1,75.2,159.4,75.4,158.6,75.4z"/>
<path class="st0" d="M184.9,71.8c-0.7,0-1.3-0.1-1.8-0.4c-0.5-0.3-1-0.6-1.3-1c-0.3-0.5-0.5-1-0.5-1.5c0-0.2,0-0.4,0-0.5l0.4-2.4
	c0.1-0.7,0.4-1.3,0.8-1.9c0.5-0.6,1-1,1.7-1.3c0.7-0.3,1.4-0.5,2.2-0.5c0.7,0,1.3,0.1,1.8,0.4c0.5,0.2,0.9,0.6,1.2,1
	c0.3,0.4,0.4,0.9,0.4,1.5c0,0.2,0,0.4-0.1,0.6l-0.2,1c-0.1,0.3-0.2,0.5-0.4,0.7c-0.2,0.2-0.5,0.3-0.8,0.3h-4.8l-0.1,0.4
	c0,0.2,0,0.3,0,0.4c0,0.5,0.1,0.8,0.4,1c0.3,0.2,0.7,0.4,1.2,0.4c0.6,0,1-0.1,1.4-0.4c0.4-0.3,0.6-0.6,0.7-1.1c0.1,0,0.3,0,0.4,0
	c0.4,0,0.7,0.1,1,0.2c0.2,0.1,0.4,0.4,0.4,0.7c0,0.4-0.2,0.8-0.6,1.2c-0.4,0.4-0.9,0.7-1.5,0.9C186.4,71.6,185.7,71.8,184.9,71.8z
	 M187.8,66.1l0.1-0.3c0-0.1,0-0.2,0-0.4c0-0.4-0.1-0.7-0.4-1c-0.3-0.2-0.7-0.3-1.2-0.3c-0.6,0-1,0.2-1.5,0.5
	c-0.4,0.3-0.7,0.7-0.8,1.3l-0.1,0.3H187.8z"/>
<path class="st0" d="M193.5,71.8c-0.9,0-1.6-0.2-2.1-0.7c-0.5-0.5-0.8-1.1-0.8-1.8c0-0.7,0.2-1.3,0.6-1.9s0.9-1,1.5-1.3
	c0.7-0.3,1.4-0.5,2.2-0.5c0.5,0,1,0.1,1.4,0.3c0.4,0.2,0.8,0.4,1.1,0.8l0.1-0.1c0,0-0.2-0.2-0.5-0.5l0.1-0.4c0-0.1,0-0.2,0-0.3
	c0-0.4-0.1-0.8-0.4-1c-0.3-0.2-0.7-0.3-1.3-0.3s-1.1,0.1-1.6,0.3c-0.5,0.2-0.9,0.5-1.2,0.9c-0.2-0.1-0.4-0.2-0.6-0.3
	c-0.1-0.2-0.2-0.4-0.2-0.6c0-0.4,0.2-0.8,0.5-1.1c0.4-0.3,0.9-0.6,1.5-0.8c0.6-0.2,1.3-0.3,2-0.3c1.1,0,2,0.2,2.6,0.7
	c0.6,0.5,0.9,1.2,0.9,2c0,0.2,0,0.4-0.1,0.6l-0.8,4.6c-0.1,0.5-0.3,0.9-0.7,1.2c-0.4,0.2-0.9,0.4-1.7,0.4l0.1-0.8
	c0.2-0.2,0.4-0.3,0.5-0.5l-0.1-0.1c-0.5,0.5-1,0.8-1.5,1C194.7,71.6,194.1,71.8,193.5,71.8z M194.4,70.1c0.7,0,1.2-0.1,1.7-0.4
	c0.4-0.3,0.6-0.7,0.6-1.2c0-0.4-0.2-0.7-0.5-0.9c-0.3-0.2-0.7-0.3-1.3-0.3c-0.6,0-1.1,0.2-1.5,0.5c-0.4,0.3-0.6,0.7-0.6,1.3
	C192.8,69.7,193.3,70.1,194.4,70.1z"/>
<path class="st0" d="M206.5,64.2c-0.7,0-1.3,0.2-1.9,0.6c-0.5,0.4-0.8,0.9-0.9,1.5l-0.7,4.1c-0.1,0.5-0.4,0.8-0.8,1.1
	c-0.4,0.2-1,0.3-1.8,0.3l1.4-7.8c0.1-0.6,0.4-1,0.8-1.3c0.4-0.3,1-0.5,1.7-0.5l-0.2,1.1c-0.3,0.3-0.5,0.5-0.6,0.6l0.1,0.1
	c1-1.2,2.1-1.8,3.2-1.8c0.4,0,0.8,0.1,1,0.3c0.2,0.2,0.4,0.5,0.4,0.8c0,0.2,0,0.4-0.1,0.6c-0.1,0.2-0.2,0.4-0.3,0.5
	C207.5,64.3,207.1,64.2,206.5,64.2z"/>
<path class="st0" d="M209.7,64c0.1-0.6,0.4-1,0.8-1.3c0.4-0.3,1-0.5,1.7-0.5l-0.2,1.1c-0.3,0.3-0.5,0.5-0.6,0.6l0.1,0.1
	c0.5-0.6,1-1,1.7-1.3c0.6-0.3,1.3-0.5,2-0.5c0.8,0,1.4,0.3,1.9,0.8c0.5,0.5,0.7,1.1,0.7,1.9c0,0.2,0,0.4-0.1,0.6l-0.9,4.9
	c-0.1,0.5-0.3,0.8-0.8,1.1c-0.4,0.2-1,0.3-1.8,0.3l1-6c0-0.2,0-0.3,0-0.4c0-0.8-0.5-1.2-1.4-1.2c-0.6,0-1.2,0.2-1.6,0.6
	c-0.5,0.4-0.8,0.9-0.9,1.4l-0.7,4.1c-0.1,0.5-0.4,0.8-0.8,1.1c-0.4,0.2-1,0.3-1.8,0.3L209.7,64z"/>
<path class="st0" d="M127.8,67.8c0,1.1-0.9,2-2,2c-1.1,0-2-0.9-2-2c0-1.1,0.9-2,2-2C126.9,65.8,127.8,66.7,127.8,67.8z"/>
<path class="st0" d="M176.1,67.8c0,1.1-0.9,2-2,2s-2-0.9-2-2c0-1.1,0.9-2,2-2S176.1,66.7,176.1,67.8z"/>
</svg>
