<svg width="36" height="36" viewBox="0 0 36 36" fill="none" xmlns="http://www.w3.org/2000/svg">
<path d="M18.0002 13.3134C15.4197 13.3134 13.3138 15.4193 13.3138 17.9998C13.3138 20.5802 15.4197 22.6861 18.0002 22.6861C20.5806 22.6861 22.6865 20.5802 22.6865 17.9998C22.6865 15.4193 20.5806 13.3134 18.0002 13.3134ZM32.0556 17.9998C32.0556 16.0592 32.0732 14.1361 31.9642 12.199C31.8552 9.949 31.342 7.95212 29.6967 6.30681C28.0478 4.65798 26.0545 4.14821 23.8045 4.03923C21.8638 3.93024 19.9408 3.94782 18.0037 3.94782C16.0631 3.94782 14.14 3.93024 12.2029 4.03923C9.9529 4.14821 7.95603 4.66149 6.31071 6.30681C4.66189 7.95564 4.15212 9.949 4.04314 12.199C3.93415 14.1396 3.95173 16.0627 3.95173 17.9998C3.95173 19.9369 3.93415 21.8634 4.04314 23.8006C4.15212 26.0506 4.6654 28.0474 6.31071 29.6927C7.95954 31.3416 9.9529 31.8513 12.2029 31.9603C14.1435 32.0693 16.0666 32.0517 18.0037 32.0517C19.9443 32.0517 21.8674 32.0693 23.8045 31.9603C26.0545 31.8513 28.0513 31.3381 29.6967 29.6927C31.3455 28.0439 31.8552 26.0506 31.9642 23.8006C32.0767 21.8634 32.0556 19.9404 32.0556 17.9998ZM18.0002 25.2103C14.0099 25.2103 10.7896 21.99 10.7896 17.9998C10.7896 14.0095 14.0099 10.7892 18.0002 10.7892C21.9904 10.7892 25.2107 14.0095 25.2107 17.9998C25.2107 21.99 21.9904 25.2103 18.0002 25.2103ZM25.506 12.1779C24.5744 12.1779 23.822 11.4256 23.822 10.4939C23.822 9.56228 24.5744 8.80993 25.506 8.80993C26.4377 8.80993 27.19 9.56228 27.19 10.4939C27.1903 10.7151 27.1469 10.9342 27.0624 11.1387C26.9779 11.3431 26.8538 11.5289 26.6974 11.6853C26.541 11.8417 26.3552 11.9658 26.1508 12.0503C25.9464 12.1348 25.7272 12.1782 25.506 12.1779Z" fill="white"/>
</svg>
