<svg width="36" height="36" viewBox="0 0 36 36" fill="none" xmlns="http://www.w3.org/2000/svg">
<path d="M28.9127 7.9874C26.8877 7.0874 24.7502 6.4124 22.5002 5.9624H22.3877C22.1627 6.4124 21.8252 7.0874 21.6002 7.6499C19.1252 7.3124 16.7627 7.3124 14.4002 7.6499C14.1752 7.0874 13.8377 6.5249 13.6127 5.9624H13.5002C11.2502 6.2999 9.11271 6.9749 7.08771 7.9874C3.03771 14.0624 1.91271 20.0249 2.47521 25.8749V25.9874C5.17521 28.0124 7.76271 29.1374 10.3502 29.9249H10.4627C11.0252 29.1374 11.5877 28.2374 12.0377 27.3374V27.2249C11.1377 26.8874 10.3502 26.5499 9.56271 26.0999C9.45021 26.0999 9.45021 25.9874 9.56271 25.9874C9.67521 25.8749 9.90021 25.7624 10.0127 25.6499H10.1252C15.3002 28.0124 20.8127 28.0124 25.9877 25.6499H26.1002C26.2127 25.7624 26.4377 25.8749 26.5502 25.9874C26.6627 25.9874 26.5502 26.0999 26.5502 26.0999C25.7627 26.5499 24.9752 26.9999 24.0752 27.2249C24.0752 27.2249 23.9627 27.3374 24.0752 27.3374C24.5252 28.2374 25.0877 29.1374 25.6502 29.9249H25.7627C28.3502 29.1374 30.9377 27.8999 33.6377 25.9874V25.8749C34.3127 19.1249 32.5127 13.2749 28.9127 7.9874ZM12.8252 22.3874C11.2502 22.3874 10.0127 20.9249 10.0127 19.2374C10.0127 17.5499 11.2502 16.0874 12.8252 16.0874C14.4002 16.0874 15.6377 17.5499 15.6377 19.2374C15.6377 20.9249 14.4002 22.3874 12.8252 22.3874ZM23.2877 22.3874C21.7127 22.3874 20.4752 20.9249 20.4752 19.2374C20.4752 17.5499 21.7127 16.0874 23.2877 16.0874C24.8627 16.0874 26.1002 17.5499 26.1002 19.2374C26.1002 20.9249 24.8627 22.3874 23.2877 22.3874Z" fill="white"/>
</svg>
