<?xml version="1.0" encoding="utf-8"?>
<!-- Generator: Adobe Illustrator 26.3.1, SVG Export Plug-In . SVG Version: 6.00 Build 0)  -->
<svg version="1.1" xmlns="http://www.w3.org/2000/svg" xmlns:xlink="http://www.w3.org/1999/xlink" x="0px" y="0px"
	 viewBox="0 0 69 31" style="enable-background:new 0 0 69 31;" xml:space="preserve">
<g id="Layer_1">
	<path d="M0.7,22c0.5,0.4,1.1,0.6,1.8,0.6c0.9,0,1.7-0.3,2.4-1c0.7-0.7,1-1.4,1-2.4c0-0.7-0.2-1.2-0.7-1.7c-0.5-0.4-1-0.6-1.8-0.6
		c-1,0-1.8,0.3-2.5,1c-0.7,0.6-1,1.4-1,2.3C0,21,0.2,21.6,0.7,22z"/>
</g>
<g id="Layer_2">
	<path d="M21.3,13.8v2.1h7.8v-2.1H21.3z M16.1,25.4v2.1h18.1v-2.1H16.1z M17.4,8.9v2h5.9v-2H17.4z M22.4,8.9v0.4
		c-1.2,3.1-4.3,6-7.4,7.3c0.5,0.4,1.2,1.3,1.5,1.8c3.5-1.7,6.8-4.7,8.4-8.8l-1.6-0.8l-0.4,0.1H22.4z M27.2,8.2l-2.1,0.7
		c1.7,4.2,4.6,7.5,8.5,9.3c0.4-0.7,1.1-1.6,1.7-2.1C31.6,14.7,28.7,11.6,27.2,8.2z M16.4,12.7c0.9,0.6,2,1.5,2.6,2.1l1.4-1.5
		c-0.5-0.6-1.7-1.4-2.6-2L16.4,12.7z M30.5,8.3c-0.8,0.9-2.2,2.1-3.2,2.9l1.5,1.2c1-0.7,2.4-1.7,3.6-2.7L30.5,8.3z M32.8,10.8
		c-0.9,1-2.3,2.2-3.4,3l1.5,1.2c1.1-0.7,2.6-1.8,3.8-2.8L32.8,10.8z M21.5,19.1h7.2v1.8h-7.2V19.1z M19,17.1v5.9h12.2v-5.9H19z
		 M20.3,23.2c0.5,0.8,0.9,1.9,1.1,2.6l2.4-0.7c-0.2-0.7-0.7-1.8-1.2-2.5L20.3,23.2z M27.8,22.6c-0.3,0.8-0.8,1.9-1.2,2.7l2.2,0.5
		c0.4-0.7,0.9-1.6,1.4-2.6L27.8,22.6z M40.5,9.3v2.6h5.9V9.3H40.5z M45.2,9.3c0,4.3,0.9,13.7,8.9,18.5c0.4-0.6,1.4-1.7,2-2.2
		c-7.8-4.6-8.4-12.3-8.4-16.3H45.2z M44.3,13.9c-1.1,5.6-3.7,9.6-8,11.9c0.7,0.5,1.8,1.5,2.3,2.1c4.4-2.6,7.2-7.2,8.7-13.4
		L44.3,13.9z"/>
</g>
</svg>
