<svg width="229" height="76" viewBox="0 0 229 76" fill="none" xmlns="http://www.w3.org/2000/svg">
<path d="M35.8587 31.7409C34.8977 28.2055 32.5291 23.9631 27.1248 21.0499C24.1683 19.4548 22.2406 16.4115 21.0874 12.8874C19.9399 9.38035 19.6742 5.73184 19.7816 3.52576C19.8494 2.12858 18.7754 0.940694 17.3791 0.872814C15.9828 0.804935 14.7957 1.87969 14.7278 3.27687C14.5922 6.00901 14.9087 10.2798 16.2767 14.46C17.6391 18.6233 20.166 23.0524 24.7223 25.5073C28.7077 27.6569 30.3131 30.6435 30.9745 33.0702C31.3137 34.309 31.4041 35.4234 31.4154 36.221C31.4154 36.6169 31.4041 36.928 31.3872 37.126C31.3815 37.2278 31.3702 37.2957 31.3646 37.3353V37.3693C31.3646 37.3693 31.3589 37.4145 31.3533 37.4541C31.342 37.5276 31.3137 37.6521 31.2798 37.8105C31.2063 38.1329 31.0876 38.5911 30.9067 39.1285C30.5336 40.2258 29.9457 41.5155 29.0525 42.562C28.1932 43.5689 27.0909 44.3212 25.5816 44.5418C24.0326 44.7624 21.7319 44.4683 18.4249 42.7317C13.8573 40.3333 8.95048 40.684 5.36084 43.2182C1.76554 45.758 -0.196045 50.2833 0.674514 55.5043C0.906286 56.8845 2.20647 57.8122 3.5858 57.586C4.96513 57.354 5.89222 56.053 5.6661 54.6728C5.08949 51.2223 6.38403 48.6938 8.28908 47.3475C10.2111 45.9899 13.0715 45.6222 16.0845 47.2061C20.0021 49.2651 23.3939 49.9609 26.3108 49.5423C29.273 49.118 31.4211 47.5851 32.9078 45.8372C34.3663 44.1289 35.2199 42.183 35.7061 40.7406C35.9548 40.0052 36.1187 39.3717 36.2205 38.9078C36.2714 38.6759 36.3109 38.4893 36.3335 38.3478C36.3448 38.28 36.3561 38.2234 36.3618 38.1782V38.1272L36.3731 38.1103V38.0876L36.3844 38.048C36.3844 38.0141 36.3957 37.9745 36.4014 37.9236C36.4127 37.8218 36.4296 37.686 36.4409 37.522C36.4692 37.1882 36.4918 36.7244 36.4862 36.1587C36.4749 35.0331 36.3392 33.4775 35.8643 31.7409H35.8587Z" fill="black"/>
<path d="M40.3076 72.0782C39.9966 72.0782 39.6801 72.0725 39.3635 72.0555C32.3877 71.7388 25.8925 67.9375 20.0416 60.7706C17.9783 58.7625 15.7623 58.4514 13.9364 59.9278C11.9579 61.5286 11.0703 64.8773 13.2015 68.1751C13.959 69.346 13.6255 70.9129 12.4553 71.6766C11.2851 72.4345 9.71927 72.1008 8.95612 70.9299C6.1805 66.6422 5.86959 59.9504 10.7538 56.0021C15.2083 52.3988 20.4656 54.0506 23.6991 57.2861C23.7613 57.3484 23.8178 57.4106 23.8743 57.4785C28.7811 63.5367 34.0554 66.7383 39.5444 67.0042C47.583 67.4171 53.6373 61.3363 53.6995 61.274C54.6774 60.2785 56.2772 60.2672 57.2722 61.2401C58.2671 62.2187 58.284 63.8139 57.3117 64.8094C57.0121 65.1149 50.1098 72.0782 40.3019 72.0782H40.3076ZM66.2095 47.1382C65.8704 47.1382 65.5312 47.0703 65.2033 46.9289C63.9257 46.3689 63.3378 44.8812 63.8918 43.5971C68.6968 32.5498 63.5526 19.2228 55.7402 13.6963C49.5502 9.3181 42.6535 10.1722 36.3222 16.0947C35.9943 16.4058 35.5873 16.6151 35.1464 16.7169C33.0548 17.1808 31.1271 16.7283 29.5725 15.4046C25.5194 11.9597 25.8416 4.13665 25.8925 3.25987C25.9716 1.86269 27.1644 0.79359 28.5607 0.872783C29.9569 0.951975 31.0197 2.14552 30.9406 3.5427C30.771 6.47283 31.455 10.3646 32.8456 11.5468C32.9983 11.6769 33.1791 11.8014 33.4957 11.824C41.3986 4.83241 50.7486 3.9726 58.6571 9.56133C68.058 16.2022 74.5025 31.8767 68.5273 45.6109C68.1146 46.5612 67.1818 47.1325 66.2095 47.1325V47.1382Z" fill="black"/>
<path d="M51.0426 31.9559C50.0024 31.9559 49.0301 31.311 48.6627 30.2758L46.8537 25.2132C46.3845 23.8952 47.0685 22.4471 48.3857 21.9776C49.7028 21.5081 51.15 22.1925 51.6192 23.5105L53.4281 28.5732C53.8973 29.8912 53.2133 31.3393 51.8962 31.8088C51.6135 31.9106 51.3252 31.9559 51.0482 31.9559H51.0426Z" fill="black"/>
<path d="M60.4322 31.9559C59.392 31.9559 58.4197 31.311 58.0523 30.2758L56.2433 25.2132C55.7741 23.8952 56.4581 22.4471 57.7753 21.9776C59.0924 21.5081 60.5396 22.1925 61.0088 23.5105L62.8177 28.5732C63.2869 29.8912 62.6029 31.3393 61.2858 31.8088C61.0031 31.9106 60.7148 31.9559 60.4378 31.9559H60.4322Z" fill="black"/>
<path d="M35.8643 62.8127C34.7281 62.8127 33.6427 62.5751 32.693 62.1508C29.4651 60.7084 28.0067 57.3257 29.1373 53.9261C30.2622 50.5435 33.2639 49.2651 35.6778 48.2412C38.9339 46.8554 39.5953 46.335 39.1657 43.9705C38.9282 42.6751 39.7253 41.4194 40.9916 41.0743C42.2578 40.7293 43.5806 41.4137 44.0272 42.6525C44.0442 42.7034 46.2884 48.6033 51.4496 50.7528C54.5418 52.0425 58.188 51.7483 62.2751 49.8873C63.547 49.3103 65.045 49.8703 65.6216 51.1431C66.1982 52.4158 65.6386 53.9148 64.3667 54.4918C58.9228 56.9694 53.9086 57.2748 49.4541 55.4025C46.3789 54.1071 44.0951 51.9689 42.4783 49.9212C41.0594 51.4485 39.1091 52.2744 37.6507 52.8966C35.5986 53.7677 34.3154 54.3617 33.931 55.5213C33.5409 56.6979 34.1628 57.2635 34.7563 57.5237C36.1809 58.1629 38.4873 57.5011 40.1775 54.5483C40.8729 53.3322 42.4161 52.9136 43.6259 53.6037C44.8412 54.2995 45.2596 55.8437 44.5699 57.0542C42.2183 61.1722 38.8491 62.8013 35.8643 62.8013V62.8127Z" fill="black"/>
<path d="M98.8527 51.7211C96.4632 51.7211 94.3297 51.2731 92.4522 50.377C90.5747 49.4809 89.1026 48.2648 88.0358 46.7287C86.969 45.1499 86.4357 43.4004 86.4357 41.4803C86.4357 40.7122 86.4783 40.1362 86.5637 39.7521L88.0998 31.2394C88.5265 28.7646 89.5079 26.567 91.0441 24.6469C92.6229 22.7267 94.5857 21.2333 96.9325 20.1665C99.3221 19.0997 101.925 18.5664 104.741 18.5664C107.088 18.5664 109.158 18.9931 110.95 19.8465C112.742 20.6999 114.129 21.8947 115.11 23.4308C116.091 24.9669 116.582 26.7164 116.582 28.6792C116.582 29.3619 116.518 30.0873 116.39 30.8554L115.75 34.4397C115.537 35.4211 115.025 36.2318 114.214 36.8719C113.446 37.4693 112.529 37.768 111.462 37.768H94.6924L94.4363 39.1761C94.351 39.7735 94.3083 40.2002 94.3083 40.4562C94.3083 42.035 94.799 43.2511 95.7804 44.1045C96.7619 44.9579 98.17 45.3846 100.005 45.3846C102.01 45.3846 103.653 44.9366 104.933 44.0405C106.213 43.1444 106.981 41.907 107.237 40.3282C107.621 40.2855 108.133 40.2642 108.774 40.2642C110.224 40.2642 111.334 40.5415 112.102 41.0962C112.913 41.6083 113.318 42.3763 113.318 43.4004C113.318 44.8512 112.657 46.2167 111.334 47.4968C110.011 48.7769 108.24 49.801 106.021 50.569C103.802 51.3371 101.413 51.7211 98.8527 51.7211ZM108.902 32.0715L109.158 30.8554C109.243 30.514 109.286 30.0233 109.286 29.3833C109.286 27.9325 108.795 26.8231 107.813 26.055C106.832 25.2443 105.424 24.8389 103.589 24.8389C101.626 24.8389 99.9408 25.3936 98.5327 26.503C97.1246 27.5698 96.2498 29.0206 95.9085 30.8554L95.6524 32.0715H108.902Z" fill="black"/>
<path d="M128.526 51.7211C125.496 51.7211 123.021 50.9317 121.101 49.3529C119.224 47.7315 118.285 45.6406 118.285 43.0804C118.285 40.6055 118.925 38.3867 120.205 36.4239C121.485 34.461 123.277 32.9249 125.581 31.8155C127.886 30.706 130.489 30.1513 133.39 30.1513C135.268 30.1513 136.932 30.45 138.382 31.0474C139.833 31.6448 141.156 32.5835 142.351 33.8636L142.671 33.5436C142.543 33.3729 141.988 32.7969 141.007 31.8155L141.199 30.5354C141.241 30.2793 141.263 29.8953 141.263 29.3833C141.263 27.8898 140.751 26.7591 139.727 25.991C138.703 25.2229 137.209 24.8389 135.246 24.8389C133.283 24.8389 131.47 25.2229 129.806 25.991C128.184 26.7164 126.819 27.7831 125.709 29.1913C124.899 28.9779 124.237 28.5725 123.725 27.9752C123.213 27.3778 122.957 26.7377 122.957 26.055C122.957 24.6895 123.576 23.4308 124.813 22.2787C126.093 21.1266 127.8 20.2305 129.934 19.5905C132.11 18.9077 134.478 18.5664 137.038 18.5664C140.879 18.5664 143.887 19.4198 146.063 21.1266C148.239 22.8334 149.327 25.1589 149.327 28.1032C149.327 28.8286 149.263 29.5753 149.135 30.3433L146.319 46.3447C145.978 48.2222 145.146 49.5876 143.823 50.441C142.5 51.2944 140.537 51.7211 137.934 51.7211L138.382 49.0969C139.193 48.4569 139.812 47.9235 140.239 47.4968L139.983 47.1767C138.233 48.7555 136.441 49.9076 134.606 50.633C132.814 51.3584 130.787 51.7211 128.526 51.7211ZM131.662 45.8966C134.051 45.8966 135.972 45.3846 137.422 44.3605C138.873 43.2938 139.599 41.8856 139.599 40.1362C139.599 38.8134 139.044 37.7893 137.934 37.0639C136.868 36.3385 135.374 35.9758 133.454 35.9758C131.278 35.9758 129.507 36.5305 128.142 37.64C126.819 38.7494 126.157 40.2002 126.157 41.9923C126.157 44.5952 127.992 45.8966 131.662 45.8966Z" fill="black"/>
<path d="M164.887 51.7211C162.156 51.7211 160.044 51.0171 158.55 49.609C157.099 48.1582 156.374 46.1527 156.374 43.5924C156.374 43.1231 156.459 42.2483 156.63 40.9682L159.382 25.0949H152.854C153.152 23.2174 153.75 21.7666 154.646 20.7426C155.585 19.6758 156.737 19.1424 158.102 19.1424H160.598L161.494 13.83C161.793 12.1232 162.625 10.8857 163.991 10.1177C165.399 9.34961 167.447 8.96558 170.135 8.96558L168.343 19.1424H176.856C176.514 21.2333 175.832 22.7481 174.808 23.6868C173.826 24.6255 172.439 25.0949 170.647 25.0949H167.383L164.631 40.6482C164.545 41.4163 164.503 41.907 164.503 42.1203C164.503 43.0591 164.759 43.7418 165.271 44.1685C165.783 44.5952 166.615 44.8086 167.767 44.8086C169.218 44.8086 170.818 44.4032 172.567 43.5924C172.823 43.8485 173.015 44.1898 173.143 44.6165C173.314 45.0432 173.399 45.4913 173.399 45.9606C173.399 47.5821 172.567 48.9476 170.903 50.057C169.282 51.1664 167.276 51.7211 164.887 51.7211Z" fill="black"/>
<path d="M190.245 15.5581C188.923 15.5581 187.834 15.1954 186.981 14.47C186.128 13.702 185.701 12.7206 185.701 11.5258C185.701 9.94699 186.32 8.60288 187.557 7.49345C188.795 6.34136 190.267 5.76531 191.973 5.76531C193.296 5.76531 194.363 6.12801 195.174 6.8534C196.027 7.5788 196.454 8.53887 196.454 9.73364C196.454 11.3124 195.835 12.6779 194.598 13.83C193.36 14.9821 191.909 15.5581 190.245 15.5581ZM184.805 23.4308C185.104 21.7666 185.957 20.5505 187.365 19.7825C188.816 18.9717 190.907 18.5664 193.638 18.5664L188.645 46.8567C188.346 48.5635 187.493 49.801 186.085 50.569C184.677 51.3371 182.586 51.7211 179.812 51.7211L184.805 23.4308Z" fill="black"/>
<path d="M210.674 51.7211C208.285 51.7211 206.151 51.2731 204.274 50.377C202.396 49.4809 200.924 48.2648 199.858 46.7287C198.791 45.1499 198.257 43.4004 198.257 41.4803C198.257 40.7122 198.3 40.1362 198.385 39.7521L199.922 31.2394C200.348 28.7646 201.33 26.567 202.866 24.6469C204.445 22.7267 206.407 21.2333 208.754 20.1665C211.144 19.0997 213.747 18.5664 216.563 18.5664C218.91 18.5664 220.979 18.9931 222.771 19.8465C224.564 20.6999 225.95 21.8947 226.932 23.4308C227.913 24.9669 228.404 26.7164 228.404 28.6792C228.404 29.3619 228.34 30.0873 228.212 30.8554L227.572 34.4397C227.359 35.4211 226.846 36.2318 226.036 36.8719C225.268 37.4693 224.35 37.768 223.284 37.768H206.514L206.258 39.1761C206.173 39.7735 206.13 40.2002 206.13 40.4562C206.13 42.035 206.621 43.2511 207.602 44.1045C208.584 44.9579 209.992 45.3846 211.827 45.3846C213.832 45.3846 215.475 44.9366 216.755 44.0405C218.035 43.1444 218.803 41.907 219.059 40.3282C219.443 40.2855 219.955 40.2642 220.595 40.2642C222.046 40.2642 223.156 40.5415 223.924 41.0962C224.734 41.6083 225.14 42.3763 225.14 43.4004C225.14 44.8512 224.478 46.2167 223.156 47.4968C221.833 48.7769 220.062 49.801 217.843 50.569C215.624 51.3371 213.235 51.7211 210.674 51.7211ZM220.723 32.0715L220.979 30.8554C221.065 30.514 221.107 30.0233 221.107 29.3833C221.107 27.9325 220.617 26.8231 219.635 26.055C218.654 25.2443 217.246 24.8389 215.411 24.8389C213.448 24.8389 211.763 25.3936 210.354 26.503C208.946 27.5698 208.072 29.0206 207.73 30.8554L207.474 32.0715H220.723Z" fill="black"/>
<path d="M97.521 71.7511C96.8339 71.7511 96.2204 71.6223 95.6806 71.3646C95.1407 71.1069 94.7174 70.7573 94.4107 70.3156C94.1039 69.8616 93.9506 69.3585 93.9506 68.8064C93.9506 68.5856 93.9628 68.4199 93.9874 68.3095L94.4291 65.8618C94.5518 65.1501 94.834 64.5183 95.2757 63.9661C95.7296 63.414 96.294 62.9846 96.9689 62.6778C97.6559 62.3711 98.4044 62.2177 99.2142 62.2177C99.889 62.2177 100.484 62.3404 100.999 62.5858C101.515 62.8312 101.913 63.1748 102.196 63.6165C102.478 64.0582 102.619 64.5612 102.619 65.1256C102.619 65.3219 102.601 65.5305 102.564 65.7513L102.38 66.782C102.318 67.0642 102.171 67.2973 101.938 67.4813C101.717 67.6531 101.453 67.739 101.147 67.739H96.3247L96.2511 68.1439C96.2266 68.3156 96.2143 68.4383 96.2143 68.512C96.2143 68.9659 96.3554 69.3156 96.6376 69.561C96.9198 69.8064 97.3247 69.9291 97.8523 69.9291C98.4289 69.9291 98.9013 69.8002 99.2694 69.5426C99.6375 69.2849 99.8583 68.9291 99.9319 68.4752C100.042 68.4629 100.19 68.4567 100.374 68.4567C100.791 68.4567 101.11 68.5365 101.331 68.696C101.564 68.8432 101.68 69.0641 101.68 69.3585C101.68 69.7757 101.49 70.1683 101.11 70.5364C100.729 70.9045 100.22 71.199 99.5822 71.4198C98.9442 71.6407 98.2571 71.7511 97.521 71.7511ZM100.41 66.101L100.484 65.7513C100.509 65.6532 100.521 65.5121 100.521 65.328C100.521 64.9109 100.38 64.5919 100.098 64.371C99.8154 64.1379 99.4105 64.0213 98.8829 64.0213C98.3185 64.0213 97.8338 64.1809 97.429 64.4999C97.0241 64.8066 96.7725 65.2237 96.6744 65.7513L96.6008 66.101H100.41Z" fill="black"/>
<path d="M106.053 71.7511C105.182 71.7511 104.47 71.5241 103.918 71.0701C103.378 70.6039 103.108 70.0027 103.108 69.2665C103.108 68.5549 103.293 67.9169 103.661 67.3525C104.029 66.7881 104.544 66.3464 105.207 66.0274C105.869 65.7084 106.618 65.5489 107.452 65.5489C107.992 65.5489 108.47 65.6348 108.887 65.8065C109.305 65.9783 109.685 66.2483 110.028 66.6163L110.12 66.5243C110.084 66.4752 109.924 66.3096 109.642 66.0274L109.697 65.6593C109.709 65.5857 109.716 65.4753 109.716 65.328C109.716 64.8986 109.568 64.5735 109.274 64.3526C108.979 64.1318 108.55 64.0213 107.986 64.0213C107.421 64.0213 106.9 64.1318 106.421 64.3526C105.955 64.5612 105.562 64.8679 105.243 65.2728C105.01 65.2115 104.82 65.0949 104.673 64.9231C104.526 64.7514 104.452 64.5673 104.452 64.371C104.452 63.9784 104.63 63.6165 104.986 63.2852C105.354 62.9539 105.845 62.6962 106.458 62.5122C107.084 62.3159 107.765 62.2177 108.501 62.2177C109.605 62.2177 110.47 62.4631 111.096 62.9539C111.722 63.4447 112.035 64.1134 112.035 64.96C112.035 65.1685 112.016 65.3833 111.979 65.6041L111.17 70.2051C111.071 70.745 110.832 71.1376 110.452 71.383C110.071 71.6284 109.507 71.7511 108.759 71.7511L108.887 70.9965C109.121 70.8125 109.298 70.6591 109.421 70.5364L109.348 70.4444C108.844 70.8984 108.329 71.2296 107.802 71.4382C107.286 71.6468 106.703 71.7511 106.053 71.7511ZM106.955 70.0763C107.642 70.0763 108.194 69.9291 108.611 69.6346C109.028 69.3279 109.237 68.923 109.237 68.4199C109.237 68.0396 109.078 67.7451 108.759 67.5365C108.452 67.328 108.022 67.2237 107.47 67.2237C106.845 67.2237 106.335 67.3832 105.943 67.7022C105.562 68.0212 105.372 68.4383 105.372 68.9537C105.372 69.7021 105.9 70.0763 106.955 70.0763Z" fill="black"/>
<path d="M116.508 71.7511C115.723 71.7511 115.116 71.5486 114.686 71.1437C114.269 70.7266 114.061 70.1499 114.061 69.4138C114.061 69.2788 114.085 69.0273 114.134 68.6592L114.926 64.095H113.048C113.134 63.5551 113.306 63.1379 113.564 62.8435C113.834 62.5367 114.165 62.3834 114.558 62.3834H115.275L115.533 60.8558C115.619 60.3651 115.858 60.0092 116.251 59.7884C116.656 59.5675 117.245 59.4571 118.018 59.4571L117.502 62.3834H119.95C119.852 62.9846 119.656 63.4202 119.361 63.6901C119.079 63.96 118.68 64.095 118.165 64.095H117.226L116.435 68.5672C116.41 68.788 116.398 68.9291 116.398 68.9905C116.398 69.2604 116.472 69.4567 116.619 69.5794C116.766 69.7021 117.005 69.7634 117.337 69.7634C117.754 69.7634 118.214 69.6469 118.717 69.4138C118.791 69.4874 118.846 69.5855 118.883 69.7082C118.932 69.8309 118.956 69.9597 118.956 70.0947C118.956 70.5609 118.717 70.9536 118.238 71.2726C117.772 71.5916 117.196 71.7511 116.508 71.7511Z" fill="black"/>
<path d="M134.016 63.8005C134.102 63.3097 134.36 62.9232 134.789 62.641C135.219 62.3588 135.758 62.2177 136.409 62.2177L136.225 63.2116C136.053 63.3711 135.906 63.5367 135.783 63.7085L135.857 63.7821C136.36 63.2422 136.875 62.8496 137.403 62.6042C137.942 62.3466 138.537 62.2177 139.188 62.2177C140.071 62.2177 140.777 62.4631 141.304 62.9539C141.844 63.4447 142.114 64.0888 142.114 64.8863C142.114 65.0949 142.096 65.3096 142.059 65.5305L141.543 68.4383C141.372 69.4812 140.899 70.2972 140.126 70.8861C139.366 71.4628 138.396 71.7511 137.219 71.7511C136.752 71.7511 136.292 71.6529 135.838 71.4566C135.396 71.2603 135.047 71.0027 134.789 70.6836L134.697 70.7757C134.771 70.9106 134.881 71.0395 135.028 71.1622L134.55 73.886C134.464 74.389 134.2 74.7694 133.759 75.027C133.329 75.297 132.728 75.4319 131.955 75.4319L134.016 63.8005ZM137.126 69.7634C137.728 69.7634 138.218 69.6346 138.599 69.377C138.979 69.1193 139.212 68.7573 139.298 68.2911L139.758 65.6777C139.771 65.6041 139.777 65.5059 139.777 65.3833C139.777 65.0029 139.636 64.7146 139.353 64.5183C139.071 64.3097 138.66 64.2054 138.12 64.2054C137.58 64.2054 137.102 64.3404 136.685 64.6103C136.28 64.8679 136.047 65.1931 135.985 65.5857L135.489 68.3831C135.476 68.4322 135.47 68.4997 135.47 68.5856C135.47 68.9291 135.623 69.2113 135.93 69.4322C136.237 69.653 136.636 69.7634 137.126 69.7634Z" fill="black"/>
<path d="M145.808 71.7511C145.01 71.7511 144.379 71.5241 143.912 71.0701C143.446 70.6162 143.213 70.0211 143.213 69.2849C143.213 69.0886 143.231 68.88 143.268 68.6592L144.814 59.9356C144.9 59.4449 145.145 59.089 145.55 58.8682C145.955 58.6473 146.556 58.5369 147.354 58.5369L145.587 68.5672C145.563 68.6653 145.55 68.8003 145.55 68.9721C145.55 69.242 145.63 69.4444 145.79 69.5794C145.949 69.7021 146.201 69.7634 146.544 69.7634C146.986 69.7634 147.452 69.6469 147.943 69.4138C148.115 69.5855 148.2 69.8187 148.2 70.1131C148.2 70.5671 147.967 70.9536 147.501 71.2726C147.047 71.5916 146.483 71.7511 145.808 71.7511Z" fill="black"/>
<path d="M152.099 71.7511C151.228 71.7511 150.516 71.5241 149.964 71.0701C149.425 70.6039 149.155 70.0027 149.155 69.2665C149.155 68.5549 149.339 67.9169 149.707 67.3525C150.075 66.7881 150.59 66.3464 151.253 66.0274C151.915 65.7084 152.664 65.5489 153.498 65.5489C154.038 65.5489 154.516 65.6348 154.933 65.8065C155.351 65.9783 155.731 66.2483 156.075 66.6163L156.167 66.5243C156.13 66.4752 155.97 66.3096 155.688 66.0274L155.743 65.6593C155.756 65.5857 155.762 65.4753 155.762 65.328C155.762 64.8986 155.614 64.5735 155.32 64.3526C155.026 64.1318 154.596 64.0213 154.032 64.0213C153.467 64.0213 152.946 64.1318 152.467 64.3526C152.001 64.5612 151.608 64.8679 151.289 65.2728C151.056 65.2115 150.866 65.0949 150.719 64.9232C150.572 64.7514 150.498 64.5673 150.498 64.371C150.498 63.9784 150.676 63.6165 151.032 63.2852C151.4 62.9539 151.891 62.6962 152.504 62.5122C153.13 62.3159 153.811 62.2177 154.547 62.2177C155.651 62.2177 156.516 62.4631 157.142 62.9539C157.768 63.4447 158.081 64.1134 158.081 64.96C158.081 65.1685 158.062 65.3833 158.025 65.6041L157.216 70.2051C157.117 70.745 156.878 71.1376 156.498 71.383C156.117 71.6284 155.553 71.7511 154.805 71.7511L154.933 70.9965C155.167 70.8125 155.345 70.6591 155.467 70.5364L155.394 70.4444C154.891 70.8984 154.375 71.2296 153.848 71.4382C153.332 71.6468 152.75 71.7511 152.099 71.7511ZM153.001 70.0763C153.688 70.0763 154.24 69.9291 154.657 69.6346C155.075 69.3279 155.283 68.923 155.283 68.4199C155.283 68.0396 155.124 67.7451 154.805 67.5365C154.498 67.328 154.068 67.2237 153.516 67.2237C152.891 67.2237 152.381 67.3832 151.989 67.7022C151.608 68.0212 151.418 68.4383 151.418 68.9537C151.418 69.7021 151.946 70.0763 153.001 70.0763Z" fill="black"/>
<path d="M158.644 75.4319C158.226 75.4319 157.907 75.3092 157.686 75.0638C157.478 74.8307 157.374 74.4933 157.374 74.0516C157.374 73.8921 157.392 73.7081 157.429 73.4995C157.736 73.5608 158.042 73.5915 158.349 73.5915C158.815 73.5915 159.208 73.4627 159.527 73.205C159.846 72.9596 160.232 72.475 160.686 71.7511L161.11 71.0701L159.067 62.4018C159.153 62.3527 159.294 62.3098 159.49 62.273C159.686 62.2361 159.87 62.2177 160.042 62.2177C160.41 62.2177 160.723 62.2975 160.981 62.457C161.238 62.6165 161.392 62.8251 161.441 63.0827L162.508 68.2543L162.067 69.1193L162.195 69.1745L165.674 63.0827C165.821 62.8128 166.048 62.6042 166.355 62.457C166.662 62.2975 166.999 62.2177 167.367 62.2177C167.551 62.2177 167.747 62.2361 167.956 62.273C168.177 62.3098 168.318 62.3527 168.379 62.4018L162.508 72.4136C161.883 73.4811 161.269 74.2479 160.668 74.7141C160.067 75.1927 159.392 75.4319 158.644 75.4319Z" fill="black"/>
<path d="M184.94 71.7511C184.253 71.7511 183.64 71.6223 183.1 71.3646C182.56 71.1069 182.137 70.7573 181.83 70.3156C181.523 69.8616 181.37 69.3586 181.37 68.8064C181.37 68.5856 181.382 68.4199 181.407 68.3095L181.849 65.8618C181.971 65.1501 182.253 64.5183 182.695 63.9661C183.149 63.414 183.713 62.9846 184.388 62.6778C185.075 62.3711 185.824 62.2177 186.634 62.2177C187.308 62.2177 187.903 62.3404 188.419 62.5858C188.934 62.8312 189.333 63.1748 189.615 63.6165C189.897 64.0582 190.038 64.5612 190.038 65.1256C190.038 65.3219 190.02 65.5305 189.983 65.7513L189.799 66.782C189.738 67.0642 189.591 67.2973 189.357 67.4813C189.137 67.6531 188.873 67.739 188.566 67.739H183.744L183.671 68.1439C183.646 68.3156 183.634 68.4383 183.634 68.512C183.634 68.9659 183.775 69.3156 184.057 69.561C184.339 69.8064 184.744 69.9291 185.272 69.9291C185.848 69.9291 186.321 69.8002 186.689 69.5426C187.057 69.2849 187.278 68.9291 187.351 68.4752C187.462 68.4629 187.609 68.4567 187.793 68.4567C188.21 68.4567 188.529 68.5365 188.75 68.696C188.983 68.8432 189.1 69.0641 189.1 69.3586C189.1 69.7757 188.91 70.1683 188.529 70.5364C188.149 70.9045 187.64 71.199 187.002 71.4198C186.364 71.6407 185.677 71.7511 184.94 71.7511ZM187.83 66.101L187.903 65.7513C187.928 65.6532 187.94 65.5121 187.94 65.328C187.94 64.9109 187.799 64.5919 187.517 64.371C187.235 64.1379 186.83 64.0213 186.302 64.0213C185.738 64.0213 185.253 64.1809 184.848 64.4999C184.443 64.8066 184.192 65.2238 184.094 65.7513L184.02 66.101H187.83Z" fill="black"/>
<path d="M193.473 71.7511C192.601 71.7511 191.89 71.5241 191.338 71.0701C190.798 70.6039 190.528 70.0027 190.528 69.2665C190.528 68.5549 190.712 67.9169 191.08 67.3525C191.448 66.7881 191.963 66.3464 192.626 66.0274C193.289 65.7084 194.037 65.5489 194.871 65.5489C195.411 65.5489 195.89 65.6348 196.307 65.8065C196.724 65.9783 197.104 66.2483 197.448 66.6163L197.54 66.5243C197.503 66.4752 197.344 66.3096 197.061 66.0274L197.117 65.6593C197.129 65.5857 197.135 65.4753 197.135 65.328C197.135 64.8986 196.988 64.5735 196.693 64.3526C196.399 64.1318 195.969 64.0213 195.405 64.0213C194.841 64.0213 194.319 64.1318 193.841 64.3526C193.374 64.5612 192.982 64.8679 192.663 65.2728C192.43 65.2115 192.24 65.0949 192.092 64.9232C191.945 64.7514 191.871 64.5673 191.871 64.371C191.871 63.9784 192.049 63.6165 192.405 63.2852C192.773 62.9539 193.264 62.6962 193.877 62.5122C194.503 62.3159 195.184 62.2177 195.92 62.2177C197.025 62.2177 197.89 62.4631 198.515 62.9539C199.141 63.4447 199.454 64.1134 199.454 64.96C199.454 65.1685 199.436 65.3833 199.399 65.6041L198.589 70.2051C198.491 70.745 198.252 71.1376 197.871 71.383C197.491 71.6284 196.926 71.7511 196.178 71.7511L196.307 70.9965C196.54 70.8125 196.718 70.6591 196.841 70.5364L196.767 70.4444C196.264 70.8984 195.749 71.2296 195.221 71.4382C194.706 71.6468 194.123 71.7511 193.473 71.7511ZM194.374 70.0763C195.061 70.0763 195.614 69.9291 196.031 69.6346C196.448 69.3279 196.657 68.923 196.657 68.4199C196.657 68.0396 196.497 67.7451 196.178 67.5365C195.871 67.328 195.442 67.2237 194.89 67.2237C194.264 67.2237 193.755 67.3832 193.362 67.7022C192.982 68.0212 192.792 68.4383 192.792 68.9537C192.792 69.7021 193.319 70.0763 194.374 70.0763Z" fill="black"/>
<path d="M206.466 64.2054C205.742 64.2054 205.117 64.3956 204.589 64.7759C204.061 65.1563 203.749 65.6409 203.65 66.2298L202.933 70.3524C202.834 70.8431 202.583 71.199 202.178 71.4198C201.785 71.6407 201.19 71.7511 200.393 71.7511L201.755 63.9845C201.853 63.4079 202.111 62.9723 202.528 62.6778C202.957 62.3711 203.534 62.2177 204.258 62.2177L204.074 63.3036C203.755 63.6471 203.571 63.8496 203.522 63.9109L203.614 63.9845C204.632 62.8067 205.705 62.2177 206.834 62.2177C207.264 62.2177 207.595 62.322 207.828 62.5306C208.073 62.7269 208.196 63.003 208.196 63.3588C208.196 63.5551 208.159 63.7514 208.086 63.9477C208.012 64.144 207.914 64.322 207.791 64.4815C207.497 64.2974 207.055 64.2054 206.466 64.2054Z" fill="black"/>
<path d="M209.699 63.9845C209.797 63.4079 210.055 62.9723 210.472 62.6778C210.901 62.3711 211.478 62.2177 212.202 62.2177L212.018 63.322C211.735 63.6042 211.551 63.8005 211.466 63.9109L211.576 63.9845C212.042 63.4201 212.594 62.9846 213.232 62.6778C213.87 62.3711 214.527 62.2177 215.202 62.2177C215.987 62.2177 216.625 62.4693 217.116 62.9723C217.606 63.4631 217.852 64.095 217.852 64.8679C217.852 65.052 217.833 65.2483 217.797 65.4569L216.932 70.3524C216.846 70.8309 216.594 71.1867 216.177 71.4198C215.772 71.6407 215.177 71.7511 214.392 71.7511L215.441 65.7881C215.465 65.5918 215.478 65.4569 215.478 65.3833C215.478 64.598 215.018 64.2054 214.097 64.2054C213.484 64.2054 212.938 64.4017 212.459 64.7943C211.981 65.1747 211.692 65.6532 211.594 66.2298L210.877 70.3524C210.778 70.8431 210.527 71.199 210.122 71.4198C209.729 71.6407 209.134 71.7511 208.337 71.7511L209.699 63.9845Z" fill="black"/>
<path d="M127.777 67.8264C127.777 68.9381 126.876 69.8393 125.764 69.8393C124.653 69.8393 123.751 68.9381 123.751 67.8264C123.751 66.7146 124.653 65.8134 125.764 65.8134C126.876 65.8134 127.777 66.7146 127.777 67.8264Z" fill="black"/>
<path d="M176.088 67.8264C176.088 68.9381 175.187 69.8393 174.075 69.8393C172.963 69.8393 172.062 68.9381 172.062 67.8264C172.062 66.7146 172.963 65.8134 174.075 65.8134C175.187 65.8134 176.088 66.7146 176.088 67.8264Z" fill="black"/>
</svg>
