<?xml version="1.0" encoding="utf-8"?>
<!-- Generator: Adobe Illustrator 26.3.1, SVG Export Plug-In . SVG Version: 6.00 Build 0)  -->
<svg version="1.1" xmlns="http://www.w3.org/2000/svg" xmlns:xlink="http://www.w3.org/1999/xlink" x="0px" y="0px"
	 viewBox="0 0 125 40" style="enable-background:new 0 0 125 40;" xml:space="preserve">
<style type="text/css">
	.st0{display:none;}
	.st1{display:inline;stroke:#FFFFFF;stroke-miterlimit:10;}
	.st2{fill:none;stroke:#FFFFFF;}
	.st3{clip-path:url(#SVGID_00000138556246106877528330000017147300330240848797_);}
	.st4{fill:#FFFFFF;}
</style>
<g id="Layer_3" class="st0">
	<rect class="st1" width="125" height="40"/>
</g>
<g id="Layer_1">
	<path class="st2" d="M6,0.5h113c3,0,5.5,2.5,5.5,5.5v28c0,3-2.5,5.5-5.5,5.5H6c-3,0-5.5-2.5-5.5-5.5V6C0.5,3,3,0.5,6,0.5z"/>
</g>
<g id="Layer_2">
	<g>
		<defs>
			<rect id="SVGID_1_" x="14" y="7.9" width="24.2" height="24.2"/>
		</defs>
		<clipPath id="SVGID_00000044141680470509333880000007215552795384693145_">
			<use xlink:href="#SVGID_1_"  style="overflow:visible;"/>
		</clipPath>
		<g style="clip-path:url(#SVGID_00000044141680470509333880000007215552795384693145_);">
			<path class="st4" d="M30.6,7.9c-1.3,0.1-2.8,0.9-3.7,2c-0.8,1-1.5,2.4-1.2,3.8c1.4,0,2.9-0.8,3.7-1.9
				C30.2,10.9,30.8,9.4,30.6,7.9z"/>
			<path class="st4" d="M35.7,16.1c-1.2-1.6-3-2.5-4.6-2.5c-2.2,0-3.1,1-4.6,1c-1.6,0-2.7-1-4.6-1c-1.8,0-3.8,1.1-5,3
				c-1.7,2.7-1.4,7.8,1.4,12.1c1,1.6,2.4,3.3,4.1,3.3c1.6,0,2-1,4.2-1c2.1,0,2.5,1,4.1,1c1.8,0,3.2-1.9,4.2-3.5
				c0.7-1.1,1-1.7,1.6-2.9C32.3,24.1,31.6,18.3,35.7,16.1z"/>
		</g>
	</g>
	<path class="st4" d="M47.1,14.9h-2.5V9.1h2.5c0.4,0,0.7,0,0.9,0.1c0.4,0.1,0.7,0.4,1,0.7c0.2,0.3,0.3,0.6,0.4,0.9
		c0.1,0.3,0.1,0.7,0.1,1c0,0.8-0.2,1.4-0.5,1.9C48.6,14.5,47.9,14.9,47.1,14.9z M48,10.6c-0.2-0.3-0.6-0.5-1.1-0.5h-1.1v3.8h1.1
		c0.6,0,1-0.3,1.2-0.8c0.1-0.3,0.2-0.7,0.2-1.1C48.2,11.4,48.2,10.9,48,10.6z"/>
	<path class="st4" d="M53.8,11.2c0.4,0.5,0.5,1,0.5,1.6c0,0.6-0.2,1.2-0.5,1.6c-0.4,0.4-0.9,0.7-1.6,0.7c-0.7,0-1.3-0.2-1.6-0.7
		c-0.4-0.4-0.5-1-0.5-1.6c0-0.6,0.2-1.1,0.5-1.6c0.4-0.5,0.9-0.7,1.6-0.7C52.9,10.5,53.5,10.7,53.8,11.2z M52.2,11.4
		c-0.3,0-0.6,0.1-0.8,0.3c-0.2,0.2-0.3,0.6-0.3,1c0,0.4,0.1,0.8,0.3,1c0.2,0.2,0.4,0.3,0.8,0.3c0.3,0,0.6-0.1,0.8-0.3
		c0.2-0.2,0.3-0.6,0.3-1c0-0.4-0.1-0.8-0.3-1C52.8,11.6,52.5,11.4,52.2,11.4z"/>
	<path class="st4" d="M58.4,14.9l-0.7-3.1l-0.7,3.1h-1.2l-1.2-4.3h1.2l0.7,3.1l0.6-3.1h1.1l0.6,3.1l0.7-3.1h1.2l-1.2,4.3H58.4z"/>
	<path class="st4" d="M63.4,11.5c-0.4,0-0.6,0.2-0.8,0.5c-0.1,0.2-0.1,0.4-0.1,0.6v2.3h-1.1v-4.2h1.1v0.6c0.1-0.2,0.3-0.4,0.4-0.5
		c0.2-0.2,0.5-0.3,0.9-0.3c0.4,0,0.8,0.1,1.1,0.3c0.3,0.2,0.4,0.6,0.4,1.1v2.9h-1.1v-2.6c0-0.2,0-0.4-0.1-0.5
		C63.9,11.6,63.7,11.5,63.4,11.5z"/>
	<path class="st4" d="M66.3,9.1h1.1v5.8h-1.1V9.1z"/>
	<path class="st4" d="M72.1,11.2c0.4,0.5,0.5,1,0.5,1.6c0,0.6-0.2,1.2-0.5,1.6c-0.4,0.4-0.9,0.7-1.6,0.7s-1.3-0.2-1.6-0.7
		c-0.4-0.4-0.5-1-0.5-1.6c0-0.6,0.2-1.1,0.5-1.6c0.4-0.5,0.9-0.7,1.6-0.7S71.7,10.7,72.1,11.2z M70.4,11.4c-0.3,0-0.6,0.1-0.8,0.3
		c-0.2,0.2-0.3,0.6-0.3,1c0,0.4,0.1,0.8,0.3,1c0.2,0.2,0.4,0.3,0.8,0.3s0.6-0.1,0.8-0.3s0.3-0.6,0.3-1c0-0.4-0.1-0.8-0.3-1
		C71,11.6,70.8,11.4,70.4,11.4z"/>
	<path class="st4" d="M73.6,11.1c0.3-0.4,0.8-0.6,1.5-0.6c0.5,0,0.9,0.1,1.2,0.3c0.4,0.2,0.5,0.5,0.5,1v2c0,0.1,0,0.3,0,0.5
		c0,0.1,0,0.2,0.1,0.3c0,0.1,0.1,0.1,0.2,0.1v0.2h-1.2c0-0.1-0.1-0.2-0.1-0.2c0-0.1,0-0.2,0-0.3c-0.2,0.2-0.3,0.3-0.5,0.4
		C75,15,74.8,15,74.5,15c-0.4,0-0.7-0.1-1-0.3c-0.2-0.2-0.4-0.5-0.4-0.9c0-0.5,0.2-0.9,0.6-1.1c0.2-0.1,0.5-0.2,1-0.3l0.4,0
		c0.2,0,0.4-0.1,0.4-0.1c0.2-0.1,0.2-0.2,0.2-0.3c0-0.2-0.1-0.3-0.2-0.4c-0.1-0.1-0.3-0.1-0.5-0.1c-0.3,0-0.4,0.1-0.6,0.2
		c-0.1,0.1-0.1,0.2-0.2,0.4h-1.1C73.3,11.6,73.4,11.3,73.6,11.1z M74.4,14.1c0.1,0.1,0.2,0.1,0.4,0.1c0.2,0,0.5-0.1,0.7-0.2
		c0.2-0.1,0.3-0.4,0.3-0.8v-0.4c-0.1,0-0.1,0.1-0.2,0.1c-0.1,0-0.2,0.1-0.3,0.1l-0.2,0c-0.2,0-0.4,0.1-0.5,0.2
		c-0.2,0.1-0.3,0.3-0.3,0.5C74.2,13.9,74.3,14,74.4,14.1z"/>
	<path class="st4" d="M81.7,9.1v5.8h-1.1v-0.6c-0.2,0.3-0.3,0.4-0.5,0.6C79.9,15,79.7,15,79.4,15c-0.5,0-0.9-0.2-1.3-0.6
		c-0.3-0.4-0.5-0.9-0.5-1.6c0-0.7,0.2-1.3,0.5-1.7c0.3-0.4,0.8-0.6,1.3-0.6c0.3,0,0.5,0.1,0.7,0.2c0.2,0.1,0.4,0.3,0.5,0.5v-2H81.7z
		 M78.7,12.8c0,0.4,0.1,0.7,0.2,0.9c0.2,0.2,0.4,0.4,0.7,0.4c0.3,0,0.6-0.1,0.7-0.4c0.2-0.2,0.2-0.5,0.2-0.9c0-0.5-0.1-0.9-0.4-1.1
		c-0.2-0.1-0.3-0.2-0.6-0.2c-0.3,0-0.6,0.1-0.7,0.4C78.8,12.1,78.7,12.4,78.7,12.8z"/>
	<path class="st4" d="M88.5,11.2c0.4,0.5,0.5,1,0.5,1.6c0,0.6-0.2,1.2-0.5,1.6c-0.4,0.4-0.9,0.7-1.6,0.7c-0.7,0-1.3-0.2-1.6-0.7
		c-0.4-0.4-0.5-1-0.5-1.6c0-0.6,0.2-1.1,0.5-1.6c0.4-0.5,0.9-0.7,1.6-0.7C87.6,10.5,88.2,10.7,88.5,11.2z M86.9,11.4
		c-0.3,0-0.6,0.1-0.8,0.3c-0.2,0.2-0.3,0.6-0.3,1c0,0.4,0.1,0.8,0.3,1c0.2,0.2,0.4,0.3,0.8,0.3c0.3,0,0.6-0.1,0.8-0.3
		c0.2-0.2,0.3-0.6,0.3-1c0-0.4-0.1-0.8-0.3-1C87.5,11.6,87.2,11.4,86.9,11.4z"/>
	<path class="st4" d="M91.9,11.5c-0.4,0-0.6,0.2-0.8,0.5C91,12.1,91,12.3,91,12.6v2.3h-1.1v-4.2H91v0.6c0.1-0.2,0.3-0.4,0.4-0.5
		c0.2-0.2,0.5-0.3,0.9-0.3c0.4,0,0.8,0.1,1.1,0.3c0.3,0.2,0.4,0.6,0.4,1.1v2.9h-1.1v-2.6c0-0.2,0-0.4-0.1-0.5
		C92.4,11.6,92.2,11.5,91.9,11.5z"/>
	<path class="st4" d="M51,27.8h-3.7l-0.7,2.1h-2.2l3.6-10.1h2.4l3.6,10.1h-2.3L51,27.8z M50.4,26.1l-1.3-4l-1.3,4H50.4z"/>
	<path class="st4" d="M61,23.2c0.6,0.6,0.9,1.6,0.9,2.8c0,1.3-0.3,2.3-0.9,3c-0.6,0.7-1.3,1-2.3,1c-0.6,0-1.1-0.1-1.5-0.4
		c-0.2-0.2-0.4-0.4-0.6-0.7v3.9h-1.9V22.4h1.9v1.1c0.2-0.3,0.4-0.6,0.7-0.8c0.4-0.3,0.9-0.5,1.5-0.5C59.7,22.3,60.4,22.6,61,23.2z
		 M59.9,26.2c0-0.6-0.1-1.1-0.4-1.5c-0.3-0.4-0.7-0.7-1.3-0.7c-0.7,0-1.2,0.3-1.5,1c-0.1,0.4-0.2,0.8-0.2,1.4c0,0.9,0.2,1.5,0.7,1.8
		c0.3,0.2,0.6,0.3,1,0.3c0.5,0,1-0.2,1.2-0.6C59.8,27.4,59.9,26.9,59.9,26.2z"/>
	<path class="st4" d="M69.4,23.2c0.6,0.6,0.9,1.6,0.9,2.8c0,1.3-0.3,2.3-0.9,3c-0.6,0.7-1.3,1-2.3,1c-0.6,0-1.1-0.1-1.5-0.4
		c-0.2-0.2-0.4-0.4-0.6-0.7v3.9h-1.9V22.4H65v1.1c0.2-0.3,0.4-0.6,0.7-0.8c0.4-0.3,0.9-0.5,1.5-0.5C68.1,22.3,68.8,22.6,69.4,23.2z
		 M68.3,26.2c0-0.6-0.1-1.1-0.4-1.5c-0.3-0.4-0.7-0.7-1.3-0.7c-0.7,0-1.2,0.3-1.5,1C65,25.3,65,25.8,65,26.3c0,0.9,0.2,1.5,0.7,1.8
		c0.3,0.2,0.6,0.3,1,0.3c0.5,0,1-0.2,1.2-0.6C68.1,27.4,68.3,26.9,68.3,26.2z"/>
	<path class="st4" d="M79,28.4c0.5,0,0.9-0.1,1.2-0.2c0.6-0.2,0.9-0.6,0.9-1.2c0-0.3-0.1-0.6-0.4-0.8c-0.3-0.2-0.7-0.3-1.4-0.5
		l-1.1-0.2c-1-0.2-1.8-0.5-2.2-0.8c-0.7-0.5-1-1.2-1-2.2c0-0.9,0.3-1.7,1-2.2c0.7-0.6,1.6-0.9,2.9-0.9c1.1,0,2,0.3,2.7,0.8
		c0.8,0.6,1.1,1.4,1.2,2.4h-2c0-0.6-0.3-1-0.8-1.3c-0.3-0.2-0.7-0.3-1.2-0.3c-0.5,0-1,0.1-1.3,0.3c-0.3,0.2-0.5,0.5-0.5,0.9
		c0,0.4,0.2,0.6,0.5,0.8c0.2,0.1,0.6,0.3,1.3,0.4l1.7,0.4c0.8,0.2,1.3,0.4,1.7,0.7c0.6,0.5,0.9,1.2,0.9,2.1c0,0.9-0.4,1.7-1.1,2.3
		c-0.7,0.6-1.7,0.9-3,0.9c-1.3,0-2.3-0.3-3.1-0.9c-0.8-0.6-1.1-1.4-1.1-2.5h2c0.1,0.5,0.2,0.8,0.4,1C77.6,28.2,78.2,28.4,79,28.4z"
		/>
	<path class="st4" d="M87.7,28.5V30l-0.9,0c-0.9,0-1.5-0.1-1.9-0.5c-0.2-0.2-0.3-0.6-0.3-1v-4.6h-1v-1.4h1v-2.1h1.9v2.1h1.2v1.4
		h-1.2v3.9c0,0.3,0,0.5,0.1,0.6c0.1,0.1,0.3,0.1,0.7,0.1c0.1,0,0.1,0,0.2,0C87.6,28.5,87.7,28.5,87.7,28.5z"/>
	<path class="st4" d="M95,23.4c0.6,0.8,0.9,1.7,0.9,2.8c0,1.1-0.3,2-0.9,2.8c-0.6,0.8-1.6,1.2-2.9,1.2c-1.3,0-2.2-0.4-2.9-1.2
		c-0.6-0.8-0.9-1.7-0.9-2.8c0-1.1,0.3-2,0.9-2.8c0.6-0.8,1.6-1.2,2.9-1.2C93.4,22.2,94.4,22.6,95,23.4z M92.1,23.9
		c-0.6,0-1,0.2-1.3,0.6c-0.3,0.4-0.5,1-0.5,1.7s0.2,1.3,0.5,1.7c0.3,0.4,0.7,0.6,1.3,0.6c0.6,0,1-0.2,1.3-0.6c0.3-0.4,0.5-1,0.5-1.7
		s-0.2-1.3-0.5-1.7C93.1,24.1,92.7,23.9,92.1,23.9z"/>
	<path class="st4" d="M100.9,24.2c-0.8,0-1.3,0.3-1.6,0.8c-0.2,0.3-0.2,0.7-0.2,1.3v3.6h-2v-7.5H99v1.3c0.3-0.5,0.6-0.8,0.8-1
		c0.4-0.3,0.8-0.5,1.4-0.5c0,0,0.1,0,0.1,0c0,0,0.1,0,0.2,0v2c-0.1,0-0.2,0-0.3,0C101,24.2,100.9,24.2,100.9,24.2z"/>
	<path class="st4" d="M108.7,27.7c0,0.4-0.3,0.9-0.7,1.3c-0.6,0.7-1.5,1.1-2.7,1.1c-0.9,0-1.8-0.3-2.5-0.9c-0.7-0.6-1.1-1.6-1.1-3
		c0-1.3,0.3-2.3,1-3c0.7-0.7,1.5-1,2.5-1c0.6,0,1.2,0.1,1.7,0.3c0.5,0.2,0.9,0.6,1.2,1.1c0.3,0.4,0.5,1,0.6,1.5
		c0,0.3,0.1,0.8,0.1,1.5h-5.1c0,0.7,0.3,1.3,0.7,1.6c0.3,0.2,0.6,0.3,1,0.3c0.4,0,0.7-0.1,1-0.3c0.1-0.1,0.3-0.3,0.4-0.5H108.7z
		 M106.8,25.4c0-0.5-0.2-0.9-0.5-1.2c-0.3-0.3-0.6-0.4-1-0.4c-0.5,0-0.8,0.1-1.1,0.4c-0.2,0.3-0.4,0.7-0.5,1.1H106.8z"/>
</g>
</svg>
