<?xml version="1.0" encoding="utf-8"?>
<!-- Generator: Adobe Illustrator 26.3.1, SVG Export Plug-In . SVG Version: 6.00 Build 0)  -->
<svg version="1.1" xmlns="http://www.w3.org/2000/svg" xmlns:xlink="http://www.w3.org/1999/xlink" x="0px" y="0px"
	 viewBox="0 0 52 31" style="enable-background:new 0 0 52 31;" xml:space="preserve">
<style type="text/css">
	.st0{display:none;}
	.st1{display:inline;}
</style>
<g id="Layer_1">
	<path d="M14,11.6v10.2h2.4V14h11.6v7.7h2.5V11.6H14z M15.3,18.3v2.4h14.2v-2.4H15.3z M21,8.1v18.8h2.5V8.1H21z M46.2,12.6
		c-2.1,6.5-6.4,10.3-13.3,12.1c0.5,0.6,1.2,1.7,1.5,2.3c7.2-2.2,11.9-6.5,14.4-13.7L46.2,12.6z M38.5,12.7L36,13.5
		C38.6,20.4,42.7,25,50.2,27c0.4-0.7,1.2-1.8,1.7-2.4C44.8,22.9,40.5,18.7,38.5,12.7z M33.2,11.3v2.4h18.4v-2.4H33.2z M41.1,8.1v4.6
		h2.5V8.1H41.1z"/>
	<path d="M0.7,22c0.5,0.4,1.1,0.6,1.8,0.6c0.9,0,1.7-0.3,2.4-1c0.7-0.7,1-1.4,1-2.4c0-0.7-0.2-1.2-0.7-1.7c-0.5-0.4-1-0.6-1.8-0.6
		c-1,0-1.8,0.3-2.5,1c-0.7,0.6-1,1.4-1,2.3C0,21,0.2,21.6,0.7,22z"/>
</g>
<g id="Layer_2" class="st0">
	<path class="st1" d="M19.5,25.2c-0.9,0-1.7-0.2-2.4-0.5c-0.7-0.3-1.3-0.8-1.7-1.4c-0.4-0.6-0.6-1.2-0.6-2c0-0.3,0-0.5,0-0.6
		l0.6-3.2c0.2-0.9,0.5-1.8,1.1-2.5c0.6-0.7,1.3-1.3,2.2-1.7c0.9-0.4,1.9-0.6,2.9-0.6c0.9,0,1.7,0.2,2.3,0.5c0.7,0.3,1.2,0.8,1.6,1.3
		s0.6,1.2,0.6,2c0,0.3,0,0.5-0.1,0.8l-0.2,1.3c-0.1,0.4-0.3,0.7-0.6,0.9c-0.3,0.2-0.6,0.3-1,0.3H18l-0.1,0.5c0,0.2,0,0.4,0,0.5
		c0,0.6,0.2,1,0.6,1.4s0.9,0.5,1.6,0.5c0.8,0,1.4-0.2,1.8-0.5c0.5-0.3,0.8-0.8,0.9-1.4c0.1,0,0.3,0,0.6,0c0.5,0,1,0.1,1.2,0.3
		c0.3,0.2,0.5,0.5,0.5,0.9c0,0.5-0.2,1.1-0.7,1.5c-0.5,0.5-1.2,0.9-2,1.2C21.4,25,20.5,25.2,19.5,25.2z M23.3,17.8l0.1-0.5
		c0-0.1,0-0.3,0-0.6c0-0.5-0.2-1-0.6-1.2c-0.4-0.3-0.9-0.5-1.6-0.5c-0.7,0-1.4,0.2-1.9,0.6c-0.5,0.4-0.9,0.9-1,1.6l-0.1,0.5H23.3z
		 M28.8,15.1c0.1-0.8,0.5-1.3,1-1.7c0.6-0.4,1.3-0.6,2.3-0.6l-0.2,1.4c-0.4,0.4-0.6,0.6-0.7,0.8l0.1,0.1c0.6-0.7,1.3-1.3,2.2-1.7
		c0.8-0.4,1.7-0.6,2.6-0.6c1,0,1.9,0.3,2.5,1c0.6,0.6,1,1.5,1,2.5c0,0.2,0,0.5-0.1,0.8l-1.1,6.4c-0.1,0.6-0.4,1.1-1,1.4
		C36.8,25,36,25.2,35,25.2l1.4-7.8c0-0.3,0-0.4,0-0.5c0-1-0.6-1.5-1.8-1.5c-0.8,0-1.5,0.3-2.1,0.8c-0.6,0.5-1,1.1-1.1,1.9l-0.9,5.4
		c-0.1,0.6-0.5,1.1-1,1.4c-0.5,0.3-1.3,0.4-2.3,0.4L28.8,15.1z"/>
	<path class="st1" d="M0.7,22c0.5,0.4,1.1,0.6,1.8,0.6c0.9,0,1.7-0.3,2.4-1c0.7-0.7,1-1.4,1-2.4c0-0.7-0.2-1.2-0.7-1.7
		c-0.5-0.4-1-0.6-1.8-0.6c-1,0-1.8,0.3-2.5,1c-0.7,0.6-1,1.4-1,2.3C0,21,0.2,21.5,0.7,22z"/>
</g>
</svg>
