<?xml version="1.0" encoding="utf-8"?>
<!-- Generator: Adobe Illustrator 26.3.1, SVG Export Plug-In . SVG Version: 6.00 Build 0)  -->
<svg version="1.1" xmlns="http://www.w3.org/2000/svg" xmlns:xlink="http://www.w3.org/1999/xlink" x="0px" y="0px"
	 viewBox="0 0 52 31" style="enable-background:new 0 0 52 31;" xml:space="preserve">
<style type="text/css">
	.st0{display:none;}
	.st1{display:inline;}
</style>
<g id="Layer_1" class="st0">
	<path class="st1" d="M14.9,11.9v9.7h2.3v-7.4h11.1v7.4h2.4v-9.6H14.9z M16.1,18.2v2.3h13.6v-2.3H16.1z M21.5,8.5v18H24v-18H21.5z
		 M45.6,12.8c-2,6.2-6.1,9.8-12.7,11.5c0.5,0.6,1.2,1.7,1.5,2.2c6.9-2.1,11.3-6.2,13.7-13.1L45.6,12.8z M38.2,13l-2.3,0.7
		c2.4,6.6,6.3,11,13.5,12.9c0.4-0.7,1.1-1.8,1.7-2.3C44.3,22.7,40.1,18.6,38.2,13z M33.2,11.6v2.3h17.5v-2.3H33.2z M40.7,8.5v4.4
		h2.4V8.5H40.7z"/>
	<path class="st1" d="M0.7,22c0.5,0.4,1.1,0.6,1.8,0.6c0.9,0,1.7-0.3,2.4-1c0.7-0.7,1-1.4,1-2.4c0-0.7-0.2-1.2-0.7-1.7
		c-0.5-0.4-1-0.6-1.8-0.6c-1,0-1.8,0.3-2.5,1c-0.7,0.6-1,1.4-1,2.3C0,21,0.2,21.6,0.7,22z"/>
</g>
<g id="Layer_2">
	<path d="M19.5,25.2c-0.9,0-1.7-0.2-2.4-0.5c-0.7-0.3-1.3-0.8-1.7-1.4c-0.4-0.6-0.6-1.2-0.6-2c0-0.3,0-0.5,0-0.6l0.6-3.2
		c0.2-0.9,0.5-1.8,1.1-2.5c0.6-0.7,1.3-1.3,2.2-1.7c0.9-0.4,1.9-0.6,2.9-0.6c0.9,0,1.7,0.2,2.3,0.5c0.7,0.3,1.2,0.8,1.6,1.3
		s0.6,1.2,0.6,2c0,0.3,0,0.5-0.1,0.8l-0.2,1.3c-0.1,0.4-0.3,0.7-0.6,0.9c-0.3,0.2-0.6,0.3-1,0.3H18l-0.1,0.5c0,0.2,0,0.4,0,0.5
		c0,0.6,0.2,1,0.6,1.4s0.9,0.5,1.6,0.5c0.8,0,1.4-0.2,1.8-0.5c0.5-0.3,0.8-0.8,0.9-1.4c0.1,0,0.3,0,0.6,0c0.5,0,1,0.1,1.2,0.3
		c0.3,0.2,0.5,0.5,0.5,0.9c0,0.5-0.2,1.1-0.7,1.5c-0.5,0.5-1.2,0.9-2,1.2C21.4,25,20.5,25.2,19.5,25.2z M23.3,17.8l0.1-0.5
		c0-0.1,0-0.3,0-0.6c0-0.5-0.2-1-0.6-1.2c-0.4-0.3-0.9-0.5-1.6-0.5c-0.7,0-1.4,0.2-1.9,0.6c-0.5,0.4-0.9,0.9-1,1.6l-0.1,0.5H23.3z
		 M28.8,15.1c0.1-0.8,0.5-1.3,1-1.7c0.6-0.4,1.3-0.6,2.3-0.6l-0.2,1.4c-0.4,0.4-0.6,0.6-0.7,0.8l0.1,0.1c0.6-0.7,1.3-1.3,2.2-1.7
		c0.8-0.4,1.7-0.6,2.6-0.6c1,0,1.9,0.3,2.5,1c0.6,0.6,1,1.5,1,2.5c0,0.2,0,0.5-0.1,0.8l-1.1,6.4c-0.1,0.6-0.4,1.1-1,1.4
		C36.8,25,36,25.2,35,25.2l1.4-7.8c0-0.3,0-0.4,0-0.5c0-1-0.6-1.5-1.8-1.5c-0.8,0-1.5,0.3-2.1,0.8c-0.6,0.5-1,1.1-1.1,1.9l-0.9,5.4
		c-0.1,0.6-0.5,1.1-1,1.4c-0.5,0.3-1.3,0.4-2.3,0.4L28.8,15.1z"/>
	<path d="M0.7,22c0.5,0.4,1.1,0.6,1.8,0.6c0.9,0,1.7-0.3,2.4-1c0.7-0.7,1-1.4,1-2.4c0-0.7-0.2-1.2-0.7-1.7c-0.5-0.4-1-0.6-1.8-0.6
		c-1,0-1.8,0.3-2.5,1c-0.7,0.6-1,1.4-1,2.3C0,21,0.2,21.5,0.7,22z"/>
</g>
</svg>
