<svg width="69" height="31" viewBox="0 0 69 31" fill="none" xmlns="http://www.w3.org/2000/svg">
<path d="M18.224 25.216C17.184 25.216 16.36 24.92 15.752 24.328C15.144 23.736 14.84 22.96 14.84 22C14.84 21.744 14.864 21.472 14.912 21.184L16.928 9.808C17.04 9.168 17.36 8.704 17.888 8.416C18.416 8.128 19.2 7.984 20.24 7.984L17.936 21.064C17.904 21.192 17.888 21.368 17.888 21.592C17.888 21.944 17.992 22.208 18.2 22.384C18.408 22.544 18.736 22.624 19.184 22.624C19.76 22.624 20.368 22.472 21.008 22.168C21.232 22.392 21.344 22.696 21.344 23.08C21.344 23.672 21.04 24.176 20.432 24.592C19.84 25.008 19.104 25.216 18.224 25.216ZM27.5083 25.216C26.5963 25.216 25.7723 25.056 25.0363 24.736C24.3163 24.4 23.7483 23.944 23.3323 23.368C22.9163 22.792 22.7083 22.144 22.7083 21.424C22.7083 21.152 22.7243 20.944 22.7563 20.8L23.3323 17.416C23.5883 16.008 24.2843 14.888 25.4203 14.056C26.5563 13.208 27.9803 12.784 29.6923 12.784C30.6523 12.784 31.4923 12.96 32.2123 13.312C32.9483 13.648 33.5083 14.112 33.8923 14.704C34.2923 15.28 34.4922 15.936 34.4922 16.672C34.4922 16.928 34.4683 17.176 34.4203 17.416L33.8443 20.8C33.6043 22.144 32.9083 23.216 31.7563 24.016C30.6203 24.816 29.2043 25.216 27.5083 25.216ZM27.9643 22.648C28.7643 22.648 29.4203 22.472 29.9323 22.12C30.4603 21.752 30.7803 21.248 30.8923 20.608L31.4203 17.56C31.4523 17.368 31.4683 17.216 31.4683 17.104C31.4683 16.56 31.2763 16.136 30.8923 15.832C30.5083 15.512 29.9643 15.352 29.2603 15.352C28.4763 15.352 27.8123 15.56 27.2683 15.976C26.7403 16.376 26.4123 16.904 26.2843 17.56L25.7563 20.608C25.7403 20.704 25.7323 20.832 25.7323 20.992C25.7323 21.52 25.9243 21.928 26.3083 22.216C26.6923 22.504 27.2443 22.648 27.9643 22.648ZM38.9004 30.016C38.0684 30.016 37.3164 29.904 36.6444 29.68C35.9724 29.456 35.4444 29.144 35.0604 28.744C34.6924 28.36 34.5084 27.92 34.5084 27.424C34.5084 26.832 34.7164 26.376 35.1324 26.056C35.5484 25.736 36.1564 25.576 36.9564 25.576C36.9084 26.248 37.0844 26.76 37.4844 27.112C37.8844 27.464 38.5004 27.64 39.3324 27.64C40.1964 27.64 40.8684 27.424 41.3484 26.992C41.8444 26.576 42.1804 25.92 42.3564 25.024L42.5244 24.208C42.7644 24.032 42.9644 23.864 43.1244 23.704L43.0524 23.584C42.5884 23.984 41.9804 24.32 41.2284 24.592C40.4924 24.848 39.8124 24.976 39.1884 24.976C38.0044 24.976 37.0444 24.648 36.3084 23.992C35.5724 23.32 35.2044 22.464 35.2044 21.424C35.2044 21.184 35.2284 20.936 35.2764 20.68L35.8764 17.104C36.1004 15.792 36.6924 14.744 37.6524 13.96C38.6284 13.176 39.8124 12.784 41.2044 12.784C42.0204 12.784 42.7164 12.952 43.2924 13.288C43.8844 13.624 44.3804 14.136 44.7804 14.824L44.9004 14.728C44.8364 14.6 44.7244 14.392 44.5644 14.104C44.6924 13.224 45.6844 12.784 47.5404 12.784L45.4524 24.592C45.1484 26.288 44.4124 27.616 43.2444 28.576C42.0764 29.536 40.6284 30.016 38.9004 30.016ZM40.3884 22.408C41.0924 22.408 41.7164 22.232 42.2604 21.88C42.8044 21.528 43.1244 21.096 43.2204 20.584L43.7964 17.176C43.8124 17.112 43.8204 17.024 43.8204 16.912C43.8204 16.448 43.6204 16.072 43.2204 15.784C42.8204 15.496 42.3004 15.352 41.6604 15.352C40.8604 15.352 40.2124 15.52 39.7164 15.856C39.2364 16.176 38.9404 16.656 38.8284 17.296L38.2764 20.464C38.2444 20.656 38.2284 20.792 38.2284 20.872C38.2284 21.368 38.4124 21.752 38.7804 22.024C39.1484 22.28 39.6844 22.408 40.3884 22.408ZM52.4774 11.656C51.9814 11.656 51.5734 11.52 51.2534 11.248C50.9334 10.96 50.7734 10.592 50.7734 10.144C50.7734 9.552 51.0054 9.048 51.4694 8.632C51.9334 8.2 52.4854 7.984 53.1254 7.984C53.6214 7.984 54.0214 8.12 54.3254 8.392C54.6454 8.664 54.8054 9.024 54.8054 9.472C54.8054 10.064 54.5734 10.576 54.1094 11.008C53.6454 11.44 53.1014 11.656 52.4774 11.656ZM50.4374 14.608C50.5494 13.984 50.8694 13.528 51.3974 13.24C51.9414 12.936 52.7254 12.784 53.7494 12.784L51.8774 23.392C51.7654 24.032 51.4454 24.496 50.9174 24.784C50.3894 25.072 49.6054 25.216 48.5654 25.216L50.4374 14.608ZM56.6818 15.088C56.8098 14.336 57.1458 13.768 57.6898 13.384C58.2498 12.984 59.0018 12.784 59.9458 12.784L59.7058 14.224C59.3378 14.592 59.0978 14.848 58.9858 14.992L59.1298 15.088C59.7378 14.352 60.4578 13.784 61.2898 13.384C62.1218 12.984 62.9778 12.784 63.8578 12.784C64.8818 12.784 65.7138 13.112 66.3538 13.768C66.9938 14.408 67.3138 15.232 67.3138 16.24C67.3138 16.48 67.2898 16.736 67.2418 17.008L66.1138 23.392C66.0018 24.016 65.6738 24.48 65.1298 24.784C64.6018 25.072 63.8258 25.216 62.8018 25.216L64.1698 17.44C64.2018 17.184 64.2178 17.008 64.2178 16.912C64.2178 15.888 63.6178 15.376 62.4178 15.376C61.6178 15.376 60.9058 15.632 60.2818 16.144C59.6578 16.64 59.2818 17.264 59.1538 18.016L58.2178 23.392C58.0898 24.032 57.7618 24.496 57.2338 24.784C56.7218 25.072 55.9458 25.216 54.9058 25.216L56.6818 15.088Z" fill="black"/>
<path d="M0.714289 22.0078C1.19048 22.4251 1.79762 22.6338 2.53571 22.6338C3.46429 22.6338 4.27381 22.3024 4.96429 21.6396C5.65476 20.9768 6 20.1913 6 19.283C6 18.5956 5.7619 18.0433 5.28571 17.626C4.83333 17.2087 4.2381 17 3.5 17C2.54762 17 1.72619 17.3314 1.03571 17.9942C0.345237 18.6325 0 19.4057 0 20.314C0 21.0014 0.238099 21.566 0.714289 22.0078Z" fill="black"/>
</svg>
