<svg width="48" height="13" viewBox="0 0 48 13" fill="none" xmlns="http://www.w3.org/2000/svg">
<path d="M2.604 1.988V12.056H4.02V1.988H2.604ZM0.516 4.304V5.672H5.832V4.304H0.516ZM2.616 4.892C2.16 6.212 1.176 8.012 0.228 8.996C0.468 9.368 0.804 9.98 0.936 10.388C1.956 9.188 2.94 7.016 3.492 5.312L2.616 4.892ZM4.86 0.86C3.792 1.34 2.028 1.76 0.444 2.012C0.6 2.312 0.792 2.804 0.852 3.116C2.532 2.9 4.452 2.504 5.868 1.94L4.86 0.86ZM3.948 5.912L3.204 6.56C3.684 7.1 4.632 8.276 5.04 8.912L5.892 7.832C5.604 7.52 4.332 6.212 3.948 5.912ZM7.308 1.076C7.02 4.136 6.3 8.024 5.604 10.532L6.996 10.82C7.716 8.348 8.508 4.568 8.952 1.34L7.308 1.076ZM4.62 10.148L4.956 11.672C6.54 11.468 8.676 11.168 10.692 10.856L10.656 9.536C8.436 9.788 6.084 10.028 4.62 10.148ZM8.724 7.064C9.408 8.696 10.032 10.784 10.188 12.08L11.712 11.612C11.52 10.28 10.824 8.252 10.104 6.668L8.724 7.064ZM17.208 1.34C16.956 2.168 16.476 2.996 15.924 3.56C16.2 3.728 16.692 4.064 16.92 4.268C17.496 3.632 18.06 2.612 18.396 1.628L17.208 1.34ZM16.476 7.004V7.784H21.912V7.004H16.476ZM21.768 6.908V7.868H23.616V6.908H21.768ZM17.52 3.32V4.16H22.212V3.32H17.52ZM16.644 4.58V5.432H23.244V4.58H16.644ZM19.2 3.692V4.988H20.508V3.692H19.2ZM17.868 9.38V10.628C17.868 11.66 18.12 11.972 19.32 11.972C19.56 11.972 20.4 11.972 20.64 11.972C21.48 11.972 21.804 11.696 21.936 10.64C21.6 10.58 21.096 10.4 20.868 10.232C20.832 10.832 20.772 10.916 20.508 10.916C20.304 10.916 19.644 10.916 19.5 10.916C19.164 10.916 19.104 10.892 19.104 10.616V9.38H17.868ZM22.008 0.812C20.988 1.16 19.128 1.4 17.52 1.52C17.652 1.76 17.808 2.192 17.856 2.444C19.572 2.348 21.6 2.108 22.98 1.64L22.008 0.812ZM17.112 5.804V6.62H21.396V8.192H17.112V9.008H22.656V5.804H17.112ZM21.192 9.728C21.78 10.352 22.428 11.216 22.68 11.792L23.748 11.132C23.46 10.544 22.788 9.728 22.188 9.14L21.192 9.728ZM19.008 2.504C19.212 2.828 19.44 3.272 19.512 3.56L20.592 3.116C20.484 2.828 20.256 2.42 20.028 2.108L19.008 2.504ZM21.36 2.336C21.828 2.888 22.38 3.656 22.62 4.148L23.604 3.512C23.34 3.032 22.764 2.3 22.284 1.784L21.36 2.336ZM18.672 9.188C19.14 9.488 19.74 10.004 20.028 10.352L20.88 9.596C20.58 9.272 19.992 8.804 19.488 8.516L18.672 9.188ZM16.584 9.368C16.416 10.052 16.056 10.76 15.552 11.18L16.524 11.876C17.148 11.348 17.46 10.532 17.664 9.74L16.584 9.368ZM12.84 1.328V12.092H14.064V2.612H15.492V1.328H12.84ZM15.072 1.328V1.724C14.94 2.48 14.616 4.148 14.34 5.24C14.916 6.068 15.012 6.824 15.024 7.376C15.024 7.724 14.964 7.988 14.844 8.096C14.772 8.168 14.664 8.192 14.544 8.192C14.424 8.192 14.292 8.192 14.112 8.18C14.292 8.516 14.388 9.02 14.4 9.356C14.652 9.368 14.904 9.356 15.096 9.332C15.336 9.284 15.552 9.212 15.72 9.092C16.068 8.816 16.224 8.312 16.224 7.556C16.224 6.872 16.092 6.044 15.468 5.108C15.756 4.136 16.116 2.804 16.368 1.772L15.48 1.28L15.3 1.328H15.072ZM24.516 1.52V2.9H30.036V1.52H24.516ZM27.564 5V6.368H29.712V5H27.564ZM26.94 2.264V9.8H28.332V2.264H26.94ZM24.876 4.34V10.028H26.172V4.34H24.876ZM24.24 9.596L24.492 11.048C26.04 10.712 28.176 10.244 30.156 9.788L30.024 8.48C27.948 8.912 25.692 9.368 24.24 9.596ZM30.9 3.008V4.34H35.628V3.008H30.9ZM31.2 0.8C30.888 2.828 30.276 4.736 29.268 5.9C29.592 6.128 30.156 6.632 30.384 6.908C31.476 5.528 32.22 3.356 32.628 1.028L31.2 0.8ZM33.48 3.812C33.108 7.376 32.052 9.632 29.328 10.844C29.592 11.144 30.012 11.78 30.144 12.116C33.156 10.604 34.392 8.036 34.92 3.944L33.48 3.812ZM31.62 4.052L30.336 4.268C30.996 7.916 32.136 10.676 34.752 12.068C34.968 11.684 35.4 11.12 35.724 10.832C33.312 9.728 32.148 7.148 31.62 4.052ZM36.744 4.208V5.444H47.244V4.208H36.744ZM41.352 3.56V12.08H42.9V3.56H41.352ZM37.524 6.032V9.368H39.048V7.244H45.912V6.032H37.524ZM45.156 6.032V8.084C45.156 8.204 45.108 8.24 44.964 8.24C44.832 8.252 44.34 8.252 43.944 8.228C44.1 8.528 44.328 8.972 44.412 9.332C45.108 9.332 45.66 9.332 46.092 9.152C46.524 8.972 46.644 8.684 46.644 8.084V6.032H45.156ZM41.508 7.916C40.512 9.164 38.556 10.136 36.444 10.544C36.756 10.844 37.152 11.396 37.344 11.756C39.504 11.18 41.436 9.98 42.588 8.324L41.508 7.916ZM42.54 7.928L41.772 8.6C42.672 9.764 44.568 11.12 46.8 11.672C47.004 11.3 47.424 10.724 47.712 10.412C45.42 10.004 43.416 8.948 42.54 7.928ZM38.076 1.748V2.948H41.832V1.748H38.076ZM42.9 1.748V2.948H47.448V1.748H42.9ZM38.136 0.727999C37.752 1.712 37.056 2.72 36.288 3.356C36.624 3.536 37.212 3.92 37.488 4.148C38.244 3.416 39.024 2.252 39.516 1.1L38.136 0.727999ZM42.972 0.727999C42.636 1.736 41.976 2.732 41.208 3.344C41.556 3.536 42.156 3.932 42.42 4.172C43.188 3.44 43.944 2.276 44.388 1.076L42.972 0.727999ZM38.556 2.696C38.868 3.188 39.204 3.86 39.336 4.268L40.572 3.8C40.428 3.38 40.056 2.744 39.744 2.276L38.556 2.696ZM43.788 2.6C44.124 3.092 44.496 3.764 44.64 4.196L45.924 3.776C45.756 3.344 45.348 2.696 45 2.228L43.788 2.6Z" fill="black"/>
</svg>
