<?xml version="1.0" encoding="utf-8"?>
<!-- Generator: Adobe Illustrator 26.3.1, SVG Export Plug-In . SVG Version: 6.00 Build 0)  -->
<svg version="1.1" id="Layer_1" xmlns="http://www.w3.org/2000/svg" xmlns:xlink="http://www.w3.org/1999/xlink" x="0px" y="0px"
	 viewBox="0 0 75 75" style="enable-background:new 0 0 75 75;" xml:space="preserve">
<style type="text/css">
	.st0{fill:none;stroke:#000000;}
</style>
<circle class="st0" cx="37.5" cy="37.5" r="37"/>
<g>
	<path d="M20.9,35.1l-1.6,1.6c-0.9-1.1-2.2-2.2-3.9-3.4l1.6-1.6C18.5,32.9,19.8,34,20.9,35.1z M21.3,39.2c-1.1,3-2.3,5.8-3.6,8.5
		l-2.2-1c1.5-2.7,2.7-5.5,3.8-8.3L21.3,39.2z M21.4,29.4L19.7,31c-1-1.1-2.3-2.2-4-3.4l1.6-1.6C18.9,27.2,20.3,28.3,21.4,29.4z
		 M21.8,34.7l-1-1.7c2.4-0.5,4-1.5,4.9-3h-4.1v-2.1h6.1c-0.2-0.6-0.5-1.2-0.8-1.7l2.4-0.4c0.3,0.6,0.6,1.3,0.8,2.1h6.6v2.1h-4.1v0.7
		c0,0.4,0.3,0.6,0.9,0.6h3.2v1.8h-4.1c-1.3,0-2-0.5-2-1.5v-1.6h-4l1,0.6c-0.7,1.5-1.9,2.7-3.5,3.4h10.8v5.7h-6.4
		c-0.5,0.7-1.1,1.4-1.7,2.1v3.5c1-0.4,2-0.9,2.9-1.4l0.4,2c-1.6,0.7-3.5,1.4-5.8,2.1l-0.5-2c0.6-0.2,0.8-0.6,0.8-1.2v-1.3
		c-0.9,0.6-1.9,1.2-3,1.7l-1.2-1.9c2.4-1,4.3-2.2,5.5-3.6h-3v-5.3C22.6,34.5,22.2,34.6,21.8,34.7z M32.7,35.8h-7.4v1.9h7.4V35.8z
		 M36.6,41.7c-0.9,0.9-2,1.6-3.1,2.1c1.1,1,2.4,1.7,4,2.3l-1.2,1.8c-3.3-1.2-5.6-3.5-6.9-6.7l1.7-1c0.3,0.8,0.7,1.5,1.2,2.1
		c1.1-0.4,2-1.2,3-2.1L36.6,41.7z"/>
	<path d="M55.8,25.9v4.4h4.7c0,8-0.1,13-0.3,14.9c-0.2,1.7-1.3,2.6-3.2,2.6c-0.4,0-1.2,0-2.3-0.1l-0.6-2c1,0.1,1.8,0.1,2.5,0.1
		c0.8,0,1.2-0.5,1.4-1.6c0.1-1.2,0.2-5.1,0.3-11.8h-2.6v0.9c-0.1,6.7-1.5,11.5-4.3,14.6l-1.4-1.2c-3.1,0.4-6.7,0.7-10.6,1l-0.3-2
		c1.7-0.1,3.4-0.2,4.9-0.3v-1.7H40v-1.9h4.1v-1.3h-4.2v-7.6h4.2v-1.1h-4.7v-1.9h4.7v-1.2c-1.2,0.1-2.6,0.1-4,0.1l-0.6-1.8
		c4,0,7.4-0.3,10.2-1l1,1.7c-1.3,0.3-2.8,0.6-4.4,0.7v1.4h4.6v1.9h-4.6v1.1h4.2v7.6h-4.2v1.3h4.1v1.9h-4.1v1.5
		c1.5-0.1,2.9-0.3,4.1-0.4v1.1c2.2-2.8,3.2-7,3.3-12.6v-0.9h-2.2v-2.1h2.2v-4.4H55.8z M44.2,35.9v-1.4H42v1.4H44.2z M44.2,37.4H42
		v1.4h2.3V37.4z M46.1,35.9h2.3v-1.4h-2.3V35.9z M48.4,37.4h-2.3v1.4h2.3V37.4z"/>
</g>
</svg>
