<svg width="48" height="13" viewBox="0 0 48 13" fill="none" xmlns="http://www.w3.org/2000/svg">
<path d="M3.972 1.988V3.296H11.628V1.988H3.972ZM5.544 5.312H9.924V6.5H5.544V5.312ZM4.236 4.136V7.676H11.304V4.136H4.236ZM5.364 7.796L4.188 8.156C5.496 10.412 7.716 11.624 10.968 12.068C11.148 11.672 11.508 11.096 11.808 10.784C8.7 10.496 6.432 9.524 5.364 7.796ZM7.008 0.883999V6.356C7.008 8.324 6.696 10.16 3.468 10.88C3.78 11.18 4.2 11.756 4.368 12.08C7.812 11.048 8.424 8.816 8.424 6.368V0.883999H7.008ZM3.06 0.775999C2.412 2.492 1.296 4.196 0.156 5.276C0.396 5.624 0.78 6.416 0.9 6.752C2.268 5.396 3.588 3.248 4.404 1.208L3.06 0.775999ZM1.896 4.124V12.104H3.264V2.768L3.252 2.756L1.896 4.124ZM14.52 1.616V2.984H21.888V1.616H14.52ZM14.52 4.376V5.72H21.912V4.376H14.52ZM14.496 7.208V8.564H21.96V7.208H14.496ZM13.692 1.616V5.924C13.692 7.616 13.584 9.764 12.276 11.216C12.588 11.396 13.176 11.876 13.404 12.152C14.88 10.544 15.12 7.844 15.12 5.936V1.616H13.692ZM21.384 1.616V10.376C21.384 10.58 21.3 10.652 21.072 10.664C20.856 10.664 20.064 10.676 19.38 10.628C19.572 11 19.788 11.624 19.848 12.008C20.94 12.02 21.66 11.996 22.164 11.768C22.644 11.54 22.812 11.156 22.812 10.388V1.616H21.384ZM17.388 2.156V11.936H18.852V2.156H17.388ZM30.804 0.8C30.348 2 29.496 3.14 28.488 3.836C28.8 4.028 29.328 4.448 29.568 4.688C30.564 3.86 31.536 2.552 32.1 1.124L30.804 0.8ZM30.636 2.024L29.952 3.176H35.484V2.024H30.636ZM33.54 2.324C32.928 4.304 31.176 5.384 28.776 5.9C29.028 6.152 29.448 6.716 29.604 6.992C32.136 6.272 34.044 4.988 34.908 2.564L33.54 2.324ZM30.72 2.72L29.748 3.26C30.552 4.808 32.292 6.356 34.992 6.956C35.16 6.62 35.52 6.08 35.772 5.804C33.144 5.372 31.416 4.064 30.72 2.72ZM29.112 7.412V8.624H35.532V7.412H29.112ZM31.584 6.476V12.116H32.94V6.476H31.584ZM31.56 8.012C30.924 9.14 29.664 10.22 28.344 10.736C28.644 11 29.04 11.492 29.244 11.816C30.636 11.12 31.92 9.836 32.652 8.396L31.56 8.012ZM33.144 8.192L32.1 8.576C32.736 9.836 33.828 11.108 34.92 11.792C35.136 11.468 35.556 10.976 35.856 10.736C34.788 10.208 33.696 9.2 33.144 8.192ZM27.552 2.348V10.064H28.8V2.348H27.552ZM26.508 0.835999C25.992 2.588 25.104 4.352 24.132 5.48C24.36 5.864 24.708 6.68 24.828 7.04C26.052 5.6 27.156 3.32 27.84 1.22L26.508 0.835999ZM25.56 4.124V12.068H26.928V2.828L26.892 2.804L25.56 4.124ZM36.516 1.772V2.948H42.144V1.772H36.516ZM36.348 7.016V8.192H42.276V7.016H36.348ZM36.804 3.56V4.724H41.868V3.56H36.804ZM36.876 5.288V6.452H41.808V5.288H36.876ZM38.688 7.52V10.712C38.688 10.82 38.652 10.856 38.52 10.856C38.4 10.868 38.004 10.868 37.632 10.856C37.788 11.204 37.968 11.72 38.016 12.092C38.676 12.092 39.168 12.068 39.54 11.876C39.936 11.672 40.02 11.324 40.02 10.736V7.52H38.688ZM38.664 0.883999V4.316H40.02V0.883999H38.664ZM37.08 8.408C36.924 9.284 36.624 10.184 36.156 10.772C36.456 10.88 36.996 11.132 37.248 11.312C37.692 10.652 38.076 9.644 38.268 8.624L37.08 8.408ZM40.356 8.804C40.632 9.368 40.92 10.112 41.028 10.568L42.144 10.088C42.036 9.632 41.724 8.924 41.424 8.396L40.356 8.804ZM43.224 2.984V4.292H46.62V2.984H43.224ZM44.676 3.488H43.968V5.552C43.968 6.764 43.524 9.428 41.34 10.892C41.592 11.156 42 11.768 42.144 12.08C43.74 11.012 44.508 9.044 44.664 7.976C44.82 9.008 45.48 11.072 46.884 12.08C47.088 11.732 47.496 11.144 47.748 10.82C45.804 9.38 45.36 6.74 45.36 5.552V3.488H44.676ZM42.96 0.788C42.756 2.708 42.312 4.592 41.52 5.744C41.856 5.948 42.48 6.404 42.72 6.644C43.572 5.3 44.124 3.188 44.4 1.004L42.96 0.788ZM46.224 2.984V3.2C46.14 4.184 45.996 5.456 45.852 6.236L46.98 6.56C47.208 5.684 47.436 4.34 47.58 3.176L46.632 2.936L46.416 2.984H46.224Z" fill="black"/>
</svg>
