<?xml version="1.0" standalone="no"?>
<!DOCTYPE svg PUBLIC "-//W3C//DTD SVG 1.1//EN" "http://www.w3.org/Graphics/SVG/1.1/DTD/svg11.dtd">
<svg xmlns="http://www.w3.org/2000/svg">
<defs >
<font id="K2D" horiz-adv-x="563" ><font-face
    font-family="K2D ExtraLight"
    units-per-em="1000"
    panose-1="0 0 3 0 0 0 0 0 0 0"
    ascent="1048"
    descent="-252"
    alphabetic="0" />
<glyph unicode=" " glyph-name="space" horiz-adv-x="258" />
<glyph unicode="!" glyph-name="exclam" horiz-adv-x="270" d="M107 677T124 693T172 709V275Q172 244 155 228T107 212V647Q107 677 124 693ZM110 -9T94 7T77 49Q77 73 93 90T135 107Q159 107 176 90T194 49Q194 25 177 8T135 -9Q110 -9 94 7Z" />
<glyph unicode="&quot;" glyph-name="quotedbl" horiz-adv-x="348" d="M86 656Q93 686 111 698T167 710L112 547Q95 495 52 496L86 656ZM215 656Q222 684 239 697T296 710L241 547Q233 522 219 509T181 496L215 656Z" />
<glyph unicode="#" glyph-name="numbersign" horiz-adv-x="786" d="M212 214H52Q51 241 63 254T102 267H219L237 424H95Q94 478 145 478H244L266 663Q271 710 317 710L328 709L300 478H515L537 663Q543 710 588 710L599 709L571 478H734Q735 424 685 424H564L546
267H690Q691 214 641 214H539L519 36Q513 -10 467 -10L456 -9L483 214H268L248 36Q241 -14 185 -9L212 214ZM491 266L509 425H293L275 266H491Z" />
<glyph unicode="$" glyph-name="dollar" horiz-adv-x="643" d="M588 100T524 49T346 -8V-62Q346 -87 333 -100T296 -113V-9Q220 -6 165 20T82 87T54 173Q54 236 113 239Q113 61 296 50V331Q173 357 120 403T67 526Q67 606 128 655T296 708V763Q296 786 309 799T346
813V708Q407 704 457 681T535 622T564 541Q564 484 508 480Q501 637 346 651V383Q437 363 489 337T565 275T588 184Q588 100 524 49ZM135 476T170 446T296 394V652Q220 648 178 616T135 530Q135 476 170 446ZM430 55T476 89T523 184Q523 221 507 245T452 287T346
320V50Q430 55 476 89Z" />
<glyph unicode="%" glyph-name="percent" horiz-adv-x="826" d="M558 705Q575 737 604 737Q618 737 636 728L268 -5Q253 -37 223 -37Q208 -37 191 -27L558 705ZM162 305T128 321T73 364T52 422V592Q52 623 72 650T127 693T203 709Q243 709 277 694T331 651T351
592V422Q351 390 331 364T277 321T203 305Q162 305 128 321ZM241 355T267 374T293 423V591Q293 619 267 638T203 658Q163 658 137 639T110 591V423Q110 394 136 375T203 355Q241 355 267 374ZM585 -9T551 7T496 50T475 109V278Q475 310 495 337T550 379T625 395Q666
395 700 380T754 337T774 278V109Q774 77 754 50T700 7T625 -9Q585 -9 551 7ZM665 42T691 61T717 109V277Q717 305 691 324T626 344Q586 344 560 325T533 277V109Q533 80 559 61T626 42Q665 42 691 61Z" />
<glyph unicode="&amp;" glyph-name="ampersand" horiz-adv-x="699" d="M208 -9T159 14T81 81T52 181Q52 251 89 305T196 398Q155 433 134 470T112 552Q112 618 148 663T258 709Q324 709 364 664T405 552Q405 459 288 378L498 160Q561 233 561 301Q561 309 559
325Q617 325 617 268Q617 233 598 199T539 120L647 12Q630 -8 603 -8Q583 -8 566 7L500 73Q444 30 391 11T267 -9Q208 -9 159 14ZM302 456T321 486T341 552Q341 597 321 624T258 652Q217 652 197 624T176 552Q176 515 194 487T256 421Q302 456 321 486ZM380 49T459
118L232 353Q173 321 145 281T117 181Q117 116 161 83T279 49Q380 49 459 118Z" />
<glyph unicode="&apos;" glyph-name="quotesingle" horiz-adv-x="219" d="M86 656Q93 684 110 697T167 710L113 547Q104 522 91 509T52 496L86 656Z" />
<glyph unicode="(" glyph-name="parenleft" horiz-adv-x="303" d="M52 428T89 526T189 705Q204 723 229 723Q249 723 261 708Q190 620 155 527T119 301Q119 168 154 75T261 -106Q249 -121 228 -121Q217 -121 206 -116T189 -103Q126 -23 89 75T52 301Q52 428 89 526Z" />
<glyph unicode=")" glyph-name="parenright" horiz-adv-x="303" d="M251 174T215 76T115 -102Q99 -121 75 -121Q54 -121 42 -106Q114 -18 149 75T184 301Q184 434 149 527T42 708Q54 723 75 723Q99 723 115 704Q178 624 214 526T251 301Q251 174 215 76Z" />
<glyph unicode="*" glyph-name="asterisk" horiz-adv-x="472" d="M109 410L201 534L52 521V583L201 572L108 695L170 730L238 598L303 730L363 696L271 571L421 583V521L271 530L363 410L300 376L234 512L163 375L109 410Z" />
<glyph unicode="+" glyph-name="plus" horiz-adv-x="610" d="M274 265H52Q52 291 66 305T105 320H274V465Q274 494 288 509T336 524V320H558Q558 265 504 265H336V118Q336 59 274 59V265Z" />
<glyph unicode="," glyph-name="comma" horiz-adv-x="223" d="M127 -79T127 -5Q115 -9 105 -9Q80 -9 66 6T52 46Q52 72 68 88T110 105Q137 105 154 87T172 43Q172 -27 152 -67T94 -141Q87 -146 76 -146Q63 -146 58 -141Q127 -79 127 -5Z" />
<glyph unicode="-" glyph-name="hyphen" horiz-adv-x="437" d="M52 289T67 304T107 320H385Q385 294 371 279T329 263H52Q52 289 67 304Z" />
<glyph unicode="." glyph-name="period" horiz-adv-x="218" d="M85 -9T69 7T52 48Q52 72 68 88T108 105Q132 105 149 89T167 48Q167 24 150 8T108 -9Q85 -9 69 7Z" />
<glyph unicode="/" glyph-name="slash" horiz-adv-x="549" d="M420 705Q437 737 465 737Q479 737 497 728L129 -5Q112 -37 84 -37Q69 -37 52 -27L420 705Z" />
<glyph unicode="0" glyph-name="zero" horiz-adv-x="649" d="M255 -9T196 18T102 91T67 193V507Q67 562 101 608T195 682T325 709Q395 709 454 682T548 609T583 507V193Q583 138 548 92T454 18T325 -9Q255 -9 196 18ZM380 51T424 69T493 120T518 193V507Q518 547
493 579T424 630T325 649Q270 649 226 631T157 580T132 507V193Q132 153 157 121T226 70T325 51Q380 51 424 69Z" />
<glyph unicode="1" glyph-name="one" horiz-adv-x="304" d="M162 642H98Q42 642 42 700H196Q209 700 218 691T227 669V54Q227 24 210 8T162 -9V642Z" />
<glyph unicode="2" glyph-name="two" horiz-adv-x="604" d="M68 0T60 8T52 30Q52 105 109 174T287 313Q367 359 406 389T461 448T476 517Q476 582 435 615T311 649Q223 649 173 606T122 486Q122 476 124 454Q95 454 75 470T55 512Q55 566 89 611T182 682T311 709Q418
709 481 657T544 517Q544 469 523 431T452 353T317 265Q229 216 178 162T120 58H491Q520 58 536 43T552 0H81Q68 0 60 8Z" />
<glyph unicode="3" glyph-name="three" horiz-adv-x="610" d="M231 -9T174 14T85 79T52 171Q52 203 67 218T116 232Q114 210 114 202Q114 131 163 91T302 51Q396 51 444 85T492 188Q492 255 446 291T313 327H277Q264 327 256 335T247 357Q247 371 255 379T277
387H314Q384 387 428 424T472 521Q472 649 310 649Q225 649 180 619T135 529Q135 508 139 499Q109 497 91 512T72 555Q72 598 103 633T189 688T310 709Q415 709 477 658T540 521Q540 466 512 427T422 358Q492 333 525 292T559 188Q559 94 492 43T302 -9Q231 -9
174 14Z" />
<glyph unicode="4" glyph-name="four" horiz-adv-x="643" d="M417 175H71Q58 175 50 182T42 202Q42 213 50 224L426 696Q437 709 456 709Q469 709 476 701T483 678V233H601Q601 175 546 175H483V52Q483 22 466 7T417 -9V175ZM418 233V587L445 623L441 626L133 233H418Z" />
<glyph unicode="5" glyph-name="five" horiz-adv-x="603" d="M228 -9T172 15T84 81T52 178Q52 211 67 226T115 239Q113 221 113 209Q113 134 162 92T299 49Q388 49 437 100T487 244Q487 437 298 437Q200 437 138 372Q126 360 110 360Q96 360 86 370T78 396L120
676Q121 687 131 693T155 700H517Q517 642 460 642H174L148 463Q118 438 116 436L119 432Q158 462 205 478T301 495Q421 495 486 430T551 244Q551 168 520 111T432 22T299 -9Q228 -9 172 15Z" />
<glyph unicode="6" glyph-name="six" horiz-adv-x="621" d="M239 -9T180 25T86 118T52 249Q52 351 130 435L366 688Q386 709 406 709Q427 709 447 690L274 506Q252 501 232 493L235 488Q277 504 314 504Q385 504 444 471T536 379T570 249Q570 178 536 119T443
25T311 -9Q239 -9 180 25ZM365 51T409 77T480 148T506 249Q506 304 480 349T410 421T311 447Q256 447 212 421T143 350T117 249Q117 194 142 149T212 77T311 51Q365 51 409 77Z" />
<glyph unicode="7" glyph-name="seven" horiz-adv-x="598" d="M478 642H98Q42 642 42 700H524Q539 700 547 692T556 671Q556 662 552 654L229 22Q214 -9 186 -9Q170 -9 150 1L478 642Z" />
<glyph unicode="8" glyph-name="eight" horiz-adv-x="621" d="M190 -9T121 44T52 191Q52 320 197 369Q139 390 108 430T76 524Q76 579 105 621T188 686T311 709Q381 709 434 686T516 621T545 524Q545 471 514 431T424 369Q569 320 569 191Q569 97 501 44T311 -9Q190
-9 121 44ZM388 396T434 430T480 523Q480 586 437 618T311 651Q227 651 184 619T141 523Q141 466 187 431T311 396Q388 396 434 430ZM406 49T455 85T504 192Q504 262 454 300T311 338Q218 338 168 300T117 192Q117 121 166 85T311 49Q406 49 455 85Z" />
<glyph unicode="9" glyph-name="nine" horiz-adv-x="621" d="M383 709T442 675T536 582T570 451Q570 401 550 353T491 265L255 12Q235 -9 215 -9Q196 -9 174 10L348 194Q366 198 390 207L388 212Q346 198 308 198Q233 198 175 230T85 319T52 451Q52 523 86 582T179
675T311 709Q383 709 442 675ZM256 649T212 624T142 553T116 451Q116 393 140 348T209 278T311 253Q366 253 410 278T480 349T505 451Q505 507 480 552T410 623T311 649Q256 649 212 624Z" />
<glyph unicode=":" glyph-name="colon" horiz-adv-x="220" d="M85 365T69 381T52 423Q52 447 68 464T109 482Q134 482 151 465T168 423Q168 398 151 382T109 365Q85 365 69 381ZM85 -9T69 7T52 49Q52 73 68 90T109 108Q134 108 151 91T168 49Q168 24 151 8T109
-9Q85 -9 69 7Z" />
<glyph unicode=";" glyph-name="semicolon" horiz-adv-x="223" d="M85 365T69 381T52 423Q52 447 68 464T109 482Q134 482 151 465T168 423Q168 398 151 382T109 365Q85 365 69 381ZM127 -79T127 -5Q124 -6 118 -7T106 -9Q80 -9 66 6T52 46Q52 72 68 88T110 105Q137
105 154 87T172 43Q172 -27 152 -67T93 -141Q89 -146 76 -146Q63 -146 59 -141Q127 -79 127 -5Z" />
<glyph unicode="&lt;" glyph-name="less" horiz-adv-x="649" d="M65 270Q52 277 52 292Q52 299 55 305T65 314L589 571Q596 557 596 541Q596 511 570 499L134 292L570 85Q583 79 589 68T596 42Q596 26 589 12L65 270Z" />
<glyph unicode="=" glyph-name="equal" horiz-adv-x="610" d="M52 380T65 394T105 408H558Q558 382 545 368T504 353H52Q52 380 65 394ZM52 201T66 215T105 230H558Q558 203 545 189T504 175H52Q52 201 66 215Z" />
<glyph unicode="&gt;" glyph-name="greater" horiz-adv-x="649" d="M54 26T54 43Q54 73 79 85L516 292L80 499Q67 505 60 516T53 541Q53 555 61 571L584 314Q598 306 598 292Q598 276 584 270L61 12Q54 26 54 43Z" />
<glyph unicode="?" glyph-name="question" horiz-adv-x="522" d="M228 269Q228 315 251 343T319 403Q363 435 385 462T407 532Q407 593 372 623T264 653Q200 653 157 616T113 512Q113 495 114 483Q88 482 70 497T52 537Q52 586 82 625T160 687T264 709Q354 709
412 664T470 533Q470 494 456 466T421 419T367 377Q328 350 310 329T291 278V259Q291 231 276 217T228 202V269ZM235 -9T219 7T202 49Q202 73 219 90T260 107Q285 107 302 90T319 49Q319 24 302 8T260 -9Q235 -9 219 7Z" />
<glyph unicode="@" glyph-name="at" horiz-adv-x="827" d="M308 -9T224 34T96 157T52 346Q52 453 97 535T228 663T427 709Q529 709 607 673T730 567T775 399Q775 319 743 262T657 175T543 145Q509 145 490 160T464 211Q435 180 404 163T328 145Q266 145 231 186T196
292Q196 364 224 428T304 531T422 571Q463 571 492 549T535 492L559 552H612L514 245Q509 230 509 221Q509 195 546 195Q592 195 631 219T694 289T718 400Q718 529 638 594T427 659Q272 659 191 576T109 346Q109 200 190 121T428 42Q510 42 572 61T679 123Q691
134 704 134Q721 134 734 115Q690 53 609 22T428 -9Q308 -9 224 34ZM384 195T420 234T478 329T500 431Q500 469 480 495T418 521Q372 521 334 487T275 399T253 293Q253 242 276 219T343 195Q384 195 420 234Z" />
<glyph unicode="A" glyph-name="A" horiz-adv-x="668" d="M75 -2T64 14T52 49Q52 61 57 74L303 689Q307 699 315 704T334 709Q345 709 353 704T365 689L611 75Q616 62 616 50Q616 30 605 14T573 -9L487 215H182L94 -9Q75 -2 64 14ZM465 273L323 637L318 634L331
600L203 273H465Z" />
<glyph unicode="B" glyph-name="B" horiz-adv-x="650" d="M97 0T87 9T77 32V669Q77 682 86 691T110 700H395Q474 700 521 649T569 512Q569 462 543 418T475 358V356Q535 339 566 297T598 191Q598 135 576 92T515 24T424 0H110Q97 0 87 9ZM393 380Q441 380 474
418T508 512Q508 574 478 608T393 642H142V380H393ZM413 58Q472 58 504 93T537 191Q537 253 505 287T413 321H142V58H413Z" />
<glyph unicode="C" glyph-name="C" horiz-adv-x="677" d="M263 -9T200 20T102 103T67 224V478Q67 545 102 597T200 679T344 709Q425 709 488 683T586 610T621 502Q621 478 603 463T557 449Q558 454 558 480Q558 530 531 569T455 629T344 651Q282 651 234 629T159
568T132 478V224Q132 173 159 133T234 71T344 49Q408 49 457 71T535 132T563 222Q563 246 562 253Q590 254 608 237T626 192Q626 133 590 88T490 17T344 -9Q263 -9 200 20Z" />
<glyph unicode="D" glyph-name="D" horiz-adv-x="699" d="M96 0T87 9T77 32V669Q77 682 86 691T110 700H354Q436 700 499 670T597 585T632 460V243Q632 172 597 117T498 31T354 0H110Q96 0 87 9ZM344 58Q447 58 507 108T567 243V459Q567 544 507 593T344 642H142V58H344Z" />
<glyph unicode="E" glyph-name="E" horiz-adv-x="623" d="M77 669Q77 682 86 691T110 700H551Q551 642 494 642H142V382H432Q432 323 375 323H142V58H515Q571 58 571 0H110Q96 0 87 9T77 32V669Z" />
<glyph unicode="F" glyph-name="F" horiz-adv-x="594" d="M77 669Q77 682 86 691T110 700H552Q552 642 495 642H142V387H432Q432 328 375 328H142V53Q142 22 126 7T77 -9V669Z" />
<glyph unicode="G" glyph-name="G" horiz-adv-x="687" d="M265 -9T202 20T103 103T67 224V478Q67 545 102 597T200 679T344 709Q425 709 488 683T586 610T621 503Q621 478 603 463T557 449Q558 454 558 481Q558 530 531 569T455 629T344 651Q282 651 234 629T159
568T132 478V224Q132 173 159 133T235 71T346 49Q409 49 458 71T534 132T561 222V296H405Q380 296 365 312T349 353H593Q607 353 616 344T626 322V221Q626 154 591 102T491 21T346 -9Q265 -9 202 20Z" />
<glyph unicode="H" glyph-name="H" horiz-adv-x="679" d="M77 646Q77 676 94 692T142 709V382H537V646Q537 677 553 693T602 709V54Q602 24 585 8T537 -9V324H142V54Q142 23 126 7T77 -9V646Z" />
<glyph unicode="I" glyph-name="I" horiz-adv-x="259" d="M97 646Q97 676 114 692T162 709V54Q162 23 146 7T97 -9V646Z" />
<glyph unicode="J" glyph-name="J" horiz-adv-x="601" d="M224 -9T170 18T84 94T52 203Q52 226 70 239T118 254Q115 239 115 223Q115 144 162 98T291 51Q375 51 422 96T469 224V642H334Q277 642 277 700H504Q517 700 526 691T535 669V224Q535 157 504 104T417
21T291 -9Q224 -9 170 18Z" />
<glyph unicode="K" glyph-name="K" horiz-adv-x="642" d="M77 647Q77 677 94 693T142 709V348L529 709Q552 688 552 670Q552 649 530 628L268 384L591 4Q573 -9 554 -9Q523 -9 505 13L223 343L142 268V53Q142 23 126 7T77 -9V647Z" />
<glyph unicode="L" glyph-name="L" horiz-adv-x="574" d="M96 0T87 9T77 32V646Q77 677 93 693T142 709V58H475Q532 58 532 0H110Q96 0 87 9Z" />
<glyph unicode="M" glyph-name="M" horiz-adv-x="817" d="M77 646Q77 677 93 693T142 709L406 89L391 53L396 51L675 709Q706 709 723 693T740 647V-9Q708 -9 692 6T675 53V548L695 599L690 601L437 11Q433 3 425 -3T409 -9Q389 -9 380 11L127 601L122 599L142
549V53Q142 23 125 7T77 -9V646Z" />
<glyph unicode="N" glyph-name="N" horiz-adv-x="692" d="M77 646Q77 676 93 692T141 709L566 74L571 78L550 112V709Q615 709 615 646V53Q615 24 599 8T553 -9L126 628L121 624L142 591V54Q142 23 126 7T77 -9V646Z" />
<glyph unicode="O" glyph-name="O" horiz-adv-x="688" d="M260 -9T196 23T97 114T62 245V458Q62 530 97 587T196 676T344 709Q428 709 492 677T591 587T626 458V245Q626 172 591 114T491 24T344 -9Q260 -9 196 23ZM448 49T505 102T562 245V456Q562 546 506 598T344
651Q239 651 183 599T126 456V245Q126 155 182 102T344 49Q448 49 505 102Z" />
<glyph unicode="P" glyph-name="P" horiz-adv-x="674" d="M77 669Q77 682 86 691T110 700H413Q474 700 522 674T596 600T623 491Q623 428 597 380T523 306T413 280H142V54Q142 23 126 7T77 -9V669ZM413 338Q478 338 517 379T557 491Q557 558 517 600T413 642H142V338H413Z"
/>
<glyph unicode="Q" glyph-name="Q" horiz-adv-x="691" d="M548 -29T525 -15T488 23Q424 -9 344 -9Q260 -9 196 23T97 114T62 245V458Q62 530 97 587T196 676T344 709Q428 709 492 677T591 587T626 458V245Q626 186 602 136T535 52Q552 32 573 24T626 18Q625 -4
612 -16T577 -29Q548 -29 525 -15ZM562 152T562 245V456Q562 546 506 598T344 651Q239 651 183 599T126 456V255Q187 277 237 277Q324 277 388 236T501 102Q562 152 562 245ZM410 49T456 70Q412 154 362 188T236 223Q183 223 130 200Q143 129 198 89T344 49Q410
49 456 70Z" />
<glyph unicode="R" glyph-name="R" horiz-adv-x="661" d="M77 669Q77 682 86 691T110 700H393Q452 700 498 675T569 604T595 501Q595 381 486 331V328Q533 310 558 270T584 175V54Q584 23 568 7T519 -9V169Q519 233 488 267T399 301H142V54Q142 23 126 7T77 -9V669ZM393
359Q454 359 491 398T528 501Q528 567 492 604T393 642H142V359H393Z" />
<glyph unicode="S" glyph-name="S" horiz-adv-x="640" d="M234 -9T175 16T85 83T54 173Q54 236 113 239Q113 49 320 49Q416 49 469 84T523 184Q523 224 504 249T438 293T309 328Q179 354 123 400T67 526Q67 610 135 659T319 709Q387 709 443 688T531 628T564 541Q564
484 508 480Q501 652 314 652Q230 652 183 620T135 530Q135 491 152 466T209 422T322 388Q422 367 479 341T562 278T588 184Q588 94 516 43T317 -9Q234 -9 175 16Z" />
<glyph unicode="T" glyph-name="T" horiz-adv-x="639" d="M287 642H42Q42 700 99 700H597Q597 642 540 642H352V54Q352 24 335 8T287 -9V642Z" />
<glyph unicode="U" glyph-name="U" horiz-adv-x="680" d="M264 -9T203 21T107 105T72 226V646Q72 676 89 692T137 709V226Q137 175 163 135T235 73T340 51Q399 51 445 73T517 135T543 226V646Q543 677 560 693T609 709V226Q609 159 574 106T478 22T340 -9Q264 -9 203 21Z" />
<glyph unicode="V" glyph-name="V" horiz-adv-x="686" d="M319 -9T311 11L52 703Q64 709 77 709Q96 709 111 698T135 668L339 98L324 57L330 54L550 668Q557 687 573 698T609 709Q622 709 634 703L374 11Q366 -9 343 -9Q319 -9 311 11Z" />
<glyph unicode="W" glyph-name="W" horiz-adv-x="924" d="M236 -9T222 43L52 705Q64 709 72 709Q94 709 111 697T133 665L260 121L248 76L252 74L431 688Q434 698 442 703T462 709Q473 709 481 704T492 688L654 120L643 75L648 73L791 665Q795 684 812 696T850
709Q860 709 872 705L702 43Q688 -9 638 -9L453 632L448 631L459 593L286 -9Q236 -9 222 43Z" />
<glyph unicode="X" glyph-name="X" horiz-adv-x="687" d="M67 -9T52 3L307 361L65 698Q82 709 99 709Q114 709 128 702T150 683L340 415L321 389L326 386L536 683Q556 709 586 709Q607 709 621 698L379 361L635 3Q620 -9 600 -9Q587 -9 574 -2T552 19L343 312L135
19Q126 6 113 -1T86 -9Q67 -9 52 3Z" />
<glyph unicode="Y" glyph-name="Y" horiz-adv-x="669" d="M301 257L52 698Q66 709 86 709Q103 709 116 702T136 681L331 318L314 285L320 282L532 681Q548 709 583 709Q602 709 618 698L367 257V54Q367 23 350 7T301 -9V257Z" />
<glyph unicode="Z" glyph-name="Z" horiz-adv-x="674" d="M68 0T60 8T52 31Q52 43 57 48L544 666L540 669L520 644H129Q71 644 71 700H586Q615 700 615 669Q615 658 610 652L123 34L127 31L147 56H566Q593 56 607 42T622 0H81Q68 0 60 8Z" />
<glyph unicode="[" glyph-name="bracketleft" horiz-adv-x="339" d="M77 797H288Q288 766 274 753T232 739H142V-82H232Q260 -82 274 -95T288 -140H77V797Z" />
<glyph unicode="\" glyph-name="backslash" horiz-adv-x="549" d="M480 -37T465 -37Q438 -37 420 -5L52 728Q70 737 84 737Q112 737 129 705L497 -27Q480 -37 465 -37Z" />
<glyph unicode="]" glyph-name="bracketright" horiz-adv-x="339" d="M52 -140Q52 -109 65 -96T107 -82H197V739H107Q79 739 66 752T52 797H263V-140H52Z" />
<glyph unicode="^" glyph-name="asciicircum" horiz-adv-x="596" d="M269 689Q273 699 281 703T298 708Q318 708 327 689L545 255Q536 250 520 250Q504 250 491 257T471 277L298 627L126 277Q120 263 106 256T77 249Q63 249 52 255L269 689Z" />
<glyph unicode="_" glyph-name="underscore" horiz-adv-x="594" d="M52 -90T66 -75T107 -59H542Q542 -86 528 -101T487 -117H52Q52 -90 66 -75Z" />
<glyph unicode="`" glyph-name="grave" horiz-adv-x="287" d="M203 557T192 560T172 574L52 725H90Q114 725 130 719T155 698L235 557Q203 557 192 560Z" />
<glyph unicode="a" glyph-name="a" horiz-adv-x="526" d="M158 -9T105 36T52 158Q52 235 105 280T249 326Q352 326 413 252L416 254Q408 266 396 278V337Q396 394 361 425T262 456Q149 456 104 362Q92 371 85 383T78 406Q78 431 105 455T175 494T263 509Q352 509
403 463T455 337V47Q455 -9 396 -9V43Q414 61 418 69L415 72Q383 33 340 12T245 -9Q158 -9 105 36ZM317 43T357 74T398 158Q398 211 359 242T250 273Q185 273 149 243T112 158Q112 104 148 74T248 43Q317 43 357 74Z" />
<glyph unicode="b" glyph-name="b" horiz-adv-x="546" d="M77 654Q77 709 137 709V457Q133 453 128 447T116 433L119 428Q150 464 193 486T284 509Q372 509 425 464T479 341V160Q479 82 426 37T283 -9Q186 -9 118 78L116 74Q119 69 136 49Q136 19 122 5T77 -9V654ZM345
45T383 75T421 161V340Q421 393 384 424T280 455Q242 455 209 440T156 400T136 345V156Q136 126 155 101T207 60T278 45Q345 45 383 75Z" />
<glyph unicode="c" glyph-name="c" horiz-adv-x="511" d="M210 -9T164 12T93 72T67 159V338Q67 388 92 427T162 487T267 509Q322 509 365 493T432 447T456 381Q456 362 443 350T409 337Q409 389 369 422T267 455Q205 455 166 422T126 337V160Q126 109 165 77T269
45Q332 45 372 77T412 162Q433 163 446 151T459 119Q459 82 435 53T368 8T269 -9Q210 -9 164 12Z" />
<glyph unicode="d" glyph-name="d" horiz-adv-x="546" d="M172 -9T120 36T67 160V341Q67 417 119 463T260 509Q358 509 427 428L430 433Q428 436 409 457V654Q409 681 424 695T469 709V51Q469 21 455 6T410 -9V48Q419 58 430 74L428 78Q357 -9 261 -9Q172 -9 120
36ZM306 45T339 60T391 100T410 156V345Q410 393 371 424T266 455Q201 455 164 424T126 340V161Q126 106 163 76T268 45Q306 45 339 60Z" />
<glyph unicode="e" glyph-name="e" horiz-adv-x="520" d="M209 -9T164 13T93 76T67 169V328Q67 379 93 420T166 485T268 509Q323 509 369 486T441 421T468 329V260Q468 249 459 241T439 232H126V170Q126 111 163 78T268 44Q336 44 373 75T411 160Q429 160 443
147T458 117Q458 85 431 56T361 9T268 -9Q209 -9 164 13ZM410 284V329Q410 385 371 420T268 456Q205 456 166 421T126 329V284H410Z" />
<glyph unicode="f" glyph-name="f" horiz-adv-x="371" d="M126 447H42Q42 473 54 486T90 500H126V576Q126 636 161 672T261 709Q291 709 310 695T329 661Q329 648 322 637Q293 655 259 655Q221 655 204 635T186 572V500H309Q309 475 296 461T258 447H186V46Q186
-9 126 -9V447Z" />
<glyph unicode="g" glyph-name="g" horiz-adv-x="546" d="M219 -209T176 -192T106 -146T79 -85Q79 -65 92 -54T126 -43Q127 -93 166 -125T268 -157Q338 -157 374 -122T410 -21V53L429 77L428 82Q395 44 351 23T262 1Q174 1 121 47T67 169V340Q67 417 121 463T263
509Q359 509 428 422L430 426Q425 434 410 451Q410 481 424 495T470 509V-19Q470 -75 445 -118T373 -185T268 -209Q219 -209 176 -192ZM305 55T337 70T389 110T409 165V344Q409 374 390 399T339 440T268 455Q201 455 164 425T126 339V170Q126 117 163 86T266 55Q305
55 337 70Z" />
<glyph unicode="h" glyph-name="h" horiz-adv-x="546" d="M77 652Q77 709 136 709V443Q123 429 116 419L118 415Q150 457 199 483T301 509Q384 509 431 464T479 340V46Q479 -9 420 -9V338Q420 394 389 424T295 455Q255 455 218 438T159 394T136 336V46Q136 -9 77 -9V652Z" />
<glyph unicode="i" glyph-name="i" horiz-adv-x="259" d="M107 605T92 620T77 657Q77 679 92 694T129 709Q151 709 166 694T182 657Q182 635 167 620T129 605Q107 605 92 620ZM99 453Q99 509 160 509V46Q160 -9 99 -9V453Z" />
<glyph unicode="j" glyph-name="j" horiz-adv-x="347" d="M195 605T180 620T164 657Q164 679 179 694T217 709Q239 709 254 694T270 657Q270 635 255 620T217 605Q195 605 180 620ZM82 -209T62 -195T42 -159Q42 -145 50 -136Q62 -144 79 -149T113 -155Q152 -155
169 -135T187 -71V453Q187 509 247 509V-75Q247 -136 212 -172T112 -209Q82 -209 62 -195Z" />
<glyph unicode="k" glyph-name="k" horiz-adv-x="526" d="M476 3Q461 -9 442 -9Q429 -9 419 -5T401 13L228 278L136 190V45Q136 -9 77 -9V653Q77 680 92 694T136 709V255L400 507Q418 487 418 477Q418 465 412 456T389 433L266 315L476 3Z" />
<glyph unicode="l" glyph-name="l" horiz-adv-x="321" d="M142 -9T110 26T77 123V654Q77 709 136 709V124Q136 81 153 63T209 45Q242 45 273 63Q280 51 280 38Q280 19 259 5T205 -9Q142 -9 110 26Z" />
<glyph unicode="m" glyph-name="m" horiz-adv-x="765" d="M77 452Q77 509 134 509V442L115 419L118 415Q154 462 190 485T270 509Q363 509 399 421Q458 509 551 509Q621 509 660 464T699 340V46Q699 -9 639 -9V339Q639 395 616 425T545 455Q512 455 483 439T435
396T417 337V46Q417 -9 359 -9V339Q359 395 335 425T263 455Q231 455 202 439T155 395T137 337V46Q137 -9 77 -9V452Z" />
<glyph unicode="n" glyph-name="n" horiz-adv-x="546" d="M77 452Q77 509 135 509V442Q128 435 116 419L118 415Q150 457 199 483T301 509Q384 509 431 464T479 340V46Q479 -9 420 -9V338Q420 394 389 424T295 455Q255 455 218 438T159 394T136 336V46Q136 -9 77 -9V452Z" />
<glyph unicode="o" glyph-name="o" horiz-adv-x="534" d="M208 -9T161 13T88 73T62 159V338Q62 385 88 424T161 486T267 509Q326 509 373 486T446 424T472 338V159Q472 112 446 74T373 13T267 -9Q208 -9 161 13ZM334 44T374 76T414 160V337Q414 389 374 422T267
456Q200 456 160 423T120 337V160Q120 109 160 77T267 44Q334 44 374 76Z" />
<glyph unicode="p" glyph-name="p" horiz-adv-x="546" d="M77 449Q77 509 136 509V452L116 426L118 422Q187 509 283 509Q372 509 425 463T479 340V159Q479 83 426 37T284 -9Q188 -9 119 72L116 67Q137 43 137 43V-154Q137 -181 122 -195T77 -209V449ZM345 45T383
76T421 160V339Q421 394 383 424T278 455Q240 455 207 440T155 400T136 344V155Q136 107 175 76T280 45Q345 45 383 76Z" />
<glyph unicode="q" glyph-name="q" horiz-adv-x="546" d="M470 -154Q470 -181 455 -195T410 -209V43L429 67L428 72Q395 34 351 13T262 -9Q174 -9 121 37T67 159V340Q67 417 121 463T263 509Q359 509 428 422L430 426L410 451Q410 481 424 495T470 509V-154ZM201
455T164 425T126 339V160Q126 107 163 76T266 45Q305 45 337 60T389 100T409 155V344Q409 374 390 399T339 440T268 455Q201 455 164 425Z" />
<glyph unicode="r" glyph-name="r" horiz-adv-x="386" d="M229 455T200 439T153 396T136 336V46Q136 -9 77 -9V452Q77 509 135 509V447Q121 431 114 419L117 415Q183 509 278 509Q307 509 325 496T344 463Q344 452 337 440Q307 455 264 455Q229 455 200 439Z" />
<glyph unicode="s" glyph-name="s" horiz-adv-x="495" d="M196 -9T152 7T83 53T58 121Q58 162 102 163Q116 44 253 44Q316 44 350 65T385 128Q385 156 372 174T327 205T237 230Q145 249 104 282T63 376Q63 435 113 472T241 509Q316 509 369 476T425 390Q426 370
414 359T377 346Q373 399 338 428T241 458Q188 458 155 436T122 376Q122 339 150 318T248 283Q354 262 399 228T444 131Q444 66 392 29T251 -9Q196 -9 152 7Z" />
<glyph unicode="t" glyph-name="t" horiz-adv-x="372" d="M193 -9T161 26T128 123V447H42Q42 473 54 486T91 500H128V604Q128 631 143 645T188 659V500H321Q321 475 308 461T270 447H188V124Q188 81 204 63T261 45Q293 45 324 63Q331 53 331 38Q331 19 310 5T256
-9Q193 -9 161 26Z" />
<glyph unicode="u" glyph-name="u" horiz-adv-x="546" d="M469 48Q469 -9 411 -9V58Q418 65 430 81L428 85Q395 42 348 17T249 -9Q166 -9 117 39T67 166V454Q67 509 127 509V167Q127 110 160 78T256 45Q295 45 330 62T388 106T410 164V454Q410 509 469 509V48Z" />
<glyph unicode="v" glyph-name="v" horiz-adv-x="558" d="M271 -9T263 -4T252 9L52 503Q63 509 79 509Q112 509 124 477L276 85L263 50L267 48L434 477Q446 509 479 509Q495 509 506 503L306 9Q304 2 296 -3T280 -9Q271 -9 263 -4Z" />
<glyph unicode="w" glyph-name="w" horiz-adv-x="736" d="M199 -9T187 33L52 504Q67 509 77 509Q110 509 119 477L222 99L213 66L217 64L340 488Q346 509 368 509Q378 509 386 503T396 488L508 99L499 66L503 64L616 477Q625 509 659 509Q669 509 684 504L548
33Q542 13 528 2T493 -9L360 444L357 443L365 412L243 -9Q199 -9 187 33Z" />
<glyph unicode="x" glyph-name="x" horiz-adv-x="550" d="M69 -9T52 5L240 266L75 497Q92 509 111 509Q136 509 152 485L272 314L253 289L258 287L398 485Q414 509 441 509Q458 509 476 497L310 266L498 5Q483 -9 464 -9Q452 -9 441 -3T423 14L275 223L128 13Q112
-9 89 -9Q69 -9 52 5Z" />
<glyph unicode="y" glyph-name="y" horiz-adv-x="560" d="M83 -208T70 -196T55 -159Q70 -162 92 -162Q140 -162 170 -134T229 -35L251 16L52 503Q64 509 80 509Q94 509 106 501T125 477L277 91L263 56L268 54L436 477Q448 509 480 509Q496 509 508 503L281 -52Q249
-132 208 -170T106 -208Q83 -208 70 -196Z" />
<glyph unicode="z" glyph-name="z" horiz-adv-x="513" d="M68 0T60 8T52 28Q52 35 58 45L398 470L395 473L375 449H113Q89 449 76 462T63 500H429Q442 500 450 493T458 474Q458 462 451 454L114 32L118 30L136 51H411Q435 51 448 37T462 0H80Q68 0 60 8Z" />
<glyph unicode="{" glyph-name="braceleft" horiz-adv-x="365" d="M187 -125T163 -95T139 -14V191Q139 231 126 252T76 273Q66 273 59 281T52 301Q52 312 59 320T76 329Q112 329 125 350T139 411V616Q139 666 163 696T231 727H313Q313 669 264 669H245Q224 669
214 655T204 614V422Q204 378 192 349T152 301Q180 282 192 253T204 180V-12Q204 -38 214 -52T245 -67H264Q313 -67 313 -125H231Q187 -125 163 -95Z" />
<glyph unicode="|" glyph-name="bar" horiz-adv-x="211" d="M77 723Q77 749 92 763T134 777V-99Q134 -125 120 -139T77 -153V723Z" />
<glyph unicode="}" glyph-name="braceright" horiz-adv-x="365" d="M52 -67T100 -67H119Q160 -67 160 -12V180Q160 224 172 253T213 301Q184 320 172 349T160 422V614Q160 669 119 669H100Q52 669 52 727H134Q178 727 201 697T225 616V411Q225 371 239 350T289
329Q299 329 306 321T313 301Q313 290 306 282T289 273Q253 273 239 252T225 191V-14Q225 -65 202 -95T134 -125H52Q52 -67 100 -67Z" />
<glyph unicode="~" glyph-name="asciitilde" horiz-adv-x="632" d="M413 233T384 241T304 266Q260 282 230 290T171 299Q137 299 113 288T68 255Q54 275 54 292Q54 321 88 338T171 356Q204 356 236 348T315 322Q356 307 385 299T442 291Q479 291 505 305T559 352Q580
337 580 316Q580 296 560 277T508 245T442 233Q413 233 384 241Z" />
<glyph unicode="&#xa0;" glyph-name="uni00A0" horiz-adv-x="258" />
<glyph unicode="&#xa1;" glyph-name="exclamdown" horiz-adv-x="270" d="M159 509T176 492T194 451Q194 427 177 410T135 393Q110 393 94 410T77 451Q77 476 93 492T135 509Q159 509 176 492ZM107 288Q138 288 155 272T172 225V-209Q141 -209 124 -193T107 -147V288Z" />
<glyph unicode="&#xa2;" glyph-name="cent" horiz-adv-x="513" d="M459 67T414 32T294 -8V-52Q294 -79 282 -91T244 -103V-8Q164 -1 116 44T67 159V338Q67 408 115 455T244 508V552Q244 578 255 590T294 602V508Q367 502 411 468T456 381Q456 362 443 350T409
337Q409 383 378 414T294 453V46Q347 53 379 84T412 162Q433 163 446 151T459 119Q459 67 414 32ZM126 115T158 84T244 46V454Q191 448 159 416T126 337V160Q126 115 158 84Z" />
<glyph unicode="&#xa3;" glyph-name="sterling" horiz-adv-x="565" d="M65 46T91 60Q142 90 169 130T197 218Q197 278 182 324H52Q52 377 104 377H171Q138 464 138 525Q138 608 189 658T332 709Q371 709 407 698T467 668T490 629Q490 611 476 599Q420 651 333
651Q269 651 235 618T201 523Q201 483 234 377H407Q407 324 354 324H244Q259 267 259 230Q259 171 236 130T170 58H456Q513 58 513 0H65Q65 46 91 60Z" />
<glyph unicode="&#xa4;" glyph-name="currency" horiz-adv-x="713" d="M255 77T188 138L137 86Q122 73 101 73Q70 73 52 98L138 185Q80 258 80 351Q80 449 138 520L52 607Q73 632 101 632Q123 632 137 618L188 567Q224 596 268 611T357 626Q401 626 445 611T526
567L577 618Q591 632 613 632Q643 632 662 607L576 520Q605 484 619 440T634 351Q634 259 576 185L662 98Q644 73 613 73Q592 73 577 86L526 138Q458 77 357 77Q255 77 188 138ZM415 133T463 162T540 242T569 351Q569 410 541 459T463 538T357 568Q299 568 251
539T174 460T145 351Q145 292 173 242T250 163T357 133Q415 133 463 162Z" />
<glyph unicode="&#xa5;" glyph-name="yen" horiz-adv-x="669" d="M367 213V157H514Q514 133 502 123T464 113H367V54Q367 23 350 7T301 -9V113H155Q155 136 167 146T205 157H301V213H155Q155 257 205 257H301L52 698Q66 709 86 709Q103 709 116 702T136 681L331
318L314 285L320 282L532 681Q548 709 583 709Q602 709 618 698L367 257H514Q514 233 502 223T464 213H367Z" />
<glyph unicode="&#xa6;" glyph-name="brokenbar" horiz-adv-x="211" d="M77 723Q77 749 92 763T134 777V418Q134 392 120 378T77 364V723ZM77 205Q77 232 92 245T134 259V-99Q134 -125 120 -139T77 -153V205Z" />
<glyph unicode="&#xa7;" glyph-name="section" horiz-adv-x="509" d="M187 -9T134 10T80 65Q80 84 95 97Q119 73 158 59T250 45Q307 45 340 67T373 131Q373 157 361 175T319 208T233 240Q137 269 95 304T52 401Q52 431 68 457T120 503Q86 533 86 578Q86 640 131
674T253 709Q313 709 358 694T407 646Q407 639 402 630T390 615Q339 656 253 656Q203 656 175 636T147 581Q147 557 164 541T207 514T293 484Q373 458 415 421T457 331Q457 293 443 268T399 220Q413 206 423 184T433 136Q433 67 386 29T250 -9Q187 -9 134 10ZM373
267T383 288T394 331Q394 361 368 384T282 428Q252 437 220 448T163 473Q113 454 113 399Q113 375 124 359T163 327T242 294L268 285Q297 275 318 267T356 249Q373 267 383 288Z" />
<glyph unicode="&#xa8;" glyph-name="dieresis" horiz-adv-x="375" d="M77 555T65 567T52 599Q52 619 64 631T97 644Q116 644 128 632T141 599Q141 580 129 568T97 555Q77 555 65 567ZM259 555T247 567T234 599Q234 619 246 631T279 644Q299 644 311 632T324 599Q324
580 311 568T279 555Q259 555 247 567Z" />
<glyph unicode="&#xa9;" glyph-name="copyright" horiz-adv-x="823" d="M306 -9T225 36T98 163T52 349Q52 454 97 536T224 663T411 709Q516 709 598 664T726 536T772 349Q772 245 726 164T598 37T411 -9Q306 -9 225 36ZM500 42T568 80T675 189T714 348Q714 438
676 508T568 618T411 658Q323 658 255 619T148 509T110 348Q110 259 148 189T254 81T411 42Q500 42 568 80ZM371 138T333 157T272 208T249 277V425Q249 462 272 493T333 544T416 563Q457 563 495 547T556 505T580 451Q580 435 570 426T541 417Q532 417 528 418Q528
459 496 487T416 515Q371 515 339 489T306 425V277Q306 240 338 214T416 187Q466 187 497 214T528 284Q532 285 540 285Q558 285 569 277T580 253Q580 224 557 198T495 155T416 138Q371 138 333 157Z" />
<glyph unicode="&#xaa;" glyph-name="ordfeminine" horiz-adv-x="447" d="M132 299T90 334T48 431Q48 493 91 530T209 567Q249 567 280 552T339 506L342 508Q332 521 324 529V567Q324 612 296 637T215 662Q122 662 86 579Q75 587 69 597T63 619Q63 641 85 662T142
696T215 709Q288 709 331 671T375 568V348Q375 299 324 299V345Q338 359 343 367L340 370Q309 332 277 316T203 299Q132 299 90 334ZM259 344T292 368T326 432Q326 520 209 520Q101 520 101 431Q101 392 129 368T205 344Q259 344 292 368Z" />
<glyph unicode="&#xab;" glyph-name="guillemotleft" horiz-adv-x="471" d="M60 271Q52 282 52 292Q52 303 60 313L203 477Q218 495 239 495Q260 495 275 476L113 292L275 108Q260 88 239 88Q220 88 203 107L60 271ZM204 271Q196 282 196 292Q196 302 204 313L347
477Q364 495 384 495Q406 495 419 476L257 292L419 108Q404 89 383 89Q364 89 347 107L204 271Z" />
<glyph unicode="&#xac;" glyph-name="logicalnot" horiz-adv-x="606" d="M497 352H52Q52 379 65 393T105 407H554V230Q554 204 540 190T497 176V352Z" />
<glyph unicode="&#xad;" glyph-name="uni00AD" horiz-adv-x="437" d="M52 289T67 304T107 320H385Q385 294 371 279T329 263H52Q52 289 67 304Z" />
<glyph unicode="&#xae;" glyph-name="registered" horiz-adv-x="823" d="M306 -9T225 36T98 163T52 349Q52 454 97 536T224 663T411 709Q516 709 598 664T726 536T772 349Q772 245 726 164T598 37T411 -9Q306 -9 225 36ZM500 42T568 80T675 189T714 348Q714 438
676 508T568 618T411 658Q323 658 255 619T148 509T110 348Q110 259 148 189T254 81T411 42Q500 42 568 80ZM254 529Q254 539 262 546T281 553H475Q524 553 553 523T583 440Q583 409 569 387T523 348Q578 327 578 258V183Q578 163 564 153T522 142V259Q522 325
472 325H309V183Q309 142 254 142V529ZM474 372Q498 372 514 391T530 440Q530 469 515 487T474 506H309V372H474Z" />
<glyph unicode="&#xaf;" glyph-name="overscore" horiz-adv-x="401" d="M52 591T66 604T108 618H350Q350 593 335 579T294 565H52Q52 591 66 604Z" />
<glyph unicode="&#xb0;" glyph-name="degree" horiz-adv-x="381" d="M153 439T121 457T71 507T52 576Q52 612 70 643T121 693T191 712Q228 712 260 694T310 644T329 576Q329 539 311 508T260 458T191 439Q153 439 121 457ZM224 489T247 514T271 576Q271 612 248
636T191 661Q157 661 134 637T110 576Q110 539 133 514T191 489Q224 489 247 514Z" />
<glyph unicode="&#xb1;" glyph-name="plusminus" horiz-adv-x="610" d="M275 274H52Q52 300 66 314T105 329H275V458Q275 514 335 514V329H558Q558 302 545 288T504 274H335V146Q335 90 275 90V274ZM52 25T67 41T108 57H558Q558 30 543 15T502 -1H52Q52 25 67 41Z" />
<glyph unicode="&#xb2;" glyph-name="uni00B2" horiz-adv-x="434" d="M50 400T43 407T35 428Q35 486 79 532T205 622Q252 648 277 665T315 703T329 755Q329 795 303 818T222 841Q162 841 132 813T101 738Q101 723 102 711Q77 709 58 723T39 760Q39 797 63 828T130
878T222 896Q299 896 346 858T393 755Q393 700 354 661T234 579Q179 550 143 518T104 454H347Q373 454 386 440T399 400H63Q50 400 43 407Z" />
<glyph unicode="&#xb3;" glyph-name="uni00B3" horiz-adv-x="440" d="M165 394T123 411T58 457T35 523Q35 574 96 573Q94 559 94 548Q94 501 126 475T218 449Q281 449 311 471T342 535Q342 578 312 600T227 622H203Q191 622 183 630T175 650Q175 662 183 670T203
678H228Q272 678 300 700T328 761Q328 799 303 820T223 841Q166 841 137 821T108 763Q108 749 111 739Q84 737 66 750T48 784Q48 816 71 841T134 881T223 896Q301 896 346 859T392 761Q392 689 314 650Q359 633 382 606T405 535Q405 471 356 433T218 394Q165 394
123 411Z" />
<glyph unicode="&#xb4;" glyph-name="acute" horiz-adv-x="286" d="M131 679Q139 693 154 700T196 707H235L114 555Q105 545 94 542T52 539L131 679Z" />
<glyph unicode="&#xb6;" glyph-name="paragraph" horiz-adv-x="595" d="M297 254Q181 254 117 310T52 466Q52 539 84 592T169 672T279 699H518V-79Q518 -107 502 -121T455 -136V646H359V-79Q359 -107 343 -121T297 -136V254Z" />
<glyph unicode="&#xb7;" glyph-name="middot" horiz-adv-x="218" d="M85 235T69 251T52 292Q52 316 68 333T108 350Q132 350 149 333T167 292Q167 268 150 252T108 235Q85 235 69 251Z" />
<glyph unicode="&#xb8;" glyph-name="cedilla" horiz-adv-x="286" d="M101 -209T77 -193T52 -154Q52 -143 60 -132Q88 -166 130 -166Q178 -166 178 -126Q178 -106 166 -96T133 -86H129Q114 -86 102 -92Q94 -95 87 -90T79 -74Q79 -70 83 -62L132 12H187L146 -47Q189
-47 212 -69T235 -125Q235 -165 208 -187T138 -209Q101 -209 77 -193Z" />
<glyph unicode="&#xb9;" glyph-name="uni00B9" horiz-adv-x="271" d="M132 836H90Q67 836 55 850T42 890H164Q176 890 185 882T194 862V447Q194 422 178 408T132 394V836Z" />
<glyph unicode="&#xba;" glyph-name="ordmasculine" horiz-adv-x="460" d="M158 299T110 337T62 435V573Q62 633 110 671T230 709Q302 709 350 671T399 573V435Q399 375 351 337T230 299Q158 299 110 337ZM282 346T315 370T348 439V569Q348 613 315 637T230 662Q179
662 146 638T112 569V439Q112 395 145 371T230 346Q282 346 315 370Z" />
<glyph unicode="&#xbb;" glyph-name="guillemotright" horiz-adv-x="471" d="M250 88T231 88Q211 88 196 108L358 292L196 476Q209 495 231 495Q252 495 267 477L410 313Q419 303 419 292Q419 282 410 271L267 107Q250 88 231 88ZM107 88T88 88Q67 88 52 108L214
292L52 476Q67 495 87 495Q108 495 123 477L266 313Q275 302 275 292Q275 282 266 271L123 107Q107 88 88 88Z" />
<glyph unicode="&#xbc;" glyph-name="onequarter" horiz-adv-x="827" d="M504 705Q521 737 549 737Q563 737 581 728L213 -5Q206 -21 195 -29T169 -38Q155 -38 136 -27L504 705ZM142 653H100Q78 653 65 667T52 707H174Q187 707 195 699T204 680V264Q204 238 188
225T142 211V653ZM630 118H402Q390 118 382 125T374 144Q374 155 381 163L638 482Q642 487 650 490T666 493Q678 493 685 486T693 466V173H775Q775 118 729 118H693V39Q693 -9 630 -9V118ZM632 173V384L654 412L650 415L458 173H632Z" />
<glyph unicode="&#xbd;" glyph-name="onehalf" horiz-adv-x="886" d="M504 705Q521 737 549 737Q563 737 581 728L213 -5Q206 -21 195 -29T169 -38Q155 -38 136 -27L504 705ZM142 653H100Q78 653 65 667T52 707H174Q187 707 195 699T204 680V264Q204 238 188 225T142
211V653ZM485 0T478 7T470 28Q470 86 514 132T640 222Q687 248 712 265T750 303T764 355Q764 395 738 418T657 441Q596 441 566 413T535 338Q535 323 537 311Q512 309 493 323T473 360Q473 397 497 428T564 478T657 496Q734 496 781 458T828 355Q828 301 789 262T669
179Q614 150 578 118T538 54H781Q807 54 820 40T834 0H498Q485 0 478 7Z" />
<glyph unicode="&#xbe;" glyph-name="threequarters" horiz-adv-x="1001" d="M678 705Q695 737 723 737Q737 737 755 728L387 -5Q372 -37 343 -37Q328 -37 311 -27L678 705ZM181 207T140 224T75 271T52 337Q52 387 113 386Q111 374 111 361Q111 314 143 288T234
262Q297 262 327 284T358 348Q358 391 329 413T244 436H220Q208 436 200 443T192 463Q192 475 200 483T220 491H245Q289 491 316 513T344 574Q344 612 319 633T239 654Q183 654 154 634T125 577Q125 565 128 553Q101 551 83 563T65 598Q65 630 88 655T150 695T239
709Q317 709 363 672T409 574Q409 502 331 463Q376 446 399 420T422 348Q422 284 373 246T234 207Q181 207 140 224ZM805 118H576Q564 118 556 125T548 144Q548 153 556 163L813 482Q817 487 824 490T840 493Q852 493 859 486T867 466V173H950Q950 118 903 118H867V39Q867
-9 805 -9V118ZM806 173V384L828 412L824 415L632 173H806Z" />
<glyph unicode="&#xbf;" glyph-name="questiondown" horiz-adv-x="522" d="M286 509T303 493T320 451Q320 427 303 410T262 393Q237 393 220 410T203 451Q203 476 220 492T262 509Q286 509 303 493ZM293 231Q293 185 271 157T203 97Q159 65 137 38T114 -33Q114
-93 149 -123T258 -153Q322 -153 365 -116T409 -12Q409 -9 407 17Q433 18 451 3T470 -37Q470 -86 440 -125T362 -187T258 -209Q168 -209 110 -165T52 -33Q52 6 66 34T101 81T155 123Q194 150 212 171T231 222V241Q231 269 246 283T293 298V231Z" />
<glyph unicode="&#xc0;" glyph-name="Agrave" horiz-adv-x="668" d="M75 -2T64 14T52 49Q52 61 57 74L303 689Q307 699 315 704T334 709Q345 709 353 704T365 689L611 75Q616 62 616 50Q616 30 605 14T573 -9L487 215H182L94 -9Q75 -2 64 14ZM465 273L323 637L318
634L331 600L203 273H465ZM341 768T330 771T310 785L194 929H232Q282 929 297 901L373 769Q341 768 330 771Z" />
<glyph unicode="&#xc1;" glyph-name="Aacute" horiz-adv-x="668" d="M75 -2T64 14T52 49Q52 61 57 74L303 689Q307 699 315 704T334 709Q345 709 353 704T365 689L611 75Q616 62 616 50Q616 30 605 14T573 -9L487 215H182L94 -9Q75 -2 64 14ZM465 273L323 637L318
634L331 600L203 273H465ZM365 901Q372 914 386 921T430 928H468L365 785Q357 774 346 771T302 769L365 901Z" />
<glyph unicode="&#xc2;" glyph-name="Acircumflex" horiz-adv-x="668" d="M75 -2T64 14T52 49Q52 61 57 74L303 689Q307 699 315 704T334 709Q345 709 353 704T365 689L611 75Q616 62 616 50Q616 30 605 14T573 -9L487 215H182L94 -9Q75 -2 64 14ZM465 273L323
637L318 634L331 600L203 273H465ZM241 773T221 773Q198 773 183 788L315 925Q323 934 335 934Q348 934 355 925L487 788Q472 773 449 773Q426 773 416 786L335 880L254 786Q241 773 221 773Z" />
<glyph unicode="&#xc3;" glyph-name="Atilde" horiz-adv-x="668" d="M75 -2T64 14T52 49Q52 61 57 74L303 689Q307 699 315 704T334 709Q345 709 353 704T365 689L611 75Q616 62 616 50Q616 30 605 14T573 -9L487 215H182L94 -9Q75 -2 64 14ZM465 273L323 637L318
634L331 600L203 273H465ZM214 774T204 786T194 816Q194 847 214 865T269 883Q292 883 309 874T349 846Q365 833 376 827T399 820Q414 820 422 828T430 850Q430 865 423 879Q435 883 439 883Q454 883 464 870T475 840Q475 810 455 792T401 774Q378 774 360 784T321
811Q304 824 293 830T270 837Q255 837 247 829T238 807Q238 790 246 777Q235 774 229 774Q214 774 204 786Z" />
<glyph unicode="&#xc4;" glyph-name="Adieresis" horiz-adv-x="668" d="M75 -2T64 14T52 49Q52 61 57 74L303 689Q307 699 315 704T334 709Q345 709 353 704T365 689L611 75Q616 62 616 50Q616 30 605 14T573 -9L487 215H182L94 -9Q75 -2 64 14ZM465 273L323 637L318
634L331 600L203 273H465ZM223 785T211 797T198 829Q198 849 210 861T244 874Q263 874 275 862T288 829Q288 810 276 798T244 785Q223 785 211 797ZM406 785T394 797T381 829Q381 849 393 861T426 874Q445 874 457 862T470 829Q470 810 458 798T426 785Q406 785
394 797Z" />
<glyph unicode="&#xc5;" glyph-name="Aring" horiz-adv-x="668" d="M75 -2T64 14T52 49Q52 61 57 74L303 689Q307 699 315 704T334 709Q345 709 353 704T365 689L611 75Q616 62 616 50Q616 30 605 14T573 -9L487 215H182L94 -9Q75 -2 64 14ZM465 273L323 637L318
634L331 600L203 273H465ZM291 745T264 770T236 837Q236 877 263 902T334 928Q376 928 403 903T430 837Q430 796 403 771T334 745Q291 745 264 770ZM356 784T371 798T386 837Q386 861 372 875T334 890Q310 890 296 876T281 837Q281 813 296 799T334 784Q356 784
371 798Z" />
<glyph unicode="&#xc6;" glyph-name="AE" horiz-adv-x="896" d="M349 680Q360 700 381 700H825Q825 642 768 642H460V382H706Q706 323 649 323H460V58H789Q845 58 845 0H428Q413 0 404 9T395 32V215H198L95 -9Q76 -2 65 13T53 47Q53 62 59 75L349 680ZM395 274V645L219
274H395Z" />
<glyph unicode="&#xc7;" glyph-name="Ccedilla" horiz-adv-x="677" d="M626 136T594 92T503 22T369 -8L342 -47Q385 -47 408 -69T431 -125Q431 -165 404 -187T335 -209Q297 -209 273 -193T248 -154Q248 -143 256 -132Q284 -166 327 -166Q375 -166 375 -126Q375
-107 363 -97T330 -86H326Q310 -86 298 -92Q290 -95 283 -90T275 -74Q275 -70 279 -62L315 -8Q242 -3 186 28T98 109T67 224V478Q67 545 102 597T200 679T344 709Q425 709 488 683T586 610T621 502Q621 478 603 463T557 449Q558 454 558 480Q558 530 531 569T455
629T344 651Q282 651 234 629T159 568T132 478V224Q132 173 159 133T234 71T344 49Q408 49 457 71T535 132T563 222Q563 246 562 253Q590 254 608 237T626 192Q626 136 594 92Z" />
<glyph unicode="&#xc8;" glyph-name="Egrave" horiz-adv-x="623" d="M77 669Q77 682 86 691T110 700H551Q551 642 494 642H142V382H432Q432 323 375 323H142V58H515Q571 58 571 0H110Q96 0 87 9T77 32V669ZM317 768T306 771T286 785L170 929H208Q258 929 273 901L349
769Q317 768 306 771Z" />
<glyph unicode="&#xc9;" glyph-name="Eacute" horiz-adv-x="623" d="M77 669Q77 682 86 691T110 700H551Q551 642 494 642H142V382H432Q432 323 375 323H142V58H515Q571 58 571 0H110Q96 0 87 9T77 32V669ZM340 901Q347 914 361 921T405 928H443L340 785Q332 774
321 771T277 769L340 901Z" />
<glyph unicode="&#xca;" glyph-name="Ecircumflex" horiz-adv-x="623" d="M77 669Q77 682 86 691T110 700H551Q551 642 494 642H142V382H432Q432 323 375 323H142V58H515Q571 58 571 0H110Q96 0 87 9T77 32V669ZM217 773T197 773Q174 773 159 788L291 925Q299
934 311 934Q324 934 331 925L463 788Q448 773 425 773Q402 773 392 786L311 880L230 786Q217 773 197 773Z" />
<glyph unicode="&#xcb;" glyph-name="Edieresis" horiz-adv-x="623" d="M77 669Q77 682 86 691T110 700H551Q551 642 494 642H142V382H432Q432 323 375 323H142V58H515Q571 58 571 0H110Q96 0 87 9T77 32V669ZM199 785T187 797T174 829Q174 849 186 861T220 874Q239
874 251 862T264 829Q264 810 252 798T220 785Q199 785 187 797ZM382 785T370 797T357 829Q357 849 369 861T402 874Q421 874 433 862T446 829Q446 810 434 798T402 785Q382 785 370 797Z" />
<glyph unicode="&#xcc;" glyph-name="Igrave" horiz-adv-x="259" d="M97 646Q97 676 114 692T162 709V54Q162 23 146 7T97 -9V646ZM137 768T126 771T106 785L-10 929H28Q78 929 93 901L169 769Q137 768 126 771Z" />
<glyph unicode="&#xcd;" glyph-name="Iacute" horiz-adv-x="259" d="M97 646Q97 676 114 692T162 709V54Q162 23 146 7T97 -9V646ZM161 901Q168 914 182 921T226 928H264L161 785Q153 774 142 771T98 769L161 901Z" />
<glyph unicode="&#xce;" glyph-name="Icircumflex" horiz-adv-x="259" d="M97 646Q97 676 114 692T162 709V54Q162 23 146 7T97 -9V646ZM37 773T17 773Q-6 773 -21 788L111 925Q119 934 131 934Q144 934 151 925L283 788Q268 773 245 773Q222 773 212 786L131
880L50 786Q37 773 17 773Z" />
<glyph unicode="&#xcf;" glyph-name="Idieresis" horiz-adv-x="259" d="M97 646Q97 676 114 692T162 709V54Q162 23 146 7T97 -9V646ZM19 785T7 797T-6 829Q-6 849 6 861T40 874Q59 874 71 862T84 829Q84 810 72 798T40 785Q19 785 7 797ZM202 785T190 797T177
829Q177 849 189 861T222 874Q241 874 253 862T266 829Q266 810 254 798T222 785Q202 785 190 797Z" />
<glyph unicode="&#xd0;" glyph-name="Eth" horiz-adv-x="749" d="M496 700T559 670T657 585T692 460V243Q692 172 657 117T558 31T414 0H170Q156 0 147 9T137 32V309H52Q52 364 102 364H137V669Q137 682 146 691T170 700H414Q496 700 559 670ZM627 459Q627 544
567 593T404 642H202V364H402Q402 309 352 309H202V58H404Q507 58 567 108T627 243V459Z" />
<glyph unicode="&#xd1;" glyph-name="Ntilde" horiz-adv-x="692" d="M77 646Q77 676 93 692T141 709L566 74L571 78L550 112V709Q615 709 615 646V53Q615 24 599 8T553 -9L126 628L121 624L142 591V54Q142 23 126 7T77 -9V646ZM227 774T217 786T207 816Q207 847
227 865T282 883Q305 883 322 874T362 846Q378 833 389 827T412 820Q427 820 435 828T443 850Q443 865 436 879Q448 883 452 883Q467 883 477 870T488 840Q488 810 468 792T414 774Q391 774 373 784T334 811Q317 824 306 830T283 837Q268 837 260 829T251 807Q251
790 259 777Q248 774 242 774Q227 774 217 786Z" />
<glyph unicode="&#xd2;" glyph-name="Ograve" horiz-adv-x="688" d="M260 -9T196 23T97 114T62 245V458Q62 530 97 587T196 676T344 709Q428 709 492 677T591 587T626 458V245Q626 172 591 114T491 24T344 -9Q260 -9 196 23ZM448 49T505 102T562 245V456Q562 546
506 598T344 651Q239 651 183 599T126 456V245Q126 155 182 102T344 49Q448 49 505 102ZM351 768T340 771T320 785L204 929H242Q292 929 307 901L383 769Q351 768 340 771Z" />
<glyph unicode="&#xd3;" glyph-name="Oacute" horiz-adv-x="688" d="M260 -9T196 23T97 114T62 245V458Q62 530 97 587T196 676T344 709Q428 709 492 677T591 587T626 458V245Q626 172 591 114T491 24T344 -9Q260 -9 196 23ZM448 49T505 102T562 245V456Q562 546
506 598T344 651Q239 651 183 599T126 456V245Q126 155 182 102T344 49Q448 49 505 102ZM374 901Q381 914 395 921T439 928H477L374 785Q366 774 355 771T311 769L374 901Z" />
<glyph unicode="&#xd4;" glyph-name="Ocircumflex" horiz-adv-x="688" d="M260 -9T196 23T97 114T62 245V458Q62 530 97 587T196 676T344 709Q428 709 492 677T591 587T626 458V245Q626 172 591 114T491 24T344 -9Q260 -9 196 23ZM448 49T505 102T562 245V456Q562
546 506 598T344 651Q239 651 183 599T126 456V245Q126 155 182 102T344 49Q448 49 505 102ZM251 773T231 773Q208 773 193 788L325 925Q333 934 345 934Q358 934 365 925L497 788Q482 773 459 773Q436 773 426 786L345 880L264 786Q251 773 231 773Z" />
<glyph unicode="&#xd5;" glyph-name="Otilde" horiz-adv-x="688" d="M260 -9T196 23T97 114T62 245V458Q62 530 97 587T196 676T344 709Q428 709 492 677T591 587T626 458V245Q626 172 591 114T491 24T344 -9Q260 -9 196 23ZM448 49T505 102T562 245V456Q562 546
506 598T344 651Q239 651 183 599T126 456V245Q126 155 182 102T344 49Q448 49 505 102ZM224 774T214 786T204 816Q204 847 224 865T279 883Q302 883 319 874T359 846Q375 833 386 827T409 820Q424 820 432 828T440 850Q440 865 433 879Q445 883 449 883Q464 883
474 870T485 840Q485 810 465 792T411 774Q388 774 370 784T331 811Q314 824 303 830T280 837Q265 837 257 829T248 807Q248 790 256 777Q245 774 239 774Q224 774 214 786Z" />
<glyph unicode="&#xd6;" glyph-name="Odieresis" horiz-adv-x="688" d="M260 -9T196 23T97 114T62 245V458Q62 530 97 587T196 676T344 709Q428 709 492 677T591 587T626 458V245Q626 172 591 114T491 24T344 -9Q260 -9 196 23ZM448 49T505 102T562 245V456Q562
546 506 598T344 651Q239 651 183 599T126 456V245Q126 155 182 102T344 49Q448 49 505 102ZM233 785T221 797T208 829Q208 849 220 861T254 874Q273 874 285 862T298 829Q298 810 286 798T254 785Q233 785 221 797ZM416 785T404 797T391 829Q391 849 403 861T436
874Q455 874 467 862T480 829Q480 810 468 798T436 785Q416 785 404 797Z" />
<glyph unicode="&#xd7;" glyph-name="multiply" horiz-adv-x="536" d="M229 292L52 468Q71 487 92 487Q112 487 129 470L268 331L406 470Q425 487 443 487Q465 487 484 468L308 292L484 115Q465 96 444 96Q423 96 406 113L268 252L129 113Q112 96 92 96Q71 96
52 115L229 292Z" />
<glyph unicode="&#xd8;" glyph-name="Oslash" horiz-adv-x="688" d="M576 621T601 571T626 459V244Q626 171 591 113T491 23T344 -10Q271 -10 207 17L184 -29Q167 -61 141 -61Q127 -61 112 -52L161 44Q113 79 88 130T62 244V459Q62 531 97 588T196 677T344 710Q421
710 482 682L509 736Q517 751 528 759T553 768Q566 768 582 760L529 655Q576 621 601 571ZM126 150T187 97L456 631Q410 652 344 652Q239 652 183 600T126 457V244Q126 150 187 97ZM562 457Q562 551 502 602L233 69Q280 48 344 48Q448 48 505 101T562 244V457Z"
/>
<glyph unicode="&#xd9;" glyph-name="Ugrave" horiz-adv-x="680" d="M264 -9T203 21T107 105T72 226V646Q72 676 89 692T137 709V226Q137 175 163 135T235 73T340 51Q399 51 445 73T517 135T543 226V646Q543 677 560 693T609 709V226Q609 159 574 106T478 22T340
-9Q264 -9 203 21ZM348 768T337 771T317 785L201 929H239Q289 929 304 901L380 769Q348 768 337 771Z" />
<glyph unicode="&#xda;" glyph-name="Uacute" horiz-adv-x="680" d="M264 -9T203 21T107 105T72 226V646Q72 676 89 692T137 709V226Q137 175 163 135T235 73T340 51Q399 51 445 73T517 135T543 226V646Q543 677 560 693T609 709V226Q609 159 574 106T478 22T340
-9Q264 -9 203 21ZM372 901Q379 914 393 921T437 928H475L372 785Q364 774 353 771T309 769L372 901Z" />
<glyph unicode="&#xdb;" glyph-name="Ucircumflex" horiz-adv-x="680" d="M264 -9T203 21T107 105T72 226V646Q72 676 89 692T137 709V226Q137 175 163 135T235 73T340 51Q399 51 445 73T517 135T543 226V646Q543 677 560 693T609 709V226Q609 159 574 106T478
22T340 -9Q264 -9 203 21ZM248 773T228 773Q205 773 190 788L322 925Q330 934 342 934Q355 934 362 925L494 788Q479 773 456 773Q433 773 423 786L342 880L261 786Q248 773 228 773Z" />
<glyph unicode="&#xdc;" glyph-name="Udieresis" horiz-adv-x="680" d="M264 -9T203 21T107 105T72 226V646Q72 676 89 692T137 709V226Q137 175 163 135T235 73T340 51Q399 51 445 73T517 135T543 226V646Q543 677 560 693T609 709V226Q609 159 574 106T478 22T340
-9Q264 -9 203 21ZM230 785T218 797T205 829Q205 849 217 861T251 874Q270 874 282 862T295 829Q295 810 283 798T251 785Q230 785 218 797ZM413 785T401 797T388 829Q388 849 400 861T433 874Q452 874 464 862T477 829Q477 810 465 798T433 785Q413 785 401 797Z"
/>
<glyph unicode="&#xdd;" glyph-name="Yacute" horiz-adv-x="669" d="M301 257L52 698Q66 709 86 709Q103 709 116 702T136 681L331 318L314 285L320 282L532 681Q548 709 583 709Q602 709 618 698L367 257V54Q367 23 350 7T301 -9V257ZM365 901Q372 914 386 921T430
928H468L365 785Q357 774 346 771T302 769L365 901Z" />
<glyph unicode="&#xde;" glyph-name="Thorn" horiz-adv-x="608" d="M77 700Q109 700 125 684T142 637V556H347Q409 556 457 531T531 459T557 353Q557 259 500 203T347 147H142V54Q142 23 126 7T77 -9V700ZM347 206Q414 206 452 245T491 352Q491 419 452 458T347
498H142V206H347Z" />
<glyph unicode="&#xdf;" glyph-name="germandbls" horiz-adv-x="538" d="M72 518Q72 607 121 658T257 709Q345 709 394 662T444 531Q444 481 419 441T351 380Q417 361 451 314T486 194Q486 96 441 44T313 -9Q274 -9 246 4T218 34Q218 50 227 64Q260 43 316 43Q368
43 395 81T423 194Q423 273 380 310T245 349V399Q314 403 345 435T377 533Q377 657 255 657Q198 657 167 622T136 522V-75Q136 -136 72 -136V518Z" />
<glyph unicode="&#xe0;" glyph-name="agrave" horiz-adv-x="526" d="M158 -9T105 36T52 158Q52 235 105 280T249 326Q352 326 413 252L416 254Q408 266 396 278V337Q396 394 361 425T262 456Q149 456 104 362Q92 371 85 383T78 406Q78 431 105 455T175 494T263
509Q352 509 403 463T455 337V47Q455 -9 396 -9V43Q414 61 418 69L415 72Q383 33 340 12T245 -9Q158 -9 105 36ZM317 43T357 74T398 158Q398 211 359 242T250 273Q185 273 149 243T112 158Q112 104 148 74T248 43Q317 43 357 74ZM270 568T259 571T239 585L123 729H161Q211
729 226 701L302 569Q270 568 259 571Z" />
<glyph unicode="&#xe1;" glyph-name="aacute" horiz-adv-x="526" d="M158 -9T105 36T52 158Q52 235 105 280T249 326Q352 326 413 252L416 254Q408 266 396 278V337Q396 394 361 425T262 456Q149 456 104 362Q92 371 85 383T78 406Q78 431 105 455T175 494T263
509Q352 509 403 463T455 337V47Q455 -9 396 -9V43Q414 61 418 69L415 72Q383 33 340 12T245 -9Q158 -9 105 36ZM317 43T357 74T398 158Q398 211 359 242T250 273Q185 273 149 243T112 158Q112 104 148 74T248 43Q317 43 357 74ZM293 701Q300 714 314 721T358 728H396L293
585Q285 574 274 571T230 569L293 701Z" />
<glyph unicode="&#xe2;" glyph-name="acircumflex" horiz-adv-x="526" d="M158 -9T105 36T52 158Q52 235 105 280T249 326Q352 326 413 252L416 254Q408 266 396 278V337Q396 394 361 425T262 456Q149 456 104 362Q92 371 85 383T78 406Q78 431 105 455T175 494T263
509Q352 509 403 463T455 337V47Q455 -9 396 -9V43Q414 61 418 69L415 72Q383 33 340 12T245 -9Q158 -9 105 36ZM317 43T357 74T398 158Q398 211 359 242T250 273Q185 273 149 243T112 158Q112 104 148 74T248 43Q317 43 357 74ZM170 573T150 573Q127 573 112 588L244
725Q252 734 264 734Q277 734 284 725L416 588Q401 573 378 573Q355 573 345 586L264 680L183 586Q170 573 150 573Z" />
<glyph unicode="&#xe3;" glyph-name="atilde" horiz-adv-x="526" d="M158 -9T105 36T52 158Q52 235 105 280T249 326Q352 326 413 252L416 254Q408 266 396 278V337Q396 394 361 425T262 456Q149 456 104 362Q92 371 85 383T78 406Q78 431 105 455T175 494T263
509Q352 509 403 463T455 337V47Q455 -9 396 -9V43Q414 61 418 69L415 72Q383 33 340 12T245 -9Q158 -9 105 36ZM317 43T357 74T398 158Q398 211 359 242T250 273Q185 273 149 243T112 158Q112 104 148 74T248 43Q317 43 357 74ZM143 574T133 586T123 616Q123 647
143 665T198 683Q221 683 238 674T278 646Q294 633 305 627T328 620Q343 620 351 628T359 650Q359 665 352 679Q364 683 368 683Q383 683 393 670T404 640Q404 610 384 592T330 574Q307 574 289 584T250 611Q233 624 222 630T199 637Q184 637 176 629T167 607Q167
590 175 577Q164 574 158 574Q143 574 133 586Z" />
<glyph unicode="&#xe4;" glyph-name="adieresis" horiz-adv-x="526" d="M158 -9T105 36T52 158Q52 235 105 280T249 326Q352 326 413 252L416 254Q408 266 396 278V337Q396 394 361 425T262 456Q149 456 104 362Q92 371 85 383T78 406Q78 431 105 455T175 494T263
509Q352 509 403 463T455 337V47Q455 -9 396 -9V43Q414 61 418 69L415 72Q383 33 340 12T245 -9Q158 -9 105 36ZM317 43T357 74T398 158Q398 211 359 242T250 273Q185 273 149 243T112 158Q112 104 148 74T248 43Q317 43 357 74ZM152 585T140 597T127 629Q127 649
139 661T173 674Q192 674 204 662T217 629Q217 610 205 598T173 585Q152 585 140 597ZM335 585T323 597T310 629Q310 649 322 661T355 674Q374 674 386 662T399 629Q399 610 387 598T355 585Q335 585 323 597Z" />
<glyph unicode="&#xe5;" glyph-name="aring" horiz-adv-x="526" d="M158 -9T105 36T52 158Q52 235 105 280T249 326Q352 326 413 252L416 254Q408 266 396 278V337Q396 394 361 425T262 456Q149 456 104 362Q92 371 85 383T78 406Q78 431 105 455T175 494T263
509Q352 509 403 463T455 337V47Q455 -9 396 -9V43Q414 61 418 69L415 72Q383 33 340 12T245 -9Q158 -9 105 36ZM317 43T357 74T398 158Q398 211 359 242T250 273Q185 273 149 243T112 158Q112 104 148 74T248 43Q317 43 357 74ZM220 545T193 570T165 637Q165 677
192 702T263 728Q305 728 332 703T359 637Q359 596 332 571T263 545Q220 545 193 570ZM285 584T300 598T315 637Q315 661 301 675T263 690Q239 690 225 676T210 637Q210 613 225 599T263 584Q285 584 300 598Z" />
<glyph unicode="&#xe6;" glyph-name="ae" horiz-adv-x="849" d="M158 -9T105 36T52 158Q52 235 105 280T249 326Q352 326 413 252L416 254Q408 266 396 278V337Q396 394 361 425T262 456Q149 456 104 362Q92 371 85 383T78 406Q78 431 105 455T175 494T263 509Q320
509 363 487T429 424Q456 464 500 486T597 509Q653 509 699 485T771 420T798 329V260Q798 249 789 241T768 232H455V170Q455 111 492 78T597 44Q664 44 702 75T740 160Q759 160 773 147T787 117Q787 85 761 56T691 9T598 -9Q540 -9 495 12T428 72Q400 35 351 13T246
-9Q158 -9 105 36ZM740 284V329Q740 385 701 420T597 456Q534 456 495 421T455 329V284H740ZM323 43T359 73T396 167Q396 218 359 245T250 273Q186 273 149 242T112 158Q112 105 148 74T248 43Q323 43 359 73Z" />
<glyph unicode="&#xe7;" glyph-name="ccedilla" horiz-adv-x="511" d="M459 67T415 33T297 -8L270 -47Q313 -47 336 -69T359 -125Q359 -165 332 -187T262 -209Q224 -209 200 -193T175 -154Q175 -145 183 -132Q211 -166 254 -166Q302 -166 302 -126Q302 -107 290
-97T257 -86H253Q237 -86 225 -92Q217 -95 210 -90T202 -74Q202 -70 206 -62L242 -8Q163 0 115 45T67 159V338Q67 388 92 427T162 487T267 509Q322 509 365 493T432 447T456 381Q456 362 443 350T409 337Q409 389 369 422T267 455Q205 455 166 422T126 337V160Q126
109 165 77T269 45Q332 45 372 77T412 162Q433 163 446 151T459 119Q459 67 415 33Z" />
<glyph unicode="&#xe8;" glyph-name="egrave" horiz-adv-x="520" d="M209 -9T164 13T93 76T67 169V328Q67 379 93 420T166 485T268 509Q323 509 369 486T441 421T468 329V260Q468 249 459 241T439 232H126V170Q126 111 163 78T268 44Q336 44 373 75T411 160Q429
160 443 147T458 117Q458 85 431 56T361 9T268 -9Q209 -9 164 13ZM410 284V329Q410 385 371 420T268 456Q205 456 166 421T126 329V284H410ZM275 568T264 571T244 585L128 729H166Q216 729 231 701L307 569Q275 568 264 571Z" />
<glyph unicode="&#xe9;" glyph-name="eacute" horiz-adv-x="520" d="M209 -9T164 13T93 76T67 169V328Q67 379 93 420T166 485T268 509Q323 509 369 486T441 421T468 329V260Q468 249 459 241T439 232H126V170Q126 111 163 78T268 44Q336 44 373 75T411 160Q429
160 443 147T458 117Q458 85 431 56T361 9T268 -9Q209 -9 164 13ZM410 284V329Q410 385 371 420T268 456Q205 456 166 421T126 329V284H410ZM299 701Q306 714 320 721T364 728H402L299 585Q291 574 280 571T236 569L299 701Z" />
<glyph unicode="&#xea;" glyph-name="ecircumflex" horiz-adv-x="520" d="M209 -9T164 13T93 76T67 169V328Q67 379 93 420T166 485T268 509Q323 509 369 486T441 421T468 329V260Q468 249 459 241T439 232H126V170Q126 111 163 78T268 44Q336 44 373 75T411 160Q429
160 443 147T458 117Q458 85 431 56T361 9T268 -9Q209 -9 164 13ZM410 284V329Q410 385 371 420T268 456Q205 456 166 421T126 329V284H410ZM175 573T155 573Q132 573 117 588L249 725Q257 734 269 734Q282 734 289 725L421 588Q406 573 383 573Q360 573 350 586L269
680L188 586Q175 573 155 573Z" />
<glyph unicode="&#xeb;" glyph-name="edieresis" horiz-adv-x="520" d="M209 -9T164 13T93 76T67 169V328Q67 379 93 420T166 485T268 509Q323 509 369 486T441 421T468 329V260Q468 249 459 241T439 232H126V170Q126 111 163 78T268 44Q336 44 373 75T411 160Q429
160 443 147T458 117Q458 85 431 56T361 9T268 -9Q209 -9 164 13ZM410 284V329Q410 385 371 420T268 456Q205 456 166 421T126 329V284H410ZM157 585T145 597T132 629Q132 649 144 661T178 674Q197 674 209 662T222 629Q222 610 210 598T178 585Q157 585 145 597ZM340
585T328 597T315 629Q315 649 327 661T360 674Q379 674 391 662T404 629Q404 610 392 598T360 585Q340 585 328 597Z" />
<glyph unicode="&#xec;" glyph-name="igrave" horiz-adv-x="213" d="M77 453Q77 509 136 509V46Q136 -9 77 -9V453ZM114 577T103 580T83 594L-33 738H5Q55 738 70 710L146 578Q114 577 103 580Z" />
<glyph unicode="&#xed;" glyph-name="iacute" horiz-adv-x="213" d="M77 453Q77 509 136 509V46Q136 -9 77 -9V453ZM138 710Q145 723 159 730T203 737H241L138 594Q130 583 119 580T75 578L138 710Z" />
<glyph unicode="&#xee;" glyph-name="icircumflex" horiz-adv-x="213" d="M77 453Q77 509 136 509V46Q136 -9 77 -9V453ZM14 582T-6 582Q-29 582 -44 597L88 734Q96 743 108 743Q121 743 128 734L260 597Q245 582 222 582Q199 582 189 595L108 689L27 595Q14 582 -6 582Z" />
<glyph unicode="&#xef;" glyph-name="idieresis" horiz-adv-x="213" d="M77 453Q77 509 136 509V46Q136 -9 77 -9V453ZM-4 594T-16 606T-29 638Q-29 658 -17 670T17 683Q36 683 48 671T61 638Q61 619 49 607T17 594Q-4 594 -16 606ZM179 594T167 606T154 638Q154
658 166 670T199 683Q218 683 230 671T243 638Q243 619 231 607T199 594Q179 594 167 606Z" />
<glyph unicode="&#xf0;" glyph-name="eth" horiz-adv-x="608" d="M227 -9T171 24T84 114T52 243Q52 322 86 382T177 476T301 509Q354 509 403 485T488 417L492 422Q488 427 478 441T456 466Q401 554 311 613L152 540Q146 554 146 565Q146 592 175 606L258 644Q232
659 215 667T177 684Q167 688 161 699T155 723Q155 738 164 750Q249 720 321 675L455 736Q462 723 462 710Q462 684 433 670L368 640Q460 568 508 473T556 263Q556 174 519 113T424 21T300 -9Q227 -9 171 24ZM353 43T397 68T467 141T493 256Q493 351 443 404T304
458Q241 458 198 428T133 349T111 244Q111 183 138 138T208 68T298 43Q353 43 397 68Z" />
<glyph unicode="&#xf1;" glyph-name="ntilde" horiz-adv-x="546" d="M77 452Q77 509 135 509V442Q128 435 116 419L118 415Q150 457 199 483T301 509Q384 509 431 464T479 340V46Q479 -9 420 -9V338Q420 394 389 424T295 455Q255 455 218 438T159 394T136 336V46Q136
-9 77 -9V452ZM156 574T146 586T136 616Q136 647 156 665T211 683Q234 683 251 674T291 646Q307 633 318 627T341 620Q356 620 364 628T372 650Q372 665 365 679Q377 683 381 683Q396 683 406 670T417 640Q417 610 397 592T343 574Q320 574 302 584T263 611Q246
624 235 630T212 637Q197 637 189 629T180 607Q180 590 188 577Q177 574 171 574Q156 574 146 586Z" />
<glyph unicode="&#xf2;" glyph-name="ograve" horiz-adv-x="534" d="M208 -9T161 13T88 73T62 159V338Q62 385 88 424T161 486T267 509Q326 509 373 486T446 424T472 338V159Q472 112 446 74T373 13T267 -9Q208 -9 161 13ZM334 44T374 76T414 160V337Q414 389
374 422T267 456Q200 456 160 423T120 337V160Q120 109 160 77T267 44Q334 44 374 76ZM274 568T263 571T243 585L127 729H165Q215 729 230 701L306 569Q274 568 263 571Z" />
<glyph unicode="&#xf3;" glyph-name="oacute" horiz-adv-x="534" d="M208 -9T161 13T88 73T62 159V338Q62 385 88 424T161 486T267 509Q326 509 373 486T446 424T472 338V159Q472 112 446 74T373 13T267 -9Q208 -9 161 13ZM334 44T374 76T414 160V337Q414 389
374 422T267 456Q200 456 160 423T120 337V160Q120 109 160 77T267 44Q334 44 374 76ZM297 701Q304 714 318 721T362 728H400L297 585Q289 574 278 571T234 569L297 701Z" />
<glyph unicode="&#xf4;" glyph-name="ocircumflex" horiz-adv-x="534" d="M208 -9T161 13T88 73T62 159V338Q62 385 88 424T161 486T267 509Q326 509 373 486T446 424T472 338V159Q472 112 446 74T373 13T267 -9Q208 -9 161 13ZM334 44T374 76T414 160V337Q414
389 374 422T267 456Q200 456 160 423T120 337V160Q120 109 160 77T267 44Q334 44 374 76ZM174 573T154 573Q131 573 116 588L248 725Q256 734 268 734Q281 734 288 725L420 588Q405 573 382 573Q359 573 349 586L268 680L187 586Q174 573 154 573Z" />
<glyph unicode="&#xf5;" glyph-name="otilde" horiz-adv-x="534" d="M208 -9T161 13T88 73T62 159V338Q62 385 88 424T161 486T267 509Q326 509 373 486T446 424T472 338V159Q472 112 446 74T373 13T267 -9Q208 -9 161 13ZM334 44T374 76T414 160V337Q414 389
374 422T267 456Q200 456 160 423T120 337V160Q120 109 160 77T267 44Q334 44 374 76ZM147 574T137 586T127 616Q127 647 147 665T202 683Q225 683 242 674T282 646Q298 633 309 627T332 620Q347 620 355 628T363 650Q363 665 356 679Q368 683 372 683Q387 683
397 670T408 640Q408 610 388 592T334 574Q311 574 293 584T254 611Q237 624 226 630T203 637Q188 637 180 629T171 607Q171 590 179 577Q168 574 162 574Q147 574 137 586Z" />
<glyph unicode="&#xf6;" glyph-name="odieresis" horiz-adv-x="534" d="M208 -9T161 13T88 73T62 159V338Q62 385 88 424T161 486T267 509Q326 509 373 486T446 424T472 338V159Q472 112 446 74T373 13T267 -9Q208 -9 161 13ZM334 44T374 76T414 160V337Q414 389
374 422T267 456Q200 456 160 423T120 337V160Q120 109 160 77T267 44Q334 44 374 76ZM156 585T144 597T131 629Q131 649 143 661T177 674Q196 674 208 662T221 629Q221 610 209 598T177 585Q156 585 144 597ZM339 585T327 597T314 629Q314 649 326 661T359 674Q378
674 390 662T403 629Q403 610 391 598T359 585Q339 585 327 597Z" />
<glyph unicode="&#xf7;" glyph-name="divide" horiz-adv-x="609" d="M282 408T265 425T248 464Q248 487 265 504T305 522Q328 522 345 505T362 464Q362 441 345 425T305 408Q282 408 265 425ZM52 289T67 305T108 321H557Q557 295 542 279T501 262H52Q52 289 67
305ZM282 63T265 79T248 119Q248 142 265 159T305 176Q328 176 345 159T362 119Q362 96 345 80T305 63Q282 63 265 79Z" />
<glyph unicode="&#xf8;" glyph-name="oslash" horiz-adv-x="534" d="M438 442T455 409T472 338V159Q472 112 446 74T373 13T267 -9Q218 -9 175 7L158 -26Q141 -58 114 -58Q101 -58 84 -49L126 34Q96 58 79 90T62 159V338Q62 385 88 424T161 486T267 509Q315 509
357 493L378 534Q394 565 422 565Q434 565 452 557L406 466Q438 442 455 409ZM120 115T151 84L333 445Q303 456 267 456Q200 456 160 423T120 337V160Q120 115 151 84ZM414 337Q414 385 381 416L199 55Q230 44 267 44Q334 44 374 76T414 160V337Z" />
<glyph unicode="&#xf9;" glyph-name="ugrave" horiz-adv-x="546" d="M469 48Q469 -9 411 -9V58Q418 65 430 81L428 85Q395 42 348 17T249 -9Q166 -9 117 39T67 166V454Q67 509 127 509V167Q127 110 160 78T256 45Q295 45 330 62T388 106T410 164V454Q410 509 469
509V48ZM281 568T270 571T250 585L134 729H172Q222 729 237 701L313 569Q281 568 270 571Z" />
<glyph unicode="&#xfa;" glyph-name="uacute" horiz-adv-x="546" d="M469 48Q469 -9 411 -9V58Q418 65 430 81L428 85Q395 42 348 17T249 -9Q166 -9 117 39T67 166V454Q67 509 127 509V167Q127 110 160 78T256 45Q295 45 330 62T388 106T410 164V454Q410 509 469
509V48ZM304 701Q311 714 325 721T369 728H407L304 585Q296 574 285 571T241 569L304 701Z" />
<glyph unicode="&#xfb;" glyph-name="ucircumflex" horiz-adv-x="546" d="M469 48Q469 -9 411 -9V58Q418 65 430 81L428 85Q395 42 348 17T249 -9Q166 -9 117 39T67 166V454Q67 509 127 509V167Q127 110 160 78T256 45Q295 45 330 62T388 106T410 164V454Q410
509 469 509V48ZM181 573T161 573Q138 573 123 588L255 725Q263 734 275 734Q288 734 295 725L427 588Q412 573 389 573Q366 573 356 586L275 680L194 586Q181 573 161 573Z" />
<glyph unicode="&#xfc;" glyph-name="udieresis" horiz-adv-x="546" d="M469 48Q469 -9 411 -9V58Q418 65 430 81L428 85Q395 42 348 17T249 -9Q166 -9 117 39T67 166V454Q67 509 127 509V167Q127 110 160 78T256 45Q295 45 330 62T388 106T410 164V454Q410 509
469 509V48ZM163 585T151 597T138 629Q138 649 150 661T184 674Q203 674 215 662T228 629Q228 610 216 598T184 585Q163 585 151 597ZM346 585T334 597T321 629Q321 649 333 661T366 674Q385 674 397 662T410 629Q410 610 398 598T366 585Q346 585 334 597Z" />
<glyph unicode="&#xfd;" glyph-name="yacute" horiz-adv-x="560" d="M83 -208T70 -196T55 -159Q70 -162 92 -162Q140 -162 170 -134T229 -35L251 16L52 503Q64 509 80 509Q94 509 106 501T125 477L277 91L263 56L268 54L436 477Q448 509 480 509Q496 509 508 503L281
-52Q249 -132 208 -170T106 -208Q83 -208 70 -196ZM311 701Q318 714 332 721T376 728H414L311 585Q303 574 292 571T248 569L311 701Z" />
<glyph unicode="&#xfe;" glyph-name="thorn" horiz-adv-x="536" d="M77 649Q77 709 136 709V452Q121 435 116 426L118 422Q187 509 283 509Q372 509 425 463T479 340V159Q479 83 426 37T284 -9Q188 -9 119 72L116 67Q122 58 137 43V-154Q137 -181 122 -195T77
-209V649ZM346 45T383 76T421 160V339Q421 394 383 424T278 455Q240 455 207 440T155 400T136 344V155Q136 107 175 76T280 45Q346 45 383 76Z" />
<glyph unicode="&#xff;" glyph-name="ydieresis" horiz-adv-x="560" d="M83 -208T70 -196T55 -159Q70 -162 92 -162Q140 -162 170 -134T229 -35L251 16L52 503Q64 509 80 509Q94 509 106 501T125 477L277 91L263 56L268 54L436 477Q448 509 480 509Q496 509 508
503L281 -52Q249 -132 208 -170T106 -208Q83 -208 70 -196ZM170 585T158 597T145 629Q145 649 157 661T191 674Q210 674 222 662T235 629Q235 610 223 598T191 585Q170 585 158 597ZM353 585T341 597T328 629Q328 649 340 661T373 674Q392 674 404 662T417 629Q417
610 405 598T373 585Q353 585 341 597Z" />
<glyph unicode="&#x2013;" glyph-name="endash" horiz-adv-x="642" d="M52 289T67 304T107 320H590Q590 294 576 279T535 263H52Q52 289 67 304Z" />
<glyph unicode="&#x2014;" glyph-name="emdash" horiz-adv-x="767" d="M52 290T65 304T105 319H715Q715 293 702 279T662 264H52Q52 290 65 304Z" />
<glyph unicode="&#x2018;" glyph-name="quoteleft" horiz-adv-x="221" d="M84 462T68 479T52 524Q52 586 74 632T133 704Q140 709 148 709Q157 709 162 704Q132 677 115 643T98 575Q110 578 116 578Q139 578 154 562T169 522Q169 494 153 478T111 462Q84 462 68 479Z" />
<glyph unicode="&#x2019;" glyph-name="quoteright" horiz-adv-x="221" d="M91 494T107 528T123 596Q114 593 105 593Q82 593 67 609T52 649Q52 677 68 693T109 709Q137 709 153 692T169 648Q169 586 147 540T89 467Q82 462 73 462Q64 462 60 466Q91 494 107 528Z" />
<glyph unicode="&#x201a;" glyph-name="quotesinglbase" horiz-adv-x="221" d="M90 -109T106 -75T123 -6Q114 -9 105 -9Q82 -9 67 7T52 48Q52 75 68 91T109 107Q138 107 153 90T169 45Q169 -17 147 -63T89 -135Q84 -140 73 -140Q64 -140 60 -136Q90 -109 106 -75Z" />
<glyph unicode="&#x201c;" glyph-name="quotedblleft" horiz-adv-x="379" d="M132 677T115 643T98 575Q110 578 116 578Q139 578 154 562T169 522Q169 494 153 478T111 462Q84 462 68 479T52 524Q52 586 74 632T133 704Q140 709 148 709Q157 709 162 704Q132 677
115 643ZM289 677T272 643T255 575Q267 578 274 578Q297 578 312 562T327 522Q327 494 311 478T269 462Q241 462 225 479T209 524Q209 586 232 632T289 704Q297 709 305 709Q313 709 320 704Q289 677 272 643Z" />
<glyph unicode="&#x201d;" glyph-name="quotedblright" horiz-adv-x="379" d="M91 494T107 528T123 596Q114 593 105 593Q82 593 67 609T52 649Q52 677 68 693T109 709Q137 709 153 692T169 648Q169 586 147 540T89 467Q82 462 73 462Q64 462 60 466Q91 494 107
528ZM248 494T264 528T281 596Q272 593 262 593Q239 593 224 609T209 649Q209 676 226 692T267 709Q295 709 311 692T327 648Q327 586 305 540T247 467Q239 462 230 462Q222 462 217 466Q248 494 264 528Z" />
<glyph unicode="&#x201e;" glyph-name="quotedblbase" horiz-adv-x="379" d="M90 -109T106 -75T123 -6Q114 -9 105 -9Q82 -9 67 7T52 48Q52 75 68 91T109 107Q138 107 153 90T169 45Q169 -17 147 -63T89 -135Q84 -140 73 -140Q64 -140 60 -136Q90 -109 106 -75ZM248
-108T264 -74T281 -6Q272 -9 262 -9Q239 -9 224 7T209 48Q209 75 226 91T267 107Q295 107 311 90T327 45Q327 -18 304 -63T246 -135Q241 -140 231 -140Q222 -140 217 -136Q248 -108 264 -74Z" />
<glyph unicode="&#x2022;" glyph-name="bullet" horiz-adv-x="335" d="M120 176T86 210T52 292Q52 340 86 374T168 408Q216 408 250 374T284 292Q284 244 250 210T168 176Q120 176 86 210Z" />
<glyph unicode="&#x2039;" glyph-name="guilsinglleft" horiz-adv-x="327" d="M60 271Q52 282 52 292Q52 303 60 313L203 477Q218 495 240 495Q261 495 276 476L113 292L276 108Q259 88 239 88Q220 88 203 107L60 271Z" />
<glyph unicode="&#x203a;" glyph-name="guilsinglright" horiz-adv-x="327" d="M108 88T88 88Q67 88 52 108L214 292L52 476Q65 495 87 495Q109 495 124 477L267 313Q276 302 276 292Q276 282 267 271L124 107Q108 88 88 88Z" />
</font>
</defs>
</svg>
