<?xml version="1.0" standalone="no"?>
<!DOCTYPE svg PUBLIC "-//W3C//DTD SVG 1.1//EN" "http://www.w3.org/Graphics/SVG/1.1/DTD/svg11.dtd">
<svg xmlns="http://www.w3.org/2000/svg">
<defs >
<font id="K2D" horiz-adv-x="583" ><font-face
    font-family="K2D SemiBold"
    units-per-em="1000"
    panose-1="0 0 7 0 0 0 0 0 0 0"
    ascent="1048"
    descent="-252"
    alphabetic="0" />
<glyph unicode=" " glyph-name="space" horiz-adv-x="258" />
<glyph unicode="!" glyph-name="exclam" horiz-adv-x="295" d="M165 665T200 687T291 709L220 304Q212 260 177 237T86 213L158 622Q165 665 200 687ZM68 -9T49 9T29 55Q29 94 58 122T129 150Q161 150 181 132T202 84Q202 46 172 19T101 -9Q68 -9 49 9Z" />
<glyph unicode="&quot;" glyph-name="quotedbl" horiz-adv-x="406" d="M146 658Q157 689 181 706T255 724Q263 724 287 722L199 546Q167 483 97 483Q86 483 80 484L146 658ZM306 658Q317 689 342 706T416 724Q424 724 448 722L360 546Q328 483 258 483Q247 483
241 484L306 658Z" />
<glyph unicode="#" glyph-name="numbersign" horiz-adv-x="815" d="M186 192H32Q31 238 55 263T122 289H216L249 402H112Q111 448 135 474T202 500H278L320 644Q340 711 450 709L387 500H549L591 644Q611 711 721 709L658 500H815Q817 455 792 429T725 402H629L595
289H734Q735 244 711 218T644 192H567L527 56Q517 21 483 6T398 -9L457 192H296L256 56Q237 -11 127 -9L186 192ZM490 286L525 406H355L320 286H490Z" />
<glyph unicode="$" glyph-name="dollar" horiz-adv-x="650" d="M639 523T611 500T527 474Q532 541 504 574T409 611L373 406Q496 377 550 334T605 224Q605 155 568 103T461 22T300 -9L291 -62Q287 -87 272 -100T232 -113L250 -8Q147 0 88 40T28 144Q28 195 58
222T146 250Q143 234 143 218Q143 163 175 131T268 91L306 311Q198 339 149 380T100 485Q100 549 134 598T230 677T376 709L386 763Q391 787 406 800T445 813L426 708Q521 703 580 665T639 568Q639 523 611 500ZM221 471T244 453T325 418L359 611Q294 606 258 577T221
501Q221 471 244 453ZM485 240T456 260T354 299L317 89Q396 91 440 123T485 208Q485 240 456 260Z" />
<glyph unicode="%" glyph-name="percent" horiz-adv-x="921" d="M649 696Q662 716 683 727T727 738Q760 738 788 715L309 5Q296 -15 276 -25T233 -36Q198 -36 171 -12L649 696ZM155 294T113 329T70 416Q70 421 72 435L95 568Q102 606 130 638T202 690T294 709Q360
709 401 675T443 589Q443 582 441 568L418 435Q411 396 383 364T311 313T221 294Q155 294 113 329ZM266 387T285 401T308 438L330 565Q331 568 331 573Q331 592 317 604T278 616Q250 616 230 602T206 565L184 438Q183 435 183 429Q183 410 197 399T238 387Q266
387 285 401ZM596 -9T554 25T512 112Q512 119 514 133L537 265Q544 304 572 336T644 388T735 407Q801 407 842 373T884 287Q884 279 882 265L859 133Q852 94 824 62T752 10T662 -9Q596 -9 554 25ZM712 88T732 102T757 138L779 260Q783 280 767 295T723 310Q694
310 673 296T648 260L626 138Q622 117 638 103T684 88Q712 88 732 102Z" />
<glyph unicode="&amp;" glyph-name="ampersand" horiz-adv-x="733" d="M176 -9T129 12T55 72T28 163Q28 239 75 298T198 401Q148 456 148 512Q148 566 175 611T250 682T355 709Q423 709 463 672T503 572Q503 512 469 468T365 376L502 216Q535 254 551 293T567
369Q667 369 667 307Q667 266 638 226T567 143L655 40Q641 17 618 5T570 -8Q537 -8 518 14L474 62Q415 24 360 8T237 -9Q176 -9 129 12ZM342 471T362 497T382 559Q382 581 371 594T337 607Q309 607 289 582T269 522Q269 504 278 487T308 449Q342 471 362 497ZM344
97T413 143L259 324Q209 298 180 261T150 178Q150 138 180 118T263 97Q344 97 413 143Z" />
<glyph unicode="&apos;" glyph-name="quotesingle" horiz-adv-x="252" d="M146 658Q170 724 262 724Q272 724 294 722L206 546Q174 483 99 483Q87 483 80 484L146 658Z" />
<glyph unicode="(" glyph-name="parenleft" horiz-adv-x="338" d="M37 334T98 467T251 689Q267 705 287 714T328 723Q365 723 386 693Q160 470 160 184Q160 109 181 43T248 -91Q215 -121 179 -121Q159 -121 142 -112T113 -86Q37 24 37 176Q37 334 98 467Z" />
<glyph unicode=")" glyph-name="parenright" horiz-adv-x="338" d="M317 271T257 137T105 -87Q89 -102 69 -111T28 -121Q-8 -121 -31 -91Q195 132 195 420Q195 494 174 560T108 693Q141 723 177 723Q197 723 214 714T241 690Q317 578 317 425Q317 271 257 137Z" />
<glyph unicode="*" glyph-name="asterisk" horiz-adv-x="502" d="M114 398L207 498L81 487L101 598L224 589L164 689L284 751L320 639L394 751L491 690L395 588L523 598L503 487L379 495L439 397L318 337L283 452L203 335L114 398Z" />
<glyph unicode="+" glyph-name="plus" horiz-adv-x="635" d="M257 241H38Q46 289 72 316T140 344H275L296 459Q303 504 335 524T428 545L393 344H611Q603 295 577 268T509 241H375L354 124Q339 38 222 38L257 241Z" />
<glyph unicode="," glyph-name="comma" horiz-adv-x="250" d="M35 -106T60 -70T91 -4Q83 -9 66 -9Q39 -9 23 7T6 51Q6 92 35 121T106 151Q140 151 158 131T177 82Q177 28 143 -35T58 -135Q42 -147 19 -147Q0 -147 -8 -139Q35 -106 60 -70Z" />
<glyph unicode="-" glyph-name="hyphen" horiz-adv-x="472" d="M46 289T71 315T137 341H447Q439 294 414 269T347 243H38Q46 289 71 315Z" />
<glyph unicode="." glyph-name="period" horiz-adv-x="229" d="M40 -9T23 7T5 50Q5 84 32 110T94 137Q121 137 139 120T157 77Q157 43 130 17T68 -9Q40 -9 23 7Z" />
<glyph unicode="/" glyph-name="slash" horiz-adv-x="570" d="M471 696Q484 716 505 727T549 738Q582 738 611 715L132 5Q119 -15 99 -25T55 -36Q20 -36 -7 -12L471 696Z" />
<glyph unicode="0" glyph-name="zero" horiz-adv-x="664" d="M219 -9T164 17T78 87T46 184Q46 199 49 214L96 486Q108 552 152 602T263 681T413 709Q482 709 537 685T622 617T653 519Q653 503 650 486L602 214Q584 111 499 51T286 -9Q219 -9 164 17ZM377 97T424
129T482 218L529 483Q531 491 531 507Q531 553 496 578T394 603Q321 603 274 571T217 483L170 218Q168 209 168 193Q168 146 203 122T305 97Q377 97 424 129Z" />
<glyph unicode="1" glyph-name="one" horiz-adv-x="355" d="M229 596H176Q143 596 125 616T107 673Q107 690 109 700H312Q333 700 346 688T360 656L359 648L259 83Q251 39 216 15T122 -9L229 596Z" />
<glyph unicode="2" glyph-name="two" horiz-adv-x="627" d="M30 0T18 11T5 41Q5 116 84 188T305 323Q406 367 452 409T499 516Q499 557 469 580T380 603Q295 603 249 560T203 439V428Q189 426 183 426Q144 426 118 448T92 503Q92 557 133 604T244 680T394 709Q462
709 514 687T594 625T623 533Q623 447 558 378T354 246Q259 204 210 170T151 104H467Q505 104 525 85T545 30Q545 17 542 0H52Q30 0 18 11Z" />
<glyph unicode="3" glyph-name="three" horiz-adv-x="638" d="M198 -9T142 12T56 70T25 156Q25 214 58 240T160 267Q156 253 152 232T147 197Q147 97 288 97Q375 97 421 129T467 222Q467 264 435 285T342 306H309Q289 306 278 316T266 346Q266 372 284 390T327
409H361Q424 409 462 441T501 527Q501 564 471 584T382 604Q306 604 263 575T216 493Q214 475 214 467Q167 465 138 482T108 529Q108 578 147 619T252 684T397 709Q502 709 563 665T625 544Q625 483 592 436T494 358Q543 335 566 304T590 231Q590 160 551 106T439
21T272 -9Q198 -9 142 12Z" />
<glyph unicode="4" glyph-name="four" horiz-adv-x="651" d="M369 173H67Q47 173 35 183T23 210Q23 222 28 235T44 257L477 690Q485 698 500 703T532 709Q552 709 564 698T577 667Q577 660 576 656L509 277H625Q615 223 592 198T527 173H491L473 72Q465 31 433
11T337 -9L369 173ZM395 277L436 508L479 554L473 559L191 277H395Z" />
<glyph unicode="5" glyph-name="five" horiz-adv-x="627" d="M198 -9T143 12T57 71T25 154Q25 264 154 257Q150 248 146 227T142 196Q142 147 177 122T283 97Q368 97 420 150T472 290Q472 346 437 375T335 405Q252 405 185 358Q160 342 136 342Q115 342 101 354T86
387Q86 396 89 405L174 657Q182 677 199 688T240 700H632Q614 597 528 597H257L217 476Q190 460 171 444L175 438Q218 469 274 487T381 506Q476 506 533 453T591 312Q591 216 551 143T436 31T264 -9Q198 -9 143 12Z" />
<glyph unicode="6" glyph-name="six" horiz-adv-x="651" d="M210 -9T155 19T68 97T36 208Q36 273 69 341T160 462L398 681Q415 696 429 702T463 709Q510 709 535 671L369 518Q325 505 311 499L314 488Q333 496 360 501T408 507Q469 507 516 482T589 411T616 306Q616
219 572 147T450 33T279 -9Q210 -9 155 19ZM352 95T397 122T470 194T497 294Q497 354 459 390T356 426Q302 426 256 399T183 327T156 227Q156 163 193 129T298 95Q352 95 397 122Z" />
<glyph unicode="7" glyph-name="seven" horiz-adv-x="606" d="M488 596H176Q142 596 124 615T106 671Q106 685 109 700H597Q620 700 633 689T647 658Q647 641 635 623L235 31Q208 -9 162 -9Q139 -9 123 -4T94 14L488 596Z" />
<glyph unicode="8" glyph-name="eight" horiz-adv-x="644" d="M202 -10T146 12T59 73T28 166Q28 235 69 287T185 369Q108 411 108 487Q108 550 146 600T250 680T399 709Q467 709 519 689T599 631T628 546Q628 489 595 444T500 369Q547 348 572 314T597 235Q597
162 557 107T445 21T276 -10Q202 -10 146 12ZM422 411T465 443T508 529Q508 607 385 607Q312 607 269 577T226 493Q226 456 260 434T350 411Q422 411 465 443ZM382 93T430 128T479 229Q479 275 442 299T335 323Q250 323 199 286T148 185Q148 140 185 117T294 93Q382
93 430 128Z" />
<glyph unicode="9" glyph-name="nine" horiz-adv-x="651" d="M474 709T530 682T617 607T649 495Q649 427 617 360T526 239L288 20Q271 4 257 -2T223 -9Q200 -9 182 0T151 29L322 183Q358 191 381 202L379 212Q333 193 289 193Q225 193 175 218T98 287T70 389Q70
481 112 554T230 668T401 709Q474 709 530 682ZM333 605T288 579T216 507T189 405Q189 345 227 310T330 274Q385 274 430 301T502 373T529 474Q529 535 492 570T389 605Q333 605 288 579Z" />
<glyph unicode=":" glyph-name="colon" horiz-adv-x="249" d="M109 346T90 364T70 413Q70 452 100 482T169 512Q200 512 220 493T240 443Q240 404 210 375T140 346Q109 346 90 364ZM46 -9T27 9T7 58Q7 98 37 127T107 157Q138 157 158 138T178 88Q178 50 148 21T78
-9Q46 -9 27 9Z" />
<glyph unicode=";" glyph-name="semicolon" horiz-adv-x="250" d="M109 346T90 364T70 413Q70 452 100 482T169 512Q200 512 220 493T240 443Q240 405 210 376T140 346Q109 346 90 364ZM36 -104T61 -68T91 -4Q83 -9 67 -9Q39 -9 23 7T6 51Q6 92 35 121T106 151Q140
151 158 131T177 82Q177 28 143 -34T58 -135Q42 -147 19 -147Q1 -147 -7 -139Q36 -104 61 -68Z" />
<glyph unicode="&lt;" glyph-name="less" horiz-adv-x="666" d="M70 249Q46 261 46 284Q46 301 56 314T85 336L659 572Q672 549 672 524Q672 496 657 473T613 440L220 287L559 134Q591 121 591 84Q591 48 560 12L70 249Z" />
<glyph unicode="=" glyph-name="equal" horiz-adv-x="634" d="M63 385T89 412T156 439H627Q607 336 525 336H55Q63 385 89 412ZM29 193T54 220T122 247H593Q585 198 559 171T491 144H21Q29 193 54 220Z" />
<glyph unicode="&gt;" glyph-name="greater" horiz-adv-x="666" d="M10 31T10 55Q10 84 25 109T67 144L460 297L120 450Q85 465 85 499Q85 534 119 572L609 336Q620 331 626 322T633 300Q633 284 623 270T594 249L20 12Q10 31 10 55Z" />
<glyph unicode="?" glyph-name="question" horiz-adv-x="556" d="M220 278Q228 323 257 351T340 412Q376 435 396 450T429 487T443 538Q443 605 343 605Q277 605 238 572T198 477Q198 469 200 455Q186 453 178 453Q141 453 115 472T89 520Q89 567 124 611T221
682T356 709Q452 709 509 668T566 556Q566 508 545 473T496 416T422 365Q382 341 363 325T339 289L335 269Q321 202 207 202L220 278ZM193 -9T173 9T153 55Q153 94 182 122T253 150Q286 150 306 132T326 84Q326 46 296 19T225 -9Q193 -9 173 9Z" />
<glyph unicode="@" glyph-name="at" horiz-adv-x="829" d="M275 -9T201 26T89 124T51 272Q51 395 110 495T273 652T503 709Q648 709 734 644T820 462Q820 379 783 308T683 196T545 154Q509 154 487 171T463 221Q437 191 400 173T321 154Q268 154 240 182T212 260Q212
332 249 400T347 511T473 554Q507 554 529 538T560 494L583 538H664L537 274Q531 261 531 252Q531 233 561 233Q602 233 637 263T694 344T715 453Q715 541 654 580T488 620Q390 620 315 578T198 458T156 282Q156 185 217 134T398 82Q458 82 508 93T604 131Q620
139 632 139Q650 139 664 127T686 95Q624 41 546 16T383 -9Q275 -9 201 26ZM383 230T417 263T476 344T500 436Q500 478 458 478Q423 478 387 447T327 367T303 274Q303 230 352 230Q383 230 417 263Z" />
<glyph unicode="A" glyph-name="A" horiz-adv-x="688" d="M45 -4T26 15T7 64Q7 96 29 131L358 670Q383 709 424 709Q465 709 475 670L614 131Q618 115 618 97Q618 55 592 26T521 -9L474 187H200L80 -9Q45 -4 26 15ZM454 291L388 582L376 578L389 521L255 291H454Z" />
<glyph unicode="B" glyph-name="B" horiz-adv-x="669" d="M57 0T42 14T27 48L28 56L132 645Q136 668 156 684T203 700H474Q556 700 602 659T648 546Q648 488 617 436T533 359L532 356Q576 341 599 310T622 234Q622 172 588 118T497 32T372 0H79Q57 0 42 14ZM419
401Q446 401 471 418T511 465T526 526Q526 561 508 579T454 598H241L207 401H419ZM387 103Q437 103 469 138T502 226Q502 261 481 280T421 300H189L154 103H387Z" />
<glyph unicode="C" glyph-name="C" horiz-adv-x="685" d="M224 -9T166 17T76 92T44 205Q44 230 48 253L82 450Q96 527 141 585T260 676T424 709Q501 709 560 686T653 622T686 528Q686 485 648 458T549 430Q562 471 562 496Q562 544 519 574T406 604Q328 604 272
561T203 450L168 253Q166 243 166 225Q166 167 207 132T320 97Q406 97 462 137T524 248L526 268Q575 268 605 252T635 210Q635 148 593 98T474 20T302 -9Q224 -9 166 17Z" />
<glyph unicode="D" glyph-name="D" horiz-adv-x="694" d="M56 0T42 13T27 46Q27 52 28 56L132 645Q136 668 156 684T203 700H429Q503 700 560 672T650 593T682 481Q682 456 678 436L648 267Q625 138 537 69T305 0H79Q56 0 42 13ZM313 104Q404 104 459 145T528
265L558 437Q561 457 561 474Q561 534 521 565T400 596H243L157 104H313Z" />
<glyph unicode="E" glyph-name="E" horiz-adv-x="629" d="M132 645Q136 668 156 684T203 700H648Q638 646 614 621T547 596H243L210 405H481Q471 352 447 327T381 301H191L157 104H482Q548 104 548 38Q548 19 544 0H79Q56 0 42 13T27 46Q27 52 28 56L132 645Z" />
<glyph unicode="F" glyph-name="F" horiz-adv-x="609" d="M132 645Q136 668 156 684T203 700H653Q644 646 620 621T554 596H244L211 410H482Q473 356 449 331T383 306H193L153 80Q145 34 113 13T17 -9L132 645Z" />
<glyph unicode="G" glyph-name="G" horiz-adv-x="690" d="M226 -9T167 17T75 91T43 204Q43 225 48 253L82 450Q96 528 142 586T261 677T424 709Q503 709 562 687T654 624T687 529Q687 485 650 459T551 432Q563 475 563 498Q563 547 520 576T406 605Q326 605 271
563T203 450L168 253Q165 238 165 223Q165 164 206 130T321 95Q401 95 455 131T520 228L527 268H428Q397 268 380 287T362 340Q362 348 364 364H608Q630 364 642 353T655 321Q655 313 654 309L640 226Q628 156 583 103T466 20T306 -9Q226 -9 167 17Z" />
<glyph unicode="H" glyph-name="H" horiz-adv-x="684" d="M127 617Q135 662 170 685T264 709L210 405H527L565 617Q572 662 607 685T702 709L591 83Q583 39 548 15T454 -9L509 300H192L154 83Q146 38 111 15T17 -9L127 617Z" />
<glyph unicode="I" glyph-name="I" horiz-adv-x="286" d="M147 617Q155 661 190 685T283 709L173 84Q165 40 130 16T37 -9L147 617Z" />
<glyph unicode="J" glyph-name="J" horiz-adv-x="616" d="M186 -9T135 15T54 81T24 175Q24 233 60 257T161 282Q156 265 152 241T147 203Q147 151 178 124T269 97Q340 97 383 135T439 248L501 595H393Q323 595 323 666Q323 681 326 700H581Q603 700 617 687T631
654L630 645L560 248Q538 125 458 58T251 -9Q186 -9 135 15Z" />
<glyph unicode="K" glyph-name="K" horiz-adv-x="653" d="M127 616Q135 661 171 685T265 709L206 383L608 709Q625 695 636 677T648 643Q648 628 635 612T598 576L352 377L574 28Q539 -9 498 -9Q452 -9 431 25L256 302L182 241L153 79Q145 34 113 13T17 -9L127 616Z" />
<glyph unicode="L" glyph-name="L" horiz-adv-x="584" d="M58 0T43 15T28 53Q28 60 29 64L127 617Q135 664 168 686T263 709L157 105H440Q475 105 493 86T512 32Q512 17 509 0H81Q58 0 43 15Z" />
<glyph unicode="M" glyph-name="M" horiz-adv-x="810" d="M127 617Q135 660 171 685T261 710L384 158L353 101L361 97L703 709Q754 709 783 688T812 632Q812 621 811 616L701 -9Q597 -9 597 63Q597 68 599 82L661 436L707 520L697 523L414 24Q406 9 391 0T360
-9Q344 -9 332 0T316 25L208 525L197 521L213 437L151 82Q143 38 109 15T17 -9L127 617Z" />
<glyph unicode="N" glyph-name="N" horiz-adv-x="682" d="M126 611Q134 656 168 682T255 709L511 160L522 168L495 229L580 709Q632 709 658 691T685 636Q685 631 683 617L587 77Q581 42 549 17T476 -9L208 563L198 556L225 494L152 83Q145 38 111 15T17 -9L126 611Z" />
<glyph unicode="O" glyph-name="O" horiz-adv-x="670" d="M215 -9T158 18T68 92T35 199Q35 217 38 236L78 465Q91 540 139 595T259 680T416 709Q488 709 546 682T638 607T671 501Q671 483 668 465L627 236Q614 163 568 108T450 22T289 -9Q215 -9 158 18ZM388 96T442
135T508 238L548 463Q551 477 551 490Q551 543 511 573T397 604Q317 604 263 566T198 463L158 238Q155 223 155 210Q155 157 194 127T307 96Q388 96 442 135Z" />
<glyph unicode="P" glyph-name="P" horiz-adv-x="684" d="M132 645Q136 668 156 684T203 700H481Q538 700 585 677T658 612T685 520Q685 392 612 319T409 246H182L154 83Q146 38 111 15T17 -9L132 645ZM421 351Q562 351 562 503Q562 595 464 595H244L200 351H421Z" />
<glyph unicode="Q" glyph-name="Q" horiz-adv-x="689" d="M501 -30T478 -15T442 25Q368 -9 289 -9Q215 -9 157 18T67 92T35 199Q35 217 38 236L78 465Q91 536 136 591T253 677T416 709Q491 709 549 682T639 608T671 502Q671 485 668 465L627 236Q619 192 595 152T532
80Q543 61 564 52T612 44Q605 5 587 -12T532 -30Q501 -30 478 -15ZM501 199T508 237L548 463Q551 478 551 492Q551 545 513 574T397 604Q317 604 263 565T197 463L166 285Q208 298 243 298Q324 298 378 270T474 173Q501 199 508 237ZM353 95T396 110Q366 168 326
188T221 209Q195 209 157 198Q163 151 200 123T307 95Q353 95 396 110Z" />
<glyph unicode="R" glyph-name="R" horiz-adv-x="668" d="M132 645Q136 668 156 684T203 700H471Q561 700 611 657T661 535Q661 460 627 405T527 322V318Q595 286 595 206Q595 195 591 169L576 83Q568 38 533 15T439 -9L469 164Q472 184 472 199Q472 272 396 272H185L152
83Q145 38 111 15T17 -9L132 645ZM408 375Q466 375 502 415T538 518Q538 557 515 577T448 597H243L203 375H408Z" />
<glyph unicode="S" glyph-name="S" horiz-adv-x="650" d="M212 -9T153 10T61 63T28 144Q28 195 58 222T146 250Q143 232 143 217Q143 155 184 122T305 89Q389 89 437 120T485 208Q485 243 450 264T324 307Q206 335 153 377T100 485Q100 552 137 602T241 681T398
709Q468 709 523 691T608 641T639 568Q639 523 611 500T527 474Q532 546 499 579T386 612Q309 612 265 583T221 501Q221 467 252 447T365 408Q492 379 548 336T605 224Q605 154 567 102T457 20T291 -9Q212 -9 153 10Z" />
<glyph unicode="T" glyph-name="T" horiz-adv-x="665" d="M333 595H90Q108 700 205 700H714Q696 595 599 595H454L363 83Q355 39 320 15T227 -9L333 595Z" />
<glyph unicode="U" glyph-name="U" horiz-adv-x="695" d="M229 -9T173 19T85 96T53 207Q53 230 57 250L121 617Q129 662 164 685T258 709L177 250Q174 232 174 216Q174 159 211 128T320 97Q402 97 452 136T516 250L580 617Q588 662 623 685T717 709L636 250Q622
171 577 113T461 23T301 -9Q229 -9 173 19Z" />
<glyph unicode="V" glyph-name="V" horiz-adv-x="709" d="M265 -9T257 31L118 697Q128 702 143 705T169 709Q240 709 251 649L334 192L302 132L311 128L591 649Q607 678 633 693T695 709Q708 709 724 706T747 697L374 31Q352 -9 308 -9Q265 -9 257 31Z" />
<glyph unicode="W" glyph-name="W" horiz-adv-x="922" d="M225 -9T198 12T168 72L118 696Q141 709 175 709Q210 709 229 693T250 647L270 236L239 165L247 162L480 669Q489 688 505 698T542 709Q561 709 573 699T588 669L630 229L600 154L607 152L810 647Q823
677 848 693T908 709Q941 709 960 696L690 72Q655 -9 564 -9L507 563L499 561L504 506L271 -9Q225 -9 198 12Z" />
<glyph unicode="X" glyph-name="X" horiz-adv-x="699" d="M22 -9T-2 21L301 361L128 687Q156 709 190 709Q216 709 237 700T266 676L373 460L340 424L348 417L571 676Q585 691 608 700T658 709Q678 709 696 703T723 687L435 361L618 21Q600 5 585 -2T549 -9Q527
-9 510 0T484 27L359 272L145 27Q130 10 110 1T68 -9Q22 -9 -2 21Z" />
<glyph unicode="Y" glyph-name="Y" horiz-adv-x="697" d="M288 252L118 696Q128 701 145 705T176 709Q208 709 228 696T259 653L363 368L328 316L336 311L571 653Q608 709 675 709Q691 709 709 705T734 696L408 252L378 83Q370 39 335 15T242 -9L288 252Z" />
<glyph unicode="Z" glyph-name="Z" horiz-adv-x="691" d="M29 0T17 11T4 41Q4 54 9 66T22 87L572 630L565 637L523 597H213Q139 597 139 670Q139 684 142 700H672Q695 700 707 690T719 661Q719 648 714 635T700 614L154 70L161 64L202 103H537Q572 103 590 85T609
32Q609 18 606 0H50Q29 0 17 11Z" />
<glyph unicode="[" glyph-name="bracketleft" horiz-adv-x="375" d="M159 797H430Q421 743 397 718T331 693H261L133 -35H203Q269 -35 269 -101Q269 -121 265 -140H-7L159 797Z" />
<glyph unicode="\" glyph-name="backslash" horiz-adv-x="570" d="M447 -36T412 -36Q390 -36 374 -26T350 5L121 715Q156 737 191 737Q214 737 230 727T254 696L483 -12Q447 -36 412 -36Z" />
<glyph unicode="]" glyph-name="bracketright" horiz-adv-x="375" d="M-29 -140Q-19 -85 4 -60T70 -35H141L269 693H199Q164 693 148 710T132 760Q132 769 136 797H408L243 -140H-29Z" />
<glyph unicode="^" glyph-name="asciicircum" horiz-adv-x="638" d="M344 703Q354 718 369 725T402 732Q419 732 432 725T450 703L597 253Q575 234 539 234Q516 234 499 243T475 272L380 572L180 272Q168 253 145 244T95 234Q56 234 40 253L344 703Z" />
<glyph unicode="_" glyph-name="underscore" horiz-adv-x="604" d="M-23 -104T1 -79T68 -53H510Q502 -99 477 -124T411 -150H-32Q-23 -104 1 -79Z" />
<glyph unicode="`" glyph-name="grave" horiz-adv-x="344" d="M337 531T311 531Q281 531 267 536T244 556L128 746H205Q271 746 286 706L354 532Q337 531 311 531Z" />
<glyph unicode="a" glyph-name="a" horiz-adv-x="539" d="M110 -9T65 28T20 126Q20 184 50 230T133 302T255 328Q345 328 397 266L402 271Q394 282 378 297L383 325Q385 339 385 345Q385 382 360 401T286 420Q189 420 131 347Q114 353 104 366T94 394Q94 425 123
451T203 493T311 509Q398 509 447 470T497 363Q497 346 494 328L448 69Q441 28 413 10T329 -9L337 34Q358 51 365 60L362 64Q321 26 278 9T182 -9Q110 -9 65 28ZM284 75T320 102T357 174Q357 207 330 225T255 244Q200 244 166 216T131 142Q131 108 154 92T224 75Q284
75 320 102Z" />
<glyph unicode="b" glyph-name="b" horiz-adv-x="562" d="M130 630Q137 669 169 689T257 709L215 473Q200 462 190 452L193 447Q224 474 270 491T357 509Q433 509 478 470T523 365Q523 349 520 332L492 169Q478 88 418 40T271 -9Q220 -9 184 12T121 77L116 73Q123
59 131 47Q122 -9 17 -9L130 630ZM309 89T341 111T381 176L408 325Q410 339 410 345Q410 412 314 412Q267 412 231 389T188 330L161 171Q160 167 160 158Q160 128 186 109T256 89Q309 89 341 111Z" />
<glyph unicode="c" glyph-name="c" horiz-adv-x="516" d="M140 -9T89 32T38 140Q38 156 41 172L67 320Q76 375 111 418T199 485T316 509Q396 509 446 476T496 389Q496 355 467 334T392 312Q394 324 394 331Q394 367 369 389T302 412Q255 412 220 385T178 315L154
179Q153 174 153 164Q153 130 178 110T247 89Q294 89 329 116T372 187Q409 187 431 173T454 135Q454 93 425 60T345 9T226 -9Q140 -9 89 32Z" />
<glyph unicode="d" glyph-name="d" horiz-adv-x="562" d="M128 -9T83 32T37 138Q37 153 40 169L69 332Q83 412 146 460T301 509Q341 509 377 493T437 447L442 452Q433 465 424 473L452 630Q459 669 491 689T579 709L467 72Q460 34 429 13T348 -9L358 46Q371 59
382 73L378 77Q337 32 295 12T200 -9Q128 -9 83 32ZM295 89T330 112T372 171L400 330Q401 334 401 342Q401 373 375 392T304 412Q252 412 220 390T180 325L154 176Q152 162 152 156Q152 123 176 106T248 89Q295 89 330 112Z" />
<glyph unicode="e" glyph-name="e" horiz-adv-x="529" d="M174 -9T131 11T63 66T39 147Q39 162 42 177L66 315Q76 372 112 416T202 484T321 509Q402 509 452 465T503 352Q503 337 500 320L490 261Q486 241 469 227T429 213H157L152 184Q150 168 150 162Q150 123
174 103T246 82Q296 82 328 105T368 168Q374 169 385 169Q417 169 434 157T452 121Q452 87 422 57T340 9T229 -9Q174 -9 131 11ZM394 296L398 320Q401 334 401 345Q401 380 376 400T305 420Q256 420 221 393T176 320L172 296H394Z" />
<glyph unicode="f" glyph-name="f" horiz-adv-x="408" d="M139 415H58Q66 459 83 479T129 500H154L163 548Q176 625 226 667T353 709Q394 709 420 692T446 647Q446 633 439 618T420 593Q388 612 352 612Q317 612 299 596T274 543L266 500H394Q386 456 365 436T305
415H251L189 63Q182 25 153 8T65 -9L139 415Z" />
<glyph unicode="g" glyph-name="g" horiz-adv-x="555" d="M135 -209T94 -195T30 -156T6 -100Q6 -65 29 -47T99 -28Q95 -71 121 -95T201 -119Q259 -119 292 -91T336 -5L343 37Q359 49 368 58L366 63Q334 36 288 19T201 1Q153 1 115 20T56 73T35 149Q35 168 37 178L64
331Q78 414 138 461T287 509Q386 509 435 424L440 428Q436 438 426 453Q434 509 539 509L451 10Q433 -93 363 -151T185 -209Q135 -209 94 -195ZM291 98T328 122T371 181L396 329Q397 333 397 341Q397 373 371 393T301 413Q190 413 175 324L150 185Q148 171 148
166Q148 98 244 98Q291 98 328 122Z" />
<glyph unicode="h" glyph-name="h" horiz-adv-x="560" d="M128 620Q136 663 169 686T256 709L209 448Q196 435 180 417L185 413Q227 460 277 484T379 509Q444 509 484 469T525 367Q525 352 522 335L474 63Q467 26 437 9T349 -9L407 320Q409 336 409 343Q409 412
328 412Q276 412 234 380T183 300L141 63Q134 26 105 9T17 -9L128 620Z" />
<glyph unicode="i" glyph-name="i" horiz-adv-x="280" d="M166 566T148 582T129 625Q129 659 156 684T221 709Q250 709 268 693T286 651Q286 617 259 592T195 566Q166 566 148 582ZM116 437Q123 474 153 491T240 509L162 63Q155 26 125 9T37 -9L116 437Z" />
<glyph unicode="j" glyph-name="j" horiz-adv-x="403" d="M289 566T271 582T253 625Q253 659 279 684T343 709Q372 709 390 693T409 651Q409 617 382 592T318 566Q289 566 271 582ZM20 -209T-9 -189T-38 -136Q-38 -119 -29 -104T-6 -81Q5 -95 24 -103T68 -112Q142
-112 156 -35L239 437Q246 474 276 491T364 509L268 -37Q253 -120 201 -164T66 -209Q20 -209 -9 -189Z" />
<glyph unicode="k" glyph-name="k" horiz-adv-x="542" d="M487 440T477 428T444 398L319 299L462 23Q451 8 435 0T398 -9Q379 -9 367 -1T345 25L242 238L160 173L141 63Q134 25 104 8T17 -9L128 621Q144 709 257 709L183 295L454 509Q487 476 487 455Q487 440 477 428Z" />
<glyph unicode="l" glyph-name="l" horiz-adv-x="358" d="M111 -9T75 25T39 118Q39 134 42 152L128 637Q135 675 165 692T253 709L155 156Q153 140 153 134Q153 110 166 100T209 89Q247 89 283 108Q295 94 295 74Q295 39 260 15T174 -9Q111 -9 75 25Z" />
<glyph unicode="m" glyph-name="m" horiz-adv-x="778" d="M92 420Q109 509 214 509L203 448Q187 432 175 417L180 413Q222 463 262 486T346 509Q385 509 411 487T446 423Q478 465 521 487T615 509Q674 509 708 473T742 376Q742 363 738 335L690 63Q683 25 654
8T567 -9L626 326Q629 341 629 353Q629 383 614 398T569 414Q527 414 497 386T458 309L414 63Q407 25 379 8T293 -9L352 326Q355 341 355 353Q355 383 340 398T295 414Q253 414 222 384T183 306L140 63Q133 26 104 9T17 -9L92 420Z" />
<glyph unicode="n" glyph-name="n" horiz-adv-x="562" d="M92 420Q109 509 215 509L205 448Q189 434 176 417L181 413Q220 458 272 483T379 509Q444 509 484 470T524 368Q524 353 521 335L473 63Q466 26 436 9T349 -9L406 320Q408 329 408 344Q408 412 328 412Q276
412 234 380T183 300L141 63Q134 26 105 9T17 -9L92 420Z" />
<glyph unicode="o" glyph-name="o" horiz-adv-x="532" d="M165 -9T121 11T51 66T25 146Q25 163 27 172L53 320Q68 406 138 457T312 509Q370 509 414 488T483 431T507 349Q507 335 504 320L478 172Q469 119 435 78T345 14T220 -9Q165 -9 121 11ZM291 88T326 112T369
179L392 315Q394 329 394 335Q394 371 369 392T295 413Q242 413 206 386T162 315L139 179Q137 167 137 161Q137 127 163 108T238 88Q291 88 326 112Z" />
<glyph unicode="p" glyph-name="p" horiz-adv-x="554" d="M93 428Q100 466 131 487T212 509L202 454Q189 443 178 428L181 424Q223 468 266 488T363 509Q435 509 479 470T523 366Q523 349 520 331L492 169Q477 86 415 39T259 -9Q219 -9 182 8T123 53L118 48Q124
37 136 27L108 -130Q95 -209 -20 -209L93 428ZM308 89T341 112T381 175L408 324Q410 336 410 342Q410 376 385 394T312 412Q265 412 230 388T188 329L160 171Q159 167 159 158Q159 127 186 108T256 89Q308 89 341 112Z" />
<glyph unicode="q" glyph-name="q" horiz-adv-x="556" d="M428 -130Q415 -209 300 -209L342 27Q362 42 367 48L364 53Q332 26 286 9T199 -9Q125 -9 79 32T32 139Q32 153 35 168L64 331Q78 411 139 460T287 509Q387 509 436 424L441 428Q441 428 426 453Q435 509
540 509L428 -130ZM248 412T216 390T175 324L149 175Q147 163 147 157Q147 124 172 107T243 89Q290 89 326 113T369 171L396 329Q397 333 397 341Q397 372 371 392T301 412Q248 412 216 390Z" />
<glyph unicode="r" glyph-name="r" horiz-adv-x="423" d="M277 412T234 380T183 300L141 63Q134 26 105 9T17 -9L92 420Q109 509 215 509L205 449Q192 437 176 417L181 413Q262 509 355 509Q389 509 408 494T427 451Q427 422 406 396Q380 412 335 412Q277 412 234 380Z" />
<glyph unicode="s" glyph-name="s" horiz-adv-x="512" d="M134 -9T80 21T25 101Q25 136 47 155T113 176Q114 130 143 105T225 79Q285 79 317 97T350 148Q350 171 325 186T239 215Q148 236 109 268T70 349Q70 424 128 466T287 509Q371 509 425 480T480 406Q480
342 390 339Q388 424 285 424Q238 424 208 407T178 362Q178 342 199 330T275 306Q458 266 458 156Q458 77 396 34T220 -9Q134 -9 80 21Z" />
<glyph unicode="t" glyph-name="t" horiz-adv-x="432" d="M180 -9T147 23T113 112Q113 133 117 152L163 415H63Q71 456 91 478T141 500H179L195 587Q202 624 231 641T317 659L289 500H422Q415 456 393 436T332 415H275L230 156Q227 143 227 131Q227 109 240 99T280
89Q316 89 353 108Q364 95 364 74Q364 39 329 15T241 -9Q180 -9 147 23Z" />
<glyph unicode="u" glyph-name="u" horiz-adv-x="559" d="M465 80Q450 -9 342 -9L353 53Q363 61 381 83L376 87Q337 41 289 16T187 -9Q120 -9 78 32T36 140Q36 156 39 174L85 437Q92 474 122 491T211 509L153 181Q151 172 151 155Q151 121 171 105T236 89Q287
89 326 120T374 201L416 437Q423 475 453 492T541 509L465 80Z" />
<glyph unicode="v" glyph-name="v" horiz-adv-x="566" d="M216 -9T203 1T185 28L84 500Q91 504 105 506T130 509Q159 509 177 498T199 465L254 137L230 93L237 90L435 465Q446 485 468 497T519 509Q531 509 547 506T569 500L302 28Q292 11 275 1T237 -9Q216 -9 203 1Z" />
<glyph unicode="w" glyph-name="w" horiz-adv-x="741" d="M179 -9T153 8T124 57L83 499Q91 503 105 506T134 509Q162 509 178 497T196 464L212 174L191 122L196 120L355 472Q363 490 379 499T415 509Q436 509 449 499T464 472L490 168L467 115L472 113L618 464Q627
485 648 497T696 509Q727 509 744 499L547 57Q533 26 501 9T426 -9L391 403L386 402L389 360L222 -9Q179 -9 153 8Z" />
<glyph unicode="x" glyph-name="x" horiz-adv-x="568" d="M41 -9T24 -3T-3 14L221 260L100 492Q108 499 125 504T158 509Q207 509 220 480L289 335L264 307L270 302L421 480Q433 494 452 501T496 509Q512 509 529 504T552 492L349 260L485 14Q460 -9 425 -9Q404
-9 388 -2T366 17L276 193L125 17Q103 -9 61 -9Q41 -9 24 -3Z" />
<glyph unicode="y" glyph-name="y" horiz-adv-x="577" d="M20 -209T4 -192T-12 -141Q-12 -124 -10 -115Q18 -120 37 -120Q77 -120 105 -98T171 -14L195 26L84 500Q91 504 105 506T131 509Q158 509 177 497T201 465L264 163L240 119L247 116L446 465Q457 485 480
497T531 509Q543 509 559 506T580 500L260 -47Q210 -133 161 -171T51 -209Q20 -209 4 -192Z" />
<glyph unicode="z" glyph-name="z" horiz-adv-x="524" d="M23 0T13 10T3 38Q3 60 18 73L394 441L390 445L357 415H152Q126 415 112 431T97 477Q97 484 99 500H483Q500 500 509 491T519 465Q519 442 502 427L127 60L132 55L164 85H387Q413 85 427 69T442 25Q442
14 439 0H38Q23 0 13 10Z" />
<glyph unicode="{" glyph-name="braceleft" horiz-adv-x="396" d="M129 -125T106 -101T82 -32Q82 -16 85 4L117 186Q119 202 119 208Q119 251 82 251Q66 251 57 261T47 288Q47 314 62 332T100 351Q122 351 137 368T158 417L190 599Q201 660 236 693T326 727H438Q430
678 412 652T359 626H343Q330 626 322 618T310 595L280 422Q272 380 254 350T202 301Q241 275 241 221Q241 208 237 180L206 8Q204 -7 210 -15T229 -24H244Q269 -24 281 -39T293 -84Q293 -104 289 -125H176Q129 -125 106 -101Z" />
<glyph unicode="|" glyph-name="bar" horiz-adv-x="243" d="M139 687Q147 731 183 754T273 777L125 -63Q117 -108 82 -130T-10 -153L139 687Z" />
<glyph unicode="}" glyph-name="braceright" horiz-adv-x="396" d="M-18 -76T1 -50T53 -24H69Q82 -24 91 -16T102 8L133 180Q139 219 156 250T211 301Q171 329 171 382Q171 394 175 422L206 595Q208 609 203 617T184 626H168Q119 626 119 685Q119 697 123 727H236Q283
727 306 703T330 635Q330 619 327 599L295 417Q293 401 293 395Q293 351 330 351Q346 351 355 342T365 314Q365 288 350 270T312 251Q288 251 274 234T254 186L222 4Q211 -58 177 -91T86 -125H-27Q-18 -76 1 -50Z" />
<glyph unicode="~" glyph-name="asciitilde" horiz-adv-x="619" d="M394 238T363 247T290 274Q252 290 227 297T177 305Q147 305 124 294T71 254Q51 282 51 308Q51 335 69 358T121 394T196 408Q230 408 259 399T336 372Q375 356 398 349T445 342Q477 342 505 356T561
404Q595 383 595 351Q595 324 573 298T512 255T427 238Q394 238 363 247Z" />
<glyph unicode="&#xa0;" glyph-name="uni00A0" horiz-adv-x="258" />
<glyph unicode="&#xa1;" glyph-name="exclamdown" horiz-adv-x="295" d="M225 509T245 491T265 444Q265 406 235 379T164 351Q132 351 113 369T93 415Q93 454 122 481T192 509Q225 509 245 491ZM99 288Q150 288 176 270T203 214Q203 208 201 196L129 -209Q79 -209
52 -192T25 -140Q25 -134 27 -122L99 288Z" />
<glyph unicode="&#xa2;" glyph-name="cent" horiz-adv-x="516" d="M496 355T467 334T392 312Q394 324 394 331Q394 363 375 384T322 410L266 90Q307 95 336 121T372 187Q409 187 431 173T454 135Q454 75 398 36T249 -8L241 -52Q237 -77 224 -90T182 -103L199 -8Q125
-1 82 39T38 140Q38 156 41 172L67 320Q80 398 141 449T289 508L297 552Q302 578 315 590T356 602L340 508Q410 503 453 471T496 389Q496 355 467 334ZM153 174T153 164Q153 137 169 118T216 92L272 409Q235 401 210 376T178 315L154 179Q153 174 153 164Z" />
<glyph unicode="&#xa3;" glyph-name="sterling" horiz-adv-x="586" d="M11 82T68 105Q127 130 155 166T183 268Q183 282 178 322H60Q65 347 80 362T120 377H169Q160 422 160 463Q160 536 192 591T284 678T422 709Q465 709 503 697T565 662T589 614Q589 573 544
544Q521 574 489 588T409 603Q346 603 312 567T277 461Q277 433 285 377H460Q456 352 440 337T400 322H294Q299 290 299 264Q299 168 212 104H425Q504 104 504 30Q504 17 501 0H-4Q11 82 68 105Z" />
<glyph unicode="&#xa4;" glyph-name="currency" horiz-adv-x="728" d="M239 75T181 124L142 91Q119 72 87 72Q61 72 41 85T17 123L113 204Q84 255 84 306Q84 364 108 413T165 499L98 579Q111 603 136 617T186 631Q218 631 233 612L261 577Q300 600 344 613T430
626Q470 626 509 614T581 577L621 612Q643 631 675 631Q701 631 721 618T745 579L650 499Q678 446 678 395Q678 330 654 285T598 204L665 123Q652 99 628 85T578 71Q546 71 529 91L502 124Q426 75 332 75Q239 75 181 124ZM403 176T451 204T529 280T558 380Q558
441 518 481T411 522Q358 522 310 494T233 418T204 319Q204 258 244 217T350 176Q403 176 451 204Z" />
<glyph unicode="&#xa5;" glyph-name="yen" horiz-adv-x="697" d="M412 257H525Q521 233 507 223T468 213H401L391 157H508Q504 133 490 123T450 113H383L378 83Q370 39 335 15T242 -9L264 113H141Q145 136 159 146T199 157H271L281 213H159Q166 257 216 257H286L118
696Q128 701 145 705T176 709Q208 709 228 696T259 653L363 368L328 316L336 311L571 653Q608 709 675 709Q691 709 709 705T734 696L412 257Z" />
<glyph unicode="&#xa6;" glyph-name="brokenbar" horiz-adv-x="243" d="M139 687Q147 731 183 754T273 777L216 454Q208 409 173 387T82 364L139 687ZM48 170Q56 214 92 237T182 260L125 -63Q117 -108 82 -130T-10 -153L48 170Z" />
<glyph unicode="&#xa7;" glyph-name="section" horiz-adv-x="519" d="M139 -9T80 19T20 95Q20 128 44 146T109 162Q105 122 142 101T234 79Q287 79 316 96T345 145Q345 167 322 180T236 211Q148 236 108 266T67 349Q67 428 143 475Q114 501 114 544Q114 594 144
631T225 689T335 709Q405 709 459 683T513 613Q513 583 493 568T434 552L417 553Q418 586 392 604T319 622Q276 622 249 606T221 562Q221 540 245 528T324 501Q413 479 454 447T496 364Q496 282 421 234Q453 210 453 164Q453 112 424 73T342 13T218 -9Q139 -9 80
19ZM386 305T386 343Q386 361 365 375T288 407Q239 423 224 430Q204 425 190 408T176 369Q176 349 198 336T273 304Q327 285 344 276Q386 305 386 343Z" />
<glyph unicode="&#xa8;" glyph-name="dieresis" horiz-adv-x="413" d="M131 536T116 550T101 587Q101 619 124 641T179 664Q204 664 218 650T233 612Q233 581 211 559T156 536Q131 536 116 550ZM333 536T318 550T303 587Q303 619 326 641T381 664Q406 664 421
650T436 612Q436 581 413 559T358 536Q333 536 318 550Z" />
<glyph unicode="&#xa9;" glyph-name="copyright" horiz-adv-x="818" d="M272 -9T201 27T91 130T51 280Q51 405 106 502T261 654T489 709Q580 709 651 672T761 570T801 419Q801 294 746 197T590 45T362 -9Q272 -9 201 27ZM471 76T544 118T659 235T700 408Q700 471
672 520T592 596T474 624Q380 624 307 582T193 463T152 290Q152 228 180 179T260 103T377 76Q471 76 544 118ZM350 135T315 152T260 197T240 261Q240 269 242 283L266 419Q273 458 303 492T377 546T469 566Q510 566 545 551T602 511T623 456Q623 427 603 409T552
390Q535 390 514 398Q521 416 521 427Q521 451 503 466T454 481Q422 481 396 463T366 419L342 283Q341 280 341 275Q341 252 360 237T408 222Q449 222 474 244T498 303Q519 312 537 312Q560 312 575 298T590 262Q590 230 560 201T484 153T393 135Q350 135 315 152Z"
/>
<glyph unicode="&#xaa;" glyph-name="ordfeminine" horiz-adv-x="445" d="M137 298T101 328T64 405Q64 451 88 487T155 545T252 566Q289 566 316 554T365 516L369 521Q363 529 350 542L353 561Q354 566 354 576Q354 605 334 621T274 637Q237 637 206 621T151 576Q137
580 129 591T120 614Q120 640 143 662T206 696T294 709Q363 709 403 676T444 588Q444 572 442 563L407 362Q401 328 378 313T311 298L317 334Q327 341 340 354L337 358Q303 326 270 312T193 298Q137 298 101 328ZM274 365T303 387T333 444Q333 470 312 484T251
498Q207 498 181 476T154 418Q154 365 226 365Q274 365 303 387Z" />
<glyph unicode="&#xab;" glyph-name="guillemotleft" horiz-adv-x="533" d="M56 256Q46 271 46 285Q46 306 68 328L241 493Q253 505 268 511T300 517Q320 517 334 507T350 478L154 292L285 106Q270 86 252 77T217 67Q203 67 190 73T169 92L56 256ZM238 256Q228
271 228 285Q228 306 250 328L423 493Q435 505 450 511T482 517Q502 517 516 507T532 478L336 292L467 106Q452 86 434 77T399 67Q385 67 372 73T351 92L238 256Z" />
<glyph unicode="&#xac;" glyph-name="logicalnot" horiz-adv-x="595" d="M451 324H53Q61 373 87 400T154 428H585L554 247Q539 163 423 163L451 324Z" />
<glyph unicode="&#xad;" glyph-name="uni00AD" horiz-adv-x="472" d="M46 289T71 315T137 341H447Q439 294 414 269T347 243H38Q46 289 71 315Z" />
<glyph unicode="&#xae;" glyph-name="registered" horiz-adv-x="818" d="M272 -9T201 27T91 130T51 280Q51 405 106 502T261 654T489 709Q580 709 651 672T761 570T801 419Q801 294 746 197T590 45T362 -9Q272 -9 201 27ZM471 76T544 118T659 235T700 408Q700
471 672 520T592 596T474 624Q380 624 307 582T193 463T152 290Q152 228 180 179T260 103T377 76Q471 76 544 118ZM291 512Q294 530 310 542T348 555H524Q573 555 600 530T628 460Q628 420 608 389T555 346Q593 328 593 284Q593 278 591 264L582 215Q577 186 551
172T473 158L492 262Q494 274 494 277Q494 309 458 309H352L336 215Q330 184 306 171T228 158L291 512ZM487 385Q503 385 516 402T529 440Q529 454 522 462T502 471H381L366 385H487Z" />
<glyph unicode="&#xaf;" glyph-name="overscore" horiz-adv-x="428" d="M101 590T123 612T188 634H457Q449 590 426 568T361 546H93Q101 590 123 612Z" />
<glyph unicode="&#xb0;" glyph-name="degree" horiz-adv-x="413" d="M173 420T134 456T95 552Q95 635 149 685T292 736Q355 736 394 700T433 605Q433 522 379 471T237 420Q173 420 134 456ZM292 498T317 524T343 594Q343 623 326 640T279 658Q237 658 212 632T186
563Q186 534 204 516T251 498Q292 498 317 524Z" />
<glyph unicode="&#xb1;" glyph-name="plusminus" horiz-adv-x="635" d="M274 339H55Q63 387 89 414T156 442H292L312 552Q327 637 444 637L409 442H628Q620 394 595 367T526 339H391L372 228Q357 143 240 143L274 339ZM4 49T30 77T98 105H569Q561 55 534 28T465
1H-5Q4 49 30 77Z" />
<glyph unicode="&#xb2;" glyph-name="uni00B2" horiz-adv-x="471" d="M89 400T77 411T64 440Q64 499 127 550T283 636Q340 657 370 681T400 746Q400 770 383 783T332 796Q284 796 258 771T232 696Q232 690 233 687Q217 685 209 685Q173 685 149 701T125 747Q125
784 155 818T236 874T350 896Q432 896 476 858T520 760Q520 633 335 565Q280 545 248 528T210 494H399Q470 494 470 429Q470 416 467 400H111Q89 400 77 411Z" />
<glyph unicode="&#xb3;" glyph-name="uni00B3" horiz-adv-x="471" d="M174 394T124 427T73 514Q73 568 107 587T202 608Q198 597 195 580T191 553Q191 523 212 506T275 488Q326 488 353 507T380 561Q380 604 312 604H290Q274 604 264 613T254 639Q254 664 269
680T307 696H329Q362 696 381 712T401 757Q401 777 383 788T331 800Q286 800 262 783T233 740Q231 727 230 709Q181 708 154 722T127 762Q127 799 156 829T237 878T349 896Q426 896 473 863T521 774Q521 733 499 701T436 650Q468 636 483 616T499 568Q499 519 469
479T384 417T258 394Q174 394 124 427Z" />
<glyph unicode="&#xb4;" glyph-name="acute" horiz-adv-x="344" d="M218 700Q248 740 314 740H391L207 550Q194 535 179 530T134 524Q125 524 89 526L218 700Z" />
<glyph unicode="&#xb6;" glyph-name="paragraph" horiz-adv-x="650" d="M284 245Q188 245 131 289T73 417Q73 497 112 561T221 663T375 700H666L535 -46Q527 -91 492 -113T400 -136L529 598H465L352 -46Q344 -91 309 -113T217 -136L284 245Z" />
<glyph unicode="&#xb7;" glyph-name="middot" horiz-adv-x="229" d="M81 220T64 236T46 279Q46 314 72 340T134 366Q161 366 179 349T197 305Q197 271 170 246T108 220Q81 220 64 236Z" />
<glyph unicode="&#xb8;" glyph-name="cedilla" horiz-adv-x="318" d="M25 -233T-4 -215T-34 -171Q-34 -158 -28 -146T-10 -126Q11 -164 68 -164Q95 -164 110 -153T126 -121Q126 -92 78 -92Q60 -92 40 -98Q29 -101 21 -95T13 -77Q13 -66 21 -57L91 28H190L130 -42Q169
-42 190 -61T212 -113Q212 -164 171 -198T68 -233Q25 -233 -4 -215Z" />
<glyph unicode="&#xb9;" glyph-name="uni00B9" horiz-adv-x="322" d="M233 790H201Q173 790 157 810T140 865Q140 872 142 890H314Q336 890 350 876T360 841L296 476Q289 436 255 415T164 394L233 790Z" />
<glyph unicode="&#xba;" glyph-name="ordmasculine" horiz-adv-x="445" d="M157 298T115 333T73 424Q73 431 75 447L95 560Q107 626 164 667T303 709Q377 709 419 673T462 584Q462 576 460 560L440 447Q428 381 371 340T231 298Q157 298 115 333ZM286 376T315
396T350 450L369 557Q370 562 370 570Q370 598 348 614T290 631Q249 631 220 611T184 557L165 450Q164 446 164 437Q164 409 186 393T245 376Q286 376 315 396Z" />
<glyph unicode="&#xbb;" glyph-name="guillemotright" horiz-adv-x="533" d="M100 68T68 68Q51 68 37 77T14 106L211 292L80 478Q89 497 106 507T144 517Q160 517 173 511T195 493L309 328Q318 316 318 300Q318 278 296 256L124 92Q100 68 68 68ZM282 68T250 68Q233
68 219 77T196 106L392 292L261 478Q270 497 287 507T325 517Q360 517 376 493L491 328Q500 316 500 300Q500 277 477 256L306 92Q282 68 250 68Z" />
<glyph unicode="&#xbc;" glyph-name="onequarter" horiz-adv-x="927" d="M615 696Q629 716 649 727T693 738Q726 738 754 715L275 5Q262 -15 242 -25T199 -36Q164 -36 137 -12L615 696ZM210 600H178Q149 600 133 620T117 674Q117 691 119 700H290Q312 700 326
686T337 651L272 286Q265 245 230 225T140 204L210 600ZM665 117H480Q461 117 450 126T438 152Q438 164 443 176T456 197L743 475Q761 493 796 493Q816 493 829 482T842 452Q842 446 841 443L800 210H880Q871 159 853 138T797 117H783L773 58Q767 21 736 6T643
-10L665 117ZM701 206L721 325L751 357L745 362L586 206H701Z" />
<glyph unicode="&#xbd;" glyph-name="onehalf" horiz-adv-x="992" d="M615 696Q628 716 649 727T693 738Q726 738 754 715L275 5Q262 -15 242 -25T199 -36Q164 -36 137 -12L615 696ZM210 600H178Q149 600 133 620T117 674Q117 691 119 700H290Q312 700 326 686T337
651L272 286Q265 245 230 225T140 204L210 600ZM529 0T517 11T504 40Q504 99 567 151T722 236Q780 257 809 281T839 346Q839 369 822 382T772 396Q723 396 697 371T671 296V287Q655 285 647 285Q612 285 588 301T564 347Q564 384 594 418T675 474T789 496Q871 496
915 458T960 360Q960 287 907 241T774 165Q660 124 648 95H838Q910 95 910 30Q910 17 907 0H550Q529 0 517 11Z" />
<glyph unicode="&#xbe;" glyph-name="threequarters" horiz-adv-x="1074" d="M762 696Q775 716 796 727T840 738Q873 738 901 715L422 5Q409 -15 389 -25T346 -36Q311 -36 284 -12L762 696ZM156 208T106 241T55 328Q55 382 89 401T184 421Q180 411 177 394T173
367Q173 337 194 320T257 302Q308 302 335 321T362 375Q362 418 294 418H272Q256 418 246 427T236 453Q236 477 251 493T289 510H311Q344 510 363 526T383 570Q383 590 365 601T313 613Q268 613 244 596T215 554Q213 539 212 522Q163 521 136 535T109 575Q109 612
138 643T219 692T331 710Q410 710 457 677T504 587Q504 546 482 514T418 463Q482 438 482 382Q482 333 450 294T363 231T240 208Q156 208 106 241ZM812 117H627Q607 117 596 126T584 152Q584 163 589 176T603 197L890 475Q899 484 913 488T943 493Q963 493 976
482T989 452Q989 446 988 443L947 210H1027Q1017 157 999 137T944 117H930L920 58Q914 21 883 6T789 -10L812 117ZM848 206L868 325L897 357L891 362L733 206H848Z" />
<glyph unicode="&#xbf;" glyph-name="questiondown" horiz-adv-x="556" d="M363 509T382 492T402 445Q402 406 373 379T303 351Q270 351 250 369T230 416Q230 454 259 481T330 509Q363 509 382 492ZM336 222Q328 177 299 149T216 90Q180 68 160 53T125 14T111
-39Q111 -70 137 -87T212 -105Q278 -105 316 -73T355 19Q355 29 353 43Q369 45 377 45Q414 45 439 28T465 -19Q465 -67 431 -111T335 -182T199 -209Q141 -209 93 -191T16 -139T-13 -60Q-13 -10 8 26T58 85T133 135Q174 159 194 176T217 214L220 231Q233 298 349
298L336 222Z" />
<glyph unicode="&#xc0;" glyph-name="Agrave" horiz-adv-x="688" d="M45 -4T26 15T7 64Q7 96 29 131L358 670Q383 709 424 709Q465 709 475 670L614 131Q618 115 618 97Q618 55 592 26T521 -9L474 187H200L80 -9Q45 -4 26 15ZM454 291L388 582L376 578L389 521L255
291H454ZM478 755T452 755Q422 755 409 760T386 780L288 935H365Q433 935 446 895L495 756Q478 755 452 755Z" />
<glyph unicode="&#xc1;" glyph-name="Aacute" horiz-adv-x="688" d="M45 -4T26 15T7 64Q7 96 29 131L358 670Q383 709 424 709Q465 709 475 670L614 131Q618 115 618 97Q618 55 592 26T521 -9L474 187H200L80 -9Q45 -4 26 15ZM454 291L388 582L376 578L389 521L255
291H454ZM468 894Q494 934 558 934H635L492 780Q478 765 464 760T421 755Q396 755 379 756L468 894Z" />
<glyph unicode="&#xc2;" glyph-name="Acircumflex" horiz-adv-x="688" d="M45 -4T26 15T7 64Q7 96 29 131L358 670Q383 709 424 709Q465 709 475 670L614 131Q618 115 618 97Q618 55 592 26T521 -9L474 187H200L80 -9Q45 -4 26 15ZM454 291L388 582L376 578L389
521L255 291H454ZM356 766T342 761T313 756Q293 756 277 765T254 791L431 946Q451 963 472 963Q492 963 506 946L628 791Q616 774 596 765T556 756Q541 756 529 761T511 776L455 866L365 776Q356 766 342 761Z" />
<glyph unicode="&#xc3;" glyph-name="Atilde" horiz-adv-x="688" d="M45 -4T26 15T7 64Q7 96 29 131L358 670Q383 709 424 709Q465 709 475 670L614 131Q618 115 618 97Q618 55 592 26T521 -9L474 187H200L80 -9Q45 -4 26 15ZM454 291L388 582L376 578L389 521L255
291H454ZM296 756T283 771T270 810Q270 853 302 882T380 912Q409 912 428 902T470 873Q484 861 494 855T515 849Q548 849 548 884Q548 890 544 906Q556 912 572 912Q594 912 607 896T621 855Q621 814 591 785T516 756Q493 756 475 766T434 795Q416 810 405 817T380
824Q363 824 353 813T342 782Q342 774 346 762Q332 756 318 756Q296 756 283 771Z" />
<glyph unicode="&#xc4;" glyph-name="Adieresis" horiz-adv-x="688" d="M45 -4T26 15T7 64Q7 96 29 131L358 670Q383 709 424 709Q465 709 475 670L614 131Q618 115 618 97Q618 55 592 26T521 -9L474 187H200L80 -9Q45 -4 26 15ZM454 291L388 582L376 578L389
521L255 291H454ZM310 766T295 780T280 817Q280 849 303 871T358 894Q383 894 397 880T412 842Q412 811 389 789T335 766Q310 766 295 780ZM512 766T498 780T483 817Q483 849 505 871T560 894Q585 894 600 880T615 842Q615 811 592 789T537 766Q512 766 498 780Z"
/>
<glyph unicode="&#xc5;" glyph-name="Aring" horiz-adv-x="688" d="M45 -4T26 15T7 64Q7 96 29 131L358 670Q383 709 424 709Q465 709 475 670L614 131Q618 115 618 97Q618 55 592 26T521 -9L474 187H200L80 -9Q45 -4 26 15ZM454 291L388 582L376 578L389 521L255
291H454ZM383 747T354 772T324 840Q324 877 344 908T398 958T472 976Q520 976 549 951T578 883Q578 846 559 815T506 766T432 747Q383 747 354 772ZM469 813T486 830T503 872Q503 890 491 900T461 911Q436 911 419 894T402 851Q402 833 413 823T444 813Q469 813
486 830Z" />
<glyph unicode="&#xc6;" glyph-name="AE" horiz-adv-x="905" d="M372 660Q384 679 405 689T449 700H924Q915 648 892 622T824 596H562L528 405H757Q748 353 725 327T658 301H509L475 104H758Q824 104 824 38Q824 19 820 0H397Q373 0 359 13T344 47L345 56L369
187H202L78 -9Q44 -5 26 13T8 60Q8 94 32 131L372 660ZM387 292L437 572L257 292H387Z" />
<glyph unicode="&#xc7;" glyph-name="Ccedilla" horiz-adv-x="685" d="M686 485T648 458T549 430Q562 471 562 496Q562 544 519 574T406 604Q328 604 272 561T203 450L168 253Q166 243 166 225Q166 167 207 132T320 97Q406 97 462 137T524 248L526 268Q575 268
605 252T635 210Q635 154 599 107T499 30T351 -7L320 -42Q359 -42 381 -62T403 -114Q403 -147 384 -174T332 -217T259 -233Q215 -233 186 -215T157 -171Q157 -158 163 -146T180 -126Q203 -164 258 -164Q285 -164 300 -153T316 -121Q316 -92 268 -92Q250 -92 230
-98Q219 -101 211 -95T203 -77Q203 -66 211 -57L253 -6Q156 6 100 62T44 205Q44 232 48 253L82 450Q96 527 141 585T260 676T424 709Q501 709 560 686T653 622T686 528Q686 485 648 458Z" />
<glyph unicode="&#xc8;" glyph-name="Egrave" horiz-adv-x="629" d="M132 645Q136 668 156 684T203 700H648Q638 646 614 621T547 596H243L210 405H481Q471 352 447 327T381 301H191L157 104H482Q548 104 548 38Q548 19 544 0H79Q56 0 42 13T27 46Q27 52 28 56L132
645ZM445 755T419 755Q389 755 376 760T353 780L255 935H332Q400 935 413 895L462 756Q445 755 419 755Z" />
<glyph unicode="&#xc9;" glyph-name="Eacute" horiz-adv-x="629" d="M132 645Q136 668 156 684T203 700H648Q638 646 614 621T547 596H243L210 405H481Q471 352 447 327T381 301H191L157 104H482Q548 104 548 38Q548 19 544 0H79Q56 0 42 13T27 46Q27 52 28 56L132
645ZM435 894Q461 934 525 934H602L459 780Q445 765 431 760T388 755Q363 755 346 756L435 894Z" />
<glyph unicode="&#xca;" glyph-name="Ecircumflex" horiz-adv-x="629" d="M132 645Q136 668 156 684T203 700H648Q638 646 614 621T547 596H243L210 405H481Q471 352 447 327T381 301H191L157 104H482Q548 104 548 38Q548 19 544 0H79Q56 0 42 13T27 46Q27 52
28 56L132 645ZM323 766T309 761T280 756Q260 756 244 765T221 791L398 946Q418 963 439 963Q459 963 473 946L595 791Q583 774 563 765T523 756Q508 756 496 761T478 776L422 866L332 776Q323 766 309 761Z" />
<glyph unicode="&#xcb;" glyph-name="Edieresis" horiz-adv-x="629" d="M132 645Q136 668 156 684T203 700H648Q638 646 614 621T547 596H243L210 405H481Q471 352 447 327T381 301H191L157 104H482Q548 104 548 38Q548 19 544 0H79Q56 0 42 13T27 46Q27 52 28
56L132 645ZM277 766T262 780T247 817Q247 849 270 871T325 894Q350 894 364 880T379 842Q379 811 356 789T302 766Q277 766 262 780ZM479 766T465 780T450 817Q450 849 472 871T527 894Q552 894 567 880T582 842Q582 811 559 789T504 766Q479 766 465 780Z" />
<glyph unicode="&#xcc;" glyph-name="Igrave" horiz-adv-x="286" d="M147 617Q155 661 190 685T283 709L173 84Q165 40 130 16T37 -9L147 617ZM277 755T251 755Q221 755 208 760T185 780L87 935H164Q232 935 245 895L294 756Q277 755 251 755Z" />
<glyph unicode="&#xcd;" glyph-name="Iacute" horiz-adv-x="286" d="M147 617Q155 661 190 685T283 709L173 84Q165 40 130 16T37 -9L147 617ZM267 894Q293 934 357 934H434L291 780Q277 765 263 760T220 755Q195 755 178 756L267 894Z" />
<glyph unicode="&#xce;" glyph-name="Icircumflex" horiz-adv-x="286" d="M147 617Q155 661 190 685T283 709L173 84Q165 40 130 16T37 -9L147 617ZM155 766T141 761T112 756Q92 756 76 765T53 791L230 946Q250 963 271 963Q291 963 305 946L427 791Q415 774 395
765T355 756Q340 756 328 761T310 776L254 866L164 776Q155 766 141 761Z" />
<glyph unicode="&#xcf;" glyph-name="Idieresis" horiz-adv-x="286" d="M147 617Q155 661 190 685T283 709L173 84Q165 40 130 16T37 -9L147 617ZM109 766T94 780T79 817Q79 849 102 871T157 894Q182 894 196 880T211 842Q211 811 188 789T134 766Q109 766 94
780ZM311 766T297 780T282 817Q282 849 304 871T359 894Q384 894 399 880T414 842Q414 811 391 789T336 766Q311 766 297 780Z" />
<glyph unicode="&#xd0;" glyph-name="Eth" horiz-adv-x="762" d="M564 700T621 672T711 593T743 481Q743 456 739 436L709 267Q686 138 598 69T366 0H140Q117 0 103 13T88 46Q88 52 89 56L131 296H47Q54 333 73 355T118 377H146L193 645Q197 668 217 684T264 700H490Q564
700 621 672ZM622 457T622 474Q622 534 582 565T461 596H304L266 377H438Q432 340 413 318T367 296H252L218 104H374Q465 104 520 145T589 265L619 437Q622 457 622 474Z" />
<glyph unicode="&#xd1;" glyph-name="Ntilde" horiz-adv-x="682" d="M126 611Q134 656 168 682T255 709L511 160L522 168L495 229L580 709Q632 709 658 691T685 636Q685 631 683 617L587 77Q581 42 549 17T476 -9L208 563L198 556L225 494L152 83Q145 38 111 15T17
-9L126 611ZM295 756T282 771T269 810Q269 853 301 882T379 912Q408 912 427 902T469 873Q483 861 493 855T514 849Q547 849 547 884Q547 890 543 906Q555 912 571 912Q593 912 606 896T620 855Q620 814 590 785T515 756Q492 756 474 766T433 795Q415 810 404 817T379
824Q362 824 352 813T341 782Q341 774 345 762Q331 756 317 756Q295 756 282 771Z" />
<glyph unicode="&#xd2;" glyph-name="Ograve" horiz-adv-x="670" d="M215 -9T158 18T68 92T35 199Q35 217 38 236L78 465Q91 540 139 595T259 680T416 709Q488 709 546 682T638 607T671 501Q671 483 668 465L627 236Q614 163 568 108T450 22T289 -9Q215 -9 158
18ZM388 96T442 135T508 238L548 463Q551 477 551 490Q551 543 511 573T397 604Q317 604 263 566T198 463L158 238Q155 223 155 210Q155 157 194 127T307 96Q388 96 442 135ZM468 755T442 755Q412 755 399 760T376 780L278 935H355Q423 935 436 895L485 756Q468
755 442 755Z" />
<glyph unicode="&#xd3;" glyph-name="Oacute" horiz-adv-x="670" d="M215 -9T158 18T68 92T35 199Q35 217 38 236L78 465Q91 540 139 595T259 680T416 709Q488 709 546 682T638 607T671 501Q671 483 668 465L627 236Q614 163 568 108T450 22T289 -9Q215 -9 158
18ZM388 96T442 135T508 238L548 463Q551 477 551 490Q551 543 511 573T397 604Q317 604 263 566T198 463L158 238Q155 223 155 210Q155 157 194 127T307 96Q388 96 442 135ZM459 894Q485 934 549 934H626L483 780Q469 765 455 760T412 755Q387 755 370 756L459
894Z" />
<glyph unicode="&#xd4;" glyph-name="Ocircumflex" horiz-adv-x="670" d="M215 -9T158 18T68 92T35 199Q35 217 38 236L78 465Q91 540 139 595T259 680T416 709Q488 709 546 682T638 607T671 501Q671 483 668 465L627 236Q614 163 568 108T450 22T289 -9Q215 -9
158 18ZM388 96T442 135T508 238L548 463Q551 477 551 490Q551 543 511 573T397 604Q317 604 263 566T198 463L158 238Q155 223 155 210Q155 157 194 127T307 96Q388 96 442 135ZM346 766T332 761T303 756Q283 756 267 765T244 791L421 946Q441 963 462 963Q482
963 496 946L618 791Q606 774 586 765T546 756Q531 756 519 761T501 776L445 866L355 776Q346 766 332 761Z" />
<glyph unicode="&#xd5;" glyph-name="Otilde" horiz-adv-x="670" d="M215 -9T158 18T68 92T35 199Q35 217 38 236L78 465Q91 540 139 595T259 680T416 709Q488 709 546 682T638 607T671 501Q671 483 668 465L627 236Q614 163 568 108T450 22T289 -9Q215 -9 158
18ZM388 96T442 135T508 238L548 463Q551 477 551 490Q551 543 511 573T397 604Q317 604 263 566T198 463L158 238Q155 223 155 210Q155 157 194 127T307 96Q388 96 442 135ZM287 756T274 771T261 810Q261 853 293 882T371 912Q400 912 419 902T461 873Q475 861
485 855T506 849Q539 849 539 884Q539 890 535 906Q547 912 563 912Q585 912 598 896T612 855Q612 814 582 785T507 756Q484 756 466 766T425 795Q407 810 396 817T371 824Q354 824 344 813T333 782Q333 774 337 762Q323 756 309 756Q287 756 274 771Z" />
<glyph unicode="&#xd6;" glyph-name="Odieresis" horiz-adv-x="670" d="M215 -9T158 18T68 92T35 199Q35 217 38 236L78 465Q91 540 139 595T259 680T416 709Q488 709 546 682T638 607T671 501Q671 483 668 465L627 236Q614 163 568 108T450 22T289 -9Q215 -9
158 18ZM388 96T442 135T508 238L548 463Q551 477 551 490Q551 543 511 573T397 604Q317 604 263 566T198 463L158 238Q155 223 155 210Q155 157 194 127T307 96Q388 96 442 135ZM300 766T285 780T270 817Q270 849 293 871T348 894Q373 894 387 880T402 842Q402
811 379 789T325 766Q300 766 285 780ZM502 766T488 780T473 817Q473 849 495 871T550 894Q575 894 590 880T605 842Q605 811 582 789T527 766Q502 766 488 780Z" />
<glyph unicode="&#xd7;" glyph-name="multiply" horiz-adv-x="567" d="M216 292L77 460Q95 481 117 492T160 503Q192 503 212 479L304 367L435 479Q463 504 496 504Q517 504 535 493T563 460L365 292L504 124Q486 103 465 92T422 80Q389 80 368 106L278 217L152
109Q120 81 84 81Q63 81 46 92T18 124L216 292Z" />
<glyph unicode="&#xd8;" glyph-name="Oslash" horiz-adv-x="670" d="M634 619T652 581T671 501Q671 484 668 466L627 236Q614 162 569 107T451 21T289 -10Q227 -10 169 14L140 -29Q130 -44 110 -52T68 -61Q46 -61 32 -52L104 54Q71 83 53 120T35 201Q35 218 38
236L78 466Q91 541 139 596T259 681T416 710Q481 710 535 687L568 736Q578 751 599 759T642 768Q663 768 677 760L601 648Q634 619 652 581ZM155 228T155 211Q155 177 170 151L472 595Q437 605 397 605Q317 605 263 566T197 463L157 238Q155 228 155 211ZM550 472T550
490Q550 525 534 550L232 107Q265 96 307 96Q388 96 442 135T508 238L548 463Q550 472 550 490Z" />
<glyph unicode="&#xd9;" glyph-name="Ugrave" horiz-adv-x="695" d="M229 -9T173 19T85 96T53 207Q53 230 57 250L121 617Q129 662 164 685T258 709L177 250Q174 232 174 216Q174 159 211 128T320 97Q402 97 452 136T516 250L580 617Q588 662 623 685T717 709L636
250Q622 171 577 113T461 23T301 -9Q229 -9 173 19ZM488 755T462 755Q432 755 419 760T396 780L298 935H375Q443 935 456 895L505 756Q488 755 462 755Z" />
<glyph unicode="&#xda;" glyph-name="Uacute" horiz-adv-x="695" d="M229 -9T173 19T85 96T53 207Q53 230 57 250L121 617Q129 662 164 685T258 709L177 250Q174 232 174 216Q174 159 211 128T320 97Q402 97 452 136T516 250L580 617Q588 662 623 685T717 709L636
250Q622 171 577 113T461 23T301 -9Q229 -9 173 19ZM478 894Q504 934 568 934H645L502 780Q488 765 474 760T431 755Q406 755 389 756L478 894Z" />
<glyph unicode="&#xdb;" glyph-name="Ucircumflex" horiz-adv-x="695" d="M229 -9T173 19T85 96T53 207Q53 230 57 250L121 617Q129 662 164 685T258 709L177 250Q174 232 174 216Q174 159 211 128T320 97Q402 97 452 136T516 250L580 617Q588 662 623 685T717
709L636 250Q622 171 577 113T461 23T301 -9Q229 -9 173 19ZM366 766T352 761T323 756Q303 756 287 765T264 791L441 946Q461 963 482 963Q502 963 516 946L638 791Q626 774 606 765T566 756Q551 756 539 761T521 776L465 866L375 776Q366 766 352 761Z" />
<glyph unicode="&#xdc;" glyph-name="Udieresis" horiz-adv-x="695" d="M229 -9T173 19T85 96T53 207Q53 230 57 250L121 617Q129 662 164 685T258 709L177 250Q174 232 174 216Q174 159 211 128T320 97Q402 97 452 136T516 250L580 617Q588 662 623 685T717 709L636
250Q622 171 577 113T461 23T301 -9Q229 -9 173 19ZM320 766T305 780T290 817Q290 849 313 871T368 894Q393 894 407 880T422 842Q422 811 399 789T345 766Q320 766 305 780ZM522 766T508 780T493 817Q493 849 515 871T570 894Q595 894 610 880T625 842Q625 811
602 789T547 766Q522 766 508 780Z" />
<glyph unicode="&#xdd;" glyph-name="Yacute" horiz-adv-x="697" d="M288 252L118 696Q128 701 145 705T176 709Q208 709 228 696T259 653L363 368L328 316L336 311L571 653Q608 709 675 709Q691 709 709 705T734 696L408 252L378 83Q370 39 335 15T242 -9L288
252ZM474 894Q500 934 564 934H641L498 780Q484 765 470 760T427 755Q402 755 385 756L474 894Z" />
<glyph unicode="&#xde;" glyph-name="Thorn" horiz-adv-x="656" d="M142 700Q194 700 220 681T247 626Q247 614 246 608L239 565H432Q491 565 537 543T609 482T635 392Q635 314 602 255T507 163T364 130H162L154 83Q147 38 112 15T17 -9L142 700ZM378 235Q439
235 476 273T513 375Q513 460 414 460H220L180 235H378Z" />
<glyph unicode="&#xdf;" glyph-name="germandbls" horiz-adv-x="597" d="M97 480Q117 589 187 649T368 709Q459 709 513 667T568 554Q568 488 532 439T433 367Q491 353 521 319T551 231Q551 160 522 106T439 21T315 -9Q263 -9 229 12T194 64Q194 89 217 118Q252
91 311 91Q366 91 397 127T429 226Q429 273 395 294T280 317L294 399Q363 400 403 437T443 534Q443 569 419 589T351 609Q297 609 262 575T215 481L121 -51Q114 -93 80 -114T-12 -136L97 480Z" />
<glyph unicode="&#xe0;" glyph-name="agrave" horiz-adv-x="539" d="M110 -9T65 28T20 126Q20 184 50 230T133 302T255 328Q345 328 397 266L402 271Q394 282 378 297L383 325Q385 339 385 345Q385 382 360 401T286 420Q189 420 131 347Q114 353 104 366T94 394Q94
425 123 451T203 493T311 509Q398 509 447 470T497 363Q497 346 494 328L448 69Q441 28 413 10T329 -9L337 34Q358 51 365 60L362 64Q321 26 278 9T182 -9Q110 -9 65 28ZM284 75T320 102T357 174Q357 207 330 225T255 244Q200 244 166 216T131 142Q131 108 154
92T224 75Q284 75 320 102ZM365 555T339 555Q309 555 296 560T273 580L175 735H252Q320 735 333 695L382 556Q365 555 339 555Z" />
<glyph unicode="&#xe1;" glyph-name="aacute" horiz-adv-x="539" d="M110 -9T65 28T20 126Q20 184 50 230T133 302T255 328Q345 328 397 266L402 271Q394 282 378 297L383 325Q385 339 385 345Q385 382 360 401T286 420Q189 420 131 347Q114 353 104 366T94 394Q94
425 123 451T203 493T311 509Q398 509 447 470T497 363Q497 346 494 328L448 69Q441 28 413 10T329 -9L337 34Q358 51 365 60L362 64Q321 26 278 9T182 -9Q110 -9 65 28ZM284 75T320 102T357 174Q357 207 330 225T255 244Q200 244 166 216T131 142Q131 108 154
92T224 75Q284 75 320 102ZM355 694Q381 734 445 734H522L379 580Q365 565 351 560T308 555Q283 555 266 556L355 694Z" />
<glyph unicode="&#xe2;" glyph-name="acircumflex" horiz-adv-x="539" d="M110 -9T65 28T20 126Q20 184 50 230T133 302T255 328Q345 328 397 266L402 271Q394 282 378 297L383 325Q385 339 385 345Q385 382 360 401T286 420Q189 420 131 347Q114 353 104 366T94
394Q94 425 123 451T203 493T311 509Q398 509 447 470T497 363Q497 346 494 328L448 69Q441 28 413 10T329 -9L337 34Q358 51 365 60L362 64Q321 26 278 9T182 -9Q110 -9 65 28ZM284 75T320 102T357 174Q357 207 330 225T255 244Q200 244 166 216T131 142Q131 108
154 92T224 75Q284 75 320 102ZM243 566T229 561T200 556Q180 556 164 565T141 591L318 746Q338 763 359 763Q379 763 393 746L515 591Q503 574 483 565T443 556Q428 556 416 561T398 576L342 666L252 576Q243 566 229 561Z" />
<glyph unicode="&#xe3;" glyph-name="atilde" horiz-adv-x="539" d="M110 -9T65 28T20 126Q20 184 50 230T133 302T255 328Q345 328 397 266L402 271Q394 282 378 297L383 325Q385 339 385 345Q385 382 360 401T286 420Q189 420 131 347Q114 353 104 366T94 394Q94
425 123 451T203 493T311 509Q398 509 447 470T497 363Q497 346 494 328L448 69Q441 28 413 10T329 -9L337 34Q358 51 365 60L362 64Q321 26 278 9T182 -9Q110 -9 65 28ZM284 75T320 102T357 174Q357 207 330 225T255 244Q200 244 166 216T131 142Q131 108 154
92T224 75Q284 75 320 102ZM183 556T170 571T157 610Q157 653 189 682T267 712Q296 712 315 702T357 673Q371 661 381 655T402 649Q435 649 435 684Q435 690 431 706Q443 712 459 712Q481 712 494 696T508 655Q508 614 478 585T403 556Q380 556 362 566T321 595Q303
610 292 617T267 624Q250 624 240 613T229 582Q229 574 233 562Q219 556 205 556Q183 556 170 571Z" />
<glyph unicode="&#xe4;" glyph-name="adieresis" horiz-adv-x="539" d="M110 -9T65 28T20 126Q20 184 50 230T133 302T255 328Q345 328 397 266L402 271Q394 282 378 297L383 325Q385 339 385 345Q385 382 360 401T286 420Q189 420 131 347Q114 353 104 366T94
394Q94 425 123 451T203 493T311 509Q398 509 447 470T497 363Q497 346 494 328L448 69Q441 28 413 10T329 -9L337 34Q358 51 365 60L362 64Q321 26 278 9T182 -9Q110 -9 65 28ZM284 75T320 102T357 174Q357 207 330 225T255 244Q200 244 166 216T131 142Q131 108
154 92T224 75Q284 75 320 102ZM197 566T182 580T167 617Q167 649 190 671T245 694Q270 694 284 680T299 642Q299 611 276 589T222 566Q197 566 182 580ZM399 566T385 580T370 617Q370 649 392 671T447 694Q472 694 487 680T502 642Q502 611 479 589T424 566Q399
566 385 580Z" />
<glyph unicode="&#xe5;" glyph-name="aring" horiz-adv-x="539" d="M110 -9T65 28T20 126Q20 184 50 230T133 302T255 328Q345 328 397 266L402 271Q394 282 378 297L383 325Q385 339 385 345Q385 382 360 401T286 420Q189 420 131 347Q114 353 104 366T94 394Q94
425 123 451T203 493T311 509Q398 509 447 470T497 363Q497 346 494 328L448 69Q441 28 413 10T329 -9L337 34Q358 51 365 60L362 64Q321 26 278 9T182 -9Q110 -9 65 28ZM284 75T320 102T357 174Q357 207 330 225T255 244Q200 244 166 216T131 142Q131 108 154
92T224 75Q284 75 320 102ZM270 547T241 572T211 640Q211 677 231 708T285 758T359 776Q407 776 436 751T465 683Q465 646 446 615T393 566T319 547Q270 547 241 572ZM356 613T373 630T390 672Q390 690 378 700T348 711Q323 711 306 694T289 651Q289 633 300 623T331
613Q356 613 373 630Z" />
<glyph unicode="&#xe6;" glyph-name="ae" horiz-adv-x="846" d="M116 -9T69 28T21 127Q21 185 51 231T134 302T256 328Q346 328 398 266L403 271Q389 288 379 297L384 325Q385 331 385 343Q385 380 360 400T287 420Q239 420 200 402T132 347Q116 353 105 366T94
394Q94 424 124 450T203 493T308 509Q362 509 401 490T459 434Q494 471 540 490T638 509Q719 509 769 465T820 352Q820 337 817 320L807 261Q803 241 786 227T746 213H475L469 184Q467 176 467 161Q467 124 492 103T563 82Q614 82 646 104T685 168Q691 169 701
169Q733 169 751 157T769 121Q769 89 739 59T658 10T554 -9Q501 -9 461 12T403 69Q368 32 312 12T192 -9Q116 -9 69 28ZM710 296L714 320Q716 336 716 343Q716 380 692 400T623 420Q573 420 537 392T493 320L489 296H710ZM287 75T322 102T358 177Q358 209 332 226T255
244Q200 244 166 216T132 142Q132 109 155 92T225 75Q287 75 322 102Z" />
<glyph unicode="&#xe7;" glyph-name="ccedilla" horiz-adv-x="516" d="M496 355T467 334T392 312Q394 324 394 331Q394 367 369 389T302 412Q255 412 220 385T178 315L154 179Q153 174 153 164Q153 130 178 110T247 89Q294 89 329 116T372 187Q409 187 431 173T454
135Q454 81 407 43T280 -6L248 -42Q287 -42 309 -62T331 -114Q331 -147 312 -174T260 -217T187 -233Q143 -233 114 -215T85 -171Q85 -158 91 -146T108 -126Q131 -164 186 -164Q213 -164 228 -153T244 -121Q244 -92 196 -92Q178 -92 158 -98Q147 -101 139 -95T131
-77Q131 -66 139 -57L182 -6Q115 5 77 43T38 140Q38 156 41 172L67 320Q76 375 111 418T199 485T316 509Q396 509 446 476T496 389Q496 355 467 334Z" />
<glyph unicode="&#xe8;" glyph-name="egrave" horiz-adv-x="529" d="M174 -9T131 11T63 66T39 147Q39 162 42 177L66 315Q76 372 112 416T202 484T321 509Q402 509 452 465T503 352Q503 337 500 320L490 261Q486 241 469 227T429 213H157L152 184Q150 168 150
162Q150 123 174 103T246 82Q296 82 328 105T368 168Q374 169 385 169Q417 169 434 157T452 121Q452 87 422 57T340 9T229 -9Q174 -9 131 11ZM394 296L398 320Q401 334 401 345Q401 380 376 400T305 420Q256 420 221 393T176 320L172 296H394ZM374 555T348 555Q318
555 305 560T282 580L184 735H261Q329 735 342 695L391 556Q374 555 348 555Z" />
<glyph unicode="&#xe9;" glyph-name="eacute" horiz-adv-x="529" d="M174 -9T131 11T63 66T39 147Q39 162 42 177L66 315Q76 372 112 416T202 484T321 509Q402 509 452 465T503 352Q503 337 500 320L490 261Q486 241 469 227T429 213H157L152 184Q150 168 150
162Q150 123 174 103T246 82Q296 82 328 105T368 168Q374 169 385 169Q417 169 434 157T452 121Q452 87 422 57T340 9T229 -9Q174 -9 131 11ZM394 296L398 320Q401 334 401 345Q401 380 376 400T305 420Q256 420 221 393T176 320L172 296H394ZM364 694Q390 734
454 734H531L388 580Q374 565 360 560T317 555Q292 555 275 556L364 694Z" />
<glyph unicode="&#xea;" glyph-name="ecircumflex" horiz-adv-x="529" d="M174 -9T131 11T63 66T39 147Q39 162 42 177L66 315Q76 372 112 416T202 484T321 509Q402 509 452 465T503 352Q503 337 500 320L490 261Q486 241 469 227T429 213H157L152 184Q150 168
150 162Q150 123 174 103T246 82Q296 82 328 105T368 168Q374 169 385 169Q417 169 434 157T452 121Q452 87 422 57T340 9T229 -9Q174 -9 131 11ZM394 296L398 320Q401 334 401 345Q401 380 376 400T305 420Q256 420 221 393T176 320L172 296H394ZM252 566T238
561T209 556Q189 556 173 565T150 591L327 746Q347 763 368 763Q388 763 402 746L524 591Q512 574 492 565T452 556Q437 556 425 561T407 576L351 666L261 576Q252 566 238 561Z" />
<glyph unicode="&#xeb;" glyph-name="edieresis" horiz-adv-x="529" d="M174 -9T131 11T63 66T39 147Q39 162 42 177L66 315Q76 372 112 416T202 484T321 509Q402 509 452 465T503 352Q503 337 500 320L490 261Q486 241 469 227T429 213H157L152 184Q150 168 150
162Q150 123 174 103T246 82Q296 82 328 105T368 168Q374 169 385 169Q417 169 434 157T452 121Q452 87 422 57T340 9T229 -9Q174 -9 131 11ZM394 296L398 320Q401 334 401 345Q401 380 376 400T305 420Q256 420 221 393T176 320L172 296H394ZM206 566T191 580T176
617Q176 649 199 671T254 694Q279 694 293 680T308 642Q308 611 285 589T231 566Q206 566 191 580ZM408 566T394 580T379 617Q379 649 401 671T456 694Q481 694 496 680T511 642Q511 611 488 589T433 566Q408 566 394 580Z" />
<glyph unicode="&#xec;" glyph-name="igrave" horiz-adv-x="237" d="M95 437Q102 475 133 492T220 509L141 63Q135 28 107 10T17 -9L95 437ZM220 564T194 564Q164 564 151 569T128 589L30 744H107Q175 744 188 704L237 565Q220 564 194 564Z" />
<glyph unicode="&#xed;" glyph-name="iacute" horiz-adv-x="237" d="M95 437Q102 475 133 492T220 509L141 63Q135 28 107 10T17 -9L95 437ZM211 703Q237 743 301 743H378L235 589Q221 574 207 569T164 564Q139 564 122 565L211 703Z" />
<glyph unicode="&#xee;" glyph-name="icircumflex" horiz-adv-x="237" d="M95 437Q102 475 133 492T220 509L141 63Q135 28 107 10T17 -9L95 437ZM98 575T84 570T55 565Q35 565 19 574T-4 600L173 755Q193 772 214 772Q234 772 248 755L370 600Q358 583 338 574T298
565Q283 565 271 570T253 585L197 675L107 585Q98 575 84 570Z" />
<glyph unicode="&#xef;" glyph-name="idieresis" horiz-adv-x="237" d="M95 437Q102 475 133 492T220 509L141 63Q135 28 107 10T17 -9L95 437ZM52 575T37 589T22 626Q22 658 45 680T100 703Q125 703 139 689T154 651Q154 620 131 598T77 575Q52 575 37 589ZM254
575T240 589T225 626Q225 658 247 680T302 703Q327 703 342 689T357 651Q357 620 334 598T279 575Q254 575 240 589Z" />
<glyph unicode="&#xf0;" glyph-name="eth" horiz-adv-x="640" d="M205 -9T152 18T68 95T37 206Q37 291 76 361T184 473T340 515Q393 515 436 491T508 423L516 429Q514 433 506 448T487 473Q472 516 447 545T379 596L235 535Q233 545 233 550Q233 584 270 601L320
623Q289 636 256 643Q239 647 230 660T221 693Q221 710 228 725T249 751Q310 741 357 723T447 677L573 731Q576 722 576 713Q576 680 538 665L492 645Q555 595 584 532T613 384Q613 253 564 165T436 34T271 -9Q205 -9 152 18ZM344 91T389 119T460 195T486 302Q486
361 451 395T353 429Q297 429 252 402T180 329T153 224Q153 165 189 128T287 91Q344 91 389 119Z" />
<glyph unicode="&#xf1;" glyph-name="ntilde" horiz-adv-x="562" d="M92 420Q109 509 215 509L205 448Q189 434 176 417L181 413Q220 458 272 483T379 509Q444 509 484 470T524 368Q524 353 521 335L473 63Q466 26 436 9T349 -9L406 320Q408 329 408 344Q408 412
328 412Q276 412 234 380T183 300L141 63Q134 26 105 9T17 -9L92 420ZM199 556T186 571T173 610Q173 653 205 682T283 712Q312 712 331 702T373 673Q387 661 397 655T418 649Q451 649 451 684Q451 690 447 706Q459 712 475 712Q497 712 510 696T524 655Q524 614
494 585T419 556Q396 556 378 566T337 595Q319 610 308 617T283 624Q266 624 256 613T245 582Q245 574 249 562Q235 556 221 556Q199 556 186 571Z" />
<glyph unicode="&#xf2;" glyph-name="ograve" horiz-adv-x="532" d="M165 -9T121 11T51 66T25 146Q25 163 27 172L53 320Q68 406 138 457T312 509Q370 509 414 488T483 431T507 349Q507 335 504 320L478 172Q469 119 435 78T345 14T220 -9Q165 -9 121 11ZM291
88T326 112T369 179L392 315Q394 329 394 335Q394 371 369 392T295 413Q242 413 206 386T162 315L139 179Q137 167 137 161Q137 127 163 108T238 88Q291 88 326 112ZM364 555T338 555Q308 555 295 560T272 580L174 735H251Q319 735 332 695L381 556Q364 555 338
555Z" />
<glyph unicode="&#xf3;" glyph-name="oacute" horiz-adv-x="532" d="M165 -9T121 11T51 66T25 146Q25 163 27 172L53 320Q68 406 138 457T312 509Q370 509 414 488T483 431T507 349Q507 335 504 320L478 172Q469 119 435 78T345 14T220 -9Q165 -9 121 11ZM291
88T326 112T369 179L392 315Q394 329 394 335Q394 371 369 392T295 413Q242 413 206 386T162 315L139 179Q137 167 137 161Q137 127 163 108T238 88Q291 88 326 112ZM354 694Q380 734 444 734H521L378 580Q364 565 350 560T307 555Q282 555 265 556L354 694Z" />
<glyph unicode="&#xf4;" glyph-name="ocircumflex" horiz-adv-x="532" d="M165 -9T121 11T51 66T25 146Q25 163 27 172L53 320Q68 406 138 457T312 509Q370 509 414 488T483 431T507 349Q507 335 504 320L478 172Q469 119 435 78T345 14T220 -9Q165 -9 121 11ZM291
88T326 112T369 179L392 315Q394 329 394 335Q394 371 369 392T295 413Q242 413 206 386T162 315L139 179Q137 167 137 161Q137 127 163 108T238 88Q291 88 326 112ZM242 566T228 561T199 556Q179 556 163 565T140 591L317 746Q337 763 358 763Q378 763 392 746L514
591Q502 574 482 565T442 556Q427 556 415 561T397 576L341 666L251 576Q242 566 228 561Z" />
<glyph unicode="&#xf5;" glyph-name="otilde" horiz-adv-x="532" d="M165 -9T121 11T51 66T25 146Q25 163 27 172L53 320Q68 406 138 457T312 509Q370 509 414 488T483 431T507 349Q507 335 504 320L478 172Q469 119 435 78T345 14T220 -9Q165 -9 121 11ZM291
88T326 112T369 179L392 315Q394 329 394 335Q394 371 369 392T295 413Q242 413 206 386T162 315L139 179Q137 167 137 161Q137 127 163 108T238 88Q291 88 326 112ZM182 556T169 571T156 610Q156 653 188 682T266 712Q295 712 314 702T356 673Q370 661 380 655T401
649Q434 649 434 684Q434 690 430 706Q442 712 458 712Q480 712 493 696T507 655Q507 614 477 585T402 556Q379 556 361 566T320 595Q302 610 291 617T266 624Q249 624 239 613T228 582Q228 574 232 562Q218 556 204 556Q182 556 169 571Z" />
<glyph unicode="&#xf6;" glyph-name="odieresis" horiz-adv-x="532" d="M165 -9T121 11T51 66T25 146Q25 163 27 172L53 320Q68 406 138 457T312 509Q370 509 414 488T483 431T507 349Q507 335 504 320L478 172Q469 119 435 78T345 14T220 -9Q165 -9 121 11ZM291
88T326 112T369 179L392 315Q394 329 394 335Q394 371 369 392T295 413Q242 413 206 386T162 315L139 179Q137 167 137 161Q137 127 163 108T238 88Q291 88 326 112ZM196 566T181 580T166 617Q166 649 189 671T244 694Q269 694 283 680T298 642Q298 611 275 589T221
566Q196 566 181 580ZM398 566T384 580T369 617Q369 649 391 671T446 694Q471 694 486 680T501 642Q501 611 478 589T423 566Q398 566 384 580Z" />
<glyph unicode="&#xf7;" glyph-name="divide" horiz-adv-x="635" d="M315 398T296 416T276 462Q276 496 305 523T371 551Q399 551 418 533T437 487Q437 453 408 426T344 398Q315 398 296 416ZM46 288T73 316T140 344H611Q603 295 577 268T508 240H38Q46 288 73
316ZM252 34T233 52T214 97Q214 131 243 159T308 187Q336 187 355 168T374 122Q374 88 346 61T281 34Q252 34 233 52Z" />
<glyph unicode="&#xf8;" glyph-name="oslash" horiz-adv-x="532" d="M507 416T507 350Q507 335 504 320L478 172Q469 120 434 79T343 14T220 -9Q180 -9 144 2L124 -28Q114 -43 94 -51T51 -60Q29 -60 15 -51L75 38Q51 58 38 85T24 144Q24 159 27 172L53 320Q62
375 97 418T189 485T312 509Q353 509 388 498L413 534Q423 549 444 557T488 566Q507 566 523 558L457 461Q507 416 507 350ZM136 167T136 161Q136 148 141 135L328 410Q313 413 294 413Q242 413 206 386T162 315L138 179Q136 167 136 161ZM394 327T394 334Q394
347 389 362L205 91Q218 88 237 88Q290 88 325 112T368 179L392 315Q394 327 394 334Z" />
<glyph unicode="&#xf9;" glyph-name="ugrave" horiz-adv-x="559" d="M465 80Q450 -9 342 -9L353 53Q363 61 381 83L376 87Q337 41 289 16T187 -9Q120 -9 78 32T36 140Q36 156 39 174L85 437Q92 474 122 491T211 509L153 181Q151 172 151 155Q151 121 171 105T236
89Q287 89 326 120T374 201L416 437Q423 475 453 492T541 509L465 80ZM380 555T354 555Q324 555 311 560T288 580L190 735H267Q335 735 348 695L397 556Q380 555 354 555Z" />
<glyph unicode="&#xfa;" glyph-name="uacute" horiz-adv-x="559" d="M465 80Q450 -9 342 -9L353 53Q363 61 381 83L376 87Q337 41 289 16T187 -9Q120 -9 78 32T36 140Q36 156 39 174L85 437Q92 474 122 491T211 509L153 181Q151 172 151 155Q151 121 171 105T236
89Q287 89 326 120T374 201L416 437Q423 475 453 492T541 509L465 80ZM370 694Q396 734 460 734H537L394 580Q380 565 366 560T323 555Q298 555 281 556L370 694Z" />
<glyph unicode="&#xfb;" glyph-name="ucircumflex" horiz-adv-x="559" d="M465 80Q450 -9 342 -9L353 53Q363 61 381 83L376 87Q337 41 289 16T187 -9Q120 -9 78 32T36 140Q36 156 39 174L85 437Q92 474 122 491T211 509L153 181Q151 172 151 155Q151 121 171
105T236 89Q287 89 326 120T374 201L416 437Q423 475 453 492T541 509L465 80ZM258 566T244 561T215 556Q195 556 179 565T156 591L333 746Q353 763 374 763Q394 763 408 746L530 591Q518 574 498 565T458 556Q443 556 431 561T413 576L357 666L267 576Q258 566
244 561Z" />
<glyph unicode="&#xfc;" glyph-name="udieresis" horiz-adv-x="559" d="M465 80Q450 -9 342 -9L353 53Q363 61 381 83L376 87Q337 41 289 16T187 -9Q120 -9 78 32T36 140Q36 156 39 174L85 437Q92 474 122 491T211 509L153 181Q151 172 151 155Q151 121 171 105T236
89Q287 89 326 120T374 201L416 437Q423 475 453 492T541 509L465 80ZM212 566T197 580T182 617Q182 649 205 671T260 694Q285 694 299 680T314 642Q314 611 291 589T237 566Q212 566 197 580ZM414 566T400 580T385 617Q385 649 407 671T462 694Q487 694 502 680T517
642Q517 611 494 589T439 566Q414 566 400 580Z" />
<glyph unicode="&#xfd;" glyph-name="yacute" horiz-adv-x="577" d="M20 -209T4 -192T-12 -141Q-12 -124 -10 -115Q18 -120 37 -120Q77 -120 105 -98T171 -14L195 26L84 500Q91 504 105 506T131 509Q158 509 177 497T201 465L264 163L240 119L247 116L446 465Q457
485 480 497T531 509Q543 509 559 506T580 500L260 -47Q210 -133 161 -171T51 -209Q20 -209 4 -192ZM370 694Q396 734 460 734H537L394 580Q380 565 366 560T323 555Q298 555 281 556L370 694Z" />
<glyph unicode="&#xfe;" glyph-name="thorn" horiz-adv-x="541" d="M129 628Q136 666 167 687T248 709L203 454Q188 442 178 428L182 424Q223 468 267 488T363 509Q434 509 478 468T523 362Q523 348 520 331L491 169Q477 87 414 39T259 -9Q219 -9 183 7T123 53L119
48Q124 39 136 27L109 -130Q96 -209 -19 -209L129 628ZM308 89T341 111T381 175L407 324Q409 338 409 344Q409 376 384 394T313 412Q266 412 230 388T188 329L160 171Q159 167 159 159Q159 127 185 108T256 89Q308 89 341 111Z" />
<glyph unicode="&#xff;" glyph-name="ydieresis" horiz-adv-x="577" d="M20 -209T4 -192T-12 -141Q-12 -124 -10 -115Q18 -120 37 -120Q77 -120 105 -98T171 -14L195 26L84 500Q91 504 105 506T131 509Q158 509 177 497T201 465L264 163L240 119L247 116L446 465Q457
485 480 497T531 509Q543 509 559 506T580 500L260 -47Q210 -133 161 -171T51 -209Q20 -209 4 -192ZM211 566T196 580T181 617Q181 649 204 671T259 694Q284 694 298 680T313 642Q313 611 290 589T236 566Q211 566 196 580ZM413 566T399 580T384 617Q384 649 406
671T461 694Q486 694 501 680T516 642Q516 611 493 589T438 566Q413 566 399 580Z" />
<glyph unicode="&#x2013;" glyph-name="endash" horiz-adv-x="637" d="M46 289T71 315T137 341H612Q604 294 579 269T513 243H38Q46 289 71 315Z" />
<glyph unicode="&#x2014;" glyph-name="emdash" horiz-adv-x="765" d="M55 340T137 340H740Q722 243 642 243H38Q55 340 137 340Z" />
<glyph unicode="&#x2018;" glyph-name="quoteleft" horiz-adv-x="250" d="M119 407T100 426T81 476Q81 528 119 595T209 698Q225 709 244 709Q257 709 266 702Q226 669 200 630T168 562Q176 567 194 567Q220 567 236 551T252 506Q252 465 223 436T153 407Q119
407 100 426Z" />
<glyph unicode="&#x2019;" glyph-name="quoteright" horiz-adv-x="250" d="M131 447T157 486T189 554Q181 549 164 549Q138 549 121 566T104 611Q104 651 133 680T204 709Q238 709 257 690T276 641Q276 588 238 521T148 418Q132 407 115 407Q101 407 91 415Q131
447 157 486Z" />
<glyph unicode="&#x201a;" glyph-name="quotesinglbase" horiz-adv-x="250" d="M33 -112T59 -73T91 -4Q81 -9 65 -9Q39 -9 23 8T6 53Q6 93 35 122T105 151Q140 151 158 132T177 83Q177 30 139 -37T50 -140Q34 -151 15 -151Q1 -151 -8 -144Q33 -112 59 -73Z" />
<glyph unicode="&#x201c;" glyph-name="quotedblleft" horiz-adv-x="448" d="M226 669T200 630T168 562Q176 567 194 567Q220 567 236 551T253 506Q253 465 224 436T153 407Q119 407 100 426T81 476Q81 528 119 595T209 698Q225 709 244 709Q257 709 266 702Q226
669 200 630ZM425 669T399 630T367 562Q375 567 392 567Q418 567 434 551T451 506Q451 465 422 436T352 407Q318 407 299 426T280 476Q280 528 318 595T407 698Q423 709 442 709Q456 709 465 702Q425 669 399 630Z" />
<glyph unicode="&#x201d;" glyph-name="quotedblright" horiz-adv-x="448" d="M131 447T157 486T189 554Q181 549 164 549Q138 549 121 566T104 611Q104 651 133 680T204 709Q238 709 257 690T276 641Q276 588 238 521T148 418Q132 407 115 407Q101 407 91 415Q131
447 157 486ZM330 447T356 486T388 554Q378 549 362 549Q336 549 320 566T303 611Q303 651 332 680T402 709Q437 709 455 690T474 641Q474 588 436 521T347 418Q331 407 313 407Q298 407 290 415Q330 447 356 486Z" />
<glyph unicode="&#x201e;" glyph-name="quotedblbase" horiz-adv-x="448" d="M33 -112T59 -73T91 -4Q81 -9 65 -9Q39 -9 23 8T6 53Q6 93 35 122T105 151Q140 151 159 132T178 83Q178 30 140 -37T50 -140Q34 -151 15 -151Q1 -151 -8 -144Q33 -112 59 -73ZM231 -111T257
-72T289 -4Q281 -9 264 -9Q238 -9 221 8T204 53Q204 93 233 122T304 151Q338 151 357 132T376 83Q376 30 338 -37T248 -140Q232 -151 214 -151Q200 -151 191 -144Q231 -111 257 -72Z" />
<glyph unicode="&#x2022;" glyph-name="bullet" horiz-adv-x="350" d="M110 161T78 192T45 270Q45 309 67 345T127 402T206 424Q255 424 287 393T319 314Q319 275 297 240T237 183T159 161Q110 161 78 192Z" />
<glyph unicode="&#x2039;" glyph-name="guilsinglleft" horiz-adv-x="357" d="M56 256Q46 271 46 285Q46 306 68 328L241 493Q253 505 269 511T303 517Q324 517 339 507T357 478L160 292L291 106Q277 87 258 78T220 68Q186 68 169 92L56 256Z" />
<glyph unicode="&#x203a;" glyph-name="guilsinglright" horiz-adv-x="357" d="M107 68T72 68Q53 68 38 77T14 106L211 292L80 478Q89 497 107 507T147 517Q164 517 178 511T201 493L315 328Q324 316 324 300Q324 278 302 256L131 92Q107 68 72 68Z" />
</font>
</defs>
</svg>
