<svg width="115" height="40" viewBox="0 0 115 40" fill="none" xmlns="http://www.w3.org/2000/svg">
<rect x="0.5" y="0.5" width="114" height="39" rx="5.5" stroke="white"/>
<g clip-path="url(#clip0_631_7207)">
<path d="M24.6094 8.05347C23.3213 8.14256 21.8158 8.96703 20.9385 10.0407C20.1382 11.0146 19.4798 12.4612 19.7365 13.867C21.1439 13.9108 22.598 13.0667 23.4406 11.975C24.2288 10.9587 24.8253 9.5212 24.6094 8.05347Z" fill="white"/>
<path d="M29.6994 16.159C28.4627 14.6082 26.7247 13.7082 25.0833 13.7082C22.9164 13.7082 21.9998 14.7456 20.4944 14.7456C18.9421 14.7456 17.7627 13.7112 15.8888 13.7112C14.0481 13.7112 12.0881 14.8362 10.8453 16.7599C9.09825 19.4689 9.39724 24.5622 12.2285 28.9005C13.2417 30.4528 14.5947 32.1984 16.3645 32.2135C17.9394 32.2286 18.3834 31.2033 20.517 31.1927C22.6507 31.1806 23.0554 32.2271 24.6273 32.2104C26.3985 32.1969 27.8255 30.2625 28.8387 28.7102C29.565 27.5973 29.8353 27.0371 30.3986 25.7808C26.3019 24.2209 25.645 18.3953 29.6994 16.159Z" fill="white"/>
</g>
<path d="M41.0898 15H38.6094V9.24219H41.0898C41.4466 9.2474 41.7435 9.28906 41.9805 9.36719C42.3841 9.5 42.7109 9.74349 42.9609 10.0977C43.1615 10.3841 43.2982 10.694 43.3711 11.0273C43.444 11.3607 43.4805 11.6784 43.4805 11.9805C43.4805 12.7461 43.3268 13.3945 43.0195 13.9258C42.6029 14.6419 41.9596 15 41.0898 15ZM41.9844 10.7109C41.7995 10.3984 41.4336 10.2422 40.8867 10.2422H39.7773V14H40.8867C41.4544 14 41.8503 13.7201 42.0742 13.1602C42.1966 12.8529 42.2578 12.487 42.2578 12.0625C42.2578 11.4766 42.1667 11.026 41.9844 10.7109Z" fill="white"/>
<path d="M47.8516 11.2812C48.2109 11.7318 48.3906 12.2643 48.3906 12.8789C48.3906 13.5039 48.2109 14.0391 47.8516 14.4844C47.4922 14.9271 46.9466 15.1484 46.2148 15.1484C45.4831 15.1484 44.9375 14.9271 44.5781 14.4844C44.2188 14.0391 44.0391 13.5039 44.0391 12.8789C44.0391 12.2643 44.2188 11.7318 44.5781 11.2812C44.9375 10.8307 45.4831 10.6055 46.2148 10.6055C46.9466 10.6055 47.4922 10.8307 47.8516 11.2812ZM46.2109 11.5469C45.8854 11.5469 45.6341 11.6628 45.457 11.8945C45.2826 12.1237 45.1953 12.4518 45.1953 12.8789C45.1953 13.306 45.2826 13.6354 45.457 13.8672C45.6341 14.099 45.8854 14.2148 46.2109 14.2148C46.5365 14.2148 46.7865 14.099 46.9609 13.8672C47.1354 13.6354 47.2227 13.306 47.2227 12.8789C47.2227 12.4518 47.1354 12.1237 46.9609 11.8945C46.7865 11.6628 46.5365 11.5469 46.2109 11.5469Z" fill="white"/>
<path d="M52.4219 15L51.7539 11.8984L51.0781 15H49.9219L48.7266 10.7422H49.9219L50.5859 13.7969L51.1992 10.7422H52.3281L52.9766 13.8086L53.6406 10.7422H54.8008L53.5664 15H52.4219Z" fill="white"/>
<path d="M57.4219 11.5664C57.0443 11.5664 56.7852 11.7266 56.6445 12.0469C56.5716 12.2161 56.5352 12.4323 56.5352 12.6953V15H55.4258V10.75H56.5V11.3711C56.6432 11.1523 56.7786 10.9948 56.9062 10.8984C57.1354 10.7266 57.4258 10.6406 57.7773 10.6406C58.2174 10.6406 58.5768 10.7565 58.8555 10.9883C59.1367 11.2174 59.2773 11.599 59.2773 12.1328V15H58.1367V12.4102C58.1367 12.1862 58.1068 12.0143 58.0469 11.8945C57.9375 11.6758 57.7292 11.5664 57.4219 11.5664Z" fill="white"/>
<path d="M60.332 9.24219H61.4453V15H60.332V9.24219Z" fill="white"/>
<path d="M66.0859 11.2812C66.4453 11.7318 66.625 12.2643 66.625 12.8789C66.625 13.5039 66.4453 14.0391 66.0859 14.4844C65.7266 14.9271 65.181 15.1484 64.4492 15.1484C63.7174 15.1484 63.1719 14.9271 62.8125 14.4844C62.4531 14.0391 62.2734 13.5039 62.2734 12.8789C62.2734 12.2643 62.4531 11.7318 62.8125 11.2812C63.1719 10.8307 63.7174 10.6055 64.4492 10.6055C65.181 10.6055 65.7266 10.8307 66.0859 11.2812ZM64.4453 11.5469C64.1198 11.5469 63.8685 11.6628 63.6914 11.8945C63.5169 12.1237 63.4297 12.4518 63.4297 12.8789C63.4297 13.306 63.5169 13.6354 63.6914 13.8672C63.8685 14.099 64.1198 14.2148 64.4453 14.2148C64.7708 14.2148 65.0208 14.099 65.1953 13.8672C65.3698 13.6354 65.457 13.306 65.457 12.8789C65.457 12.4518 65.3698 12.1237 65.1953 11.8945C65.0208 11.6628 64.7708 11.5469 64.4453 11.5469Z" fill="white"/>
<path d="M67.5859 11.2031C67.8802 10.8281 68.3854 10.6406 69.1016 10.6406C69.5677 10.6406 69.9818 10.7331 70.3438 10.918C70.7057 11.1029 70.8867 11.4518 70.8867 11.9648V13.918C70.8867 14.0534 70.8893 14.2174 70.8945 14.4102C70.9023 14.556 70.9245 14.6549 70.9609 14.707C70.9974 14.7591 71.0521 14.8021 71.125 14.8359V15H69.9141C69.8802 14.9141 69.8568 14.8333 69.8438 14.7578C69.8307 14.6823 69.8203 14.5964 69.8125 14.5C69.6589 14.6667 69.4818 14.8086 69.2812 14.9258C69.0417 15.0638 68.7708 15.1328 68.4688 15.1328C68.0833 15.1328 67.7643 15.0234 67.5117 14.8047C67.2617 14.5833 67.1367 14.2708 67.1367 13.8672C67.1367 13.3438 67.3385 12.9648 67.7422 12.7305C67.9635 12.6029 68.2891 12.5117 68.7188 12.457L69.0977 12.4102C69.3034 12.3841 69.4505 12.3516 69.5391 12.3125C69.6979 12.2448 69.7773 12.1393 69.7773 11.9961C69.7773 11.8216 69.7161 11.7018 69.5938 11.6367C69.474 11.569 69.2969 11.5352 69.0625 11.5352C68.7995 11.5352 68.6133 11.6003 68.5039 11.7305C68.4258 11.8268 68.3737 11.957 68.3477 12.1211H67.2734C67.2969 11.7487 67.401 11.4427 67.5859 11.2031ZM68.4141 14.1953C68.5182 14.2812 68.6458 14.3242 68.7969 14.3242C69.0365 14.3242 69.2565 14.2539 69.457 14.1133C69.6602 13.9727 69.7656 13.7161 69.7734 13.3438V12.9297C69.7031 12.974 69.6315 13.0104 69.5586 13.0391C69.4883 13.0651 69.3906 13.0898 69.2656 13.1133L69.0156 13.1602C68.7812 13.2018 68.6133 13.2526 68.5117 13.3125C68.3398 13.4141 68.2539 13.5716 68.2539 13.7852C68.2539 13.9753 68.3073 14.112 68.4141 14.1953Z" fill="white"/>
<path d="M75.7539 9.25V15H74.6719V14.4102C74.513 14.6628 74.332 14.8464 74.1289 14.9609C73.9258 15.0755 73.6732 15.1328 73.3711 15.1328C72.8737 15.1328 72.4544 14.9323 72.1133 14.5312C71.7747 14.1276 71.6055 13.6107 71.6055 12.9805C71.6055 12.2539 71.7721 11.6823 72.1055 11.2656C72.4414 10.849 72.8893 10.6406 73.4492 10.6406C73.707 10.6406 73.9362 10.6979 74.1367 10.8125C74.3372 10.9245 74.5 11.0807 74.625 11.2812V9.25H75.7539ZM72.7539 12.8984C72.7539 13.2917 72.832 13.6055 72.9883 13.8398C73.1419 14.0768 73.3763 14.1953 73.6914 14.1953C74.0065 14.1953 74.2461 14.0781 74.4102 13.8438C74.5742 13.6094 74.6562 13.306 74.6562 12.9336C74.6562 12.4128 74.5247 12.0404 74.2617 11.8164C74.1003 11.681 73.9128 11.6133 73.6992 11.6133C73.3737 11.6133 73.1341 11.737 72.9805 11.9844C72.8294 12.2292 72.7539 12.5339 72.7539 12.8984Z" fill="white"/>
<path d="M82.5469 11.2812C82.9062 11.7318 83.0859 12.2643 83.0859 12.8789C83.0859 13.5039 82.9062 14.0391 82.5469 14.4844C82.1875 14.9271 81.6419 15.1484 80.9102 15.1484C80.1784 15.1484 79.6328 14.9271 79.2734 14.4844C78.9141 14.0391 78.7344 13.5039 78.7344 12.8789C78.7344 12.2643 78.9141 11.7318 79.2734 11.2812C79.6328 10.8307 80.1784 10.6055 80.9102 10.6055C81.6419 10.6055 82.1875 10.8307 82.5469 11.2812ZM80.9062 11.5469C80.5807 11.5469 80.3294 11.6628 80.1523 11.8945C79.9779 12.1237 79.8906 12.4518 79.8906 12.8789C79.8906 13.306 79.9779 13.6354 80.1523 13.8672C80.3294 14.099 80.5807 14.2148 80.9062 14.2148C81.2318 14.2148 81.4818 14.099 81.6562 13.8672C81.8307 13.6354 81.918 13.306 81.918 12.8789C81.918 12.4518 81.8307 12.1237 81.6562 11.8945C81.4818 11.6628 81.2318 11.5469 80.9062 11.5469Z" fill="white"/>
<path d="M85.8906 11.5664C85.513 11.5664 85.2539 11.7266 85.1133 12.0469C85.0404 12.2161 85.0039 12.4323 85.0039 12.6953V15H83.8945V10.75H84.9688V11.3711C85.112 11.1523 85.2474 10.9948 85.375 10.8984C85.6042 10.7266 85.8945 10.6406 86.2461 10.6406C86.6862 10.6406 87.0456 10.7565 87.3242 10.9883C87.6055 11.2174 87.7461 11.599 87.7461 12.1328V15H86.6055V12.4102C86.6055 12.1862 86.5755 12.0143 86.5156 11.8945C86.4062 11.6758 86.1979 11.5664 85.8906 11.5664Z" fill="white"/>
<path d="M44.9658 27.9287H41.2539L40.5566 30H38.3555L41.9512 19.9238H44.3301L47.8984 30H45.6152L44.9658 27.9287ZM44.3779 26.1924L43.1201 22.2275L41.8213 26.1924H44.3779Z" fill="white"/>
<path d="M55.0576 23.3486C55.6591 23.9912 55.9599 24.9346 55.9599 26.1787C55.9599 27.4912 55.6637 28.4915 55.0713 29.1797C54.4834 29.8678 53.7246 30.2119 52.7949 30.2119C52.2024 30.2119 51.7102 30.0638 51.3183 29.7676C51.1041 29.6035 50.8945 29.3643 50.6894 29.0498V32.9326H48.7617V22.5488H50.6279V23.6494C50.8375 23.3258 51.0608 23.0706 51.2978 22.8838C51.7308 22.5511 52.2457 22.3848 52.8427 22.3848C53.7132 22.3848 54.4515 22.7061 55.0576 23.3486ZM53.9502 26.2744C53.9502 25.7002 53.818 25.1921 53.5537 24.75C53.2939 24.3079 52.8701 24.0869 52.2822 24.0869C51.5758 24.0869 51.0905 24.4219 50.8261 25.0918C50.6894 25.4473 50.6211 25.8984 50.6211 26.4453C50.6211 27.3112 50.8512 27.9196 51.3115 28.2705C51.5849 28.4756 51.9085 28.5781 52.2822 28.5781C52.8245 28.5781 53.2369 28.3685 53.5195 27.9492C53.8066 27.5299 53.9502 26.9717 53.9502 26.2744Z" fill="white"/>
<path d="M63.4062 23.3486C64.0077 23.9912 64.3085 24.9346 64.3085 26.1787C64.3085 27.4912 64.0123 28.4915 63.4198 29.1797C62.832 29.8678 62.0732 30.2119 61.1435 30.2119C60.551 30.2119 60.0588 30.0638 59.6669 29.7676C59.4527 29.6035 59.2431 29.3643 59.038 29.0498V32.9326H57.1103V22.5488H58.9765V23.6494C59.1861 23.3258 59.4094 23.0706 59.6464 22.8838C60.0793 22.5511 60.5943 22.3848 61.1913 22.3848C62.0618 22.3848 62.8001 22.7061 63.4062 23.3486ZM62.2987 26.2744C62.2987 25.7002 62.1666 25.1921 61.9023 24.75C61.6425 24.3079 61.2187 24.0869 60.6308 24.0869C59.9244 24.0869 59.439 24.4219 59.1747 25.0918C59.038 25.4473 58.9696 25.8984 58.9696 26.4453C58.9696 27.3112 59.1998 27.9196 59.6601 28.2705C59.9335 28.4756 60.2571 28.5781 60.6308 28.5781C61.1731 28.5781 61.5855 28.3685 61.8681 27.9492C62.1552 27.5299 62.2987 26.9717 62.2987 26.2744Z" fill="white"/>
<path d="M73.0145 28.5439C73.5112 28.5439 73.9146 28.4893 74.2245 28.3799C74.8123 28.1702 75.1063 27.7806 75.1063 27.2109C75.1063 26.8783 74.9605 26.6208 74.6688 26.4385C74.3771 26.2607 73.9191 26.1035 73.2948 25.9668L72.2284 25.7275C71.1802 25.4906 70.4556 25.2331 70.0545 24.9551C69.3755 24.4902 69.036 23.7633 69.036 22.7744C69.036 21.8721 69.3641 21.1224 70.0204 20.5254C70.6766 19.9284 71.6405 19.6299 72.912 19.6299C73.9738 19.6299 74.8784 19.9124 75.6258 20.4775C76.3778 21.0381 76.772 21.8538 76.8084 22.9248H74.785C74.7485 22.3187 74.4842 21.888 73.992 21.6328C73.6639 21.4642 73.256 21.3799 72.7684 21.3799C72.2261 21.3799 71.7931 21.4893 71.4696 21.708C71.146 21.9268 70.9842 22.2321 70.9842 22.624C70.9842 22.984 71.1437 23.2529 71.4627 23.4307C71.6678 23.5492 72.1053 23.6882 72.7752 23.8477L74.5116 24.2646C75.2726 24.4469 75.8468 24.6908 76.2342 24.9961C76.8358 25.4701 77.1366 26.1559 77.1366 27.0537C77.1366 27.9743 76.7834 28.7399 76.077 29.3506C75.3752 29.9567 74.3817 30.2598 73.0965 30.2598C71.784 30.2598 70.7518 29.9613 69.9998 29.3643C69.2479 28.7627 68.8719 27.9378 68.8719 26.8896H70.8817C70.9455 27.3499 71.0708 27.694 71.2577 27.9219C71.5995 28.3366 72.1851 28.5439 73.0145 28.5439Z" fill="white"/>
<path d="M81.7391 28.6123V30.0684L80.8162 30.1025C79.8956 30.1344 79.2667 29.9749 78.9295 29.624C78.7107 29.4007 78.6014 29.0566 78.6014 28.5918V24.0049H77.5623V22.6172H78.6014V20.5391H80.5291V22.6172H81.7391V24.0049H80.5291V27.9424C80.5291 28.2477 80.5678 28.4391 80.6453 28.5166C80.7228 28.5895 80.9598 28.626 81.3563 28.626C81.4155 28.626 81.477 28.626 81.5408 28.626C81.6092 28.6214 81.6753 28.6169 81.7391 28.6123Z" fill="white"/>
<path d="M88.9939 23.4922C89.6228 24.2806 89.9373 25.2126 89.9373 26.2881C89.9373 27.3818 89.6228 28.3184 88.9939 29.0977C88.365 29.8724 87.4102 30.2598 86.1297 30.2598C84.8491 30.2598 83.8943 29.8724 83.2654 29.0977C82.6365 28.3184 82.322 27.3818 82.322 26.2881C82.322 25.2126 82.6365 24.2806 83.2654 23.4922C83.8943 22.7038 84.8491 22.3096 86.1297 22.3096C87.4102 22.3096 88.365 22.7038 88.9939 23.4922ZM86.1228 23.957C85.5532 23.957 85.1134 24.1598 84.8035 24.5654C84.4981 24.9665 84.3455 25.5407 84.3455 26.2881C84.3455 27.0355 84.4981 27.612 84.8035 28.0176C85.1134 28.4232 85.5532 28.626 86.1228 28.626C86.6925 28.626 87.13 28.4232 87.4353 28.0176C87.7407 27.612 87.8933 27.0355 87.8933 26.2881C87.8933 25.5407 87.7407 24.9665 87.4353 24.5654C87.13 24.1598 86.6925 23.957 86.1228 23.957Z" fill="white"/>
<path d="M94.8747 24.3467C94.0909 24.3467 93.5645 24.6019 93.2956 25.1123C93.1452 25.3994 93.07 25.8415 93.07 26.4385V30H91.1081V22.5488H92.9675V23.8477C93.2683 23.3509 93.5303 23.0114 93.7536 22.8291C94.1182 22.5238 94.5922 22.3711 95.1755 22.3711C95.212 22.3711 95.2416 22.3734 95.2644 22.3779C95.2917 22.3779 95.3487 22.3802 95.4353 22.3848V24.3809C95.3122 24.3672 95.2029 24.3581 95.1071 24.3535C95.0114 24.349 94.934 24.3467 94.8747 24.3467Z" fill="white"/>
<path d="M102.752 27.8125C102.702 28.2546 102.471 28.7035 102.061 29.1592C101.423 29.8838 100.53 30.2461 99.3815 30.2461C98.4336 30.2461 97.5973 29.9408 96.8727 29.3301C96.1481 28.7194 95.7858 27.7259 95.7858 26.3496C95.7858 25.0599 96.1117 24.071 96.7634 23.3828C97.4196 22.6947 98.2695 22.3506 99.3132 22.3506C99.933 22.3506 100.491 22.4668 100.988 22.6992C101.485 22.9316 101.895 23.2985 102.218 23.7998C102.51 24.2419 102.699 24.7546 102.786 25.3379C102.836 25.6797 102.856 26.1719 102.847 26.8145H97.7477C97.7751 27.5618 98.0098 28.0859 98.4518 28.3867C98.7207 28.5736 99.0443 28.667 99.4225 28.667C99.8236 28.667 100.149 28.5531 100.4 28.3252C100.537 28.2021 100.658 28.0312 100.762 27.8125H102.752ZM100.824 25.5293C100.792 25.0143 100.635 24.6247 100.352 24.3604C100.074 24.0915 99.7279 23.957 99.3132 23.957C98.862 23.957 98.5111 24.0983 98.2604 24.3809C98.0143 24.6634 97.8594 25.0462 97.7956 25.5293H100.824Z" fill="white"/>
<defs>
<clipPath id="clip0_631_7207">
<rect width="24.1604" height="24.1604" fill="white" transform="translate(8 8.05347)"/>
</clipPath>
</defs>
</svg>
