<svg width="48" height="31" viewBox="0 0 48 31" fill="none" xmlns="http://www.w3.org/2000/svg">
<path d="M15.479 11.525V20.144H17.536V13.531H27.396V20.059H29.538V11.525H15.479ZM16.55 17.186V19.192H28.586V17.186H16.55ZM21.378 8.567V24.53H23.537V8.567H21.378ZM42.747 12.358C40.979 17.9 37.324 21.045 31.442 22.592C31.85 23.085 32.496 24.071 32.734 24.581C38.82 22.677 42.781 19.107 44.923 12.987L42.747 12.358ZM36.185 12.494L34.145 13.106C36.27 18.988 39.772 22.881 46.147 24.547C46.47 23.952 47.133 22.983 47.626 22.507C41.574 21.147 37.902 17.526 36.185 12.494ZM31.748 11.253V13.259H47.32V11.253H31.748ZM38.429 8.567V12.477H40.537V8.567H38.429Z" fill="black"/>
<path d="M0.714289 22.0078C1.19048 22.4251 1.79762 22.6338 2.53571 22.6338C3.46429 22.6338 4.27381 22.3024 4.96429 21.6396C5.65476 20.9768 6 20.1913 6 19.283C6 18.5956 5.7619 18.0433 5.28571 17.626C4.83333 17.2087 4.2381 17 3.5 17C2.54762 17 1.72619 17.3314 1.03571 17.9942C0.345237 18.6325 0 19.4057 0 20.314C0 21.0014 0.238099 21.566 0.714289 22.0078Z" fill="black"/>
</svg>
