<svg width="232" height="13" viewBox="0 0 232 13" fill="none" xmlns="http://www.w3.org/2000/svg">
<path d="M4.214 10.126C3.52333 10.126 2.91667 10.0093 2.394 9.776C1.88067 9.54267 1.484 9.22067 1.204 8.81C0.924 8.39 0.784 7.90467 0.784 7.354C0.784 7.13933 0.802667 6.93867 0.84 6.752L1.428 3.42C1.54 2.76667 1.806 2.188 2.226 1.684C2.646 1.18 3.178 0.788 3.822 0.508C4.47533 0.218666 5.18933 0.0739993 5.964 0.0739993C6.636 0.0739993 7.23333 0.181333 7.756 0.395999C8.27867 0.610666 8.68467 0.909333 8.974 1.292C9.27267 1.66533 9.422 2.09467 9.422 2.58C9.422 2.92533 9.30067 3.21 9.058 3.434C8.81533 3.658 8.50733 3.77467 8.134 3.784C8.22733 3.48533 8.274 3.19133 8.274 2.902C8.274 2.36067 8.04067 1.922 7.574 1.586C7.11667 1.24067 6.524 1.068 5.796 1.068C5.24533 1.068 4.73667 1.17067 4.27 1.376C3.80333 1.572 3.416 1.84733 3.108 2.202C2.80933 2.55667 2.618 2.96267 2.534 3.42L1.96 6.752C1.932 6.892 1.918 7.032 1.918 7.172C1.918 7.76 2.13733 8.236 2.576 8.6C3.024 8.95467 3.626 9.132 4.382 9.132C5.25933 9.132 5.99667 8.94067 6.594 8.558C7.19133 8.17533 7.55533 7.62 7.686 6.892C7.69533 6.79867 7.70467 6.71 7.714 6.626C7.73267 6.542 7.742 6.46733 7.742 6.402C8.03133 6.41133 8.26467 6.48133 8.442 6.612C8.61933 6.73333 8.708 6.89667 8.708 7.102C8.708 7.64333 8.51667 8.14733 8.134 8.614C7.75133 9.07133 7.21467 9.44 6.524 9.72C5.84267 9.99067 5.07267 10.126 4.214 10.126ZM12.2118 10.126C11.7358 10.126 11.3065 10.042 10.9238 9.874C10.5412 9.69667 10.2378 9.454 10.0138 9.146C9.78983 8.838 9.67783 8.488 9.67783 8.096C9.67783 7.93733 9.68716 7.816 9.70583 7.732L10.1258 5.324C10.2565 4.57733 10.6298 3.98467 11.2458 3.546C11.8712 3.098 12.6225 2.874 13.4998 2.874C14.0038 2.874 14.4472 2.96733 14.8298 3.154C15.2218 3.34067 15.5205 3.59733 15.7258 3.924C15.9405 4.24133 16.0478 4.59133 16.0478 4.974C16.0478 5.03933 16.0385 5.156 16.0198 5.324L15.5858 7.732C15.4645 8.432 15.1005 9.006 14.4938 9.454C13.8872 9.902 13.1265 10.126 12.2118 10.126ZM12.3798 9.23C12.9678 9.23 13.4625 9.09 13.8638 8.81C14.2745 8.53 14.5172 8.16133 14.5918 7.704L14.9978 5.352C15.0165 5.20267 15.0258 5.09533 15.0258 5.03C15.0258 4.64733 14.8812 4.344 14.5918 4.12C14.3118 3.88667 13.8918 3.77 13.3318 3.77C12.7438 3.77 12.2445 3.91933 11.8338 4.218C11.4325 4.50733 11.1898 4.88533 11.1058 5.352L10.6998 7.704C10.6812 7.83467 10.6718 7.92333 10.6718 7.97C10.6718 8.35267 10.8118 8.66067 11.0918 8.894C11.3812 9.118 11.8105 9.23 12.3798 9.23ZM18.0406 3.798C18.162 3.182 18.5493 2.874 19.2026 2.874L19.0626 3.672C18.904 3.812 18.7873 3.92867 18.7126 4.022L18.7406 4.078C19.5433 3.27533 20.3926 2.874 21.2886 2.874C21.998 2.874 22.5626 3.056 22.9826 3.42C23.4026 3.77467 23.6126 4.246 23.6126 4.834C23.6126 4.974 23.5986 5.12333 23.5706 5.282L23.1366 7.732C23.0153 8.47867 22.67 9.06667 22.1006 9.496C21.5313 9.916 20.8173 10.126 19.9586 10.126C19.1 10.126 18.414 9.77133 17.9006 9.062L17.8586 9.132C17.924 9.25333 17.9986 9.36067 18.0826 9.454L17.6206 12.058C17.5273 12.6367 17.1306 12.926 16.4306 12.926L18.0406 3.798ZM20.0006 9.216C20.5793 9.216 21.0553 9.08067 21.4286 8.81C21.8113 8.53933 22.0446 8.17067 22.1286 7.704L22.5486 5.31C22.5673 5.23533 22.5766 5.12333 22.5766 4.974C22.5766 4.60067 22.4366 4.31133 22.1566 4.106C21.8766 3.89133 21.4706 3.784 20.9386 3.784C20.416 3.784 19.9446 3.92867 19.5246 4.218C19.114 4.498 18.876 4.83867 18.8106 5.24L18.3766 7.774C18.358 7.886 18.3486 7.96533 18.3486 8.012C18.3486 8.376 18.498 8.67 18.7966 8.894C19.0953 9.10867 19.4966 9.216 20.0006 9.216ZM24.059 12.912C23.5643 12.912 23.345 12.632 23.401 12.072C23.5877 12.1 23.7697 12.114 23.947 12.114C24.367 12.114 24.731 11.988 25.039 11.736C25.3563 11.4933 25.7063 11.0547 26.089 10.42L26.509 9.734L24.927 2.958C25.095 2.902 25.2397 2.874 25.361 2.874C25.529 2.874 25.6737 2.92067 25.795 3.014C25.9163 3.10733 25.991 3.22867 26.019 3.378L27.125 8.46L26.831 8.992L26.901 9.02L30.149 3.378C30.233 3.21933 30.345 3.098 30.485 3.014C30.6343 2.92067 30.7977 2.874 30.975 2.874C31.059 2.874 31.143 2.88333 31.227 2.902C31.311 2.91133 31.3857 2.93 31.451 2.958L26.929 10.714C26.481 11.4793 26.0283 12.0347 25.571 12.38C25.1137 12.7347 24.6097 12.912 24.059 12.912ZM35.3475 3.784C34.8342 3.784 34.3768 3.94267 33.9755 4.26C33.5742 4.57733 33.3315 4.96933 33.2475 5.436L32.5755 9.3C32.4822 9.85067 32.0902 10.126 31.3995 10.126L32.5195 3.798C32.6315 3.182 33.0142 2.874 33.6675 2.874L33.5275 3.742C33.4435 3.826 33.3175 3.95667 33.1495 4.134L33.1915 4.19C33.9568 3.31267 34.7782 2.874 35.6555 2.874C35.9262 2.874 36.1362 2.93 36.2855 3.042C36.4442 3.154 36.5235 3.30333 36.5235 3.49C36.5235 3.67667 36.4582 3.84467 36.3275 3.994C36.2155 3.92867 36.0708 3.87733 35.8935 3.84C35.7162 3.80267 35.5342 3.784 35.3475 3.784ZM38.8915 1.684C38.6861 1.684 38.5135 1.61867 38.3735 1.488C38.2428 1.35733 38.1775 1.19867 38.1775 1.012C38.1775 0.769333 38.2755 0.554666 38.4715 0.368C38.6768 0.171999 38.9101 0.0739993 39.1715 0.0739993C39.3768 0.0739993 39.5448 0.134666 39.6755 0.255999C39.8061 0.377333 39.8715 0.535999 39.8715 0.731999C39.8715 0.974666 39.7688 1.194 39.5635 1.39C39.3675 1.586 39.1435 1.684 38.8915 1.684ZM38.0095 3.714C38.1121 3.154 38.5041 2.874 39.1855 2.874L38.0515 9.3C37.9581 9.85067 37.5661 10.126 36.8755 10.126L38.0095 3.714ZM42.5125 12.926C42.0832 12.926 41.6819 12.856 41.3085 12.716C40.9445 12.576 40.6552 12.3847 40.4405 12.142C40.2259 11.9087 40.1185 11.652 40.1185 11.372C40.1185 11.1107 40.1979 10.9053 40.3565 10.756C40.5245 10.616 40.7532 10.546 41.0425 10.546C41.0239 10.658 41.0145 10.7467 41.0145 10.812C41.0145 11.1947 41.1639 11.498 41.4625 11.722C41.7612 11.946 42.1625 12.058 42.6665 12.058C43.2919 12.058 43.7912 11.904 44.1645 11.596C44.5379 11.288 44.7759 10.8353 44.8785 10.238L45.0325 9.314C45.1912 9.18333 45.3079 9.076 45.3825 8.992L45.3545 8.922C44.9999 9.24867 44.5985 9.51 44.1505 9.706C43.7119 9.89267 43.2919 9.986 42.8905 9.986C42.4332 9.986 42.0272 9.89733 41.6725 9.72C41.3179 9.54267 41.0425 9.3 40.8465 8.992C40.6505 8.684 40.5525 8.33867 40.5525 7.956C40.5525 7.88133 40.5619 7.76 40.5805 7.592L40.9865 5.282C41.1172 4.50733 41.4532 3.91467 41.9945 3.504C42.5452 3.084 43.2639 2.874 44.1505 2.874C45.0372 2.874 45.7325 3.27533 46.2365 4.078L46.2785 4.022L46.0685 3.672C46.1525 3.14 46.5305 2.874 47.2025 2.874L45.9145 10.168C45.7559 11.0547 45.3825 11.736 44.7945 12.212C44.2065 12.688 43.4459 12.926 42.5125 12.926ZM43.1985 9.076C43.7119 9.076 44.1785 8.936 44.5985 8.656C45.0279 8.36667 45.2752 8.026 45.3405 7.634L45.7465 5.24C45.7559 5.19333 45.7605 5.12333 45.7605 5.03C45.7605 4.67533 45.6112 4.38133 45.3125 4.148C45.0139 3.90533 44.6312 3.784 44.1645 3.784C42.9139 3.784 42.1952 4.29267 42.0085 5.31L41.6165 7.564C41.5979 7.648 41.5885 7.76467 41.5885 7.914C41.5885 8.68867 42.1252 9.076 43.1985 9.076ZM49.6075 0.998C49.7195 0.381999 50.1161 0.0739993 50.7975 0.0739993L50.1395 3.77C50.1395 3.77 50.0181 3.89133 49.7755 4.134L49.8175 4.204C50.1908 3.79333 50.6248 3.47133 51.1195 3.238C51.6141 2.99533 52.0995 2.874 52.5755 2.874C53.2195 2.874 53.7281 3.05133 54.1015 3.406C54.4841 3.75133 54.6755 4.218 54.6755 4.806C54.6755 4.946 54.6615 5.1 54.6335 5.268L53.9195 9.3C53.8075 9.85067 53.4155 10.126 52.7435 10.126L53.5835 5.338C53.6115 5.17933 53.6255 5.03933 53.6255 4.918C53.6255 4.162 53.1588 3.784 52.2255 3.784C51.8708 3.784 51.5161 3.86333 51.1615 4.022C50.8068 4.17133 50.5081 4.37667 50.2655 4.638C50.0228 4.89 49.8781 5.156 49.8315 5.436L49.1595 9.3C49.0661 9.85067 48.6741 10.126 47.9835 10.126L49.6075 0.998ZM58.3267 10.126C57.8321 10.126 57.4447 9.99533 57.1647 9.734C56.8941 9.47267 56.7587 9.10867 56.7587 8.642C56.7587 8.48333 56.7727 8.32933 56.8007 8.18L57.5567 3.854H56.2967C56.3434 3.58333 56.4414 3.37333 56.5907 3.224C56.7494 3.07467 56.9454 3 57.1787 3H57.7107L57.9627 1.6C58.0654 1.04933 58.4527 0.773999 59.1247 0.773999L58.7327 3H60.5947C60.5481 3.28 60.4407 3.49467 60.2727 3.644C60.1141 3.784 59.9041 3.854 59.6427 3.854H58.5927L57.8367 8.138C57.8087 8.28733 57.7947 8.418 57.7947 8.53C57.7947 8.77267 57.8601 8.95 57.9907 9.062C58.1214 9.16467 58.3314 9.216 58.6207 9.216C58.9381 9.216 59.2554 9.132 59.5727 8.964C59.6194 9.02 59.6427 9.11333 59.6427 9.244C59.6427 9.496 59.5167 9.706 59.2647 9.874C59.0127 10.042 58.7001 10.126 58.3267 10.126ZM69.3948 10.126C68.5642 10.126 67.8222 9.95333 67.1688 9.608C66.5248 9.26267 66.0208 8.782 65.6568 8.166C65.3022 7.54067 65.1248 6.82667 65.1248 6.024C65.1248 4.86667 65.3768 3.84 65.8808 2.944C66.3942 2.03867 67.1082 1.334 68.0228 0.83C68.9375 0.325999 69.9828 0.0739993 71.1588 0.0739993C71.9895 0.0739993 72.7268 0.251333 73.3708 0.606C74.0242 0.951333 74.5282 1.43667 74.8828 2.062C75.2468 2.68733 75.4288 3.40133 75.4288 4.204C75.4288 5.36133 75.1722 6.388 74.6588 7.284C74.1548 8.18 73.4455 8.88 72.5308 9.384C71.6162 9.87867 70.5708 10.126 69.3948 10.126ZM69.5348 9.286C70.4868 9.286 71.3362 9.076 72.0828 8.656C72.8388 8.236 73.4222 7.65267 73.8328 6.906C74.2528 6.15 74.4628 5.29133 74.4628 4.33C74.4628 3.66733 74.3182 3.07933 74.0288 2.566C73.7395 2.04333 73.3335 1.63733 72.8108 1.348C72.2882 1.05867 71.6908 0.913999 71.0188 0.913999C70.0668 0.913999 69.2175 1.124 68.4708 1.544C67.7242 1.964 67.1408 2.552 66.7208 3.308C66.3102 4.064 66.1048 4.92733 66.1048 5.898C66.1048 6.56067 66.2495 7.14867 66.5388 7.662C66.8282 8.17533 67.2342 8.57667 67.7568 8.866C68.2795 9.146 68.8722 9.286 69.5348 9.286ZM69.8288 8.068C69.4462 8.068 69.0962 7.99333 68.7788 7.844C68.4615 7.69467 68.2142 7.494 68.0368 7.242C67.8595 6.98067 67.7708 6.696 67.7708 6.388C67.7708 6.332 67.7802 6.23867 67.7988 6.108L68.1628 4.064C68.2188 3.71867 68.3822 3.39667 68.6528 3.098C68.9235 2.79933 69.2548 2.56133 69.6468 2.384C70.0482 2.20667 70.4588 2.118 70.8788 2.118C71.2335 2.118 71.5695 2.18333 71.8868 2.314C72.2042 2.44467 72.4562 2.622 72.6428 2.846C72.8388 3.07 72.9368 3.30333 72.9368 3.546C72.9368 3.77 72.8668 3.94733 72.7268 4.078C72.5962 4.19933 72.4188 4.26 72.1948 4.26C72.1482 4.26 72.0595 4.25067 71.9288 4.232C71.9568 4.12933 71.9708 4.03133 71.9708 3.938C71.9708 3.63933 71.8542 3.39667 71.6208 3.21C71.3968 3.014 71.0982 2.916 70.7248 2.916C70.3422 2.916 69.9875 3.028 69.6608 3.252C69.3435 3.476 69.1568 3.74667 69.1008 4.064L68.7508 6.108C68.7415 6.14533 68.7368 6.20133 68.7368 6.276C68.7368 6.556 68.8535 6.78933 69.0868 6.976C69.3202 7.16267 69.6142 7.256 69.9688 7.256C70.4075 7.256 70.7808 7.13467 71.0888 6.892C71.4062 6.64 71.5835 6.32733 71.6208 5.954C71.7235 5.926 71.8168 5.912 71.9008 5.912C72.0688 5.912 72.2042 5.95867 72.3068 6.052C72.4095 6.136 72.4608 6.25267 72.4608 6.402C72.4608 6.67267 72.3255 6.93867 72.0548 7.2C71.7935 7.452 71.4575 7.662 71.0468 7.83C70.6362 7.98867 70.2302 8.068 69.8288 8.068ZM82.5419 10.126C81.7953 10.126 81.1933 9.93467 80.7359 9.552C80.2879 9.16933 80.0639 8.67 80.0639 8.054C80.0639 7.90467 80.0779 7.75533 80.1059 7.606L80.4839 5.45C80.5679 4.946 80.7639 4.498 81.0719 4.106C81.3893 3.714 81.7859 3.41067 82.2619 3.196C82.7379 2.98133 83.2559 2.874 83.8159 2.874C84.5346 2.874 85.1179 3.07467 85.5659 3.476C86.0233 3.868 86.2519 4.372 86.2519 4.988C86.2519 5.128 86.2379 5.27733 86.2099 5.436L86.0559 6.36C86.0279 6.48133 85.9579 6.58867 85.8459 6.682C85.7339 6.77533 85.6126 6.822 85.4819 6.822H81.2539L81.1279 7.578C81.0999 7.718 81.0859 7.85333 81.0859 7.984C81.0859 8.39467 81.2213 8.70733 81.4919 8.922C81.7719 9.13667 82.1779 9.244 82.7099 9.244C83.2886 9.244 83.7646 9.11333 84.1379 8.852C84.5206 8.58133 84.7539 8.208 84.8379 7.732C85.0433 7.72267 85.2159 7.774 85.3559 7.886C85.4959 7.98867 85.5659 8.11933 85.5659 8.278C85.5659 8.586 85.4213 8.88467 85.1319 9.174C84.8426 9.454 84.4646 9.68267 83.9979 9.86C83.5313 10.0373 83.0459 10.126 82.5419 10.126ZM85.1599 5.982L85.2579 5.436C85.2766 5.352 85.2859 5.23067 85.2859 5.072C85.2859 4.652 85.1459 4.33 84.8659 4.106C84.5859 3.87267 84.1893 3.756 83.6759 3.756C83.1066 3.756 82.6259 3.91 82.2339 4.218C81.8419 4.526 81.5993 4.932 81.5059 5.436L81.4079 5.982H85.1599ZM89.2316 10.126C88.5503 10.126 87.995 9.95333 87.5656 9.608C87.1363 9.25333 86.9216 8.796 86.9216 8.236C86.9216 7.69467 87.057 7.20933 87.3276 6.78C87.5983 6.35067 87.9763 6.01933 88.4616 5.786C88.9563 5.54333 89.521 5.422 90.1556 5.422C91.061 5.422 91.7516 5.758 92.2276 6.43L92.2836 6.388C92.2276 6.29467 92.1436 6.178 92.0316 6.038L92.1576 5.338C92.1763 5.24467 92.1856 5.114 92.1856 4.946C92.1856 4.15267 91.6723 3.756 90.6456 3.756C89.6376 3.756 88.8443 4.16667 88.2656 4.988C88.163 4.92267 88.079 4.83867 88.0136 4.736C87.9576 4.63333 87.9296 4.53067 87.9296 4.428C87.9296 4.15733 88.0696 3.90533 88.3496 3.672C88.639 3.42933 89.0076 3.238 89.4556 3.098C89.913 2.94867 90.375 2.874 90.8416 2.874C91.579 2.874 92.1576 3.05133 92.5776 3.406C93.007 3.75133 93.2216 4.22733 93.2216 4.834C93.2216 4.99267 93.2076 5.156 93.1796 5.324L92.4656 9.272C92.3723 9.84133 91.9943 10.126 91.3316 10.126L91.4576 9.44C91.551 9.356 91.677 9.23467 91.8356 9.076L91.7936 9.02C91.0376 9.75733 90.1836 10.126 89.2316 10.126ZM89.5116 9.272C90.1836 9.272 90.7296 9.10867 91.1496 8.782C91.5696 8.45533 91.7796 8.03067 91.7796 7.508C91.7796 7.12533 91.6303 6.82667 91.3316 6.612C91.0423 6.388 90.6223 6.276 90.0716 6.276C89.437 6.276 88.9236 6.444 88.5316 6.78C88.149 7.116 87.9576 7.55467 87.9576 8.096C87.9576 8.88 88.4756 9.272 89.5116 9.272ZM96.3345 10.126C95.8399 10.126 95.4525 9.99533 95.1725 9.734C94.9019 9.47267 94.7665 9.10867 94.7665 8.642C94.7665 8.48333 94.7805 8.32933 94.8085 8.18L95.5645 3.854H94.3045C94.3512 3.58333 94.4492 3.37333 94.5985 3.224C94.7572 3.07467 94.9532 3 95.1865 3H95.7185L95.9705 1.6C96.0732 1.04933 96.4605 0.773999 97.1325 0.773999L96.7405 3H98.6025C98.5559 3.28 98.4485 3.49467 98.2805 3.644C98.1219 3.784 97.9119 3.854 97.6505 3.854H96.6005L95.8445 8.138C95.8165 8.28733 95.8025 8.418 95.8025 8.53C95.8025 8.77267 95.8679 8.95 95.9985 9.062C96.1292 9.16467 96.3392 9.216 96.6285 9.216C96.9459 9.216 97.2632 9.132 97.5805 8.964C97.6272 9.02 97.6505 9.11333 97.6505 9.244C97.6505 9.496 97.5245 9.706 97.2725 9.874C97.0205 10.042 96.7079 10.126 96.3345 10.126ZM101.399 1.684C101.194 1.684 101.021 1.61867 100.881 1.488C100.751 1.35733 100.685 1.19867 100.685 1.012C100.685 0.769333 100.783 0.554666 100.979 0.368C101.185 0.171999 101.418 0.0739993 101.679 0.0739993C101.885 0.0739993 102.053 0.134666 102.183 0.255999C102.314 0.377333 102.379 0.535999 102.379 0.731999C102.379 0.974666 102.277 1.194 102.071 1.39C101.875 1.586 101.651 1.684 101.399 1.684ZM100.517 3.714C100.62 3.154 101.012 2.874 101.693 2.874L100.559 9.3C100.466 9.85067 100.074 10.126 99.3833 10.126L100.517 3.714ZM105.524 10.126C104.778 10.126 104.176 9.93467 103.718 9.552C103.27 9.16933 103.046 8.67 103.046 8.054C103.046 7.90467 103.06 7.75533 103.088 7.606L103.466 5.45C103.55 4.946 103.746 4.498 104.054 4.106C104.372 3.714 104.768 3.41067 105.244 3.196C105.72 2.98133 106.238 2.874 106.798 2.874C107.517 2.874 108.1 3.07467 108.548 3.476C109.006 3.868 109.234 4.372 109.234 4.988C109.234 5.128 109.22 5.27733 109.192 5.436L109.038 6.36C109.01 6.48133 108.94 6.58867 108.828 6.682C108.716 6.77533 108.595 6.822 108.464 6.822H104.236L104.11 7.578C104.082 7.718 104.068 7.85333 104.068 7.984C104.068 8.39467 104.204 8.70733 104.474 8.922C104.754 9.13667 105.16 9.244 105.692 9.244C106.271 9.244 106.747 9.11333 107.12 8.852C107.503 8.58133 107.736 8.208 107.82 7.732C108.026 7.72267 108.198 7.774 108.338 7.886C108.478 7.98867 108.548 8.11933 108.548 8.278C108.548 8.586 108.404 8.88467 108.114 9.174C107.825 9.454 107.447 9.68267 106.98 9.86C106.514 10.0373 106.028 10.126 105.524 10.126ZM108.142 5.982L108.24 5.436C108.259 5.352 108.268 5.23067 108.268 5.072C108.268 4.652 108.128 4.33 107.848 4.106C107.568 3.87267 107.172 3.756 106.658 3.756C106.089 3.756 105.608 3.91 105.216 4.218C104.824 4.526 104.582 4.932 104.488 5.436L104.39 5.982H108.142ZM114.139 10.126C113.933 10.0607 113.775 9.958 113.663 9.818C113.551 9.678 113.495 9.51467 113.495 9.328C113.495 9.14133 113.551 8.95 113.663 8.754L118.535 0.424C118.675 0.190666 118.875 0.0739993 119.137 0.0739993C119.258 0.0739993 119.356 0.106666 119.431 0.172C119.515 0.237333 119.571 0.321333 119.599 0.424L121.559 8.754C121.577 8.866 121.587 8.95 121.587 9.006C121.587 9.26733 121.503 9.50533 121.335 9.72C121.167 9.92533 120.947 10.0607 120.677 10.126L120.061 7.102H115.889L114.139 10.126ZM119.879 6.122L118.801 1.292L118.703 1.32L118.815 1.88L116.421 6.122H119.879ZM125.028 10.126C124.524 10.126 124.128 9.99533 123.838 9.734C123.558 9.46333 123.418 9.09467 123.418 8.628C123.418 8.47867 123.432 8.32933 123.46 8.18L124.734 0.899999C124.828 0.349333 125.22 0.0739993 125.91 0.0739993L124.496 8.138C124.468 8.278 124.454 8.404 124.454 8.516C124.454 8.75867 124.52 8.936 124.65 9.048C124.79 9.16 125.01 9.216 125.308 9.216C125.626 9.216 125.943 9.132 126.26 8.964C126.307 9.02933 126.33 9.12267 126.33 9.244C126.33 9.496 126.204 9.706 125.952 9.874C125.71 10.042 125.402 10.126 125.028 10.126ZM129.321 10.126C128.817 10.126 128.421 9.99533 128.131 9.734C127.851 9.46333 127.711 9.09467 127.711 8.628C127.711 8.47867 127.725 8.32933 127.753 8.18L129.027 0.899999C129.121 0.349333 129.513 0.0739993 130.203 0.0739993L128.789 8.138C128.761 8.278 128.747 8.404 128.747 8.516C128.747 8.75867 128.813 8.936 128.943 9.048C129.083 9.16 129.303 9.216 129.601 9.216C129.919 9.216 130.236 9.132 130.553 8.964C130.6 9.02933 130.623 9.12267 130.623 9.244C130.623 9.496 130.497 9.706 130.245 9.874C130.003 10.042 129.695 10.126 129.321 10.126ZM139.609 3.784C139.096 3.784 138.639 3.94267 138.237 4.26C137.836 4.57733 137.593 4.96933 137.509 5.436L136.837 9.3C136.744 9.85067 136.352 10.126 135.661 10.126L136.781 3.798C136.893 3.182 137.276 2.874 137.929 2.874L137.789 3.742C137.705 3.826 137.579 3.95667 137.411 4.134L137.453 4.19C138.219 3.31267 139.04 2.874 139.917 2.874C140.188 2.874 140.398 2.93 140.547 3.042C140.706 3.154 140.785 3.30333 140.785 3.49C140.785 3.67667 140.72 3.84467 140.589 3.994C140.477 3.92867 140.333 3.87733 140.155 3.84C139.978 3.80267 139.796 3.784 139.609 3.784ZM143.153 1.684C142.948 1.684 142.775 1.61867 142.635 1.488C142.505 1.35733 142.439 1.19867 142.439 1.012C142.439 0.769333 142.537 0.554666 142.733 0.368C142.939 0.171999 143.172 0.0739993 143.433 0.0739993C143.639 0.0739993 143.807 0.134666 143.937 0.255999C144.068 0.377333 144.133 0.535999 144.133 0.731999C144.133 0.974666 144.031 1.194 143.825 1.39C143.629 1.586 143.405 1.684 143.153 1.684ZM142.271 3.714C142.374 3.154 142.766 2.874 143.447 2.874L142.313 9.3C142.22 9.85067 141.828 10.126 141.137 10.126L142.271 3.714ZM146.774 12.926C146.345 12.926 145.944 12.856 145.57 12.716C145.206 12.576 144.917 12.3847 144.702 12.142C144.488 11.9087 144.38 11.652 144.38 11.372C144.38 11.1107 144.46 10.9053 144.618 10.756C144.786 10.616 145.015 10.546 145.304 10.546C145.286 10.658 145.276 10.7467 145.276 10.812C145.276 11.1947 145.426 11.498 145.724 11.722C146.023 11.946 146.424 12.058 146.928 12.058C147.554 12.058 148.053 11.904 148.426 11.596C148.8 11.288 149.038 10.8353 149.14 10.238L149.294 9.314C149.453 9.18333 149.57 9.076 149.644 8.992L149.616 8.922C149.262 9.24867 148.86 9.51 148.412 9.706C147.974 9.89267 147.554 9.986 147.152 9.986C146.695 9.986 146.289 9.89733 145.934 9.72C145.58 9.54267 145.304 9.3 145.108 8.992C144.912 8.684 144.814 8.33867 144.814 7.956C144.814 7.88133 144.824 7.76 144.842 7.592L145.248 5.282C145.379 4.50733 145.715 3.91467 146.256 3.504C146.807 3.084 147.526 2.874 148.412 2.874C149.299 2.874 149.994 3.27533 150.498 4.078L150.54 4.022L150.33 3.672C150.414 3.14 150.792 2.874 151.464 2.874L150.176 10.168C150.018 11.0547 149.644 11.736 149.056 12.212C148.468 12.688 147.708 12.926 146.774 12.926ZM147.46 9.076C147.974 9.076 148.44 8.936 148.86 8.656C149.29 8.36667 149.537 8.026 149.602 7.634L150.008 5.24C150.018 5.19333 150.022 5.12333 150.022 5.03C150.022 4.67533 149.873 4.38133 149.574 4.148C149.276 3.90533 148.893 3.784 148.426 3.784C147.176 3.784 146.457 4.29267 146.27 5.31L145.878 7.564C145.86 7.648 145.85 7.76467 145.85 7.914C145.85 8.68867 146.387 9.076 147.46 9.076ZM153.869 0.998C153.981 0.381999 154.378 0.0739993 155.059 0.0739993L154.401 3.77C154.401 3.77 154.28 3.89133 154.037 4.134L154.079 4.204C154.453 3.79333 154.887 3.47133 155.381 3.238C155.876 2.99533 156.361 2.874 156.837 2.874C157.481 2.874 157.99 3.05133 158.363 3.406C158.746 3.75133 158.937 4.218 158.937 4.806C158.937 4.946 158.923 5.1 158.895 5.268L158.181 9.3C158.069 9.85067 157.677 10.126 157.005 10.126L157.845 5.338C157.873 5.17933 157.887 5.03933 157.887 4.918C157.887 4.162 157.421 3.784 156.487 3.784C156.133 3.784 155.778 3.86333 155.423 4.022C155.069 4.17133 154.77 4.37667 154.527 4.638C154.285 4.89 154.14 5.156 154.093 5.436L153.421 9.3C153.328 9.85067 152.936 10.126 152.245 10.126L153.869 0.998ZM162.588 10.126C162.094 10.126 161.706 9.99533 161.426 9.734C161.156 9.47267 161.02 9.10867 161.02 8.642C161.02 8.48333 161.034 8.32933 161.062 8.18L161.818 3.854H160.558C160.605 3.58333 160.703 3.37333 160.852 3.224C161.011 3.07467 161.207 3 161.44 3H161.972L162.224 1.6C162.327 1.04933 162.714 0.773999 163.386 0.773999L162.994 3H164.856C164.81 3.28 164.702 3.49467 164.534 3.644C164.376 3.784 164.166 3.854 163.904 3.854H162.854L162.098 8.138C162.07 8.28733 162.056 8.418 162.056 8.53C162.056 8.77267 162.122 8.95 162.252 9.062C162.383 9.16467 162.593 9.216 162.882 9.216C163.2 9.216 163.517 9.132 163.834 8.964C163.881 9.02 163.904 9.11333 163.904 9.244C163.904 9.496 163.778 9.706 163.526 9.874C163.274 10.042 162.962 10.126 162.588 10.126ZM167.849 10.126C167.373 10.126 166.944 10.0607 166.561 9.93C166.179 9.79 165.88 9.60333 165.665 9.37C165.451 9.12733 165.343 8.85667 165.343 8.558C165.343 7.98867 165.628 7.69 166.197 7.662C166.169 8.726 166.762 9.258 167.975 9.258C168.61 9.258 169.1 9.146 169.445 8.922C169.791 8.68867 169.963 8.36667 169.963 7.956C169.963 7.68533 169.833 7.47067 169.571 7.312C169.319 7.15333 168.857 6.99933 168.185 6.85C167.429 6.682 166.874 6.45333 166.519 6.164C166.174 5.86533 166.001 5.48733 166.001 5.03C166.001 4.386 166.263 3.868 166.785 3.476C167.308 3.07467 167.994 2.874 168.843 2.874C169.301 2.874 169.716 2.93933 170.089 3.07C170.463 3.19133 170.757 3.364 170.971 3.588C171.186 3.812 171.293 4.064 171.293 4.344C171.293 4.596 171.209 4.79667 171.041 4.946C170.883 5.086 170.654 5.16067 170.355 5.17C170.365 5.12333 170.369 5.06267 170.369 4.988C170.369 4.596 170.229 4.288 169.949 4.064C169.669 3.84 169.282 3.728 168.787 3.728C168.265 3.728 167.835 3.84467 167.499 4.078C167.173 4.302 167.009 4.596 167.009 4.96C167.009 5.20267 167.121 5.39867 167.345 5.548C167.579 5.69733 167.975 5.83267 168.535 5.954C169.366 6.13133 169.977 6.37867 170.369 6.696C170.771 7.004 170.971 7.40067 170.971 7.886C170.971 8.59533 170.696 9.146 170.145 9.538C169.595 9.93 168.829 10.126 167.849 10.126ZM179.9 3.784C179.387 3.784 178.93 3.94267 178.528 4.26C178.127 4.57733 177.884 4.96933 177.8 5.436L177.128 9.3C177.035 9.85067 176.643 10.126 175.952 10.126L177.072 3.798C177.184 3.182 177.567 2.874 178.22 2.874L178.08 3.742C177.996 3.826 177.87 3.95667 177.702 4.134L177.744 4.19C178.51 3.31267 179.331 2.874 180.208 2.874C180.479 2.874 180.689 2.93 180.838 3.042C180.997 3.154 181.076 3.30333 181.076 3.49C181.076 3.67667 181.011 3.84467 180.88 3.994C180.768 3.92867 180.624 3.87733 180.446 3.84C180.269 3.80267 180.087 3.784 179.9 3.784ZM183.591 10.126C182.844 10.126 182.242 9.93467 181.785 9.552C181.337 9.16933 181.113 8.67 181.113 8.054C181.113 7.90467 181.127 7.75533 181.155 7.606L181.533 5.45C181.617 4.946 181.813 4.498 182.121 4.106C182.438 3.714 182.835 3.41067 183.311 3.196C183.787 2.98133 184.305 2.874 184.865 2.874C185.583 2.874 186.167 3.07467 186.615 3.476C187.072 3.868 187.301 4.372 187.301 4.988C187.301 5.128 187.287 5.27733 187.259 5.436L187.105 6.36C187.077 6.48133 187.007 6.58867 186.895 6.682C186.783 6.77533 186.661 6.822 186.531 6.822H182.303L182.177 7.578C182.149 7.718 182.135 7.85333 182.135 7.984C182.135 8.39467 182.27 8.70733 182.541 8.922C182.821 9.13667 183.227 9.244 183.759 9.244C184.337 9.244 184.813 9.11333 185.187 8.852C185.569 8.58133 185.803 8.208 185.887 7.732C186.092 7.72267 186.265 7.774 186.405 7.886C186.545 7.98867 186.615 8.11933 186.615 8.278C186.615 8.586 186.47 8.88467 186.181 9.174C185.891 9.454 185.513 9.68267 185.047 9.86C184.58 10.0373 184.095 10.126 183.591 10.126ZM186.209 5.982L186.307 5.436C186.325 5.352 186.335 5.23067 186.335 5.072C186.335 4.652 186.195 4.33 185.915 4.106C185.635 3.87267 185.238 3.756 184.725 3.756C184.155 3.756 183.675 3.91 183.283 4.218C182.891 4.526 182.648 4.932 182.555 5.436L182.457 5.982H186.209ZM190.668 10.126C190.192 10.126 189.762 10.0607 189.38 9.93C188.997 9.79 188.698 9.60333 188.484 9.37C188.269 9.12733 188.162 8.85667 188.162 8.558C188.162 7.98867 188.446 7.69 189.016 7.662C188.988 8.726 189.58 9.258 190.794 9.258C191.428 9.258 191.918 9.146 192.264 8.922C192.609 8.68867 192.782 8.36667 192.782 7.956C192.782 7.68533 192.651 7.47067 192.39 7.312C192.138 7.15333 191.676 6.99933 191.004 6.85C190.248 6.682 189.692 6.45333 189.338 6.164C188.992 5.86533 188.82 5.48733 188.82 5.03C188.82 4.386 189.081 3.868 189.604 3.476C190.126 3.07467 190.812 2.874 191.662 2.874C192.119 2.874 192.534 2.93933 192.908 3.07C193.281 3.19133 193.575 3.364 193.79 3.588C194.004 3.812 194.112 4.064 194.112 4.344C194.112 4.596 194.028 4.79667 193.86 4.946C193.701 5.086 193.472 5.16067 193.174 5.17C193.183 5.12333 193.188 5.06267 193.188 4.988C193.188 4.596 193.048 4.288 192.768 4.064C192.488 3.84 192.1 3.728 191.606 3.728C191.083 3.728 190.654 3.84467 190.318 4.078C189.991 4.302 189.828 4.596 189.828 4.96C189.828 5.20267 189.94 5.39867 190.164 5.548C190.397 5.69733 190.794 5.83267 191.354 5.954C192.184 6.13133 192.796 6.37867 193.188 6.696C193.589 7.004 193.79 7.40067 193.79 7.886C193.79 8.59533 193.514 9.146 192.964 9.538C192.413 9.93 191.648 10.126 190.668 10.126ZM197.905 10.126C197.159 10.126 196.557 9.93467 196.099 9.552C195.651 9.16933 195.427 8.67 195.427 8.054C195.427 7.90467 195.441 7.75533 195.469 7.606L195.847 5.45C195.931 4.946 196.127 4.498 196.435 4.106C196.753 3.714 197.149 3.41067 197.625 3.196C198.101 2.98133 198.619 2.874 199.179 2.874C199.898 2.874 200.481 3.07467 200.929 3.476C201.387 3.868 201.615 4.372 201.615 4.988C201.615 5.128 201.601 5.27733 201.573 5.436L201.419 6.36C201.391 6.48133 201.321 6.58867 201.209 6.682C201.097 6.77533 200.976 6.822 200.845 6.822H196.617L196.491 7.578C196.463 7.718 196.449 7.85333 196.449 7.984C196.449 8.39467 196.585 8.70733 196.855 8.922C197.135 9.13667 197.541 9.244 198.073 9.244C198.652 9.244 199.128 9.11333 199.501 8.852C199.884 8.58133 200.117 8.208 200.201 7.732C200.407 7.72267 200.579 7.774 200.719 7.886C200.859 7.98867 200.929 8.11933 200.929 8.278C200.929 8.586 200.785 8.88467 200.495 9.174C200.206 9.454 199.828 9.68267 199.361 9.86C198.895 10.0373 198.409 10.126 197.905 10.126ZM200.523 5.982L200.621 5.436C200.64 5.352 200.649 5.23067 200.649 5.072C200.649 4.652 200.509 4.33 200.229 4.106C199.949 3.87267 199.553 3.756 199.039 3.756C198.47 3.756 197.989 3.91 197.597 4.218C197.205 4.526 196.963 4.932 196.869 5.436L196.771 5.982H200.523ZM206.41 3.784C205.897 3.784 205.439 3.94267 205.038 4.26C204.637 4.57733 204.394 4.96933 204.31 5.436L203.638 9.3C203.545 9.85067 203.153 10.126 202.462 10.126L203.582 3.798C203.694 3.182 204.077 2.874 204.73 2.874L204.59 3.742C204.506 3.826 204.38 3.95667 204.212 4.134L204.254 4.19C205.019 3.31267 205.841 2.874 206.718 2.874C206.989 2.874 207.199 2.93 207.348 3.042C207.507 3.154 207.586 3.30333 207.586 3.49C207.586 3.67667 207.521 3.84467 207.39 3.994C207.278 3.92867 207.133 3.87733 206.956 3.84C206.779 3.80267 206.597 3.784 206.41 3.784ZM210.528 10.126C210.416 10.126 210.318 10.098 210.234 10.042C210.159 9.986 210.108 9.90667 210.08 9.804L208.54 2.958C208.708 2.902 208.848 2.874 208.96 2.874C209.147 2.874 209.296 2.92067 209.408 3.014C209.529 3.098 209.604 3.21933 209.632 3.378L210.682 8.628L210.402 9.16L210.472 9.188L213.706 3.378C213.893 3.042 214.173 2.874 214.546 2.874C214.63 2.874 214.719 2.88333 214.812 2.902C214.915 2.92067 214.985 2.93933 215.022 2.958L211.074 9.804C211.027 9.888 210.948 9.96267 210.836 10.028C210.733 10.0933 210.631 10.126 210.528 10.126ZM217.278 10.126C216.532 10.126 215.93 9.93467 215.472 9.552C215.024 9.16933 214.8 8.67 214.8 8.054C214.8 7.90467 214.814 7.75533 214.842 7.606L215.22 5.45C215.304 4.946 215.5 4.498 215.808 4.106C216.126 3.714 216.522 3.41067 216.998 3.196C217.474 2.98133 217.992 2.874 218.552 2.874C219.271 2.874 219.854 3.07467 220.302 3.476C220.76 3.868 220.988 4.372 220.988 4.988C220.988 5.128 220.974 5.27733 220.946 5.436L220.792 6.36C220.764 6.48133 220.694 6.58867 220.582 6.682C220.47 6.77533 220.349 6.822 220.218 6.822H215.99L215.864 7.578C215.836 7.718 215.822 7.85333 215.822 7.984C215.822 8.39467 215.958 8.70733 216.228 8.922C216.508 9.13667 216.914 9.244 217.446 9.244C218.025 9.244 218.501 9.11333 218.874 8.852C219.257 8.58133 219.49 8.208 219.574 7.732C219.78 7.72267 219.952 7.774 220.092 7.886C220.232 7.98867 220.302 8.11933 220.302 8.278C220.302 8.586 220.158 8.88467 219.868 9.174C219.579 9.454 219.201 9.68267 218.734 9.86C218.268 10.0373 217.782 10.126 217.278 10.126ZM219.896 5.982L219.994 5.436C220.013 5.352 220.022 5.23067 220.022 5.072C220.022 4.652 219.882 4.33 219.602 4.106C219.322 3.87267 218.926 3.756 218.412 3.756C217.843 3.756 217.362 3.91 216.97 4.218C216.578 4.526 216.336 4.932 216.242 5.436L216.144 5.982H219.896ZM224.397 10.126C223.697 10.126 223.132 9.94867 222.703 9.594C222.283 9.23 222.073 8.74933 222.073 8.152C222.073 8.012 222.087 7.86733 222.115 7.718L222.549 5.268C222.68 4.53067 223.03 3.94733 223.599 3.518C224.178 3.08867 224.882 2.874 225.713 2.874C226.581 2.874 227.272 3.22867 227.785 3.938L227.841 3.868C227.748 3.73733 227.668 3.63 227.603 3.546L228.065 0.942C228.168 0.363333 228.564 0.0739993 229.255 0.0739993L227.645 9.202C227.524 9.818 227.136 10.126 226.483 10.126L226.623 9.328C226.623 9.328 226.74 9.21133 226.973 8.978L226.931 8.922C226.147 9.72467 225.302 10.126 224.397 10.126ZM224.747 9.216C225.27 9.216 225.736 9.076 226.147 8.796C226.567 8.50667 226.81 8.16133 226.875 7.76L227.309 5.226C227.328 5.114 227.337 5.03467 227.337 4.988C227.337 4.63333 227.188 4.344 226.889 4.12C226.6 3.896 226.198 3.784 225.685 3.784C225.088 3.784 224.607 3.91933 224.243 4.19C223.879 4.45133 223.655 4.82 223.571 5.296L223.151 7.69C223.132 7.774 223.123 7.89067 223.123 8.04C223.123 8.42267 223.258 8.71667 223.529 8.922C223.809 9.118 224.215 9.216 224.747 9.216ZM230.05 10.126C229.836 10.126 229.658 10.0607 229.518 9.93C229.388 9.79933 229.322 9.63133 229.322 9.426C229.322 9.15533 229.425 8.91733 229.63 8.712C229.836 8.50667 230.074 8.404 230.344 8.404C230.55 8.404 230.722 8.474 230.862 8.614C231.012 8.754 231.086 8.92667 231.086 9.132C231.086 9.39333 230.979 9.62667 230.764 9.832C230.559 10.028 230.321 10.126 230.05 10.126Z" fill="black"/>
</svg>
