<svg width="90" height="13" viewBox="0 0 90 13" fill="none" xmlns="http://www.w3.org/2000/svg">
<path d="M2.302 4.008C2.36733 3.65333 2.54467 3.378 2.834 3.182C3.13267 2.97667 3.51067 2.874 3.968 2.874L3.828 3.644C3.70667 3.74667 3.59467 3.868 3.492 4.008L3.534 4.064C3.926 3.65333 4.32267 3.35467 4.724 3.168C5.13467 2.972 5.58733 2.874 6.082 2.874C6.754 2.874 7.29533 3.06067 7.706 3.434C8.11667 3.798 8.322 4.27867 8.322 4.876C8.322 5.03467 8.308 5.198 8.28 5.366L7.888 7.634C7.748 8.40867 7.38867 9.02 6.81 9.468C6.23133 9.90667 5.50333 10.126 4.626 10.126C4.25267 10.126 3.89333 10.0467 3.548 9.888C3.20267 9.72933 2.92733 9.51933 2.722 9.258L2.652 9.328C2.708 9.43067 2.792 9.52867 2.904 9.622L2.512 11.82C2.39067 12.5573 1.79333 12.926 0.72 12.926L2.302 4.008ZM4.584 8.754C5.06933 8.754 5.466 8.64667 5.774 8.432C6.082 8.21733 6.26867 7.92333 6.334 7.55L6.712 5.464C6.73067 5.352 6.74 5.268 6.74 5.212C6.74 4.89467 6.61867 4.652 6.376 4.484C6.14267 4.316 5.80667 4.232 5.368 4.232C4.92933 4.232 4.542 4.344 4.206 4.568C3.87933 4.792 3.688 5.06733 3.632 5.394L3.24 7.606C3.23067 7.64333 3.226 7.704 3.226 7.788C3.226 8.07733 3.352 8.31067 3.604 8.488C3.856 8.66533 4.18267 8.754 4.584 8.754ZM13.442 4.232C12.9006 4.232 12.4293 4.38133 12.028 4.68C11.6266 4.97867 11.3886 5.352 11.314 5.8L10.726 9.118C10.6606 9.46333 10.488 9.72 10.208 9.888C9.93729 10.0467 9.53129 10.126 8.98995 10.126L10.04 4.12C10.1986 3.28933 10.7726 2.874 11.762 2.874L11.622 3.714C11.5006 3.826 11.3653 3.97533 11.216 4.162L11.286 4.218C12.042 3.322 12.854 2.874 13.722 2.874C14.0393 2.874 14.2866 2.94867 14.464 3.098C14.6413 3.238 14.73 3.434 14.73 3.686C14.73 3.95667 14.632 4.21333 14.436 4.456C14.1933 4.30667 13.862 4.232 13.442 4.232ZM17.0464 2.076C16.7757 2.076 16.5517 2.00133 16.3744 1.852C16.2064 1.69333 16.1224 1.49267 16.1224 1.25C16.1224 0.932666 16.2484 0.657333 16.5004 0.424C16.7524 0.190666 17.0557 0.0739993 17.4104 0.0739993C17.6811 0.0739993 17.9004 0.153333 18.0684 0.312C18.2364 0.461333 18.3204 0.652666 18.3204 0.886C18.3204 1.20333 18.1944 1.48333 17.9424 1.726C17.6904 1.95933 17.3917 2.076 17.0464 2.076ZM15.9404 3.882C16.0057 3.53667 16.1784 3.28467 16.4584 3.126C16.7384 2.958 17.1444 2.874 17.6764 2.874L16.5844 9.118C16.5191 9.46333 16.3464 9.72 16.0664 9.888C15.7864 10.0467 15.3757 10.126 14.8344 10.126L15.9404 3.882ZM21.2028 10.126C21.0068 10.126 20.8434 10.0793 20.7128 9.986C20.5914 9.89267 20.5121 9.76667 20.4748 9.608L19.0608 3C19.1261 2.96267 19.2241 2.93467 19.3548 2.916C19.4854 2.888 19.6021 2.874 19.7048 2.874C19.9754 2.874 20.1948 2.93 20.3628 3.042C20.5401 3.14467 20.6428 3.294 20.6708 3.49L21.4408 8.082L21.1048 8.698L21.2028 8.74L23.9748 3.49C24.0774 3.30333 24.2314 3.154 24.4368 3.042C24.6514 2.93 24.8894 2.874 25.1508 2.874C25.2628 2.874 25.3934 2.888 25.5428 2.916C25.7014 2.944 25.8041 2.972 25.8508 3L22.1128 9.608C22.0194 9.76667 21.8888 9.89267 21.7208 9.986C21.5621 10.0793 21.3894 10.126 21.2028 10.126ZM27.5968 10.126C26.9248 10.126 26.3788 9.95333 25.9588 9.608C25.5388 9.25333 25.3288 8.796 25.3288 8.236C25.3288 7.69467 25.4688 7.20933 25.7488 6.78C26.0288 6.35067 26.4162 6.01467 26.9108 5.772C27.4148 5.52933 27.9842 5.408 28.6188 5.408C29.4588 5.408 30.1215 5.69733 30.6068 6.276L30.6768 6.206C30.6022 6.10333 30.4902 5.982 30.3408 5.842L30.4108 5.45C30.4295 5.31933 30.4388 5.226 30.4388 5.17C30.4388 4.82467 30.3222 4.56333 30.0888 4.386C29.8555 4.20867 29.5102 4.12 29.0528 4.12C28.1475 4.12 27.4242 4.46067 26.8828 5.142C26.7242 5.086 26.5982 4.99733 26.5048 4.876C26.4115 4.75467 26.3648 4.624 26.3648 4.484C26.3648 4.19467 26.5002 3.92867 26.7708 3.686C27.0508 3.434 27.4242 3.238 27.8908 3.098C28.3575 2.94867 28.8615 2.874 29.4028 2.874C30.2148 2.874 30.8495 3.056 31.3068 3.42C31.7735 3.784 32.0068 4.28333 32.0068 4.918C32.0068 5.07667 31.9928 5.24 31.9648 5.408L31.3208 9.034C31.2555 9.41667 31.0875 9.69667 30.8168 9.874C30.5555 10.042 30.1682 10.126 29.6548 10.126L29.7668 9.524C29.9628 9.36533 30.0935 9.244 30.1588 9.16L30.1168 9.104C29.7342 9.45867 29.3422 9.72 28.9408 9.888C28.5395 10.0467 28.0915 10.126 27.5968 10.126ZM28.1848 8.95C28.7448 8.95 29.1928 8.824 29.5288 8.572C29.8742 8.32 30.0468 7.984 30.0468 7.564C30.0468 7.256 29.9208 7.018 29.6688 6.85C29.4168 6.67267 29.0668 6.584 28.6188 6.584C28.1055 6.584 27.6855 6.71467 27.3588 6.976C27.0415 7.23733 26.8828 7.58267 26.8828 8.012C26.8828 8.32933 26.9902 8.56733 27.2048 8.726C27.4195 8.87533 27.7462 8.95 28.1848 8.95ZM35.5546 10.126C34.752 10.126 34.1126 9.93467 33.6366 9.552C33.1606 9.16933 32.9226 8.66533 32.9226 8.04C32.9226 7.89067 32.9366 7.74133 32.9646 7.592L33.3286 5.52C33.4126 5.00667 33.618 4.54933 33.9446 4.148C34.2713 3.74667 34.682 3.434 35.1766 3.21C35.6806 2.986 36.2266 2.874 36.8146 2.874C37.5613 2.874 38.168 3.03267 38.6346 3.35C39.1013 3.658 39.3346 4.05933 39.3346 4.554C39.3346 4.87133 39.1993 5.13267 38.9286 5.338C38.658 5.534 38.308 5.632 37.8786 5.632C37.8973 5.52 37.9066 5.43133 37.9066 5.366C37.9066 5.03 37.79 4.75933 37.5566 4.554C37.3233 4.33933 37.0106 4.232 36.6186 4.232C36.18 4.232 35.7973 4.358 35.4706 4.61C35.144 4.862 34.948 5.18867 34.8826 5.59L34.5466 7.494C34.5373 7.54067 34.5326 7.61067 34.5326 7.704C34.5326 8.02133 34.6493 8.278 34.8826 8.474C35.1253 8.66067 35.4473 8.754 35.8486 8.754C36.2873 8.754 36.67 8.628 36.9966 8.376C37.3233 8.124 37.524 7.79267 37.5986 7.382C37.944 7.382 38.2193 7.452 38.4246 7.592C38.6393 7.72267 38.7466 7.89533 38.7466 8.11C38.7466 8.502 38.6113 8.852 38.3406 9.16C38.07 9.468 37.692 9.706 37.2066 9.874C36.7306 10.042 36.18 10.126 35.5546 10.126ZM39.6945 12.926C39.4051 12.926 39.1858 12.842 39.0365 12.674C38.8871 12.5153 38.8125 12.282 38.8125 11.974C38.8125 11.8153 38.8218 11.694 38.8405 11.61C39.1018 11.6567 39.3211 11.68 39.4985 11.68C39.8718 11.68 40.1891 11.5773 40.4505 11.372C40.7118 11.1667 41.0198 10.7747 41.3745 10.196L41.7105 9.636L40.1565 3C40.2218 2.96267 40.3198 2.93467 40.4505 2.916C40.5905 2.888 40.7118 2.874 40.8145 2.874C41.0665 2.874 41.2811 2.93 41.4585 3.042C41.6358 3.154 41.7478 3.30333 41.7945 3.49L42.6765 7.718L42.3405 8.334L42.4385 8.376L45.2245 3.49C45.3271 3.30333 45.4858 3.154 45.7005 3.042C45.9245 2.93 46.1625 2.874 46.4145 2.874C46.5265 2.874 46.6571 2.888 46.8065 2.916C46.9558 2.944 47.0538 2.972 47.1005 3L42.6205 10.658C42.1538 11.4607 41.6918 12.0393 41.2345 12.394C40.7771 12.7487 40.2638 12.926 39.6945 12.926ZM51.9719 4.008C52.0373 3.65333 52.2146 3.378 52.5039 3.182C52.8026 2.97667 53.1806 2.874 53.6379 2.874L53.4979 3.644C53.3766 3.74667 53.2646 3.868 53.1619 4.008L53.2039 4.064C53.5959 3.65333 53.9926 3.35467 54.3939 3.168C54.8046 2.972 55.2573 2.874 55.7519 2.874C56.4239 2.874 56.9653 3.06067 57.3759 3.434C57.7866 3.798 57.9919 4.27867 57.9919 4.876C57.9919 5.03467 57.9779 5.198 57.9499 5.366L57.5579 7.634C57.4179 8.40867 57.0586 9.02 56.4799 9.468C55.9013 9.90667 55.1733 10.126 54.2959 10.126C53.9226 10.126 53.5633 10.0467 53.2179 9.888C52.8726 9.72933 52.5973 9.51933 52.3919 9.258L52.3219 9.328C52.3779 9.43067 52.4619 9.52867 52.5739 9.622L52.1819 11.82C52.0606 12.5573 51.4633 12.926 50.3899 12.926L51.9719 4.008ZM54.2539 8.754C54.7393 8.754 55.1359 8.64667 55.4439 8.432C55.7519 8.21733 55.9386 7.92333 56.0039 7.55L56.3819 5.464C56.4006 5.352 56.4099 5.268 56.4099 5.212C56.4099 4.89467 56.2886 4.652 56.0459 4.484C55.8126 4.316 55.4766 4.232 55.0379 4.232C54.5993 4.232 54.2119 4.344 53.8759 4.568C53.5493 4.792 53.3579 5.06733 53.3019 5.394L52.9099 7.606C52.9006 7.64333 52.8959 7.704 52.8959 7.788C52.8959 8.07733 53.0219 8.31067 53.2739 8.488C53.5259 8.66533 53.8526 8.754 54.2539 8.754ZM61.2284 10.126C60.7151 10.126 60.2484 10.0327 59.8284 9.846C59.4178 9.65933 59.0911 9.40267 58.8484 9.076C58.6151 8.74 58.4984 8.36667 58.4984 7.956C58.4984 7.79733 58.5078 7.676 58.5264 7.592L58.8904 5.52C59.0304 4.71733 59.4271 4.078 60.0804 3.602C60.7338 3.11667 61.5458 2.874 62.5164 2.874C63.0578 2.874 63.5338 2.972 63.9444 3.168C64.3644 3.364 64.6864 3.63467 64.9104 3.98C65.1344 4.316 65.2464 4.694 65.2464 5.114C65.2464 5.24467 65.2324 5.38 65.2044 5.52L64.8404 7.592C64.7564 8.08667 64.5511 8.52533 64.2244 8.908C63.9071 9.29067 63.4871 9.58933 62.9644 9.804C62.4511 10.0187 61.8724 10.126 61.2284 10.126ZM61.4804 8.768C61.9751 8.768 62.3858 8.656 62.7124 8.432C63.0484 8.19867 63.2491 7.886 63.3144 7.494L63.6364 5.59C63.6551 5.45933 63.6644 5.366 63.6644 5.31C63.6644 4.974 63.5431 4.708 63.3004 4.512C63.0671 4.316 62.7264 4.218 62.2784 4.218C61.7838 4.218 61.3684 4.344 61.0324 4.596C60.6964 4.848 60.4911 5.17933 60.4164 5.59L60.0944 7.494C60.0758 7.606 60.0664 7.69 60.0664 7.746C60.0664 8.06333 60.1878 8.31533 60.4304 8.502C60.6731 8.67933 61.0231 8.768 61.4804 8.768ZM68.0356 10.126C67.4476 10.126 66.9856 9.96733 66.6496 9.65C66.3136 9.32333 66.1456 8.88933 66.1456 8.348C66.1456 8.19867 66.1596 8.04 66.1876 7.872L67.3916 1.082C67.4569 0.727333 67.6296 0.470666 67.9096 0.312C68.1896 0.153333 68.6003 0.0739993 69.1416 0.0739993L67.7696 7.816C67.7509 7.96533 67.7416 8.068 67.7416 8.124C67.7416 8.348 67.8023 8.51133 67.9236 8.614C68.0543 8.70733 68.2549 8.754 68.5256 8.754C68.8803 8.754 69.2256 8.66533 69.5616 8.488C69.6736 8.61867 69.7296 8.77733 69.7296 8.964C69.7296 9.29067 69.5663 9.566 69.2396 9.79C68.9129 10.014 68.5116 10.126 68.0356 10.126ZM73.3472 2.076C73.0765 2.076 72.8525 2.00133 72.6752 1.852C72.5072 1.69333 72.4232 1.49267 72.4232 1.25C72.4232 0.932666 72.5492 0.657333 72.8012 0.424C73.0532 0.190666 73.3565 0.0739993 73.7112 0.0739993C73.9819 0.0739993 74.2012 0.153333 74.3692 0.312C74.5372 0.461333 74.6212 0.652666 74.6212 0.886C74.6212 1.20333 74.4952 1.48333 74.2432 1.726C73.9912 1.95933 73.6925 2.076 73.3472 2.076ZM72.2412 3.882C72.3065 3.53667 72.4792 3.28467 72.7592 3.126C73.0392 2.958 73.4452 2.874 73.9772 2.874L72.8852 9.118C72.8199 9.46333 72.6472 9.72 72.3672 9.888C72.0872 10.0467 71.6765 10.126 71.1352 10.126L72.2412 3.882ZM77.705 10.126C76.9023 10.126 76.263 9.93467 75.787 9.552C75.311 9.16933 75.073 8.66533 75.073 8.04C75.073 7.89067 75.087 7.74133 75.115 7.592L75.479 5.52C75.563 5.00667 75.7683 4.54933 76.095 4.148C76.4217 3.74667 76.8323 3.434 77.327 3.21C77.831 2.986 78.377 2.874 78.965 2.874C79.7117 2.874 80.3183 3.03267 80.785 3.35C81.2517 3.658 81.485 4.05933 81.485 4.554C81.485 4.87133 81.3497 5.13267 81.079 5.338C80.8083 5.534 80.4583 5.632 80.029 5.632C80.0477 5.52 80.057 5.43133 80.057 5.366C80.057 5.03 79.9403 4.75933 79.707 4.554C79.4737 4.33933 79.161 4.232 78.769 4.232C78.3303 4.232 77.9477 4.358 77.621 4.61C77.2943 4.862 77.0983 5.18867 77.033 5.59L76.697 7.494C76.6877 7.54067 76.683 7.61067 76.683 7.704C76.683 8.02133 76.7997 8.278 77.033 8.474C77.2757 8.66067 77.5977 8.754 77.999 8.754C78.4377 8.754 78.8203 8.628 79.147 8.376C79.4737 8.124 79.6743 7.79267 79.749 7.382C80.0943 7.382 80.3697 7.452 80.575 7.592C80.7897 7.72267 80.897 7.89533 80.897 8.11C80.897 8.502 80.7617 8.852 80.491 9.16C80.2203 9.468 79.8423 9.706 79.357 9.874C78.881 10.042 78.3303 10.126 77.705 10.126ZM81.8449 12.926C81.5555 12.926 81.3362 12.842 81.1869 12.674C81.0375 12.5153 80.9629 12.282 80.9629 11.974C80.9629 11.8153 80.9722 11.694 80.9909 11.61C81.2522 11.6567 81.4715 11.68 81.6489 11.68C82.0222 11.68 82.3395 11.5773 82.6009 11.372C82.8622 11.1667 83.1702 10.7747 83.5249 10.196L83.8609 9.636L82.3069 3C82.3722 2.96267 82.4702 2.93467 82.6009 2.916C82.7409 2.888 82.8622 2.874 82.9649 2.874C83.2169 2.874 83.4315 2.93 83.6089 3.042C83.7862 3.154 83.8982 3.30333 83.9449 3.49L84.8269 7.718L84.4909 8.334L84.5889 8.376L87.3749 3.49C87.4775 3.30333 87.6362 3.154 87.8509 3.042C88.0749 2.93 88.3129 2.874 88.5649 2.874C88.6769 2.874 88.8075 2.888 88.9569 2.916C89.1062 2.944 89.2042 2.972 89.2509 3L84.7709 10.658C84.3042 11.4607 83.8422 12.0393 83.3849 12.394C82.9275 12.7487 82.4142 12.926 81.8449 12.926Z" fill="black"/>
</svg>
