<svg width="125" height="40" viewBox="0 0 125 40" fill="none" xmlns="http://www.w3.org/2000/svg">
<rect x="0.5" y="0.5" width="124" height="39" rx="5.5" stroke="white"/>
<g clip-path="url(#clip0_631_7218)">
<path d="M13.8936 9.41437C13.0272 8.93547 12.0098 8.94654 11.1489 9.42129L21.2391 18.7295L24.6288 15.3398L13.8936 9.41437Z" fill="white"/>
<path d="M10.14 10.3736C9.89362 10.7764 9.75244 11.2373 9.75244 11.7259V28.5373C9.75244 29.0107 9.88116 29.4619 10.1137 29.8564L20.2606 19.7094L10.14 10.3736Z" fill="white"/>
<path d="M29.1234 17.8203L25.8901 16.0362L22.2568 19.6681L26.7095 23.7748L29.1248 22.4419C29.994 21.9602 30.5145 21.0965 30.5145 20.1304C30.5131 19.1643 29.994 18.3006 29.1234 17.8203Z" fill="white"/>
<path d="M21.2786 20.6479L11.104 30.8225C11.5455 31.0744 12.03 31.2073 12.5172 31.2073C12.9878 31.2073 13.4611 31.0883 13.8944 30.8488L25.4337 24.4805L21.2786 20.6479Z" fill="white"/>
</g>
<path d="M40.0898 14.0468H37.6094V8.28894H40.0898C40.4466 8.29415 40.7435 8.33582 40.9805 8.41394C41.3841 8.54675 41.7109 8.79024 41.9609 9.14441C42.1615 9.43087 42.2982 9.74076 42.3711 10.0741C42.444 10.4074 42.4805 10.7251 42.4805 11.0272C42.4805 11.7928 42.3268 12.4413 42.0195 12.9725C41.6029 13.6887 40.9596 14.0468 40.0898 14.0468ZM40.9844 9.75769C40.7995 9.44519 40.4336 9.28894 39.8867 9.28894H38.7773V13.0468H39.8867C40.4544 13.0468 40.8503 12.7668 41.0742 12.2069C41.1966 11.8996 41.2578 11.5337 41.2578 11.1093C41.2578 10.5233 41.1667 10.0728 40.9844 9.75769Z" fill="white"/>
<path d="M46.8516 10.328C47.2109 10.7785 47.3906 11.3111 47.3906 11.9257C47.3906 12.5507 47.2109 13.0858 46.8516 13.5311C46.4922 13.9738 45.9466 14.1952 45.2148 14.1952C44.4831 14.1952 43.9375 13.9738 43.5781 13.5311C43.2188 13.0858 43.0391 12.5507 43.0391 11.9257C43.0391 11.3111 43.2188 10.7785 43.5781 10.328C43.9375 9.87748 44.4831 9.65222 45.2148 9.65222C45.9466 9.65222 46.4922 9.87748 46.8516 10.328ZM45.2109 10.5936C44.8854 10.5936 44.6341 10.7095 44.457 10.9413C44.2826 11.1705 44.1953 11.4986 44.1953 11.9257C44.1953 12.3527 44.2826 12.6822 44.457 12.9139C44.6341 13.1457 44.8854 13.2616 45.2109 13.2616C45.5365 13.2616 45.7865 13.1457 45.9609 12.9139C46.1354 12.6822 46.2227 12.3527 46.2227 11.9257C46.2227 11.4986 46.1354 11.1705 45.9609 10.9413C45.7865 10.7095 45.5365 10.5936 45.2109 10.5936Z" fill="white"/>
<path d="M51.4219 14.0468L50.7539 10.9452L50.0781 14.0468H48.9219L47.7266 9.78894H48.9219L49.5859 12.8436L50.1992 9.78894H51.3281L51.9766 12.8553L52.6406 9.78894H53.8008L52.5664 14.0468H51.4219Z" fill="white"/>
<path d="M56.4219 10.6132C56.0443 10.6132 55.7852 10.7733 55.6445 11.0936C55.5716 11.2629 55.5352 11.479 55.5352 11.7421V14.0468H54.4258V9.79675H55.5V10.4178C55.6432 10.1991 55.7786 10.0415 55.9062 9.94519C56.1354 9.77332 56.4258 9.68738 56.7773 9.68738C57.2174 9.68738 57.5768 9.80326 57.8555 10.035C58.1367 10.2642 58.2773 10.6457 58.2773 11.1796V14.0468H57.1367V11.4569C57.1367 11.233 57.1068 11.0611 57.0469 10.9413C56.9375 10.7225 56.7292 10.6132 56.4219 10.6132Z" fill="white"/>
<path d="M59.332 8.28894H60.4453V14.0468H59.332V8.28894Z" fill="white"/>
<path d="M65.0859 10.328C65.4453 10.7785 65.625 11.3111 65.625 11.9257C65.625 12.5507 65.4453 13.0858 65.0859 13.5311C64.7266 13.9738 64.181 14.1952 63.4492 14.1952C62.7174 14.1952 62.1719 13.9738 61.8125 13.5311C61.4531 13.0858 61.2734 12.5507 61.2734 11.9257C61.2734 11.3111 61.4531 10.7785 61.8125 10.328C62.1719 9.87748 62.7174 9.65222 63.4492 9.65222C64.181 9.65222 64.7266 9.87748 65.0859 10.328ZM63.4453 10.5936C63.1198 10.5936 62.8685 10.7095 62.6914 10.9413C62.5169 11.1705 62.4297 11.4986 62.4297 11.9257C62.4297 12.3527 62.5169 12.6822 62.6914 12.9139C62.8685 13.1457 63.1198 13.2616 63.4453 13.2616C63.7708 13.2616 64.0208 13.1457 64.1953 12.9139C64.3698 12.6822 64.457 12.3527 64.457 11.9257C64.457 11.4986 64.3698 11.1705 64.1953 10.9413C64.0208 10.7095 63.7708 10.5936 63.4453 10.5936Z" fill="white"/>
<path d="M66.5859 10.2499C66.8802 9.87488 67.3854 9.68738 68.1016 9.68738C68.5677 9.68738 68.9818 9.77983 69.3438 9.96472C69.7057 10.1496 69.8867 10.4986 69.8867 11.0116V12.9647C69.8867 13.1001 69.8893 13.2642 69.8945 13.4569C69.9023 13.6027 69.9245 13.7017 69.9609 13.7538C69.9974 13.8059 70.0521 13.8488 70.125 13.8827V14.0468H68.9141C68.8802 13.9608 68.8568 13.8801 68.8438 13.8046C68.8307 13.729 68.8203 13.6431 68.8125 13.5468C68.6589 13.7134 68.4818 13.8553 68.2812 13.9725C68.0417 14.1106 67.7708 14.1796 67.4688 14.1796C67.0833 14.1796 66.7643 14.0702 66.5117 13.8514C66.2617 13.6301 66.1367 13.3176 66.1367 12.9139C66.1367 12.3905 66.3385 12.0116 66.7422 11.7772C66.9635 11.6496 67.2891 11.5585 67.7188 11.5038L68.0977 11.4569C68.3034 11.4309 68.4505 11.3983 68.5391 11.3593C68.6979 11.2915 68.7773 11.1861 68.7773 11.0428C68.7773 10.8684 68.7161 10.7486 68.5938 10.6835C68.474 10.6158 68.2969 10.5819 68.0625 10.5819C67.7995 10.5819 67.6133 10.647 67.5039 10.7772C67.4258 10.8736 67.3737 11.0038 67.3477 11.1678H66.2734C66.2969 10.7955 66.401 10.4895 66.5859 10.2499ZM67.4141 13.2421C67.5182 13.328 67.6458 13.371 67.7969 13.371C68.0365 13.371 68.2565 13.3007 68.457 13.16C68.6602 13.0194 68.7656 12.7629 68.7734 12.3905V11.9764C68.7031 12.0207 68.6315 12.0572 68.5586 12.0858C68.4883 12.1119 68.3906 12.1366 68.2656 12.16L68.0156 12.2069C67.7812 12.2486 67.6133 12.2994 67.5117 12.3593C67.3398 12.4608 67.2539 12.6184 67.2539 12.8319C67.2539 13.022 67.3073 13.1587 67.4141 13.2421Z" fill="white"/>
<path d="M74.7539 8.29675V14.0468H73.6719V13.4569C73.513 13.7095 73.332 13.8931 73.1289 14.0077C72.9258 14.1223 72.6732 14.1796 72.3711 14.1796C71.8737 14.1796 71.4544 13.979 71.1133 13.578C70.7747 13.1744 70.6055 12.6574 70.6055 12.0272C70.6055 11.3007 70.7721 10.729 71.1055 10.3124C71.4414 9.89571 71.8893 9.68738 72.4492 9.68738C72.707 9.68738 72.9362 9.74467 73.1367 9.85925C73.3372 9.97123 73.5 10.1275 73.625 10.328V8.29675H74.7539ZM71.7539 11.9452C71.7539 12.3384 71.832 12.6522 71.9883 12.8866C72.1419 13.1236 72.3763 13.2421 72.6914 13.2421C73.0065 13.2421 73.2461 13.1249 73.4102 12.8905C73.5742 12.6561 73.6562 12.3527 73.6562 11.9803C73.6562 11.4595 73.5247 11.0871 73.2617 10.8632C73.1003 10.7277 72.9128 10.66 72.6992 10.66C72.3737 10.66 72.1341 10.7837 71.9805 11.0311C71.8294 11.2759 71.7539 11.5806 71.7539 11.9452Z" fill="white"/>
<path d="M81.5469 10.328C81.9062 10.7785 82.0859 11.3111 82.0859 11.9257C82.0859 12.5507 81.9062 13.0858 81.5469 13.5311C81.1875 13.9738 80.6419 14.1952 79.9102 14.1952C79.1784 14.1952 78.6328 13.9738 78.2734 13.5311C77.9141 13.0858 77.7344 12.5507 77.7344 11.9257C77.7344 11.3111 77.9141 10.7785 78.2734 10.328C78.6328 9.87748 79.1784 9.65222 79.9102 9.65222C80.6419 9.65222 81.1875 9.87748 81.5469 10.328ZM79.9062 10.5936C79.5807 10.5936 79.3294 10.7095 79.1523 10.9413C78.9779 11.1705 78.8906 11.4986 78.8906 11.9257C78.8906 12.3527 78.9779 12.6822 79.1523 12.9139C79.3294 13.1457 79.5807 13.2616 79.9062 13.2616C80.2318 13.2616 80.4818 13.1457 80.6562 12.9139C80.8307 12.6822 80.918 12.3527 80.918 11.9257C80.918 11.4986 80.8307 11.1705 80.6562 10.9413C80.4818 10.7095 80.2318 10.5936 79.9062 10.5936Z" fill="white"/>
<path d="M84.8906 10.6132C84.513 10.6132 84.2539 10.7733 84.1133 11.0936C84.0404 11.2629 84.0039 11.479 84.0039 11.7421V14.0468H82.8945V9.79675H83.9688V10.4178C84.112 10.1991 84.2474 10.0415 84.375 9.94519C84.6042 9.77332 84.8945 9.68738 85.2461 9.68738C85.6862 9.68738 86.0456 9.80326 86.3242 10.035C86.6055 10.2642 86.7461 10.6457 86.7461 11.1796V14.0468H85.6055V11.4569C85.6055 11.233 85.5755 11.0611 85.5156 10.9413C85.4062 10.7225 85.1979 10.6132 84.8906 10.6132Z" fill="white"/>
<path d="M44.2461 28.8608C43.6901 29.2026 43.0065 29.3735 42.1953 29.3735C40.86 29.3735 39.7663 28.911 38.9141 27.9858C38.0254 27.0562 37.5811 25.7847 37.5811 24.1714C37.5811 22.5399 38.0299 21.2319 38.9277 20.2476C39.8255 19.2632 41.0127 18.771 42.4893 18.771C43.7699 18.771 44.7975 19.0968 45.5723 19.7485C46.3516 20.3957 46.7982 21.2046 46.9121 22.1753H44.8408C44.6813 21.4871 44.2917 21.0063 43.6719 20.7329C43.3255 20.5825 42.9404 20.5073 42.5166 20.5073C41.7054 20.5073 41.0378 20.8149 40.5137 21.4302C39.9941 22.0409 39.7344 22.9614 39.7344 24.1919C39.7344 25.4315 40.0169 26.3088 40.582 26.8237C41.1471 27.3387 41.7897 27.5962 42.5098 27.5962C43.2161 27.5962 43.7949 27.3934 44.2461 26.9878C44.6973 26.5776 44.9753 26.0422 45.0801 25.3813H42.749V23.6997H46.9463V29.1069H45.5518L45.3398 27.8491C44.9342 28.3276 44.5697 28.6649 44.2461 28.8608Z" fill="white"/>
<path d="M54.8795 22.5991C55.5084 23.3875 55.8229 24.3195 55.8229 25.395C55.8229 26.4888 55.5084 27.4253 54.8795 28.2046C54.2506 28.9793 53.2959 29.3667 52.0153 29.3667C50.7347 29.3667 49.7799 28.9793 49.151 28.2046C48.5221 27.4253 48.2077 26.4888 48.2077 25.395C48.2077 24.3195 48.5221 23.3875 49.151 22.5991C49.7799 21.8107 50.7347 21.4165 52.0153 21.4165C53.2959 21.4165 54.2506 21.8107 54.8795 22.5991ZM52.0084 23.064C51.4388 23.064 50.999 23.2668 50.6891 23.6724C50.3838 24.0734 50.2311 24.6476 50.2311 25.395C50.2311 26.1424 50.3838 26.7189 50.6891 27.1245C50.999 27.5301 51.4388 27.7329 52.0084 27.7329C52.5781 27.7329 53.0156 27.5301 53.3209 27.1245C53.6263 26.7189 53.7789 26.1424 53.7789 25.395C53.7789 24.6476 53.6263 24.0734 53.3209 23.6724C53.0156 23.2668 52.5781 23.064 52.0084 23.064Z" fill="white"/>
<path d="M63.2981 22.5991C63.927 23.3875 64.2415 24.3195 64.2415 25.395C64.2415 26.4888 63.927 27.4253 63.2981 28.2046C62.6692 28.9793 61.7145 29.3667 60.4339 29.3667C59.1533 29.3667 58.1985 28.9793 57.5696 28.2046C56.9407 27.4253 56.6262 26.4888 56.6262 25.395C56.6262 24.3195 56.9407 23.3875 57.5696 22.5991C58.1985 21.8107 59.1533 21.4165 60.4339 21.4165C61.7145 21.4165 62.6692 21.8107 63.2981 22.5991ZM60.427 23.064C59.8574 23.064 59.4176 23.2668 59.1077 23.6724C58.8024 24.0734 58.6497 24.6476 58.6497 25.395C58.6497 26.1424 58.8024 26.7189 59.1077 27.1245C59.4176 27.5301 59.8574 27.7329 60.427 27.7329C60.9967 27.7329 61.4342 27.5301 61.7395 27.1245C62.0449 26.7189 62.1975 26.1424 62.1975 25.395C62.1975 24.6476 62.0449 24.0734 61.7395 23.6724C61.4342 23.2668 60.9967 23.064 60.427 23.064Z" fill="white"/>
<path d="M67.6083 30.4126C67.818 30.5903 68.1711 30.6792 68.6679 30.6792C69.3697 30.6792 69.8391 30.4445 70.0761 29.9751C70.231 29.6743 70.3085 29.1685 70.3085 28.4575V27.979C70.1217 28.298 69.9211 28.5373 69.707 28.6968C69.3196 28.993 68.816 29.1411 68.1962 29.1411C67.2392 29.1411 66.4736 28.8062 65.8993 28.1362C65.3297 27.4618 65.0448 26.5503 65.0448 25.4019C65.0448 24.2944 65.3206 23.3647 65.872 22.6128C66.4234 21.8563 67.205 21.478 68.2167 21.478C68.5904 21.478 68.9163 21.535 69.1943 21.6489C69.6682 21.8449 70.051 22.2049 70.3427 22.729V21.6558H72.2363V28.7241C72.2363 29.6857 72.0745 30.4103 71.7509 30.8979C71.1949 31.7365 70.1285 32.1558 68.5517 32.1558C67.5992 32.1558 66.8222 31.9689 66.2206 31.5952C65.6191 31.2215 65.2864 30.6632 65.2226 29.9204H67.3417C67.3964 30.1483 67.4853 30.3123 67.6083 30.4126ZM67.2802 26.564C67.5445 27.1929 68.0185 27.5073 68.7021 27.5073C69.1578 27.5073 69.5429 27.3364 69.8573 26.9946C70.1718 26.6483 70.329 26.0991 70.329 25.3472C70.329 24.6408 70.1786 24.103 69.8779 23.7339C69.5816 23.3647 69.1829 23.1802 68.6816 23.1802C67.998 23.1802 67.5263 23.5015 67.2665 24.144C67.1298 24.4858 67.0614 24.9074 67.0614 25.4087C67.0614 25.8416 67.1344 26.2267 67.2802 26.564Z" fill="white"/>
<path d="M73.9625 19.0308H75.9107V29.1069H73.9625V19.0308Z" fill="white"/>
<path d="M84.0559 26.9194C84.0057 27.3615 83.7756 27.8104 83.3654 28.2661C82.7274 28.9907 81.8342 29.353 80.6857 29.353C79.7378 29.353 78.9016 29.0477 78.177 28.437C77.4523 27.8263 77.09 26.8328 77.09 25.4565C77.09 24.1668 77.4159 23.1779 78.0676 22.4897C78.7238 21.8016 79.5738 21.4575 80.6174 21.4575C81.2372 21.4575 81.7954 21.5737 82.2922 21.8062C82.7889 22.0386 83.1991 22.4054 83.5227 22.9067C83.8143 23.3488 84.0034 23.8615 84.09 24.4448C84.1402 24.7866 84.1607 25.2788 84.1516 25.9214H79.052C79.0793 26.6688 79.314 27.1929 79.7561 27.4937C80.0249 27.6805 80.3485 27.7739 80.7268 27.7739C81.1278 27.7739 81.4536 27.66 81.7043 27.4321C81.841 27.3091 81.9618 27.1382 82.0666 26.9194H84.0559ZM82.1281 24.6362C82.0962 24.1213 81.939 23.7316 81.6564 23.4673C81.3784 23.1984 81.0321 23.064 80.6174 23.064C80.1662 23.064 79.8153 23.2052 79.5646 23.4878C79.3186 23.7703 79.1636 24.1532 79.0998 24.6362H82.1281Z" fill="white"/>
<path d="M93.5239 25.4839H91.3843V29.1069H89.2925V19.0308H93.6811C94.6929 19.0308 95.4995 19.2905 96.1011 19.8101C96.7026 20.3296 97.0034 21.134 97.0034 22.2231C97.0034 23.4126 96.7026 24.2534 96.1011 24.7456C95.4995 25.2378 94.6404 25.4839 93.5239 25.4839ZM94.5083 23.3853C94.7817 23.1437 94.9184 22.7609 94.9184 22.2368C94.9184 21.7127 94.7794 21.339 94.5014 21.1157C94.228 20.8924 93.8429 20.7808 93.3462 20.7808H91.3843V23.7476H93.3462C93.8429 23.7476 94.2303 23.6268 94.5083 23.3853Z" fill="white"/>
<path d="M98.3263 19.0308H100.275V29.1069H98.3263V19.0308Z" fill="white"/>
<path d="M102.322 22.4624C102.837 21.8062 103.721 21.478 104.974 21.478C105.79 21.478 106.515 21.6398 107.148 21.9634C107.782 22.2869 108.098 22.8976 108.098 23.7954V27.2134C108.098 27.4504 108.103 27.7375 108.112 28.0747C108.126 28.3299 108.164 28.5031 108.228 28.5942C108.292 28.6854 108.388 28.7606 108.515 28.8198V29.1069H106.396C106.337 28.9565 106.296 28.8153 106.273 28.6831C106.25 28.5509 106.232 28.4006 106.219 28.2319C105.95 28.5236 105.64 28.772 105.289 28.9771C104.87 29.2186 104.396 29.3394 103.867 29.3394C103.192 29.3394 102.634 29.1479 102.192 28.7651C101.755 28.3778 101.536 27.8309 101.536 27.1245C101.536 26.2085 101.889 25.5454 102.595 25.1353C102.983 24.9119 103.552 24.7524 104.304 24.6567L104.968 24.5747C105.328 24.5291 105.585 24.4722 105.74 24.4038C106.018 24.2853 106.157 24.1007 106.157 23.8501C106.157 23.5448 106.05 23.3351 105.836 23.2212C105.626 23.1027 105.316 23.0435 104.906 23.0435C104.446 23.0435 104.12 23.1574 103.928 23.3853C103.792 23.5539 103.701 23.7817 103.655 24.0688H101.775C101.816 23.4172 101.998 22.8817 102.322 22.4624ZM103.771 27.6987C103.954 27.8491 104.177 27.9243 104.441 27.9243C104.86 27.9243 105.246 27.8013 105.596 27.5552C105.952 27.3091 106.136 26.8602 106.15 26.2085V25.4839C106.027 25.5614 105.902 25.6252 105.774 25.6753C105.651 25.7209 105.48 25.7642 105.261 25.8052L104.824 25.8872C104.414 25.9601 104.12 26.049 103.942 26.1538C103.641 26.3315 103.491 26.6073 103.491 26.981C103.491 27.3136 103.584 27.5529 103.771 27.6987Z" fill="white"/>
<path d="M112.723 27.1519L114.261 21.6558H116.332L113.776 28.9839C113.284 30.3966 112.894 31.2716 112.607 31.6089C112.32 31.9507 111.746 32.1216 110.884 32.1216C110.711 32.1216 110.572 32.1193 110.467 32.1147C110.362 32.1147 110.205 32.1079 109.996 32.0942V30.5356L110.242 30.5493C110.433 30.5584 110.615 30.5516 110.788 30.5288C110.962 30.506 111.107 30.4536 111.226 30.3716C111.34 30.2941 111.445 30.1323 111.54 29.8862C111.641 29.6401 111.682 29.4897 111.663 29.4351L108.929 21.6558H111.096L112.723 27.1519Z" fill="white"/>
<defs>
<clipPath id="clip0_631_7218">
<rect width="22.1471" height="22.1471" fill="white" transform="translate(9.06006 9.06018)"/>
</clipPath>
</defs>
</svg>
