<svg width="233" height="13" viewBox="0 0 233 13" fill="none" xmlns="http://www.w3.org/2000/svg">
<path d="M4.214 10.126C3.52333 10.126 2.91667 10.0093 2.394 9.776C1.88067 9.54267 1.484 9.22067 1.204 8.81C0.924 8.39 0.784 7.90467 0.784 7.354C0.784 7.13933 0.802667 6.93867 0.84 6.752L1.428 3.42C1.54 2.76667 1.806 2.188 2.226 1.684C2.646 1.18 3.178 0.788 3.822 0.508C4.47533 0.218666 5.18933 0.0739993 5.964 0.0739993C6.636 0.0739993 7.23333 0.181333 7.756 0.395999C8.27867 0.610666 8.68467 0.909333 8.974 1.292C9.27267 1.66533 9.422 2.09467 9.422 2.58C9.422 2.92533 9.30067 3.21 9.058 3.434C8.81533 3.658 8.50733 3.77467 8.134 3.784C8.22733 3.48533 8.274 3.19133 8.274 2.902C8.274 2.36067 8.04067 1.922 7.574 1.586C7.11667 1.24067 6.524 1.068 5.796 1.068C5.24533 1.068 4.73667 1.17067 4.27 1.376C3.80333 1.572 3.416 1.84733 3.108 2.202C2.80933 2.55667 2.618 2.96267 2.534 3.42L1.96 6.752C1.932 6.892 1.918 7.032 1.918 7.172C1.918 7.76 2.13733 8.236 2.576 8.6C3.024 8.95467 3.626 9.132 4.382 9.132C5.25933 9.132 5.99667 8.94067 6.594 8.558C7.19133 8.17533 7.55533 7.62 7.686 6.892C7.69533 6.79867 7.70467 6.71 7.714 6.626C7.73267 6.542 7.742 6.46733 7.742 6.402C8.03133 6.41133 8.26467 6.48133 8.442 6.612C8.61933 6.73333 8.708 6.89667 8.708 7.102C8.708 7.64333 8.51667 8.14733 8.134 8.614C7.75133 9.07133 7.21467 9.44 6.524 9.72C5.84267 9.99067 5.07267 10.126 4.214 10.126ZM12.2118 10.126C11.7358 10.126 11.3065 10.042 10.9238 9.874C10.5412 9.69667 10.2378 9.454 10.0138 9.146C9.78983 8.838 9.67783 8.488 9.67783 8.096C9.67783 7.93733 9.68716 7.816 9.70583 7.732L10.1258 5.324C10.2565 4.57733 10.6298 3.98467 11.2458 3.546C11.8712 3.098 12.6225 2.874 13.4998 2.874C14.0038 2.874 14.4472 2.96733 14.8298 3.154C15.2218 3.34067 15.5205 3.59733 15.7258 3.924C15.9405 4.24133 16.0478 4.59133 16.0478 4.974C16.0478 5.03933 16.0385 5.156 16.0198 5.324L15.5858 7.732C15.4645 8.432 15.1005 9.006 14.4938 9.454C13.8872 9.902 13.1265 10.126 12.2118 10.126ZM12.3798 9.23C12.9678 9.23 13.4625 9.09 13.8638 8.81C14.2745 8.53 14.5172 8.16133 14.5918 7.704L14.9978 5.352C15.0165 5.20267 15.0258 5.09533 15.0258 5.03C15.0258 4.64733 14.8812 4.344 14.5918 4.12C14.3118 3.88667 13.8918 3.77 13.3318 3.77C12.7438 3.77 12.2445 3.91933 11.8338 4.218C11.4325 4.50733 11.1898 4.88533 11.1058 5.352L10.6998 7.704C10.6812 7.83467 10.6718 7.92333 10.6718 7.97C10.6718 8.35267 10.8118 8.66067 11.0918 8.894C11.3812 9.118 11.8105 9.23 12.3798 9.23ZM18.0406 3.798C18.162 3.182 18.5493 2.874 19.2026 2.874L19.0626 3.672C18.904 3.812 18.7873 3.92867 18.7126 4.022L18.7406 4.078C19.5433 3.27533 20.3926 2.874 21.2886 2.874C21.998 2.874 22.5626 3.056 22.9826 3.42C23.4026 3.77467 23.6126 4.246 23.6126 4.834C23.6126 4.974 23.5986 5.12333 23.5706 5.282L23.1366 7.732C23.0153 8.47867 22.67 9.06667 22.1006 9.496C21.5313 9.916 20.8173 10.126 19.9586 10.126C19.1 10.126 18.414 9.77133 17.9006 9.062L17.8586 9.132C17.924 9.25333 17.9986 9.36067 18.0826 9.454L17.6206 12.058C17.5273 12.6367 17.1306 12.926 16.4306 12.926L18.0406 3.798ZM20.0006 9.216C20.5793 9.216 21.0553 9.08067 21.4286 8.81C21.8113 8.53933 22.0446 8.17067 22.1286 7.704L22.5486 5.31C22.5673 5.23533 22.5766 5.12333 22.5766 4.974C22.5766 4.60067 22.4366 4.31133 22.1566 4.106C21.8766 3.89133 21.4706 3.784 20.9386 3.784C20.416 3.784 19.9446 3.92867 19.5246 4.218C19.114 4.498 18.876 4.83867 18.8106 5.24L18.3766 7.774C18.358 7.886 18.3486 7.96533 18.3486 8.012C18.3486 8.376 18.498 8.67 18.7966 8.894C19.0953 9.10867 19.4966 9.216 20.0006 9.216ZM24.059 12.912C23.5643 12.912 23.345 12.632 23.401 12.072C23.5877 12.1 23.7697 12.114 23.947 12.114C24.367 12.114 24.731 11.988 25.039 11.736C25.3563 11.4933 25.7063 11.0547 26.089 10.42L26.509 9.734L24.927 2.958C25.095 2.902 25.2397 2.874 25.361 2.874C25.529 2.874 25.6737 2.92067 25.795 3.014C25.9163 3.10733 25.991 3.22867 26.019 3.378L27.125 8.46L26.831 8.992L26.901 9.02L30.149 3.378C30.233 3.21933 30.345 3.098 30.485 3.014C30.6343 2.92067 30.7977 2.874 30.975 2.874C31.059 2.874 31.143 2.88333 31.227 2.902C31.311 2.91133 31.3857 2.93 31.451 2.958L26.929 10.714C26.481 11.4793 26.0283 12.0347 25.571 12.38C25.1137 12.7347 24.6097 12.912 24.059 12.912ZM35.3475 3.784C34.8342 3.784 34.3768 3.94267 33.9755 4.26C33.5742 4.57733 33.3315 4.96933 33.2475 5.436L32.5755 9.3C32.4822 9.85067 32.0902 10.126 31.3995 10.126L32.5195 3.798C32.6315 3.182 33.0142 2.874 33.6675 2.874L33.5275 3.742C33.4435 3.826 33.3175 3.95667 33.1495 4.134L33.1915 4.19C33.9568 3.31267 34.7782 2.874 35.6555 2.874C35.9262 2.874 36.1362 2.93 36.2855 3.042C36.4442 3.154 36.5235 3.30333 36.5235 3.49C36.5235 3.67667 36.4582 3.84467 36.3275 3.994C36.2155 3.92867 36.0708 3.87733 35.8935 3.84C35.7162 3.80267 35.5342 3.784 35.3475 3.784ZM38.8915 1.684C38.6861 1.684 38.5135 1.61867 38.3735 1.488C38.2428 1.35733 38.1775 1.19867 38.1775 1.012C38.1775 0.769333 38.2755 0.554666 38.4715 0.368C38.6768 0.171999 38.9101 0.0739993 39.1715 0.0739993C39.3768 0.0739993 39.5448 0.134666 39.6755 0.255999C39.8061 0.377333 39.8715 0.535999 39.8715 0.731999C39.8715 0.974666 39.7688 1.194 39.5635 1.39C39.3675 1.586 39.1435 1.684 38.8915 1.684ZM38.0095 3.714C38.1121 3.154 38.5041 2.874 39.1855 2.874L38.0515 9.3C37.9581 9.85067 37.5661 10.126 36.8755 10.126L38.0095 3.714ZM42.5125 12.926C42.0832 12.926 41.6819 12.856 41.3085 12.716C40.9445 12.576 40.6552 12.3847 40.4405 12.142C40.2259 11.9087 40.1185 11.652 40.1185 11.372C40.1185 11.1107 40.1979 10.9053 40.3565 10.756C40.5245 10.616 40.7532 10.546 41.0425 10.546C41.0239 10.658 41.0145 10.7467 41.0145 10.812C41.0145 11.1947 41.1639 11.498 41.4625 11.722C41.7612 11.946 42.1625 12.058 42.6665 12.058C43.2919 12.058 43.7912 11.904 44.1645 11.596C44.5379 11.288 44.7759 10.8353 44.8785 10.238L45.0325 9.314C45.1912 9.18333 45.3079 9.076 45.3825 8.992L45.3545 8.922C44.9999 9.24867 44.5985 9.51 44.1505 9.706C43.7119 9.89267 43.2919 9.986 42.8905 9.986C42.4332 9.986 42.0272 9.89733 41.6725 9.72C41.3179 9.54267 41.0425 9.3 40.8465 8.992C40.6505 8.684 40.5525 8.33867 40.5525 7.956C40.5525 7.88133 40.5619 7.76 40.5805 7.592L40.9865 5.282C41.1172 4.50733 41.4532 3.91467 41.9945 3.504C42.5452 3.084 43.2639 2.874 44.1505 2.874C45.0372 2.874 45.7325 3.27533 46.2365 4.078L46.2785 4.022L46.0685 3.672C46.1525 3.14 46.5305 2.874 47.2025 2.874L45.9145 10.168C45.7559 11.0547 45.3825 11.736 44.7945 12.212C44.2065 12.688 43.4459 12.926 42.5125 12.926ZM43.1985 9.076C43.7119 9.076 44.1785 8.936 44.5985 8.656C45.0279 8.36667 45.2752 8.026 45.3405 7.634L45.7465 5.24C45.7559 5.19333 45.7605 5.12333 45.7605 5.03C45.7605 4.67533 45.6112 4.38133 45.3125 4.148C45.0139 3.90533 44.6312 3.784 44.1645 3.784C42.9139 3.784 42.1952 4.29267 42.0085 5.31L41.6165 7.564C41.5979 7.648 41.5885 7.76467 41.5885 7.914C41.5885 8.68867 42.1252 9.076 43.1985 9.076ZM49.6075 0.998C49.7195 0.381999 50.1161 0.0739993 50.7975 0.0739993L50.1395 3.77C50.1395 3.77 50.0181 3.89133 49.7755 4.134L49.8175 4.204C50.1908 3.79333 50.6248 3.47133 51.1195 3.238C51.6141 2.99533 52.0995 2.874 52.5755 2.874C53.2195 2.874 53.7281 3.05133 54.1015 3.406C54.4841 3.75133 54.6755 4.218 54.6755 4.806C54.6755 4.946 54.6615 5.1 54.6335 5.268L53.9195 9.3C53.8075 9.85067 53.4155 10.126 52.7435 10.126L53.5835 5.338C53.6115 5.17933 53.6255 5.03933 53.6255 4.918C53.6255 4.162 53.1588 3.784 52.2255 3.784C51.8708 3.784 51.5161 3.86333 51.1615 4.022C50.8068 4.17133 50.5081 4.37667 50.2655 4.638C50.0228 4.89 49.8781 5.156 49.8315 5.436L49.1595 9.3C49.0661 9.85067 48.6741 10.126 47.9835 10.126L49.6075 0.998ZM58.3267 10.126C57.8321 10.126 57.4447 9.99533 57.1647 9.734C56.8941 9.47267 56.7587 9.10867 56.7587 8.642C56.7587 8.48333 56.7727 8.32933 56.8007 8.18L57.5567 3.854H56.2967C56.3434 3.58333 56.4414 3.37333 56.5907 3.224C56.7494 3.07467 56.9454 3 57.1787 3H57.7107L57.9627 1.6C58.0654 1.04933 58.4527 0.773999 59.1247 0.773999L58.7327 3H60.5947C60.5481 3.28 60.4407 3.49467 60.2727 3.644C60.1141 3.784 59.9041 3.854 59.6427 3.854H58.5927L57.8367 8.138C57.8087 8.28733 57.7947 8.418 57.7947 8.53C57.7947 8.77267 57.8601 8.95 57.9907 9.062C58.1214 9.16467 58.3314 9.216 58.6207 9.216C58.9381 9.216 59.2554 9.132 59.5727 8.964C59.6194 9.02 59.6427 9.11333 59.6427 9.244C59.6427 9.496 59.5167 9.706 59.2647 9.874C59.0127 10.042 58.7001 10.126 58.3267 10.126ZM69.3948 10.126C68.5642 10.126 67.8222 9.95333 67.1688 9.608C66.5248 9.26267 66.0208 8.782 65.6568 8.166C65.3022 7.54067 65.1248 6.82667 65.1248 6.024C65.1248 4.86667 65.3768 3.84 65.8808 2.944C66.3942 2.03867 67.1082 1.334 68.0228 0.83C68.9375 0.325999 69.9828 0.0739993 71.1588 0.0739993C71.9895 0.0739993 72.7268 0.251333 73.3708 0.606C74.0242 0.951333 74.5282 1.43667 74.8828 2.062C75.2468 2.68733 75.4288 3.40133 75.4288 4.204C75.4288 5.36133 75.1722 6.388 74.6588 7.284C74.1548 8.18 73.4455 8.88 72.5308 9.384C71.6162 9.87867 70.5708 10.126 69.3948 10.126ZM69.5348 9.286C70.4868 9.286 71.3362 9.076 72.0828 8.656C72.8388 8.236 73.4222 7.65267 73.8328 6.906C74.2528 6.15 74.4628 5.29133 74.4628 4.33C74.4628 3.66733 74.3182 3.07933 74.0288 2.566C73.7395 2.04333 73.3335 1.63733 72.8108 1.348C72.2882 1.05867 71.6908 0.913999 71.0188 0.913999C70.0668 0.913999 69.2175 1.124 68.4708 1.544C67.7242 1.964 67.1408 2.552 66.7208 3.308C66.3102 4.064 66.1048 4.92733 66.1048 5.898C66.1048 6.56067 66.2495 7.14867 66.5388 7.662C66.8282 8.17533 67.2342 8.57667 67.7568 8.866C68.2795 9.146 68.8722 9.286 69.5348 9.286ZM69.8288 8.068C69.4462 8.068 69.0962 7.99333 68.7788 7.844C68.4615 7.69467 68.2142 7.494 68.0368 7.242C67.8595 6.98067 67.7708 6.696 67.7708 6.388C67.7708 6.332 67.7802 6.23867 67.7988 6.108L68.1628 4.064C68.2188 3.71867 68.3822 3.39667 68.6528 3.098C68.9235 2.79933 69.2548 2.56133 69.6468 2.384C70.0482 2.20667 70.4588 2.118 70.8788 2.118C71.2335 2.118 71.5695 2.18333 71.8868 2.314C72.2042 2.44467 72.4562 2.622 72.6428 2.846C72.8388 3.07 72.9368 3.30333 72.9368 3.546C72.9368 3.77 72.8668 3.94733 72.7268 4.078C72.5962 4.19933 72.4188 4.26 72.1948 4.26C72.1482 4.26 72.0595 4.25067 71.9288 4.232C71.9568 4.12933 71.9708 4.03133 71.9708 3.938C71.9708 3.63933 71.8542 3.39667 71.6208 3.21C71.3968 3.014 71.0982 2.916 70.7248 2.916C70.3422 2.916 69.9875 3.028 69.6608 3.252C69.3435 3.476 69.1568 3.74667 69.1008 4.064L68.7508 6.108C68.7415 6.14533 68.7368 6.20133 68.7368 6.276C68.7368 6.556 68.8535 6.78933 69.0868 6.976C69.3202 7.16267 69.6142 7.256 69.9688 7.256C70.4075 7.256 70.7808 7.13467 71.0888 6.892C71.4062 6.64 71.5835 6.32733 71.6208 5.954C71.7235 5.926 71.8168 5.912 71.9008 5.912C72.0688 5.912 72.2042 5.95867 72.3068 6.052C72.4095 6.136 72.4608 6.25267 72.4608 6.402C72.4608 6.67267 72.3255 6.93867 72.0548 7.2C71.7935 7.452 71.4575 7.662 71.0468 7.83C70.6362 7.98867 70.2302 8.068 69.8288 8.068ZM81.4499 0.731999C81.4779 0.582666 81.5573 0.456666 81.6879 0.354C81.8186 0.251333 81.9633 0.199999 82.1219 0.199999H88.3099C88.2446 0.535999 88.1233 0.783333 87.9459 0.942C87.7779 1.10067 87.5446 1.18 87.2459 1.18H82.4859L81.8979 4.568H85.8879C85.7666 5.22133 85.4119 5.548 84.8239 5.548H81.7159L81.1139 9.02H86.1679C86.6439 9.02 86.8819 9.244 86.8819 9.692C86.8819 9.82267 86.8726 9.92533 86.8539 10H80.3859C80.2273 10 80.1013 9.95333 80.0079 9.86C79.9239 9.75733 79.8913 9.62667 79.9099 9.468L81.4499 0.731999ZM90.2433 10.126C89.562 10.126 89.0067 9.95333 88.5773 9.608C88.148 9.25333 87.9333 8.796 87.9333 8.236C87.9333 7.69467 88.0687 7.20933 88.3393 6.78C88.61 6.35067 88.988 6.01933 89.4733 5.786C89.968 5.54333 90.5327 5.422 91.1673 5.422C92.0727 5.422 92.7633 5.758 93.2393 6.43L93.2953 6.388C93.2393 6.29467 93.1553 6.178 93.0433 6.038L93.1693 5.338C93.188 5.24467 93.1973 5.114 93.1973 4.946C93.1973 4.15267 92.684 3.756 91.6573 3.756C90.6493 3.756 89.856 4.16667 89.2773 4.988C89.1747 4.92267 89.0907 4.83867 89.0253 4.736C88.9693 4.63333 88.9413 4.53067 88.9413 4.428C88.9413 4.15733 89.0813 3.90533 89.3613 3.672C89.6507 3.42933 90.0193 3.238 90.4673 3.098C90.9247 2.94867 91.3867 2.874 91.8533 2.874C92.5907 2.874 93.1693 3.05133 93.5893 3.406C94.0187 3.75133 94.2333 4.22733 94.2333 4.834C94.2333 4.99267 94.2193 5.156 94.1913 5.324L93.4773 9.272C93.384 9.84133 93.006 10.126 92.3433 10.126L92.4693 9.44C92.5627 9.356 92.6887 9.23467 92.8473 9.076L92.8053 9.02C92.0493 9.75733 91.1953 10.126 90.2433 10.126ZM90.5233 9.272C91.1953 9.272 91.7413 9.10867 92.1613 8.782C92.5813 8.45533 92.7913 8.03067 92.7913 7.508C92.7913 7.12533 92.642 6.82667 92.3433 6.612C92.054 6.388 91.634 6.276 91.0833 6.276C90.4487 6.276 89.9353 6.444 89.5433 6.78C89.1607 7.116 88.9693 7.55467 88.9693 8.096C88.9693 8.88 89.4873 9.272 90.5233 9.272ZM97.3463 10.126C96.8516 10.126 96.4643 9.99533 96.1843 9.734C95.9136 9.47267 95.7783 9.10867 95.7783 8.642C95.7783 8.48333 95.7923 8.32933 95.8203 8.18L96.5763 3.854H95.3163C95.3629 3.58333 95.4609 3.37333 95.6103 3.224C95.7689 3.07467 95.9649 3 96.1983 3H96.7303L96.9823 1.6C97.0849 1.04933 97.4723 0.773999 98.1443 0.773999L97.7523 3H99.6143C99.5676 3.28 99.4603 3.49467 99.2923 3.644C99.1336 3.784 98.9236 3.854 98.6623 3.854H97.6123L96.8563 8.138C96.8283 8.28733 96.8143 8.418 96.8143 8.53C96.8143 8.77267 96.8796 8.95 97.0103 9.062C97.1409 9.16467 97.3509 9.216 97.6403 9.216C97.9576 9.216 98.2749 9.132 98.5923 8.964C98.6389 9.02 98.6623 9.11333 98.6623 9.244C98.6623 9.496 98.5363 9.706 98.2843 9.874C98.0323 10.042 97.7196 10.126 97.3463 10.126ZM102.411 1.684C102.206 1.684 102.033 1.61867 101.893 1.488C101.762 1.35733 101.697 1.19867 101.697 1.012C101.697 0.769333 101.795 0.554666 101.991 0.368C102.196 0.171999 102.43 0.0739993 102.691 0.0739993C102.896 0.0739993 103.064 0.134666 103.195 0.255999C103.326 0.377333 103.391 0.535999 103.391 0.731999C103.391 0.974666 103.288 1.194 103.083 1.39C102.887 1.586 102.663 1.684 102.411 1.684ZM101.529 3.714C101.632 3.154 102.024 2.874 102.705 2.874L101.571 9.3C101.478 9.85067 101.086 10.126 100.395 10.126L101.529 3.714ZM106.536 10.126C105.789 10.126 105.187 9.93467 104.73 9.552C104.282 9.16933 104.058 8.67 104.058 8.054C104.058 7.90467 104.072 7.75533 104.1 7.606L104.478 5.45C104.562 4.946 104.758 4.498 105.066 4.106C105.383 3.714 105.78 3.41067 106.256 3.196C106.732 2.98133 107.25 2.874 107.81 2.874C108.529 2.874 109.112 3.07467 109.56 3.476C110.017 3.868 110.246 4.372 110.246 4.988C110.246 5.128 110.232 5.27733 110.204 5.436L110.05 6.36C110.022 6.48133 109.952 6.58867 109.84 6.682C109.728 6.77533 109.607 6.822 109.476 6.822H105.248L105.122 7.578C105.094 7.718 105.08 7.85333 105.08 7.984C105.08 8.39467 105.215 8.70733 105.486 8.922C105.766 9.13667 106.172 9.244 106.704 9.244C107.283 9.244 107.759 9.11333 108.132 8.852C108.515 8.58133 108.748 8.208 108.832 7.732C109.037 7.72267 109.21 7.774 109.35 7.886C109.49 7.98867 109.56 8.11933 109.56 8.278C109.56 8.586 109.415 8.88467 109.126 9.174C108.837 9.454 108.459 9.68267 107.992 9.86C107.525 10.0373 107.04 10.126 106.536 10.126ZM109.154 5.982L109.252 5.436C109.271 5.352 109.28 5.23067 109.28 5.072C109.28 4.652 109.14 4.33 108.86 4.106C108.58 3.87267 108.183 3.756 107.67 3.756C107.101 3.756 106.62 3.91 106.228 4.218C105.836 4.526 105.593 4.932 105.5 5.436L105.402 5.982H109.154ZM115.15 10.126C114.945 10.0607 114.786 9.958 114.674 9.818C114.562 9.678 114.506 9.51467 114.506 9.328C114.506 9.14133 114.562 8.95 114.674 8.754L119.546 0.424C119.686 0.190666 119.887 0.0739993 120.148 0.0739993C120.27 0.0739993 120.368 0.106666 120.442 0.172C120.526 0.237333 120.582 0.321333 120.61 0.424L122.57 8.754C122.589 8.866 122.598 8.95 122.598 9.006C122.598 9.26733 122.514 9.50533 122.346 9.72C122.178 9.92533 121.959 10.0607 121.688 10.126L121.072 7.102H116.9L115.15 10.126ZM120.89 6.122L119.812 1.292L119.714 1.32L119.826 1.88L117.432 6.122H120.89ZM126.04 10.126C125.536 10.126 125.139 9.99533 124.85 9.734C124.57 9.46333 124.43 9.09467 124.43 8.628C124.43 8.47867 124.444 8.32933 124.472 8.18L125.746 0.899999C125.839 0.349333 126.231 0.0739993 126.922 0.0739993L125.508 8.138C125.48 8.278 125.466 8.404 125.466 8.516C125.466 8.75867 125.531 8.936 125.662 9.048C125.802 9.16 126.021 9.216 126.32 9.216C126.637 9.216 126.955 9.132 127.272 8.964C127.319 9.02933 127.342 9.12267 127.342 9.244C127.342 9.496 127.216 9.706 126.964 9.874C126.721 10.042 126.413 10.126 126.04 10.126ZM130.333 10.126C129.829 10.126 129.432 9.99533 129.143 9.734C128.863 9.46333 128.723 9.09467 128.723 8.628C128.723 8.47867 128.737 8.32933 128.765 8.18L130.039 0.899999C130.132 0.349333 130.524 0.0739993 131.215 0.0739993L129.801 8.138C129.773 8.278 129.759 8.404 129.759 8.516C129.759 8.75867 129.824 8.936 129.955 9.048C130.095 9.16 130.314 9.216 130.613 9.216C130.93 9.216 131.248 9.132 131.565 8.964C131.612 9.02933 131.635 9.12267 131.635 9.244C131.635 9.496 131.509 9.706 131.257 9.874C131.014 10.042 130.706 10.126 130.333 10.126ZM140.621 3.784C140.108 3.784 139.65 3.94267 139.249 4.26C138.848 4.57733 138.605 4.96933 138.521 5.436L137.849 9.3C137.756 9.85067 137.364 10.126 136.673 10.126L137.793 3.798C137.905 3.182 138.288 2.874 138.941 2.874L138.801 3.742C138.717 3.826 138.591 3.95667 138.423 4.134L138.465 4.19C139.23 3.31267 140.052 2.874 140.929 2.874C141.2 2.874 141.41 2.93 141.559 3.042C141.718 3.154 141.797 3.30333 141.797 3.49C141.797 3.67667 141.732 3.84467 141.601 3.994C141.489 3.92867 141.344 3.87733 141.167 3.84C140.99 3.80267 140.808 3.784 140.621 3.784ZM144.165 1.684C143.96 1.684 143.787 1.61867 143.647 1.488C143.516 1.35733 143.451 1.19867 143.451 1.012C143.451 0.769333 143.549 0.554666 143.745 0.368C143.95 0.171999 144.184 0.0739993 144.445 0.0739993C144.65 0.0739993 144.818 0.134666 144.949 0.255999C145.08 0.377333 145.145 0.535999 145.145 0.731999C145.145 0.974666 145.042 1.194 144.837 1.39C144.641 1.586 144.417 1.684 144.165 1.684ZM143.283 3.714C143.386 3.154 143.778 2.874 144.459 2.874L143.325 9.3C143.232 9.85067 142.84 10.126 142.149 10.126L143.283 3.714ZM147.786 12.926C147.357 12.926 146.955 12.856 146.582 12.716C146.218 12.576 145.929 12.3847 145.714 12.142C145.499 11.9087 145.392 11.652 145.392 11.372C145.392 11.1107 145.471 10.9053 145.63 10.756C145.798 10.616 146.027 10.546 146.316 10.546C146.297 10.658 146.288 10.7467 146.288 10.812C146.288 11.1947 146.437 11.498 146.736 11.722C147.035 11.946 147.436 12.058 147.94 12.058C148.565 12.058 149.065 11.904 149.438 11.596C149.811 11.288 150.049 10.8353 150.152 10.238L150.306 9.314C150.465 9.18333 150.581 9.076 150.656 8.992L150.628 8.922C150.273 9.24867 149.872 9.51 149.424 9.706C148.985 9.89267 148.565 9.986 148.164 9.986C147.707 9.986 147.301 9.89733 146.946 9.72C146.591 9.54267 146.316 9.3 146.12 8.992C145.924 8.684 145.826 8.33867 145.826 7.956C145.826 7.88133 145.835 7.76 145.854 7.592L146.26 5.282C146.391 4.50733 146.727 3.91467 147.268 3.504C147.819 3.084 148.537 2.874 149.424 2.874C150.311 2.874 151.006 3.27533 151.51 4.078L151.552 4.022L151.342 3.672C151.426 3.14 151.804 2.874 152.476 2.874L151.188 10.168C151.029 11.0547 150.656 11.736 150.068 12.212C149.48 12.688 148.719 12.926 147.786 12.926ZM148.472 9.076C148.985 9.076 149.452 8.936 149.872 8.656C150.301 8.36667 150.549 8.026 150.614 7.634L151.02 5.24C151.029 5.19333 151.034 5.12333 151.034 5.03C151.034 4.67533 150.885 4.38133 150.586 4.148C150.287 3.90533 149.905 3.784 149.438 3.784C148.187 3.784 147.469 4.29267 147.282 5.31L146.89 7.564C146.871 7.648 146.862 7.76467 146.862 7.914C146.862 8.68867 147.399 9.076 148.472 9.076ZM154.881 0.998C154.993 0.381999 155.39 0.0739993 156.071 0.0739993L155.413 3.77C155.413 3.77 155.292 3.89133 155.049 4.134L155.091 4.204C155.464 3.79333 155.898 3.47133 156.393 3.238C156.888 2.99533 157.373 2.874 157.849 2.874C158.493 2.874 159.002 3.05133 159.375 3.406C159.758 3.75133 159.949 4.218 159.949 4.806C159.949 4.946 159.935 5.1 159.907 5.268L159.193 9.3C159.081 9.85067 158.689 10.126 158.017 10.126L158.857 5.338C158.885 5.17933 158.899 5.03933 158.899 4.918C158.899 4.162 158.432 3.784 157.499 3.784C157.144 3.784 156.79 3.86333 156.435 4.022C156.08 4.17133 155.782 4.37667 155.539 4.638C155.296 4.89 155.152 5.156 155.105 5.436L154.433 9.3C154.34 9.85067 153.948 10.126 153.257 10.126L154.881 0.998ZM163.6 10.126C163.106 10.126 162.718 9.99533 162.438 9.734C162.168 9.47267 162.032 9.10867 162.032 8.642C162.032 8.48333 162.046 8.32933 162.074 8.18L162.83 3.854H161.57C161.617 3.58333 161.715 3.37333 161.864 3.224C162.023 3.07467 162.219 3 162.452 3H162.984L163.236 1.6C163.339 1.04933 163.726 0.773999 164.398 0.773999L164.006 3H165.868C165.822 3.28 165.714 3.49467 165.546 3.644C165.388 3.784 165.178 3.854 164.916 3.854H163.866L163.11 8.138C163.082 8.28733 163.068 8.418 163.068 8.53C163.068 8.77267 163.134 8.95 163.264 9.062C163.395 9.16467 163.605 9.216 163.894 9.216C164.212 9.216 164.529 9.132 164.846 8.964C164.893 9.02 164.916 9.11333 164.916 9.244C164.916 9.496 164.79 9.706 164.538 9.874C164.286 10.042 163.974 10.126 163.6 10.126ZM168.861 10.126C168.385 10.126 167.956 10.0607 167.573 9.93C167.19 9.79 166.892 9.60333 166.677 9.37C166.462 9.12733 166.355 8.85667 166.355 8.558C166.355 7.98867 166.64 7.69 167.209 7.662C167.181 8.726 167.774 9.258 168.987 9.258C169.622 9.258 170.112 9.146 170.457 8.922C170.802 8.68867 170.975 8.36667 170.975 7.956C170.975 7.68533 170.844 7.47067 170.583 7.312C170.331 7.15333 169.869 6.99933 169.197 6.85C168.441 6.682 167.886 6.45333 167.531 6.164C167.186 5.86533 167.013 5.48733 167.013 5.03C167.013 4.386 167.274 3.868 167.797 3.476C168.32 3.07467 169.006 2.874 169.855 2.874C170.312 2.874 170.728 2.93933 171.101 3.07C171.474 3.19133 171.768 3.364 171.983 3.588C172.198 3.812 172.305 4.064 172.305 4.344C172.305 4.596 172.221 4.79667 172.053 4.946C171.894 5.086 171.666 5.16067 171.367 5.17C171.376 5.12333 171.381 5.06267 171.381 4.988C171.381 4.596 171.241 4.288 170.961 4.064C170.681 3.84 170.294 3.728 169.799 3.728C169.276 3.728 168.847 3.84467 168.511 4.078C168.184 4.302 168.021 4.596 168.021 4.96C168.021 5.20267 168.133 5.39867 168.357 5.548C168.59 5.69733 168.987 5.83267 169.547 5.954C170.378 6.13133 170.989 6.37867 171.381 6.696C171.782 7.004 171.983 7.40067 171.983 7.886C171.983 8.59533 171.708 9.146 171.157 9.538C170.606 9.93 169.841 10.126 168.861 10.126ZM180.912 3.784C180.399 3.784 179.941 3.94267 179.54 4.26C179.139 4.57733 178.896 4.96933 178.812 5.436L178.14 9.3C178.047 9.85067 177.655 10.126 176.964 10.126L178.084 3.798C178.196 3.182 178.579 2.874 179.232 2.874L179.092 3.742C179.008 3.826 178.882 3.95667 178.714 4.134L178.756 4.19C179.521 3.31267 180.343 2.874 181.22 2.874C181.491 2.874 181.701 2.93 181.85 3.042C182.009 3.154 182.088 3.30333 182.088 3.49C182.088 3.67667 182.023 3.84467 181.892 3.994C181.78 3.92867 181.635 3.87733 181.458 3.84C181.281 3.80267 181.099 3.784 180.912 3.784ZM184.602 10.126C183.856 10.126 183.254 9.93467 182.796 9.552C182.348 9.16933 182.124 8.67 182.124 8.054C182.124 7.90467 182.138 7.75533 182.166 7.606L182.544 5.45C182.628 4.946 182.824 4.498 183.132 4.106C183.45 3.714 183.846 3.41067 184.322 3.196C184.798 2.98133 185.316 2.874 185.876 2.874C186.595 2.874 187.178 3.07467 187.626 3.476C188.084 3.868 188.312 4.372 188.312 4.988C188.312 5.128 188.298 5.27733 188.27 5.436L188.116 6.36C188.088 6.48133 188.018 6.58867 187.906 6.682C187.794 6.77533 187.673 6.822 187.542 6.822H183.314L183.188 7.578C183.16 7.718 183.146 7.85333 183.146 7.984C183.146 8.39467 183.282 8.70733 183.552 8.922C183.832 9.13667 184.238 9.244 184.77 9.244C185.349 9.244 185.825 9.11333 186.198 8.852C186.581 8.58133 186.814 8.208 186.898 7.732C187.104 7.72267 187.276 7.774 187.416 7.886C187.556 7.98867 187.626 8.11933 187.626 8.278C187.626 8.586 187.482 8.88467 187.192 9.174C186.903 9.454 186.525 9.68267 186.058 9.86C185.592 10.0373 185.106 10.126 184.602 10.126ZM187.22 5.982L187.318 5.436C187.337 5.352 187.346 5.23067 187.346 5.072C187.346 4.652 187.206 4.33 186.926 4.106C186.646 3.87267 186.25 3.756 185.736 3.756C185.167 3.756 184.686 3.91 184.294 4.218C183.902 4.526 183.66 4.932 183.566 5.436L183.468 5.982H187.22ZM191.679 10.126C191.203 10.126 190.774 10.0607 190.391 9.93C190.009 9.79 189.71 9.60333 189.495 9.37C189.281 9.12733 189.173 8.85667 189.173 8.558C189.173 7.98867 189.458 7.69 190.027 7.662C189.999 8.726 190.592 9.258 191.805 9.258C192.44 9.258 192.93 9.146 193.275 8.922C193.621 8.68867 193.793 8.36667 193.793 7.956C193.793 7.68533 193.663 7.47067 193.401 7.312C193.149 7.15333 192.687 6.99933 192.015 6.85C191.259 6.682 190.704 6.45333 190.349 6.164C190.004 5.86533 189.831 5.48733 189.831 5.03C189.831 4.386 190.093 3.868 190.615 3.476C191.138 3.07467 191.824 2.874 192.673 2.874C193.131 2.874 193.546 2.93933 193.919 3.07C194.293 3.19133 194.587 3.364 194.801 3.588C195.016 3.812 195.123 4.064 195.123 4.344C195.123 4.596 195.039 4.79667 194.871 4.946C194.713 5.086 194.484 5.16067 194.185 5.17C194.195 5.12333 194.199 5.06267 194.199 4.988C194.199 4.596 194.059 4.288 193.779 4.064C193.499 3.84 193.112 3.728 192.617 3.728C192.095 3.728 191.665 3.84467 191.329 4.078C191.003 4.302 190.839 4.596 190.839 4.96C190.839 5.20267 190.951 5.39867 191.175 5.548C191.409 5.69733 191.805 5.83267 192.365 5.954C193.196 6.13133 193.807 6.37867 194.199 6.696C194.601 7.004 194.801 7.40067 194.801 7.886C194.801 8.59533 194.526 9.146 193.975 9.538C193.425 9.93 192.659 10.126 191.679 10.126ZM198.917 10.126C198.17 10.126 197.568 9.93467 197.111 9.552C196.663 9.16933 196.439 8.67 196.439 8.054C196.439 7.90467 196.453 7.75533 196.481 7.606L196.859 5.45C196.943 4.946 197.139 4.498 197.447 4.106C197.764 3.714 198.161 3.41067 198.637 3.196C199.113 2.98133 199.631 2.874 200.191 2.874C200.91 2.874 201.493 3.07467 201.941 3.476C202.398 3.868 202.627 4.372 202.627 4.988C202.627 5.128 202.613 5.27733 202.585 5.436L202.431 6.36C202.403 6.48133 202.333 6.58867 202.221 6.682C202.109 6.77533 201.988 6.822 201.857 6.822H197.629L197.503 7.578C197.475 7.718 197.461 7.85333 197.461 7.984C197.461 8.39467 197.596 8.70733 197.867 8.922C198.147 9.13667 198.553 9.244 199.085 9.244C199.664 9.244 200.14 9.11333 200.513 8.852C200.896 8.58133 201.129 8.208 201.213 7.732C201.418 7.72267 201.591 7.774 201.731 7.886C201.871 7.98867 201.941 8.11933 201.941 8.278C201.941 8.586 201.796 8.88467 201.507 9.174C201.218 9.454 200.84 9.68267 200.373 9.86C199.906 10.0373 199.421 10.126 198.917 10.126ZM201.535 5.982L201.633 5.436C201.652 5.352 201.661 5.23067 201.661 5.072C201.661 4.652 201.521 4.33 201.241 4.106C200.961 3.87267 200.564 3.756 200.051 3.756C199.482 3.756 199.001 3.91 198.609 4.218C198.217 4.526 197.974 4.932 197.881 5.436L197.783 5.982H201.535ZM207.422 3.784C206.908 3.784 206.451 3.94267 206.05 4.26C205.648 4.57733 205.406 4.96933 205.322 5.436L204.65 9.3C204.556 9.85067 204.164 10.126 203.474 10.126L204.594 3.798C204.706 3.182 205.088 2.874 205.742 2.874L205.602 3.742C205.518 3.826 205.392 3.95667 205.224 4.134L205.266 4.19C206.031 3.31267 206.852 2.874 207.73 2.874C208 2.874 208.21 2.93 208.36 3.042C208.518 3.154 208.598 3.30333 208.598 3.49C208.598 3.67667 208.532 3.84467 208.402 3.994C208.29 3.92867 208.145 3.87733 207.968 3.84C207.79 3.80267 207.608 3.784 207.422 3.784ZM211.54 10.126C211.428 10.126 211.33 10.098 211.246 10.042C211.171 9.986 211.12 9.90667 211.092 9.804L209.552 2.958C209.72 2.902 209.86 2.874 209.972 2.874C210.158 2.874 210.308 2.92067 210.42 3.014C210.541 3.098 210.616 3.21933 210.644 3.378L211.694 8.628L211.414 9.16L211.484 9.188L214.718 3.378C214.904 3.042 215.184 2.874 215.558 2.874C215.642 2.874 215.73 2.88333 215.824 2.902C215.926 2.92067 215.996 2.93933 216.034 2.958L212.086 9.804C212.039 9.888 211.96 9.96267 211.848 10.028C211.745 10.0933 211.642 10.126 211.54 10.126ZM218.29 10.126C217.543 10.126 216.941 9.93467 216.484 9.552C216.036 9.16933 215.812 8.67 215.812 8.054C215.812 7.90467 215.826 7.75533 215.854 7.606L216.232 5.45C216.316 4.946 216.512 4.498 216.82 4.106C217.137 3.714 217.534 3.41067 218.01 3.196C218.486 2.98133 219.004 2.874 219.564 2.874C220.283 2.874 220.866 3.07467 221.314 3.476C221.771 3.868 222 4.372 222 4.988C222 5.128 221.986 5.27733 221.958 5.436L221.804 6.36C221.776 6.48133 221.706 6.58867 221.594 6.682C221.482 6.77533 221.361 6.822 221.23 6.822H217.002L216.876 7.578C216.848 7.718 216.834 7.85333 216.834 7.984C216.834 8.39467 216.969 8.70733 217.24 8.922C217.52 9.13667 217.926 9.244 218.458 9.244C219.037 9.244 219.513 9.11333 219.886 8.852C220.269 8.58133 220.502 8.208 220.586 7.732C220.791 7.72267 220.964 7.774 221.104 7.886C221.244 7.98867 221.314 8.11933 221.314 8.278C221.314 8.586 221.169 8.88467 220.88 9.174C220.591 9.454 220.213 9.68267 219.746 9.86C219.279 10.0373 218.794 10.126 218.29 10.126ZM220.908 5.982L221.006 5.436C221.025 5.352 221.034 5.23067 221.034 5.072C221.034 4.652 220.894 4.33 220.614 4.106C220.334 3.87267 219.937 3.756 219.424 3.756C218.855 3.756 218.374 3.91 217.982 4.218C217.59 4.526 217.347 4.932 217.254 5.436L217.156 5.982H220.908ZM225.409 10.126C224.709 10.126 224.144 9.94867 223.715 9.594C223.295 9.23 223.085 8.74933 223.085 8.152C223.085 8.012 223.099 7.86733 223.127 7.718L223.561 5.268C223.691 4.53067 224.041 3.94733 224.611 3.518C225.189 3.08867 225.894 2.874 226.725 2.874C227.593 2.874 228.283 3.22867 228.797 3.938L228.853 3.868C228.759 3.73733 228.68 3.63 228.615 3.546L229.077 0.942C229.179 0.363333 229.576 0.0739993 230.267 0.0739993L228.657 9.202C228.535 9.818 228.148 10.126 227.495 10.126L227.635 9.328C227.635 9.328 227.751 9.21133 227.985 8.978L227.943 8.922C227.159 9.72467 226.314 10.126 225.409 10.126ZM225.759 9.216C226.281 9.216 226.748 9.076 227.159 8.796C227.579 8.50667 227.821 8.16133 227.887 7.76L228.321 5.226C228.339 5.114 228.349 5.03467 228.349 4.988C228.349 4.63333 228.199 4.344 227.901 4.12C227.611 3.896 227.21 3.784 226.697 3.784C226.099 3.784 225.619 3.91933 225.255 4.19C224.891 4.45133 224.667 4.82 224.583 5.296L224.163 7.69C224.144 7.774 224.135 7.89067 224.135 8.04C224.135 8.42267 224.27 8.71667 224.541 8.922C224.821 9.118 225.227 9.216 225.759 9.216ZM231.062 10.126C230.847 10.126 230.67 10.0607 230.53 9.93C230.399 9.79933 230.334 9.63133 230.334 9.426C230.334 9.15533 230.437 8.91733 230.642 8.712C230.847 8.50667 231.085 8.404 231.356 8.404C231.561 8.404 231.734 8.474 231.874 8.614C232.023 8.754 232.098 8.92667 232.098 9.132C232.098 9.39333 231.991 9.62667 231.776 9.832C231.571 10.028 231.333 10.126 231.062 10.126Z" fill="black"/>
</svg>
