<svg width="156" height="52" viewBox="0 0 156 52" fill="none" xmlns="http://www.w3.org/2000/svg">
<path d="M70.7878 34.0069C69.2305 34.0069 67.84 33.7149 66.6164 33.1309C65.3928 32.5469 64.4334 31.7544 63.7382 30.7533C63.0429 29.7243 62.6953 28.5842 62.6953 27.3327C62.6953 26.8322 62.7231 26.4568 62.7787 26.2065L63.7799 20.6586C64.058 19.0456 64.6976 17.6135 65.6987 16.362C66.7276 15.1106 68.0069 14.1373 69.5364 13.4421C71.0937 12.7469 72.79 12.3993 74.6254 12.3993C76.1549 12.3993 77.5037 12.6773 78.6716 13.2335C79.8396 13.7897 80.7434 14.5684 81.383 15.5695C82.0226 16.5706 82.3424 17.7108 82.3424 18.99C82.3424 19.435 82.3007 19.9077 82.2173 20.4083L81.8002 22.7442C81.6611 23.3838 81.3274 23.9122 80.799 24.3294C80.2985 24.7187 79.7006 24.9133 79.0054 24.9133H68.0764L67.9095 25.831C67.8539 26.2204 67.8261 26.4985 67.8261 26.6653C67.8261 27.6943 68.1459 28.4868 68.7855 29.043C69.4251 29.5992 70.3428 29.8773 71.5386 29.8773C72.8456 29.8773 73.9163 29.5853 74.7506 29.0013C75.5848 28.4173 76.0854 27.6108 76.2523 26.5819C76.5025 26.5541 76.8362 26.5402 77.2534 26.5402C78.1989 26.5402 78.9219 26.7209 79.4225 27.0825C79.9509 27.4162 80.215 27.9167 80.215 28.5842C80.215 29.5297 79.784 30.4196 78.9219 31.2538C78.0598 32.0881 76.9058 32.7555 75.4597 33.2561C74.0136 33.7566 72.4563 34.0069 70.7878 34.0069ZM77.3368 21.2008L77.5037 20.4083C77.5593 20.1858 77.5871 19.866 77.5871 19.4489C77.5871 18.5034 77.2673 17.7803 76.6277 17.2797C75.9881 16.7514 75.0704 16.4872 73.8746 16.4872C72.5954 16.4872 71.4969 16.8487 70.5792 17.5717C69.6615 18.267 69.0914 19.2125 68.8689 20.4083L68.7021 21.2008H77.3368Z" fill="white"/>
<path d="M90.1263 34.0069C88.1518 34.0069 86.5389 33.4925 85.2875 32.4635C84.0639 31.4068 83.4521 30.0441 83.4521 28.3756C83.4521 26.7627 83.8692 25.3166 84.7035 24.0374C85.5378 22.7581 86.7058 21.757 88.2074 21.034C89.7091 20.3109 91.4055 19.9494 93.2965 19.9494C94.5201 19.9494 95.6047 20.1441 96.5502 20.5334C97.4957 20.9227 98.3578 21.5345 99.1364 22.3688L99.345 22.1602C99.2616 22.049 98.9001 21.6736 98.2604 21.034L98.3856 20.1997C98.4134 20.0329 98.4273 19.7826 98.4273 19.4489C98.4273 18.4755 98.0936 17.7386 97.4262 17.238C96.7587 16.7375 95.7854 16.4872 94.5062 16.4872C93.227 16.4872 92.0451 16.7375 90.9606 17.238C89.9038 17.7108 89.0139 18.406 88.2909 19.3237C87.7625 19.1847 87.3315 18.9205 86.9978 18.5312C86.664 18.1418 86.4972 17.7247 86.4972 17.2797C86.4972 16.3899 86.9004 15.5695 87.7069 14.8186C88.5412 14.0678 89.6535 13.4838 91.044 13.0667C92.4622 12.6217 94.0056 12.3993 95.6742 12.3993C98.177 12.3993 100.138 12.9554 101.556 14.0678C102.974 15.1802 103.683 16.6958 103.683 18.6146C103.683 19.0873 103.642 19.574 103.558 20.0746L101.723 30.503C101.5 31.7266 100.958 32.6165 100.096 33.1727C99.2338 33.7288 97.9545 34.0069 96.2582 34.0069L96.5502 32.2967C97.0786 31.8795 97.4818 31.5319 97.7599 31.2538L97.593 31.0453C96.4529 32.0742 95.2849 32.825 94.0891 33.2978C92.9211 33.7705 91.6002 34.0069 90.1263 34.0069ZM92.1702 30.211C93.7276 30.211 94.979 29.8773 95.9245 29.2099C96.87 28.5146 97.3427 27.5969 97.3427 26.4568C97.3427 25.5947 96.9812 24.9273 96.2582 24.4545C95.563 23.9817 94.5896 23.7454 93.3382 23.7454C91.92 23.7454 90.7659 24.1069 89.876 24.8299C89.0139 25.553 88.5829 26.4985 88.5829 27.6664C88.5829 29.3628 89.7787 30.211 92.1702 30.211Z" fill="white"/>
<path d="M113.824 34.0069C112.044 34.0069 110.667 33.5481 109.694 32.6304C108.748 31.6849 108.276 30.3778 108.276 28.7093C108.276 28.4034 108.331 27.8333 108.442 26.999L110.236 16.654H105.981C106.176 15.4304 106.565 14.4849 107.149 13.8175C107.761 13.1223 108.512 12.7747 109.402 12.7747H111.029L111.613 9.31244C111.807 8.20008 112.35 7.39361 113.24 6.89305C114.157 6.39248 115.492 6.1422 117.244 6.1422L116.076 12.7747H121.624C121.402 14.1373 120.957 15.1245 120.289 15.7363C119.65 16.3481 118.746 16.654 117.578 16.654H115.45L113.657 26.7905C113.601 27.291 113.573 27.6108 113.573 27.7499C113.573 28.3617 113.74 28.8066 114.074 29.0847C114.408 29.3628 114.95 29.5019 115.701 29.5019C116.646 29.5019 117.689 29.2377 118.829 28.7093C118.996 28.8761 119.121 29.0986 119.205 29.3767C119.316 29.6548 119.371 29.9468 119.371 30.2527C119.371 31.3094 118.829 32.1993 117.745 32.9224C116.688 33.6454 115.381 34.0069 113.824 34.0069Z" fill="white"/>
<path d="M130.35 10.4387C129.488 10.4387 128.779 10.2023 128.223 9.72958C127.667 9.22901 127.389 8.5894 127.389 7.81075C127.389 6.78181 127.792 5.90583 128.598 5.18279C129.405 4.43194 130.364 4.05652 131.477 4.05652C132.339 4.05652 133.034 4.2929 133.562 4.76565C134.118 5.23841 134.397 5.86411 134.397 6.64277C134.397 7.6717 133.993 8.56159 133.187 9.31244C132.38 10.0633 131.435 10.4387 130.35 10.4387ZM126.805 15.5695C126.999 14.4849 127.555 13.6924 128.473 13.1918C129.419 12.6634 130.781 12.3993 132.561 12.3993L129.307 30.8367C129.113 31.9491 128.557 32.7555 127.639 33.2561C126.721 33.7566 125.359 34.0069 123.551 34.0069L126.805 15.5695Z" fill="white"/>
<path d="M143.664 34.0069C142.107 34.0069 140.717 33.7149 139.493 33.1309C138.269 32.5469 137.31 31.7544 136.615 30.7533C135.92 29.7243 135.572 28.5842 135.572 27.3327C135.572 26.8322 135.6 26.4568 135.655 26.2065L136.657 20.6586C136.935 19.0456 137.574 17.6135 138.575 16.362C139.604 15.1106 140.884 14.1373 142.413 13.4421C143.97 12.7469 145.667 12.3993 147.502 12.3993C149.032 12.3993 150.38 12.6773 151.548 13.2335C152.716 13.7897 153.62 14.5684 154.26 15.5695C154.899 16.5706 155.219 17.7108 155.219 18.99C155.219 19.435 155.177 19.9077 155.094 20.4083L154.677 22.7442C154.538 23.3838 154.204 23.9122 153.676 24.3294C153.175 24.7187 152.577 24.9133 151.882 24.9133H140.953L140.786 25.831C140.731 26.2204 140.703 26.4985 140.703 26.6653C140.703 27.6943 141.023 28.4868 141.662 29.043C142.302 29.5992 143.22 29.8773 144.415 29.8773C145.722 29.8773 146.793 29.5853 147.627 29.0013C148.462 28.4173 148.962 27.6108 149.129 26.5819C149.379 26.5541 149.713 26.5402 150.13 26.5402C151.076 26.5402 151.799 26.7209 152.299 27.0825C152.828 27.4162 153.092 27.9167 153.092 28.5842C153.092 29.5297 152.661 30.4196 151.799 31.2538C150.937 32.0881 149.782 32.7555 148.336 33.2561C146.89 33.7566 145.333 34.0069 143.664 34.0069ZM150.213 21.2008L150.38 20.4083C150.436 20.1858 150.464 19.866 150.464 19.4489C150.464 18.5034 150.144 17.7803 149.504 17.2797C148.865 16.7514 147.947 16.4872 146.751 16.4872C145.472 16.4872 144.374 16.8487 143.456 17.5717C142.538 18.267 141.968 19.2125 141.746 20.4083L141.579 21.2008H150.213Z" fill="white"/>
<path d="M72.7169 49.3929C72.2302 49.3929 71.7957 49.3017 71.4133 49.1192C71.0309 48.9367 70.7311 48.689 70.5139 48.3762C70.2966 48.0546 70.188 47.6983 70.188 47.3073C70.188 47.1508 70.1967 47.0335 70.214 46.9553L70.5269 45.2216C70.6138 44.7175 70.8137 44.27 71.1265 43.8789C71.4481 43.4878 71.8478 43.1837 72.3258 42.9664C72.8125 42.7492 73.3426 42.6405 73.9161 42.6405C74.3941 42.6405 74.8156 42.7274 75.1806 42.9012C75.5456 43.0751 75.828 43.3184 76.0279 43.6312C76.2278 43.9441 76.3277 44.3004 76.3277 44.7001C76.3277 44.8392 76.3147 44.9869 76.2886 45.1434L76.1582 45.8733C76.1148 46.0732 76.0105 46.2383 75.8454 46.3687C75.689 46.4904 75.5021 46.5512 75.2849 46.5512H71.8696L71.8174 46.838C71.8 46.9596 71.7913 47.0465 71.7913 47.0987C71.7913 47.4202 71.8913 47.6679 72.0912 47.8417C72.291 48.0155 72.5778 48.1024 72.9515 48.1024C73.36 48.1024 73.6945 48.0112 73.9552 47.8287C74.216 47.6462 74.3724 47.3942 74.4245 47.0726C74.5027 47.0639 74.607 47.0596 74.7374 47.0596C75.0328 47.0596 75.2588 47.1161 75.4152 47.229C75.5803 47.3333 75.6629 47.4897 75.6629 47.6983C75.6629 47.9938 75.5282 48.2719 75.2588 48.5326C74.9894 48.7933 74.6287 49.0019 74.1768 49.1583C73.7249 49.3147 73.2383 49.3929 72.7169 49.3929ZM74.7634 45.391L74.8156 45.1434C74.833 45.0738 74.8417 44.9739 74.8417 44.8435C74.8417 44.5481 74.7417 44.3221 74.5418 44.1657C74.342 44.0006 74.0552 43.918 73.6815 43.918C73.2817 43.918 72.9385 44.031 72.6517 44.2569C72.3649 44.4742 72.1868 44.7697 72.1172 45.1434L72.0651 45.391H74.7634Z" fill="white"/>
<path d="M78.7602 49.3929C78.1431 49.3929 77.6391 49.2322 77.248 48.9106C76.8657 48.5804 76.6745 48.1546 76.6745 47.6331C76.6745 47.1291 76.8048 46.6772 77.0655 46.2774C77.3262 45.8777 77.6912 45.5648 78.1605 45.3389C78.6298 45.1129 79.1599 45 79.7509 45C80.1332 45 80.4722 45.0608 80.7676 45.1825C81.0631 45.3041 81.3325 45.4953 81.5758 45.756L81.641 45.6908C81.6149 45.6561 81.502 45.5388 81.3021 45.3389L81.3412 45.0782C81.3499 45.026 81.3542 44.9478 81.3542 44.8435C81.3542 44.5394 81.2499 44.3091 81.0414 44.1527C80.8328 43.9962 80.5286 43.918 80.1289 43.918C79.7291 43.918 79.3598 43.9962 79.0209 44.1527C78.6906 44.3004 78.4125 44.5176 78.1866 44.8044C78.0215 44.761 77.8868 44.6784 77.7825 44.5568C77.6782 44.4351 77.6261 44.3047 77.6261 44.1657C77.6261 43.8876 77.7521 43.6312 78.0041 43.3966C78.2648 43.162 78.6124 42.9795 79.0469 42.8491C79.4901 42.7101 79.9725 42.6405 80.4939 42.6405C81.276 42.6405 81.8887 42.8143 82.3319 43.162C82.7751 43.5096 82.9967 43.9832 82.9967 44.5828C82.9967 44.7306 82.9837 44.8826 82.9576 45.0391L82.384 48.298C82.3145 48.6803 82.145 48.9584 81.8756 49.1322C81.6062 49.306 81.2065 49.3929 80.6764 49.3929L80.7676 48.8585C80.9327 48.7281 81.0588 48.6195 81.1457 48.5326L81.0935 48.4674C80.7372 48.789 80.3722 49.0236 79.9985 49.1713C79.6335 49.3191 79.2207 49.3929 78.7602 49.3929ZM79.3989 48.2067C79.8856 48.2067 80.2766 48.1024 80.5721 47.8938C80.8676 47.6766 81.0153 47.3898 81.0153 47.0335C81.0153 46.7641 80.9023 46.5555 80.6764 46.4078C80.4591 46.2601 80.155 46.1862 79.7639 46.1862C79.3207 46.1862 78.96 46.2992 78.6819 46.5251C78.4125 46.7511 78.2778 47.0465 78.2778 47.4115C78.2778 47.9417 78.6515 48.2067 79.3989 48.2067Z" fill="white"/>
<path d="M86.1656 49.3929C85.6094 49.3929 85.1792 49.2495 84.875 48.9628C84.5796 48.6673 84.4318 48.2588 84.4318 47.7374C84.4318 47.6418 84.4492 47.4637 84.484 47.203L85.0445 43.9702H83.7149C83.7757 43.5878 83.8974 43.2923 84.0799 43.0837C84.2711 42.8665 84.5057 42.7579 84.7838 42.7579H85.2922L85.4747 41.6759C85.5355 41.3283 85.705 41.0763 85.9831 40.9198C86.2698 40.7634 86.687 40.6852 87.2345 40.6852L86.8695 42.7579H88.6032C88.5337 43.1837 88.3946 43.4922 88.1861 43.6834C87.9862 43.8746 87.7037 43.9702 87.3387 43.9702H86.6739L86.1134 47.1378C86.096 47.2942 86.0873 47.3942 86.0873 47.4376C86.0873 47.6288 86.1395 47.7678 86.2438 47.8547C86.348 47.9416 86.5175 47.9851 86.7521 47.9851C87.0476 47.9851 87.3735 47.9025 87.7298 47.7374C87.782 47.7896 87.8211 47.8591 87.8471 47.946C87.8819 48.0329 87.8993 48.1241 87.8993 48.2197C87.8993 48.55 87.7298 48.8281 87.3909 49.054C87.0607 49.28 86.6522 49.3929 86.1656 49.3929Z" fill="white"/>
<path d="M93.2961 43.7616C93.3569 43.414 93.5394 43.1402 93.8436 42.9404C94.1477 42.7405 94.5301 42.6405 94.9907 42.6405L94.8603 43.3445C94.7387 43.4574 94.6344 43.5747 94.5475 43.6964L94.5996 43.7486C94.9559 43.3662 95.3209 43.0881 95.6946 42.9143C96.077 42.7318 96.4985 42.6405 96.9591 42.6405C97.5848 42.6405 98.0845 42.8143 98.4581 43.162C98.8405 43.5096 99.0317 43.9658 99.0317 44.5307C99.0317 44.6784 99.0187 44.8305 98.9926 44.9869L98.6276 47.0465C98.5059 47.7852 98.1714 48.3631 97.6239 48.7803C97.0851 49.1887 96.3985 49.3929 95.5643 49.3929C95.234 49.3929 94.9081 49.3234 94.5866 49.1844C94.2737 49.0453 94.0261 48.8628 93.8436 48.6369L93.7784 48.702C93.8305 48.7976 93.9088 48.8889 94.013 48.9758L93.6741 50.9051C93.6133 51.2614 93.4264 51.5308 93.1136 51.7133C92.8094 51.9044 92.3836 52 91.8361 52L93.2961 43.7616ZM95.4991 47.9851C95.9249 47.9851 96.2725 47.8938 96.5419 47.7113C96.8113 47.5289 96.9764 47.2725 97.0373 46.9423L97.3632 45.0912C97.3719 45.0391 97.3762 44.9695 97.3762 44.8826C97.3762 44.6132 97.2763 44.409 97.0764 44.27C96.8765 44.1222 96.5854 44.0484 96.203 44.0484C95.8206 44.0484 95.4817 44.144 95.1862 44.3352C94.8994 44.5177 94.7343 44.7479 94.6909 45.026L94.3389 47.0074C94.3302 47.0422 94.3259 47.09 94.3259 47.1508C94.3259 47.3942 94.4345 47.594 94.6518 47.7505C94.869 47.9069 95.1515 47.9851 95.4991 47.9851Z" fill="white"/>
<path d="M101.648 49.3929C101.083 49.3929 100.636 49.2322 100.305 48.9106C99.9752 48.5891 99.8101 48.1676 99.8101 47.6462C99.8101 47.5071 99.8231 47.3594 99.8492 47.203L100.944 41.0241C101.005 40.6765 101.179 40.4245 101.466 40.2681C101.752 40.1116 102.178 40.0334 102.743 40.0334L101.492 47.1378C101.474 47.2073 101.466 47.3029 101.466 47.4246C101.466 47.6158 101.522 47.7592 101.635 47.8547C101.748 47.9416 101.926 47.9851 102.169 47.9851C102.482 47.9851 102.813 47.9025 103.16 47.7374C103.282 47.8591 103.343 48.0242 103.343 48.2328C103.343 48.5543 103.178 48.8281 102.847 49.054C102.526 49.28 102.126 49.3929 101.648 49.3929Z" fill="white"/>
<path d="M106.104 49.3929C105.487 49.3929 104.983 49.2322 104.592 48.9106C104.21 48.5804 104.019 48.1546 104.019 47.6331C104.019 47.1291 104.149 46.6772 104.41 46.2774C104.67 45.8777 105.035 45.5648 105.505 45.3389C105.974 45.1129 106.504 45 107.095 45C107.477 45 107.816 45.0608 108.112 45.1825C108.407 45.3041 108.677 45.4953 108.92 45.756L108.985 45.6908C108.959 45.6561 108.846 45.5388 108.646 45.3389L108.685 45.0782C108.694 45.026 108.698 44.9478 108.698 44.8435C108.698 44.5394 108.594 44.3091 108.385 44.1527C108.177 43.9962 107.873 43.918 107.473 43.918C107.073 43.918 106.704 43.9962 106.365 44.1527C106.035 44.3004 105.757 44.5176 105.531 44.8044C105.366 44.761 105.231 44.6784 105.127 44.5568C105.022 44.4351 104.97 44.3047 104.97 44.1657C104.97 43.8876 105.096 43.6312 105.348 43.3966C105.609 43.162 105.956 42.9795 106.391 42.8491C106.834 42.7101 107.316 42.6405 107.838 42.6405C108.62 42.6405 109.233 42.8143 109.676 43.162C110.119 43.5096 110.341 43.9832 110.341 44.5828C110.341 44.7306 110.328 44.8826 110.302 45.0391L109.728 48.298C109.659 48.6803 109.489 48.9584 109.22 49.1322C108.95 49.306 108.551 49.3929 108.02 49.3929L108.112 48.8585C108.277 48.7281 108.403 48.6195 108.49 48.5326L108.438 48.4674C108.081 48.789 107.716 49.0236 107.343 49.1713C106.978 49.3191 106.565 49.3929 106.104 49.3929ZM106.743 48.2067C107.23 48.2067 107.621 48.1024 107.916 47.8938C108.212 47.6766 108.359 47.3898 108.359 47.0335C108.359 46.7641 108.246 46.5555 108.02 46.4078C107.803 46.2601 107.499 46.1862 107.108 46.1862C106.665 46.1862 106.304 46.2992 106.026 46.5251C105.757 46.7511 105.622 47.0465 105.622 47.4115C105.622 47.9417 105.996 48.2067 106.743 48.2067Z" fill="white"/>
<path d="M110.739 52C110.444 52 110.218 51.9131 110.062 51.7393C109.914 51.5742 109.84 51.3352 109.84 51.0224C109.84 50.9094 109.853 50.779 109.879 50.6313C110.096 50.6748 110.314 50.6965 110.531 50.6965C110.861 50.6965 111.139 50.6052 111.365 50.4227C111.591 50.2489 111.865 49.9057 112.186 49.3929L112.486 48.9106L111.039 42.7709C111.1 42.7361 111.2 42.7057 111.339 42.6796C111.478 42.6536 111.608 42.6405 111.73 42.6405C111.991 42.6405 112.212 42.697 112.395 42.81C112.577 42.923 112.686 43.0707 112.721 43.2532L113.477 46.9162L113.164 47.5289L113.255 47.568L115.719 43.2532C115.823 43.062 115.984 42.9143 116.201 42.81C116.419 42.697 116.658 42.6405 116.918 42.6405C117.049 42.6405 117.188 42.6536 117.335 42.6796C117.492 42.7057 117.592 42.7361 117.635 42.7709L113.477 49.8622C113.034 50.6183 112.599 51.1614 112.173 51.4917C111.748 51.8306 111.27 52 110.739 52Z" fill="white"/>
<path d="M123.93 49.3929C123.443 49.3929 123.008 49.3017 122.626 49.1192C122.244 48.9367 121.944 48.689 121.727 48.3762C121.509 48.0546 121.401 47.6983 121.401 47.3073C121.401 47.1508 121.409 47.0335 121.427 46.9553L121.74 45.2216C121.827 44.7175 122.026 44.27 122.339 43.8789C122.661 43.4878 123.061 43.1837 123.539 42.9664C124.025 42.7492 124.555 42.6405 125.129 42.6405C125.607 42.6405 126.028 42.7274 126.393 42.9012C126.758 43.0751 127.041 43.3184 127.241 43.6312C127.441 43.9441 127.54 44.3004 127.54 44.7001C127.54 44.8392 127.527 44.9869 127.501 45.1434L127.371 45.8733C127.328 46.0732 127.223 46.2383 127.058 46.3687C126.902 46.4904 126.715 46.5512 126.498 46.5512H123.082L123.03 46.838C123.013 46.9596 123.004 47.0465 123.004 47.0987C123.004 47.4202 123.104 47.6679 123.304 47.8417C123.504 48.0155 123.791 48.1024 124.164 48.1024C124.573 48.1024 124.907 48.0112 125.168 47.8287C125.429 47.6462 125.585 47.3942 125.637 47.0726C125.716 47.0639 125.82 47.0596 125.95 47.0596C126.246 47.0596 126.472 47.1161 126.628 47.229C126.793 47.3333 126.876 47.4897 126.876 47.6983C126.876 47.9938 126.741 48.2719 126.472 48.5326C126.202 48.7933 125.842 49.0019 125.39 49.1583C124.938 49.3147 124.451 49.3929 123.93 49.3929ZM125.976 45.391L126.028 45.1434C126.046 45.0738 126.054 44.9739 126.054 44.8435C126.054 44.5481 125.954 44.3221 125.755 44.1657C125.555 44.0006 125.268 43.918 124.894 43.918C124.495 43.918 124.151 44.031 123.864 44.2569C123.578 44.4742 123.4 44.7697 123.33 45.1434L123.278 45.391H125.976Z" fill="white"/>
<path d="M129.973 49.3929C129.356 49.3929 128.852 49.2322 128.461 48.9106C128.078 48.5804 127.887 48.1546 127.887 47.6331C127.887 47.1291 128.018 46.6772 128.278 46.2774C128.539 45.8777 128.904 45.5648 129.373 45.3389C129.843 45.1129 130.373 45 130.964 45C131.346 45 131.685 45.0608 131.98 45.1825C132.276 45.3041 132.545 45.4953 132.789 45.756L132.854 45.6908C132.828 45.6561 132.715 45.5388 132.515 45.3389L132.554 45.0782C132.563 45.026 132.567 44.9478 132.567 44.8435C132.567 44.5394 132.463 44.3091 132.254 44.1527C132.046 43.9962 131.741 43.918 131.342 43.918C130.942 43.918 130.573 43.9962 130.234 44.1527C129.903 44.3004 129.625 44.5176 129.399 44.8044C129.234 44.761 129.1 44.6784 128.995 44.5568C128.891 44.4351 128.839 44.3047 128.839 44.1657C128.839 43.8876 128.965 43.6312 129.217 43.3966C129.478 43.162 129.825 42.9795 130.26 42.8491C130.703 42.7101 131.185 42.6405 131.707 42.6405C132.489 42.6405 133.101 42.8143 133.545 43.162C133.988 43.5096 134.209 43.9832 134.209 44.5828C134.209 44.7306 134.196 44.8826 134.17 45.0391L133.597 48.298C133.527 48.6803 133.358 48.9584 133.088 49.1322C132.819 49.306 132.419 49.3929 131.889 49.3929L131.98 48.8585C132.146 48.7281 132.272 48.6195 132.358 48.5326L132.306 48.4674C131.95 48.789 131.585 49.0236 131.211 49.1713C130.846 49.3191 130.434 49.3929 129.973 49.3929ZM130.612 48.2067C131.098 48.2067 131.489 48.1024 131.785 47.8938C132.08 47.6766 132.228 47.3898 132.228 47.0335C132.228 46.7641 132.115 46.5555 131.889 46.4078C131.672 46.2601 131.368 46.1862 130.977 46.1862C130.533 46.1862 130.173 46.2992 129.895 46.5251C129.625 46.7511 129.491 47.0465 129.491 47.4115C129.491 47.9417 129.864 48.2067 130.612 48.2067Z" fill="white"/>
<path d="M139.176 44.0484C138.663 44.0484 138.22 44.1831 137.847 44.4525C137.473 44.7219 137.251 45.0651 137.182 45.4823L136.673 48.4022C136.604 48.7499 136.426 49.0019 136.139 49.1583C135.861 49.3147 135.439 49.3929 134.874 49.3929L135.839 43.8919C135.909 43.4835 136.091 43.175 136.387 42.9664C136.691 42.7492 137.099 42.6405 137.612 42.6405L137.482 43.4096C137.256 43.653 137.125 43.7964 137.091 43.8398L137.156 43.8919C137.877 43.0577 138.637 42.6405 139.437 42.6405C139.741 42.6405 139.976 42.7144 140.141 42.8621C140.315 43.0012 140.402 43.1967 140.402 43.4487C140.402 43.5878 140.375 43.7268 140.323 43.8659C140.271 44.0049 140.202 44.1309 140.115 44.2439C139.906 44.1135 139.593 44.0484 139.176 44.0484Z" fill="white"/>
<path d="M141.466 43.8919C141.535 43.4835 141.718 43.175 142.013 42.9664C142.317 42.7492 142.726 42.6405 143.239 42.6405L143.108 43.4227C142.908 43.6225 142.778 43.7616 142.717 43.8398L142.795 43.8919C143.126 43.4922 143.517 43.1837 143.969 42.9664C144.421 42.7492 144.885 42.6405 145.363 42.6405C145.92 42.6405 146.371 42.8187 146.719 43.175C147.067 43.5226 147.241 43.9702 147.241 44.5176C147.241 44.648 147.227 44.7871 147.201 44.9348L146.589 48.4022C146.528 48.7412 146.35 48.9932 146.054 49.1583C145.768 49.3147 145.346 49.3929 144.79 49.3929L145.533 45.1694C145.55 45.0304 145.559 44.9348 145.559 44.8826C145.559 44.3265 145.233 44.0484 144.581 44.0484C144.147 44.0484 143.76 44.1874 143.421 44.4655C143.082 44.7349 142.878 45.0738 142.808 45.4823L142.3 48.4022C142.231 48.7499 142.052 49.0019 141.766 49.1583C141.488 49.3147 141.066 49.3929 140.501 49.3929L141.466 43.8919Z" fill="white"/>
<path fill-rule="evenodd" clip-rule="evenodd" d="M20.9415 0.00298989C21.936 0.0598208 22.6962 0.912127 22.6393 1.90667C22.5628 3.24679 22.7312 5.10182 23.2626 6.4394C23.527 7.10483 23.817 7.47875 24.0511 7.65468C24.154 7.73199 24.2748 7.79754 24.4596 7.81079C28.1066 4.57863 31.9683 3.2847 35.6727 3.62415C39.4856 3.97355 42.852 6.02753 45.4196 8.89839C50.5029 14.582 52.9 23.9753 49.4528 31.8982C49.0553 32.8116 47.9926 33.2299 47.0792 32.8325C46.1657 32.4351 45.7474 31.3724 46.1449 30.4589C48.9503 24.0111 47.015 16.0936 42.7307 11.3033C40.6145 8.93719 38.0383 7.46347 35.3435 7.21653C32.6913 6.9735 29.6445 7.89248 26.4773 10.8519C26.2418 11.0719 25.9517 11.2248 25.6371 11.2947C24.2156 11.6106 22.9228 11.3191 21.8842 10.5388C20.9173 9.81233 20.3052 8.76582 19.9101 7.7714C19.1226 5.78929 18.9426 3.36694 19.0378 1.70087C19.0946 0.706324 19.9469 -0.0538411 20.9415 0.00298989ZM12.2844 37.8418C14.1015 37.8476 15.9072 38.6415 17.4758 40.2101C17.5199 40.2542 17.5617 40.3006 17.6011 40.3491C20.4682 43.883 23.2174 45.6979 25.6511 46.5338C28.0795 47.3678 30.3288 47.2736 32.2805 46.7669C34.2504 46.2555 35.9132 45.3231 37.0966 44.5C37.6841 44.0914 38.1419 43.7178 38.4474 43.4517C38.5998 43.3189 38.7135 43.2136 38.7855 43.1452L38.8172 43.1148C38.8369 43.0959 38.8517 43.0813 38.8616 43.0715L38.8727 43.0605L40.164 44.3199C38.8727 43.0605 38.8734 43.0599 38.874 43.0593L38.875 43.0582L38.8755 43.0577L38.8758 43.0573C39.5717 42.3474 40.7113 42.3341 41.4234 43.0286C42.1365 43.7241 42.1508 44.8661 41.4553 45.5793L40.2259 44.3803C41.4552 45.5793 41.4545 45.58 41.4537 45.5808L41.4519 45.5827L41.4475 45.5872L41.4353 45.5995L41.3978 45.637C41.367 45.6674 41.3246 45.7087 41.271 45.7597C41.1638 45.8616 41.0115 46.0022 40.8169 46.1718C40.4282 46.5103 39.8672 46.9672 39.1564 47.4616C37.7432 48.4445 35.6909 49.6086 33.187 50.2586C30.6651 50.9133 27.6821 51.0456 24.4793 49.9456C21.3031 48.8547 18.0446 46.5981 14.8631 42.6998C13.8788 41.7405 12.9734 41.4515 12.2729 41.4492C11.5409 41.4469 10.8238 41.7561 10.24 42.341C9.07742 43.5058 8.52332 45.722 9.98411 47.9775C10.5256 48.8137 10.2868 49.9305 9.45064 50.472C8.61451 51.0135 7.49771 50.7746 6.95621 49.9385C4.57882 46.2676 5.31308 42.1708 7.68676 39.7926C8.8711 38.606 10.4841 37.8361 12.2844 37.8418ZM12.9655 0.00230356C13.9605 0.0508392 14.7278 0.896776 14.6792 1.89176C14.6024 3.46749 14.7907 6.065 15.6097 8.56713C16.4331 11.0827 17.8068 13.2516 19.917 14.3878C23.7716 16.4634 25.4614 19.4874 26.1487 22.0076C26.4873 23.2489 26.5812 24.3562 26.5906 25.1585C26.5954 25.5612 26.5789 25.892 26.5599 26.1306C26.5504 26.2501 26.5403 26.347 26.5318 26.4188C26.5276 26.4547 26.5237 26.4844 26.5206 26.5075L26.5176 26.5287L26.5164 26.5373L26.5148 26.5481L26.5147 26.5485L26.514 26.5531L26.512 26.5663L26.506 26.6039C26.5011 26.634 26.4943 26.674 26.4854 26.7231C26.4675 26.8212 26.4411 26.956 26.4041 27.1209C26.3304 27.4495 26.2136 27.9033 26.0369 28.4262C25.6896 29.4544 25.0816 30.8393 24.0419 32.0589C22.9802 33.3044 21.4477 34.3951 19.3349 34.6992C17.2519 34.9991 14.8348 34.501 12.0392 33.0333C9.88661 31.9032 7.84674 32.1672 6.47698 33.1334C5.11994 34.0905 4.19746 35.8939 4.60759 38.3547C4.77136 39.3373 4.10756 40.2666 3.12495 40.4304C2.14234 40.5941 1.21302 39.9303 1.04925 38.9477C0.428658 35.2243 1.82524 31.9999 4.39773 30.1854C6.95748 28.38 10.4576 28.1286 13.7161 29.8393C16.074 31.0772 17.7153 31.2878 18.821 31.1286C19.8969 30.9737 20.6835 30.4379 21.2966 29.7186C21.9318 28.9735 22.3545 28.0554 22.6192 27.2718C22.7485 26.8889 22.833 26.5596 22.8841 26.3316C22.9095 26.2181 22.9264 26.1313 22.9362 26.0773L22.9421 26.044L22.9458 26.0221L22.9464 26.0186L22.9466 26.0174L22.9494 25.9947C22.9527 25.9666 22.9582 25.916 22.9638 25.8453C22.9751 25.7034 22.9868 25.4826 22.9834 25.2009C22.9768 24.6343 22.9096 23.8412 22.6684 22.9568C22.1962 21.2254 21.0515 19.0959 18.2067 17.564C14.9572 15.8143 13.1529 12.6579 12.1812 9.68936C11.2051 6.70734 10.9812 3.66179 11.0761 1.71599C11.1246 0.721013 11.9706 -0.0462321 12.9655 0.00230356ZM37.3864 16.1422C37.0513 15.2041 36.0192 14.7152 35.0811 15.0503C34.143 15.3853 33.6541 16.4174 33.9891 17.3555L35.2775 20.963C35.6125 21.9011 36.6446 22.39 37.5828 22.0549C38.5209 21.7199 39.0098 20.6878 38.6748 19.7497L37.3864 16.1422ZM41.7807 15.0503C42.7189 14.7152 43.751 15.2041 44.086 16.1422L45.3744 19.7497C45.7094 20.6878 45.2205 21.7199 44.2824 22.0549C43.3443 22.39 42.3122 21.9011 41.9771 20.963L40.6887 17.3555C40.3537 16.4174 40.8426 15.3853 41.7807 15.0503ZM29.8056 28.6646C30.7085 28.4203 31.6482 28.9067 31.9701 29.7844L31.9736 29.7936C31.9781 29.8053 31.9864 29.8268 31.9988 29.8575C32.0235 29.9188 32.0641 30.0162 32.1211 30.1431C32.2355 30.3975 32.4144 30.7665 32.6626 31.199C33.1639 32.0728 33.9207 33.158 34.958 34.0861C35.9863 35.0061 37.264 35.7503 38.8419 36.0197C40.4121 36.2878 42.4301 36.1117 44.9907 34.9478C45.8976 34.5356 46.9669 34.9366 47.3791 35.8434C47.7913 36.7503 47.3903 37.8196 46.4835 38.2318C43.3752 39.6447 40.6262 39.9839 38.2348 39.5756C35.8509 39.1687 33.9722 38.0447 32.5526 36.7745C31.9064 36.1963 31.3501 35.5836 30.8767 34.9843C30.09 35.8402 29.089 36.3528 28.2853 36.718C27.9158 36.886 27.5903 37.0238 27.2935 37.1495L27.2934 37.1495C26.7268 37.3894 26.2649 37.585 25.8012 37.8614C25.1968 38.2217 24.9096 38.5543 24.7731 38.9639C24.6102 39.4526 24.7013 39.7583 24.821 39.9499C24.9593 40.1713 25.2411 40.3995 25.6827 40.4994C26.4821 40.6804 28.0008 40.4158 29.226 38.2717C29.7203 37.4067 30.8221 37.1062 31.687 37.6005C32.5519 38.0947 32.8524 39.1965 32.3582 40.0614C30.4914 43.3284 27.5008 44.6098 24.8861 44.0178C23.6206 43.7313 22.469 42.9932 21.7619 41.8618C21.0361 40.7006 20.8695 39.2669 21.3508 37.8232C21.8584 36.3002 22.924 35.3767 23.9542 34.7626C24.6368 34.3558 25.4739 33.9999 26.1462 33.7141L26.1465 33.714C26.3881 33.6113 26.6084 33.5177 26.7926 33.4339C27.6398 33.0489 28.0809 32.7459 28.3156 32.4287C28.4797 32.2071 28.6931 31.7785 28.5022 30.7284C28.3345 29.8063 28.901 28.9095 29.8056 28.6646Z" fill="white"/>
</svg>
