<svg width="41" height="31" viewBox="0 0 41 31" fill="none" xmlns="http://www.w3.org/2000/svg">
<path d="M19.544 25.216C18.648 25.216 17.848 25.048 17.144 24.712C16.44 24.376 15.888 23.92 15.488 23.344C15.088 22.752 14.888 22.096 14.888 21.376C14.888 21.088 14.904 20.872 14.936 20.728L15.512 17.536C15.672 16.608 16.04 15.784 16.616 15.064C17.208 14.344 17.944 13.784 18.824 13.384C19.72 12.984 20.696 12.784 21.752 12.784C22.632 12.784 23.408 12.944 24.08 13.264C24.752 13.584 25.272 14.032 25.64 14.608C26.008 15.184 26.192 15.84 26.192 16.576C26.192 16.832 26.168 17.104 26.12 17.392L25.88 18.736C25.8 19.104 25.608 19.408 25.304 19.648C25.016 19.872 24.672 19.984 24.272 19.984H17.984L17.888 20.512C17.856 20.736 17.84 20.896 17.84 20.992C17.84 21.584 18.024 22.04 18.392 22.36C18.76 22.68 19.288 22.84 19.976 22.84C20.728 22.84 21.344 22.672 21.824 22.336C22.304 22 22.592 21.536 22.688 20.944C22.832 20.928 23.024 20.92 23.264 20.92C23.808 20.92 24.224 21.024 24.512 21.232C24.816 21.424 24.968 21.712 24.968 22.096C24.968 22.64 24.72 23.152 24.224 23.632C23.728 24.112 23.064 24.496 22.232 24.784C21.4 25.072 20.504 25.216 19.544 25.216ZM23.312 17.848L23.408 17.392C23.44 17.264 23.456 17.08 23.456 16.84C23.456 16.296 23.272 15.88 22.904 15.592C22.536 15.288 22.008 15.136 21.32 15.136C20.584 15.136 19.952 15.344 19.424 15.76C18.896 16.16 18.568 16.704 18.44 17.392L18.344 17.848H23.312ZM28.838 15.088C28.966 14.336 29.302 13.768 29.846 13.384C30.406 12.984 31.158 12.784 32.102 12.784L31.862 14.224C31.494 14.592 31.254 14.848 31.142 14.992L31.286 15.088C31.894 14.352 32.614 13.784 33.446 13.384C34.278 12.984 35.134 12.784 36.014 12.784C37.038 12.784 37.87 13.112 38.51 13.768C39.15 14.408 39.47 15.232 39.47 16.24C39.47 16.48 39.446 16.736 39.398 17.008L38.27 23.392C38.158 24.016 37.83 24.48 37.286 24.784C36.758 25.072 35.982 25.216 34.958 25.216L36.326 17.44C36.358 17.184 36.374 17.008 36.374 16.912C36.374 15.888 35.774 15.376 34.574 15.376C33.774 15.376 33.062 15.632 32.438 16.144C31.814 16.64 31.438 17.264 31.31 18.016L30.374 23.392C30.246 24.032 29.918 24.496 29.39 24.784C28.878 25.072 28.102 25.216 27.062 25.216L28.838 15.088Z" fill="black"/>
<path d="M0.714289 22.0078C1.19048 22.4251 1.79762 22.6338 2.53571 22.6338C3.46429 22.6338 4.27381 22.3024 4.96429 21.6396C5.65476 20.9768 6 20.1913 6 19.283C6 18.5956 5.7619 18.0433 5.28571 17.626C4.83333 17.2087 4.2381 17 3.5 17C2.54762 17 1.72619 17.3314 1.03571 17.9942C0.345237 18.6325 0 19.4057 0 20.314C0 21.0014 0.238099 21.566 0.714289 22.0078Z" fill="black"/>
</svg>
