<svg width="56" height="31" viewBox="0 0 56 31" fill="none" xmlns="http://www.w3.org/2000/svg">
<path d="M20.636 11.778V13.878H28.406V11.778H20.636ZM15.47 23.412V25.47H33.614V23.412H15.47ZM16.688 6.948V8.985H22.568V6.948H16.688ZM21.77 6.948V7.368C20.615 10.476 17.486 13.332 14.357 14.655C14.861 15.096 15.533 15.957 15.869 16.482C19.397 14.781 22.715 11.778 24.269 7.662L22.631 6.843L22.19 6.948H21.77ZM26.558 6.234L24.416 6.906C26.159 11.064 29.036 14.424 32.9 16.188C33.278 15.537 34.013 14.592 34.601 14.088C30.947 12.702 28.007 9.657 26.558 6.234ZM15.68 10.728C16.583 11.316 17.717 12.219 18.263 12.849L19.67 11.316C19.124 10.686 17.969 9.867 17.024 9.342L15.68 10.728ZM29.792 6.36C28.994 7.284 27.608 8.502 26.6 9.216L28.112 10.392C29.162 9.72 30.527 8.691 31.682 7.704L29.792 6.36ZM32.165 8.817C31.304 9.783 29.834 11.022 28.742 11.778L30.254 12.954C31.367 12.261 32.816 11.169 34.013 10.119L32.165 8.817ZM20.825 17.091H28.007V18.939H20.825V17.091ZM18.368 15.075V20.934H30.611V15.075H18.368ZM19.586 21.207C20.069 22.026 20.531 23.139 20.678 23.853L23.093 23.16C22.904 22.446 22.442 21.375 21.896 20.619L19.586 21.207ZM27.083 20.598C26.831 21.396 26.306 22.53 25.886 23.265L28.091 23.769C28.511 23.097 28.994 22.152 29.519 21.123L27.083 20.598ZM39.809 7.347V9.909H45.752V7.347H39.809ZM44.513 7.347C44.513 11.631 45.437 21.018 53.438 25.827C53.879 25.197 54.887 24.084 55.475 23.622C47.684 19.065 47.117 11.337 47.117 7.347H44.513ZM43.61 11.946C42.476 17.511 39.956 21.585 35.567 23.811C36.218 24.273 37.394 25.323 37.856 25.869C42.245 23.223 45.038 18.708 46.508 12.471L43.61 11.946Z" fill="black"/>
<path d="M0.714289 22.0078C1.19048 22.4251 1.79762 22.6338 2.53571 22.6338C3.46429 22.6338 4.27381 22.3024 4.96429 21.6396C5.65476 20.9768 6 20.1913 6 19.283C6 18.5956 5.7619 18.0433 5.28571 17.626C4.83333 17.2087 4.2381 17 3.5 17C2.54762 17 1.72619 17.3314 1.03571 17.9942C0.345237 18.6325 0 19.4057 0 20.314C0 21.0014 0.238099 21.566 0.714289 22.0078Z" fill="black"/>
</svg>
