<svg width="156" height="52" viewBox="0 0 156 52" fill="none" xmlns="http://www.w3.org/2000/svg">
<path d="M70.7878 34.0068C69.2305 34.0068 67.84 33.7148 66.6164 33.1308C65.3928 32.5468 64.4334 31.7543 63.7382 30.7531C63.0429 29.7242 62.6953 28.584 62.6953 27.3326C62.6953 26.8321 62.7231 26.4566 62.7787 26.2063L63.7799 20.6584C64.058 19.0455 64.6976 17.6133 65.6987 16.3619C66.7276 15.1105 68.0069 14.1372 69.5364 13.442C71.0937 12.7467 72.79 12.3991 74.6254 12.3991C76.1549 12.3991 77.5037 12.6772 78.6716 13.2334C79.8396 13.7896 80.7434 14.5682 81.383 15.5694C82.0226 16.5705 82.3424 17.7107 82.3424 18.9899C82.3424 19.4348 82.3007 19.9076 82.2173 20.4082L81.8002 22.7441C81.6611 23.3837 81.3274 23.9121 80.799 24.3292C80.2985 24.7186 79.7006 24.9132 79.0054 24.9132H68.0764L67.9095 25.8309C67.8539 26.2203 67.8261 26.4983 67.8261 26.6652C67.8261 27.6941 68.1459 28.4867 68.7855 29.0429C69.4251 29.5991 70.3428 29.8772 71.5386 29.8772C72.8456 29.8772 73.9163 29.5852 74.7506 29.0012C75.5848 28.4172 76.0854 27.6107 76.2523 26.5818C76.5025 26.554 76.8362 26.5401 77.2534 26.5401C78.1989 26.5401 78.9219 26.7208 79.4225 27.0823C79.9509 27.416 80.215 27.9166 80.215 28.584C80.215 29.5295 79.784 30.4194 78.9219 31.2537C78.0598 32.088 76.9058 32.7554 75.4597 33.256C74.0136 33.7565 72.4563 34.0068 70.7878 34.0068ZM77.3368 21.2007L77.5037 20.4082C77.5593 20.1857 77.5871 19.8659 77.5871 19.4487C77.5871 18.5032 77.2673 17.7802 76.6277 17.2796C75.9881 16.7513 75.0704 16.4871 73.8746 16.4871C72.5954 16.4871 71.4969 16.8486 70.5792 17.5716C69.6615 18.2669 69.0914 19.2124 68.8689 20.4082L68.7021 21.2007H77.3368Z" fill="black"/>
<path d="M90.1263 34.0068C88.1518 34.0068 86.5389 33.4923 85.2875 32.4634C84.0639 31.4067 83.4521 30.044 83.4521 28.3755C83.4521 26.7625 83.8692 25.3165 84.7035 24.0372C85.5378 22.758 86.7058 21.7569 88.2074 21.0339C89.7091 20.3108 91.4055 19.9493 93.2965 19.9493C94.5201 19.9493 95.6047 20.144 96.5502 20.5333C97.4957 20.9226 98.3578 21.5344 99.1364 22.3687L99.345 22.1601C99.2616 22.0489 98.9 21.6735 98.2604 21.0339L98.3856 20.1996C98.4134 20.0327 98.4273 19.7824 98.4273 19.4487C98.4273 18.4754 98.0936 17.7385 97.4262 17.2379C96.7587 16.7374 95.7854 16.4871 94.5062 16.4871C93.227 16.4871 92.0451 16.7374 90.9606 17.2379C89.9038 17.7107 89.0139 18.4059 88.2909 19.3236C87.7625 19.1846 87.3315 18.9204 86.9978 18.531C86.664 18.1417 86.4972 17.7246 86.4972 17.2796C86.4972 16.3897 86.9004 15.5694 87.7069 14.8185C88.5412 14.0677 89.6535 13.4837 91.044 13.0665C92.4622 12.6216 94.0056 12.3991 95.6742 12.3991C98.177 12.3991 100.138 12.9553 101.556 14.0677C102.974 15.18 103.683 16.6956 103.683 18.6145C103.683 19.0872 103.642 19.5739 103.558 20.0744L101.723 30.5029C101.5 31.7265 100.958 32.6163 100.096 33.1725C99.2338 33.7287 97.9545 34.0068 96.2582 34.0068L96.5502 32.2965C97.0786 31.8794 97.4818 31.5318 97.7599 31.2537L97.593 31.0451C96.4528 32.0741 95.2849 32.8249 94.0891 33.2977C92.9211 33.7704 91.6002 34.0068 90.1263 34.0068ZM92.1702 30.2109C93.7276 30.2109 94.979 29.8772 95.9245 29.2097C96.87 28.5145 97.3427 27.5968 97.3427 26.4566C97.3427 25.5946 96.9812 24.9271 96.2582 24.4544C95.563 23.9816 94.5896 23.7452 93.3382 23.7452C91.92 23.7452 90.7659 24.1068 89.876 24.8298C89.0139 25.5528 88.5829 26.4983 88.5829 27.6663C88.5829 29.3627 89.7787 30.2109 92.1702 30.2109Z" fill="black"/>
<path d="M113.824 34.0068C112.044 34.0068 110.667 33.548 109.694 32.6303C108.748 31.6847 108.276 30.3777 108.276 28.7092C108.276 28.4033 108.331 27.8332 108.442 26.9989L110.236 16.6539H105.981C106.176 15.4303 106.565 14.4848 107.149 13.8174C107.761 13.1222 108.512 12.7746 109.402 12.7746H111.029L111.613 9.31232C111.807 8.19995 112.35 7.39349 113.24 6.89293C114.157 6.39236 115.492 6.14208 117.244 6.14208L116.076 12.7746H121.624C121.402 14.1372 120.957 15.1244 120.289 15.7362C119.65 16.348 118.746 16.6539 117.578 16.6539H115.45L113.657 26.7903C113.601 27.2909 113.573 27.6107 113.573 27.7498C113.573 28.3616 113.74 28.8065 114.074 29.0846C114.408 29.3627 114.95 29.5017 115.701 29.5017C116.646 29.5017 117.689 29.2375 118.829 28.7092C118.996 28.876 119.121 29.0985 119.205 29.3766C119.316 29.6547 119.371 29.9467 119.371 30.2526C119.371 31.3093 118.829 32.1992 117.745 32.9222C116.688 33.6453 115.381 34.0068 113.824 34.0068Z" fill="black"/>
<path d="M130.35 10.4386C129.488 10.4386 128.779 10.2022 128.223 9.72946C127.667 9.22889 127.389 8.58928 127.389 7.81063C127.389 6.78169 127.792 5.9057 128.598 5.18267C129.405 4.43182 130.364 4.0564 131.477 4.0564C132.339 4.0564 133.034 4.29277 133.562 4.76553C134.118 5.23828 134.397 5.86399 134.397 6.64264C134.397 7.67158 133.993 8.56147 133.187 9.31232C132.38 10.0632 131.435 10.4386 130.35 10.4386ZM126.805 15.5694C126.999 14.4848 127.555 13.6923 128.473 13.1917C129.419 12.6633 130.781 12.3991 132.561 12.3991L129.307 30.8366C129.113 31.9489 128.557 32.7554 127.639 33.256C126.721 33.7565 125.359 34.0068 123.551 34.0068L126.805 15.5694Z" fill="black"/>
<path d="M143.664 34.0068C142.107 34.0068 140.717 33.7148 139.493 33.1308C138.269 32.5468 137.31 31.7543 136.615 30.7531C135.92 29.7242 135.572 28.584 135.572 27.3326C135.572 26.8321 135.6 26.4566 135.655 26.2063L136.657 20.6584C136.935 19.0455 137.574 17.6133 138.575 16.3619C139.604 15.1105 140.884 14.1372 142.413 13.442C143.97 12.7467 145.667 12.3991 147.502 12.3991C149.032 12.3991 150.38 12.6772 151.548 13.2334C152.716 13.7896 153.62 14.5682 154.26 15.5694C154.899 16.5705 155.219 17.7107 155.219 18.9899C155.219 19.4348 155.177 19.9076 155.094 20.4082L154.677 22.7441C154.538 23.3837 154.204 23.9121 153.676 24.3292C153.175 24.7186 152.577 24.9132 151.882 24.9132H140.953L140.786 25.8309C140.731 26.2203 140.703 26.4983 140.703 26.6652C140.703 27.6941 141.023 28.4867 141.662 29.0429C142.302 29.5991 143.22 29.8772 144.415 29.8772C145.722 29.8772 146.793 29.5852 147.627 29.0012C148.462 28.4172 148.962 27.6107 149.129 26.5818C149.379 26.554 149.713 26.5401 150.13 26.5401C151.076 26.5401 151.799 26.7208 152.299 27.0823C152.828 27.416 153.092 27.9166 153.092 28.584C153.092 29.5295 152.661 30.4194 151.799 31.2537C150.937 32.088 149.782 32.7554 148.336 33.256C146.89 33.7565 145.333 34.0068 143.664 34.0068ZM150.213 21.2007L150.38 20.4082C150.436 20.1857 150.464 19.8659 150.464 19.4487C150.464 18.5032 150.144 17.7802 149.504 17.2796C148.865 16.7513 147.947 16.4871 146.751 16.4871C145.472 16.4871 144.374 16.8486 143.456 17.5716C142.538 18.2669 141.968 19.2124 141.746 20.4082L141.579 21.2007H150.213Z" fill="black"/>
<path d="M72.7169 49.3928C72.2302 49.3928 71.7957 49.3016 71.4133 49.1191C71.0309 48.9366 70.7311 48.6889 70.5139 48.376C70.2966 48.0545 70.188 47.6982 70.188 47.3071C70.188 47.1507 70.1967 47.0334 70.214 46.9552L70.5269 45.2214C70.6138 44.7174 70.8137 44.2699 71.1265 43.8788C71.4481 43.4877 71.8478 43.1836 72.3258 42.9663C72.8125 42.749 73.3426 42.6404 73.9161 42.6404C74.3941 42.6404 74.8156 42.7273 75.1806 42.9011C75.5456 43.0749 75.828 43.3183 76.0279 43.6311C76.2278 43.944 76.3277 44.3003 76.3277 44.7C76.3277 44.8391 76.3147 44.9868 76.2886 45.1432L76.1582 45.8732C76.1148 46.0731 76.0105 46.2382 75.8454 46.3686C75.689 46.4902 75.5021 46.5511 75.2849 46.5511H71.8696L71.8174 46.8379C71.8 46.9595 71.7913 47.0464 71.7913 47.0986C71.7913 47.4201 71.8913 47.6678 72.0912 47.8416C72.291 48.0154 72.5778 48.1023 72.9515 48.1023C73.36 48.1023 73.6945 48.011 73.9552 47.8286C74.216 47.6461 74.3724 47.394 74.4245 47.0725C74.5027 47.0638 74.607 47.0595 74.7374 47.0595C75.0328 47.0595 75.2588 47.1159 75.4152 47.2289C75.5803 47.3332 75.6629 47.4896 75.6629 47.6982C75.6629 47.9937 75.5282 48.2718 75.2588 48.5325C74.9894 48.7932 74.6287 49.0017 74.1768 49.1582C73.7249 49.3146 73.2383 49.3928 72.7169 49.3928ZM74.7634 45.3909L74.8156 45.1432C74.833 45.0737 74.8417 44.9738 74.8417 44.8434C74.8417 44.5479 74.7417 44.322 74.5418 44.1656C74.342 44.0005 74.0552 43.9179 73.6815 43.9179C73.2817 43.9179 72.9385 44.0309 72.6517 44.2568C72.3649 44.4741 72.1868 44.7695 72.1172 45.1432L72.0651 45.3909H74.7634Z" fill="black"/>
<path d="M78.7602 49.3928C78.1431 49.3928 77.6391 49.232 77.248 48.9105C76.8657 48.5803 76.6745 48.1544 76.6745 47.633C76.6745 47.129 76.8048 46.6771 77.0655 46.2773C77.3262 45.8776 77.6912 45.5647 78.1605 45.3388C78.6298 45.1128 79.1599 44.9998 79.7509 44.9998C80.1332 44.9998 80.4722 45.0607 80.7676 45.1823C81.0631 45.304 81.3325 45.4952 81.5758 45.7559L81.641 45.6907C81.6149 45.656 81.502 45.5386 81.3021 45.3388L81.3412 45.0781C81.3499 45.0259 81.3542 44.9477 81.3542 44.8434C81.3542 44.5393 81.2499 44.309 81.0414 44.1525C80.8328 43.9961 80.5286 43.9179 80.1289 43.9179C79.7291 43.9179 79.3598 43.9961 79.0209 44.1525C78.6906 44.3003 78.4125 44.5175 78.1866 44.8043C78.0215 44.7609 77.8868 44.6783 77.7825 44.5566C77.6782 44.435 77.6261 44.3046 77.6261 44.1656C77.6261 43.8875 77.7521 43.6311 78.0041 43.3965C78.2648 43.1618 78.6124 42.9793 79.0469 42.849C79.4901 42.7099 79.9725 42.6404 80.4939 42.6404C81.276 42.6404 81.8887 42.8142 82.3319 43.1618C82.7751 43.5094 82.9967 43.9831 82.9967 44.5827C82.9967 44.7304 82.9837 44.8825 82.9576 45.0389L82.384 48.2978C82.3145 48.6802 82.145 48.9583 81.8756 49.1321C81.6062 49.3059 81.2065 49.3928 80.6764 49.3928L80.7676 48.8584C80.9327 48.728 81.0588 48.6194 81.1457 48.5325L81.0935 48.4673C80.7372 48.7888 80.3722 49.0235 79.9985 49.1712C79.6335 49.3189 79.2207 49.3928 78.7602 49.3928ZM79.3989 48.2066C79.8856 48.2066 80.2766 48.1023 80.5721 47.8937C80.8676 47.6765 81.0153 47.3897 81.0153 47.0334C81.0153 46.764 80.9023 46.5554 80.6764 46.4077C80.4591 46.2599 80.155 46.1861 79.7639 46.1861C79.3207 46.1861 78.96 46.299 78.6819 46.525C78.4125 46.7509 78.2778 47.0464 78.2778 47.4114C78.2778 47.9415 78.6515 48.2066 79.3989 48.2066Z" fill="black"/>
<path d="M86.1656 49.3928C85.6094 49.3928 85.1792 49.2494 84.875 48.9626C84.5796 48.6672 84.4318 48.2587 84.4318 47.7373C84.4318 47.6417 84.4492 47.4636 84.484 47.2028L85.0445 43.97H83.7149C83.7757 43.5877 83.8974 43.2922 84.0799 43.0836C84.2711 42.8664 84.5057 42.7577 84.7838 42.7577H85.2922L85.4747 41.6758C85.5355 41.3282 85.705 41.0762 85.9831 40.9197C86.2698 40.7633 86.687 40.6851 87.2345 40.6851L86.8695 42.7577H88.6032C88.5337 43.1836 88.3946 43.4921 88.1861 43.6833C87.9862 43.8744 87.7037 43.97 87.3387 43.97H86.6739L86.1134 47.1377C86.096 47.2941 86.0873 47.394 86.0873 47.4375C86.0873 47.6287 86.1395 47.7677 86.2438 47.8546C86.348 47.9415 86.5175 47.985 86.7521 47.985C87.0476 47.985 87.3735 47.9024 87.7298 47.7373C87.782 47.7894 87.8211 47.859 87.8471 47.9459C87.8819 48.0328 87.8993 48.124 87.8993 48.2196C87.8993 48.5498 87.7298 48.8279 87.3909 49.0539C87.0607 49.2798 86.6522 49.3928 86.1656 49.3928Z" fill="black"/>
<path d="M93.2961 43.7615C93.3569 43.4139 93.5394 43.1401 93.8436 42.9402C94.1477 42.7404 94.5301 42.6404 94.9907 42.6404L94.8603 43.3443C94.7387 43.4573 94.6344 43.5746 94.5475 43.6963L94.5996 43.7484C94.9559 43.3661 95.3209 43.088 95.6946 42.9142C96.077 42.7317 96.4985 42.6404 96.9591 42.6404C97.5848 42.6404 98.0845 42.8142 98.4581 43.1618C98.8405 43.5094 99.0317 43.9657 99.0317 44.5306C99.0317 44.6783 99.0187 44.8304 98.9926 44.9868L98.6276 47.0464C98.5059 47.7851 98.1714 48.363 97.6239 48.7801C97.0851 49.1886 96.3985 49.3928 95.5643 49.3928C95.234 49.3928 94.9081 49.3233 94.5866 49.1842C94.2737 49.0452 94.0261 48.8627 93.8436 48.6368L93.7784 48.7019C93.8305 48.7975 93.9088 48.8888 94.013 48.9757L93.6741 50.9049C93.6133 51.2612 93.4264 51.5306 93.1136 51.7131C92.8094 51.9043 92.3836 51.9999 91.8361 51.9999L93.2961 43.7615ZM95.4991 47.985C95.9249 47.985 96.2725 47.8937 96.5419 47.7112C96.8113 47.5287 96.9764 47.2724 97.0373 46.9421L97.3632 45.0911C97.3719 45.0389 97.3762 44.9694 97.3762 44.8825C97.3762 44.6131 97.2763 44.4089 97.0764 44.2699C96.8765 44.1221 96.5854 44.0482 96.203 44.0482C95.8206 44.0482 95.4817 44.1438 95.1862 44.335C94.8994 44.5175 94.7343 44.7478 94.6909 45.0259L94.3389 47.0073C94.3302 47.0421 94.3259 47.0899 94.3259 47.1507C94.3259 47.394 94.4345 47.5939 94.6518 47.7503C94.869 47.9068 95.1515 47.985 95.4991 47.985Z" fill="black"/>
<path d="M101.648 49.3928C101.083 49.3928 100.636 49.232 100.305 48.9105C99.9752 48.589 99.8101 48.1675 99.8101 47.6461C99.8101 47.507 99.8231 47.3593 99.8492 47.2028L100.944 41.024C101.005 40.6764 101.179 40.4244 101.466 40.2679C101.752 40.1115 102.178 40.0333 102.743 40.0333L101.492 47.1377C101.474 47.2072 101.466 47.3028 101.466 47.4245C101.466 47.6156 101.522 47.759 101.635 47.8546C101.748 47.9415 101.926 47.985 102.17 47.985C102.482 47.985 102.813 47.9024 103.16 47.7373C103.282 47.859 103.343 48.0241 103.343 48.2327C103.343 48.5542 103.178 48.8279 102.847 49.0539C102.526 49.2798 102.126 49.3928 101.648 49.3928Z" fill="black"/>
<path d="M106.104 49.3928C105.487 49.3928 104.983 49.232 104.592 48.9105C104.21 48.5803 104.019 48.1544 104.019 47.633C104.019 47.129 104.149 46.6771 104.41 46.2773C104.67 45.8776 105.035 45.5647 105.505 45.3388C105.974 45.1128 106.504 44.9998 107.095 44.9998C107.477 44.9998 107.816 45.0607 108.112 45.1823C108.407 45.304 108.677 45.4952 108.92 45.7559L108.985 45.6907C108.959 45.656 108.846 45.5386 108.646 45.3388L108.685 45.0781C108.694 45.0259 108.698 44.9477 108.698 44.8434C108.698 44.5393 108.594 44.309 108.385 44.1525C108.177 43.9961 107.873 43.9179 107.473 43.9179C107.073 43.9179 106.704 43.9961 106.365 44.1525C106.035 44.3003 105.757 44.5175 105.531 44.8043C105.366 44.7609 105.231 44.6783 105.127 44.5566C105.022 44.435 104.97 44.3046 104.97 44.1656C104.97 43.8875 105.096 43.6311 105.348 43.3965C105.609 43.1618 105.956 42.9793 106.391 42.849C106.834 42.7099 107.316 42.6404 107.838 42.6404C108.62 42.6404 109.233 42.8142 109.676 43.1618C110.119 43.5094 110.341 43.9831 110.341 44.5827C110.341 44.7304 110.328 44.8825 110.302 45.0389L109.728 48.2978C109.659 48.6802 109.489 48.9583 109.22 49.1321C108.95 49.3059 108.551 49.3928 108.02 49.3928L108.112 48.8584C108.277 48.728 108.403 48.6194 108.49 48.5325L108.438 48.4673C108.081 48.7888 107.716 49.0235 107.343 49.1712C106.978 49.3189 106.565 49.3928 106.104 49.3928ZM106.743 48.2066C107.23 48.2066 107.621 48.1023 107.916 47.8937C108.212 47.6765 108.359 47.3897 108.359 47.0334C108.359 46.764 108.246 46.5554 108.02 46.4077C107.803 46.2599 107.499 46.1861 107.108 46.1861C106.665 46.1861 106.304 46.299 106.026 46.525C105.757 46.7509 105.622 47.0464 105.622 47.4114C105.622 47.9415 105.996 48.2066 106.743 48.2066Z" fill="black"/>
<path d="M110.739 51.9999C110.444 51.9999 110.218 51.913 110.062 51.7392C109.914 51.5741 109.84 51.3351 109.84 51.0222C109.84 50.9093 109.853 50.7789 109.879 50.6312C110.096 50.6746 110.314 50.6964 110.531 50.6964C110.861 50.6964 111.139 50.6051 111.365 50.4226C111.591 50.2488 111.865 49.9055 112.186 49.3928L112.486 48.9105L111.039 42.7708C111.1 42.736 111.2 42.7056 111.339 42.6795C111.478 42.6534 111.608 42.6404 111.73 42.6404C111.991 42.6404 112.212 42.6969 112.395 42.8099C112.577 42.9228 112.686 43.0706 112.721 43.2531L113.477 46.9161L113.164 47.5287L113.255 47.5678L115.719 43.2531C115.823 43.0619 115.984 42.9142 116.201 42.8099C116.419 42.6969 116.658 42.6404 116.918 42.6404C117.049 42.6404 117.188 42.6534 117.335 42.6795C117.492 42.7056 117.592 42.736 117.635 42.7708L113.477 49.8621C113.034 50.6181 112.599 51.1613 112.173 51.4915C111.748 51.8305 111.27 51.9999 110.739 51.9999Z" fill="black"/>
<path d="M123.93 49.3928C123.443 49.3928 123.008 49.3016 122.626 49.1191C122.244 48.9366 121.944 48.6889 121.727 48.376C121.509 48.0545 121.401 47.6982 121.401 47.3071C121.401 47.1507 121.409 47.0334 121.427 46.9552L121.74 45.2214C121.827 44.7174 122.026 44.2699 122.339 43.8788C122.661 43.4877 123.061 43.1836 123.539 42.9663C124.025 42.749 124.555 42.6404 125.129 42.6404C125.607 42.6404 126.028 42.7273 126.393 42.9011C126.758 43.0749 127.041 43.3183 127.241 43.6311C127.441 43.944 127.54 44.3003 127.54 44.7C127.54 44.8391 127.527 44.9868 127.501 45.1432L127.371 45.8732C127.328 46.0731 127.223 46.2382 127.058 46.3686C126.902 46.4902 126.715 46.5511 126.498 46.5511H123.082L123.03 46.8379C123.013 46.9595 123.004 47.0464 123.004 47.0986C123.004 47.4201 123.104 47.6678 123.304 47.8416C123.504 48.0154 123.791 48.1023 124.164 48.1023C124.573 48.1023 124.907 48.011 125.168 47.8286C125.429 47.6461 125.585 47.394 125.637 47.0725C125.716 47.0638 125.82 47.0595 125.95 47.0595C126.246 47.0595 126.472 47.1159 126.628 47.2289C126.793 47.3332 126.876 47.4896 126.876 47.6982C126.876 47.9937 126.741 48.2718 126.472 48.5325C126.202 48.7932 125.842 49.0017 125.39 49.1582C124.938 49.3146 124.451 49.3928 123.93 49.3928ZM125.976 45.3909L126.028 45.1432C126.046 45.0737 126.054 44.9738 126.054 44.8434C126.054 44.5479 125.954 44.322 125.755 44.1656C125.555 44.0005 125.268 43.9179 124.894 43.9179C124.495 43.9179 124.151 44.0309 123.864 44.2568C123.578 44.4741 123.4 44.7695 123.33 45.1432L123.278 45.3909H125.976Z" fill="black"/>
<path d="M129.973 49.3928C129.356 49.3928 128.852 49.232 128.461 48.9105C128.078 48.5803 127.887 48.1544 127.887 47.633C127.887 47.129 128.018 46.6771 128.278 46.2773C128.539 45.8776 128.904 45.5647 129.373 45.3388C129.843 45.1128 130.373 44.9998 130.964 44.9998C131.346 44.9998 131.685 45.0607 131.98 45.1823C132.276 45.304 132.545 45.4952 132.789 45.7559L132.854 45.6907C132.828 45.656 132.715 45.5386 132.515 45.3388L132.554 45.0781C132.563 45.0259 132.567 44.9477 132.567 44.8434C132.567 44.5393 132.463 44.309 132.254 44.1525C132.046 43.9961 131.741 43.9179 131.342 43.9179C130.942 43.9179 130.573 43.9961 130.234 44.1525C129.903 44.3003 129.625 44.5175 129.399 44.8043C129.234 44.7609 129.1 44.6783 128.995 44.5566C128.891 44.435 128.839 44.3046 128.839 44.1656C128.839 43.8875 128.965 43.6311 129.217 43.3965C129.478 43.1618 129.825 42.9793 130.26 42.849C130.703 42.7099 131.185 42.6404 131.707 42.6404C132.489 42.6404 133.101 42.8142 133.545 43.1618C133.988 43.5094 134.209 43.9831 134.209 44.5827C134.209 44.7304 134.196 44.8825 134.17 45.0389L133.597 48.2978C133.527 48.6802 133.358 48.9583 133.088 49.1321C132.819 49.3059 132.419 49.3928 131.889 49.3928L131.98 48.8584C132.146 48.728 132.272 48.6194 132.358 48.5325L132.306 48.4673C131.95 48.7888 131.585 49.0235 131.211 49.1712C130.846 49.3189 130.434 49.3928 129.973 49.3928ZM130.612 48.2066C131.098 48.2066 131.489 48.1023 131.785 47.8937C132.08 47.6765 132.228 47.3897 132.228 47.0334C132.228 46.764 132.115 46.5554 131.889 46.4077C131.672 46.2599 131.368 46.1861 130.977 46.1861C130.533 46.1861 130.173 46.299 129.895 46.525C129.625 46.7509 129.491 47.0464 129.491 47.4114C129.491 47.9415 129.864 48.2066 130.612 48.2066Z" fill="black"/>
<path d="M139.176 44.0482C138.663 44.0482 138.22 44.1829 137.847 44.4523C137.473 44.7218 137.251 45.065 137.182 45.4822L136.673 48.4021C136.604 48.7497 136.426 49.0017 136.139 49.1582C135.861 49.3146 135.439 49.3928 134.874 49.3928L135.839 43.8918C135.909 43.4834 136.091 43.1749 136.387 42.9663C136.691 42.749 137.099 42.6404 137.612 42.6404L137.482 43.4095C137.256 43.6528 137.125 43.7962 137.091 43.8397L137.156 43.8918C137.877 43.0575 138.637 42.6404 139.437 42.6404C139.741 42.6404 139.976 42.7143 140.141 42.862C140.315 43.0011 140.402 43.1966 140.402 43.4486C140.402 43.5877 140.375 43.7267 140.323 43.8658C140.271 44.0048 140.202 44.1308 140.115 44.2438C139.906 44.1134 139.593 44.0482 139.176 44.0482Z" fill="black"/>
<path d="M141.466 43.8918C141.535 43.4834 141.718 43.1749 142.013 42.9663C142.317 42.749 142.726 42.6404 143.239 42.6404L143.108 43.4225C142.908 43.6224 142.778 43.7615 142.717 43.8397L142.795 43.8918C143.126 43.4921 143.517 43.1836 143.969 42.9663C144.421 42.749 144.885 42.6404 145.363 42.6404C145.92 42.6404 146.371 42.8186 146.719 43.1749C147.067 43.5225 147.241 43.97 147.241 44.5175C147.241 44.6479 147.227 44.7869 147.201 44.9347L146.589 48.4021C146.528 48.741 146.35 48.9931 146.054 49.1582C145.768 49.3146 145.346 49.3928 144.79 49.3928L145.533 45.1693C145.55 45.0303 145.559 44.9347 145.559 44.8825C145.559 44.3263 145.233 44.0482 144.581 44.0482C144.147 44.0482 143.76 44.1873 143.421 44.4654C143.082 44.7348 142.878 45.0737 142.808 45.4822L142.3 48.4021C142.231 48.7497 142.052 49.0017 141.766 49.1582C141.488 49.3146 141.066 49.3928 140.501 49.3928L141.466 43.8918Z" fill="black"/>
<path fill-rule="evenodd" clip-rule="evenodd" d="M20.9415 0.00298989C21.936 0.0598208 22.6962 0.912127 22.6393 1.90667C22.5628 3.24679 22.7312 5.10182 23.2626 6.4394C23.527 7.10483 23.817 7.47875 24.0511 7.65468C24.154 7.73199 24.2748 7.79754 24.4596 7.81079C28.1066 4.57863 31.9683 3.2847 35.6727 3.62415C39.4856 3.97355 42.852 6.02753 45.4196 8.89839C50.5029 14.582 52.9 23.9753 49.4528 31.8982C49.0553 32.8116 47.9926 33.2299 47.0792 32.8325C46.1657 32.4351 45.7474 31.3724 46.1449 30.4589C48.9503 24.0111 47.015 16.0936 42.7307 11.3033C40.6145 8.93719 38.0383 7.46347 35.3435 7.21653C32.6913 6.9735 29.6445 7.89248 26.4773 10.8519C26.2418 11.0719 25.9517 11.2248 25.6371 11.2947C24.2156 11.6106 22.9228 11.3191 21.8842 10.5388C20.9173 9.81233 20.3052 8.76582 19.9101 7.7714C19.1226 5.78929 18.9426 3.36694 19.0378 1.70087C19.0946 0.706324 19.9469 -0.0538411 20.9415 0.00298989ZM12.2844 37.8418C14.1015 37.8476 15.9072 38.6415 17.4758 40.2101C17.5199 40.2542 17.5617 40.3006 17.6011 40.3491C20.4682 43.883 23.2174 45.6979 25.6511 46.5338C28.0795 47.3678 30.3288 47.2736 32.2805 46.7669C34.2504 46.2555 35.9132 45.3231 37.0966 44.5C37.6841 44.0914 38.1419 43.7178 38.4474 43.4517C38.5998 43.3189 38.7135 43.2136 38.7855 43.1452L38.8172 43.1148C38.8369 43.0959 38.8517 43.0813 38.8616 43.0715L38.8727 43.0605L40.164 44.3199C38.8727 43.0605 38.8734 43.0599 38.874 43.0593L38.875 43.0582L38.8755 43.0577L38.8758 43.0573C39.5717 42.3474 40.7113 42.3341 41.4234 43.0286C42.1365 43.7241 42.1508 44.8661 41.4553 45.5793L40.2259 44.3803C41.4552 45.5793 41.4545 45.58 41.4537 45.5808L41.4519 45.5827L41.4475 45.5872L41.4353 45.5995L41.3978 45.637C41.367 45.6674 41.3246 45.7087 41.271 45.7597C41.1638 45.8616 41.0115 46.0022 40.8169 46.1718C40.4282 46.5103 39.8672 46.9672 39.1564 47.4616C37.7432 48.4445 35.6909 49.6086 33.187 50.2586C30.6651 50.9133 27.6821 51.0456 24.4793 49.9456C21.3031 48.8547 18.0446 46.5981 14.8631 42.6998C13.8788 41.7405 12.9734 41.4515 12.2729 41.4492C11.5409 41.4469 10.8238 41.7561 10.24 42.341C9.07742 43.5058 8.52332 45.722 9.98411 47.9775C10.5256 48.8137 10.2868 49.9305 9.45064 50.472C8.61451 51.0135 7.49771 50.7746 6.95621 49.9385C4.57882 46.2676 5.31308 42.1708 7.68676 39.7926C8.8711 38.606 10.4841 37.8361 12.2844 37.8418ZM12.9655 0.00230356C13.9605 0.0508392 14.7278 0.896776 14.6792 1.89176C14.6024 3.46749 14.7907 6.065 15.6097 8.56713C16.4331 11.0827 17.8068 13.2516 19.917 14.3878C23.7716 16.4634 25.4614 19.4874 26.1487 22.0076C26.4873 23.2489 26.5812 24.3562 26.5906 25.1585C26.5954 25.5612 26.5789 25.892 26.5599 26.1306C26.5504 26.2501 26.5403 26.347 26.5318 26.4188C26.5276 26.4547 26.5237 26.4844 26.5206 26.5075L26.5176 26.5287L26.5164 26.5373L26.5148 26.5481L26.5147 26.5485L26.514 26.5531L26.512 26.5663L26.506 26.6039C26.5011 26.634 26.4943 26.674 26.4854 26.7231C26.4675 26.8212 26.4411 26.956 26.4041 27.1209C26.3304 27.4495 26.2136 27.9033 26.0369 28.4262C25.6896 29.4544 25.0816 30.8393 24.0419 32.0589C22.9802 33.3044 21.4477 34.3951 19.3349 34.6992C17.2519 34.9991 14.8348 34.501 12.0392 33.0333C9.88661 31.9032 7.84674 32.1672 6.47698 33.1334C5.11994 34.0905 4.19746 35.8939 4.60759 38.3547C4.77136 39.3373 4.10756 40.2666 3.12495 40.4304C2.14234 40.5941 1.21302 39.9303 1.04925 38.9477C0.428658 35.2243 1.82524 31.9999 4.39773 30.1854C6.95748 28.38 10.4576 28.1286 13.7161 29.8393C16.074 31.0772 17.7153 31.2878 18.821 31.1286C19.8969 30.9737 20.6835 30.4379 21.2966 29.7186C21.9318 28.9735 22.3545 28.0554 22.6192 27.2718C22.7485 26.8889 22.833 26.5596 22.8841 26.3316C22.9095 26.2181 22.9264 26.1313 22.9362 26.0773L22.9421 26.044L22.9458 26.0221L22.9464 26.0186L22.9466 26.0174L22.9494 25.9947C22.9527 25.9666 22.9582 25.916 22.9638 25.8453C22.9751 25.7034 22.9868 25.4826 22.9834 25.2009C22.9768 24.6343 22.9096 23.8412 22.6684 22.9568C22.1962 21.2254 21.0515 19.0959 18.2067 17.564C14.9572 15.8143 13.1529 12.6579 12.1812 9.68936C11.2051 6.70734 10.9812 3.66179 11.0761 1.71599C11.1246 0.721013 11.9706 -0.0462321 12.9655 0.00230356ZM37.3864 16.1422C37.0513 15.2041 36.0192 14.7152 35.0811 15.0503C34.143 15.3853 33.6541 16.4174 33.9891 17.3555L35.2775 20.963C35.6125 21.9011 36.6446 22.39 37.5828 22.0549C38.5209 21.7199 39.0098 20.6878 38.6748 19.7497L37.3864 16.1422ZM41.7807 15.0503C42.7189 14.7152 43.751 15.2041 44.086 16.1422L45.3744 19.7497C45.7094 20.6878 45.2205 21.7199 44.2824 22.0549C43.3443 22.39 42.3122 21.9011 41.9771 20.963L40.6887 17.3555C40.3537 16.4174 40.8426 15.3853 41.7807 15.0503ZM29.8056 28.6646C30.7085 28.4203 31.6482 28.9067 31.9701 29.7844L31.9736 29.7936C31.9781 29.8053 31.9864 29.8268 31.9988 29.8575C32.0235 29.9188 32.0641 30.0162 32.1211 30.1431C32.2355 30.3975 32.4144 30.7665 32.6626 31.199C33.1639 32.0728 33.9207 33.158 34.958 34.0861C35.9863 35.0061 37.264 35.7503 38.8419 36.0197C40.4121 36.2878 42.4301 36.1117 44.9907 34.9478C45.8976 34.5356 46.9669 34.9366 47.3791 35.8434C47.7913 36.7503 47.3903 37.8196 46.4835 38.2318C43.3752 39.6447 40.6262 39.9839 38.2348 39.5756C35.8509 39.1687 33.9722 38.0447 32.5526 36.7745C31.9064 36.1963 31.3501 35.5836 30.8767 34.9843C30.09 35.8402 29.089 36.3528 28.2853 36.718C27.9158 36.886 27.5903 37.0238 27.2935 37.1495L27.2934 37.1495C26.7268 37.3894 26.2649 37.585 25.8012 37.8614C25.1968 38.2217 24.9096 38.5543 24.7731 38.9639C24.6102 39.4526 24.7013 39.7583 24.821 39.9499C24.9593 40.1713 25.2411 40.3995 25.6827 40.4994C26.4821 40.6804 28.0008 40.4158 29.226 38.2717C29.7203 37.4067 30.8221 37.1062 31.687 37.6005C32.5519 38.0947 32.8524 39.1965 32.3582 40.0614C30.4914 43.3284 27.5008 44.6098 24.8861 44.0178C23.6206 43.7313 22.469 42.9932 21.7619 41.8618C21.0361 40.7006 20.8695 39.2669 21.3508 37.8232C21.8584 36.3002 22.924 35.3767 23.9542 34.7626C24.6368 34.3558 25.4739 33.9999 26.1462 33.7141L26.1465 33.714C26.3881 33.6113 26.6084 33.5177 26.7926 33.4339C27.6398 33.0489 28.0809 32.7459 28.3156 32.4287C28.4797 32.2071 28.6931 31.7785 28.5022 30.7284C28.3345 29.8063 28.901 28.9095 29.8056 28.6646Z" fill="black"/>
</svg>
