<svg width="75" height="75" viewBox="0 0 75 75" fill="none" xmlns="http://www.w3.org/2000/svg">
<circle cx="37.5" cy="37.5" r="37" stroke="black"/>
<path d="M16.3053 43.189C14.9893 43.189 13.9253 42.986 13.1133 42.58C12.3153 42.16 11.9163 41.6 11.9163 40.9C11.9163 40.368 12.1123 39.955 12.5043 39.661C12.8963 39.367 13.4563 39.22 14.1843 39.22C14.1983 39.752 14.3943 40.186 14.7723 40.522C15.1643 40.844 15.6683 41.005 16.2843 41.005C17.0403 41.005 17.6283 40.907 18.0483 40.711C18.4683 40.501 18.6783 40.214 18.6783 39.85C18.6783 39.612 18.5103 39.395 18.1743 39.199C17.8523 39.003 17.3203 38.814 16.5783 38.632C15.2063 38.296 14.2403 37.904 13.6803 37.456C13.1343 37.008 12.8613 36.441 12.8613 35.755C12.8613 34.663 13.2743 33.816 14.1003 33.214C14.9403 32.612 16.1093 32.311 17.6073 32.311C18.8673 32.311 19.9033 32.514 20.7153 32.92C21.5273 33.326 21.9333 33.858 21.9333 34.516C21.9333 35.02 21.7653 35.391 21.4293 35.629C21.1073 35.853 20.5613 35.972 19.7913 35.986C19.6933 35.44 19.4763 35.041 19.1403 34.789C18.8043 34.537 18.3073 34.411 17.6493 34.411C17.0893 34.411 16.6063 34.509 16.2003 34.705C15.8083 34.887 15.6123 35.111 15.6123 35.377C15.6123 35.587 15.7523 35.769 16.0323 35.923C16.3123 36.077 16.7953 36.224 17.4813 36.364C20.1133 36.924 21.4293 38.016 21.4293 39.64C21.4293 40.774 20.9743 41.649 20.0643 42.265C19.1683 42.881 17.9153 43.189 16.3053 43.189ZM26.7124 43.189C25.4664 43.189 24.4724 42.895 23.7304 42.307C22.9884 41.705 22.6174 40.914 22.6174 39.934C22.6174 39.71 22.6384 39.486 22.6804 39.262L23.1634 36.469C23.3034 35.657 23.6254 34.936 24.1294 34.306C24.6334 33.676 25.2704 33.186 26.0404 32.836C26.8244 32.486 27.6784 32.311 28.6024 32.311C29.7504 32.311 30.6814 32.549 31.3954 33.025C32.1234 33.501 32.4874 34.124 32.4874 34.894C32.4874 35.426 32.2354 35.86 31.7314 36.196C31.2414 36.532 30.6044 36.7 29.8204 36.7C29.8484 36.532 29.8624 36.406 29.8624 36.322C29.8624 35.86 29.7154 35.489 29.4214 35.209C29.1414 34.929 28.7564 34.789 28.2664 34.789C27.7064 34.789 27.2164 34.964 26.7964 35.314C26.3764 35.65 26.1174 36.084 26.0194 36.616L25.5994 39.052C25.5854 39.122 25.5784 39.22 25.5784 39.346C25.5784 39.752 25.7254 40.081 26.0194 40.333C26.3274 40.585 26.7334 40.711 27.2374 40.711C27.7974 40.711 28.2804 40.536 28.6864 40.186C29.1064 39.836 29.3724 39.381 29.4844 38.821C30.1284 38.821 30.6464 38.94 31.0384 39.178C31.4444 39.402 31.6474 39.696 31.6474 40.06C31.6474 40.676 31.4374 41.222 31.0174 41.698C30.6114 42.16 30.0304 42.524 29.2744 42.79C28.5324 43.056 27.6784 43.189 26.7124 43.189ZM39.7646 34.789C38.9386 34.789 38.2176 35.006 37.6016 35.44C36.9996 35.86 36.6426 36.406 36.5306 37.078L35.7536 41.509C35.6416 42.097 35.3336 42.524 34.8296 42.79C34.3396 43.056 33.5906 43.189 32.5826 43.189L34.1156 34.495C34.2416 33.781 34.5706 33.242 35.1026 32.878C35.6346 32.5 36.3486 32.311 37.2446 32.311L37.0346 33.55C36.7546 33.83 36.5376 34.068 36.3836 34.264L36.5096 34.348C37.6576 32.99 38.8756 32.311 40.1636 32.311C40.6816 32.311 41.0806 32.437 41.3606 32.689C41.6546 32.927 41.8016 33.27 41.8016 33.718C41.8016 33.956 41.7526 34.201 41.6546 34.453C41.5706 34.705 41.4446 34.929 41.2766 35.125C40.9546 34.901 40.4506 34.789 39.7646 34.789ZM44.6151 43.189C43.7891 43.189 43.0471 43.042 42.3891 42.748C41.7311 42.44 41.2201 42.034 40.8561 41.53C40.4921 41.012 40.3101 40.438 40.3101 39.808C40.3101 39.57 40.3241 39.388 40.3521 39.262L40.8351 36.469C41.0591 35.209 41.6751 34.201 42.6831 33.445C43.6911 32.689 44.9721 32.311 46.5261 32.311C47.3941 32.311 48.1501 32.465 48.7941 32.773C49.4381 33.067 49.9351 33.48 50.2851 34.012C50.6351 34.53 50.8101 35.125 50.8101 35.797C50.8101 36.007 50.7891 36.231 50.7471 36.469L50.2641 39.262C50.0541 40.466 49.4311 41.425 48.3951 42.139C47.3731 42.839 46.1131 43.189 44.6151 43.189ZM45.0561 40.711C45.7141 40.711 46.2461 40.564 46.6521 40.27C47.0721 39.976 47.3311 39.57 47.4291 39.052L47.8491 36.616C47.8771 36.448 47.8911 36.329 47.8911 36.259C47.8911 35.797 47.7301 35.44 47.4081 35.188C47.1001 34.922 46.6661 34.789 46.1061 34.789C45.4621 34.789 44.9231 34.957 44.4891 35.293C44.0551 35.629 43.7891 36.07 43.6911 36.616L43.2711 39.052C43.2571 39.122 43.2501 39.234 43.2501 39.388C43.2501 39.808 43.4041 40.137 43.7121 40.375C44.0341 40.599 44.4821 40.711 45.0561 40.711ZM54.5689 43.189C53.6309 43.189 52.8819 42.923 52.3219 42.391C51.7619 41.845 51.4819 41.131 51.4819 40.249C51.4819 40.011 51.5029 39.766 51.5449 39.514L53.2669 29.791C53.3789 29.203 53.6799 28.776 54.1699 28.51C54.6739 28.244 55.4299 28.111 56.4379 28.111L54.4429 39.409C54.4149 39.605 54.4009 39.745 54.4009 39.829C54.4009 40.137 54.4849 40.361 54.6529 40.501C54.8349 40.641 55.1219 40.711 55.5139 40.711C56.0459 40.711 56.5919 40.571 57.1519 40.291C57.3759 40.515 57.4879 40.809 57.4879 41.173C57.4879 41.733 57.2079 42.209 56.6479 42.601C56.0879 42.993 55.3949 43.189 54.5689 43.189ZM61.4497 43.189C60.5117 43.189 59.7627 42.923 59.2027 42.391C58.6427 41.845 58.3627 41.131 58.3627 40.249C58.3627 40.011 58.3837 39.766 58.4257 39.514L60.1477 29.791C60.2597 29.203 60.5607 28.776 61.0507 28.51C61.5547 28.244 62.3107 28.111 63.3187 28.111L61.3237 39.409C61.2957 39.605 61.2817 39.745 61.2817 39.829C61.2817 40.137 61.3657 40.361 61.5337 40.501C61.7157 40.641 62.0027 40.711 62.3947 40.711C62.9267 40.711 63.4727 40.571 64.0327 40.291C64.2567 40.515 64.3687 40.809 64.3687 41.173C64.3687 41.733 64.0887 42.209 63.5287 42.601C62.9687 42.993 62.2757 43.189 61.4497 43.189Z" fill="black"/>
</svg>
