<svg width="133" height="11" viewBox="0 0 133 11" fill="none" xmlns="http://www.w3.org/2000/svg">
<path d="M3.374 10.126C2.80467 10.126 2.36133 9.97667 2.044 9.678C1.736 9.37933 1.582 8.964 1.582 8.432C1.582 8.236 1.60067 8.04933 1.638 7.872L2.282 4.19H0.882C0.956667 3.80733 1.08733 3.51333 1.274 3.308C1.46067 3.10267 1.694 3 1.974 3H2.506L2.73 1.782C2.79533 1.43667 2.96333 1.18467 3.234 1.026C3.514 0.857999 3.91533 0.773999 4.438 0.773999L4.046 3H5.908C5.84267 3.41067 5.70733 3.714 5.502 3.91C5.29667 4.09667 5.012 4.19 4.648 4.19H3.85L3.22 7.816C3.192 7.93733 3.178 8.054 3.178 8.166C3.178 8.37133 3.23867 8.52067 3.36 8.614C3.48133 8.70733 3.668 8.754 3.92 8.754C4.256 8.754 4.59667 8.66533 4.942 8.488C5.04467 8.60933 5.096 8.768 5.096 8.964C5.096 9.29067 4.928 9.566 4.592 9.79C4.26533 10.014 3.85933 10.126 3.374 10.126ZM9.00288 10.126C8.48954 10.126 8.02754 10.0327 7.61688 9.846C7.21554 9.65933 6.90288 9.40267 6.67888 9.076C6.45488 8.74 6.34288 8.362 6.34288 7.942C6.34288 7.802 6.35688 7.662 6.38488 7.522L6.72087 5.59C6.81421 5.058 7.02888 4.58667 7.36488 4.176C7.70088 3.76533 8.12088 3.448 8.62488 3.224C9.12888 2.99067 9.68421 2.874 10.2909 2.874C11.0469 2.874 11.6582 3.07933 12.1249 3.49C12.6009 3.90067 12.8389 4.428 12.8389 5.072C12.8389 5.212 12.8249 5.36133 12.7969 5.52L12.6569 6.346C12.6195 6.53267 12.5169 6.69133 12.3489 6.822C12.1902 6.95267 12.0082 7.018 11.8029 7.018H7.99488L7.92488 7.424C7.90621 7.57333 7.89688 7.676 7.89688 7.732C7.89688 8.096 8.00888 8.376 8.23288 8.572C8.46621 8.75867 8.80221 8.852 9.24088 8.852C9.70754 8.852 10.0902 8.74467 10.3889 8.53C10.6969 8.31533 10.8835 8.02133 10.9489 7.648C11.0049 7.63867 11.0842 7.634 11.1869 7.634C11.4855 7.634 11.7142 7.69467 11.8729 7.816C12.0409 7.928 12.1249 8.09133 12.1249 8.306C12.1249 8.62333 11.9802 8.922 11.6909 9.202C11.4109 9.482 11.0282 9.706 10.5429 9.874C10.0669 10.042 9.55354 10.126 9.00288 10.126ZM11.3129 5.856L11.3689 5.52C11.3969 5.38933 11.4109 5.27267 11.4109 5.17C11.4109 4.84333 11.2942 4.58667 11.0609 4.4C10.8275 4.21333 10.4962 4.12 10.0669 4.12C9.60954 4.12 9.21288 4.25067 8.87688 4.512C8.55021 4.764 8.34488 5.1 8.26088 5.52L8.20488 5.856H11.3129ZM17.897 4.232C17.3557 4.232 16.8844 4.38133 16.483 4.68C16.0817 4.97867 15.8437 5.352 15.769 5.8L15.181 9.118C15.1157 9.46333 14.943 9.72 14.663 9.888C14.3924 10.0467 13.9864 10.126 13.445 10.126L14.495 4.12C14.6537 3.28933 15.2277 2.874 16.217 2.874L16.077 3.714C15.9557 3.826 15.8204 3.97533 15.671 4.162L15.741 4.218C16.497 3.322 17.309 2.874 18.177 2.874C18.4944 2.874 18.7417 2.94867 18.919 3.098C19.0964 3.238 19.185 3.434 19.185 3.686C19.185 3.95667 19.087 4.21333 18.891 4.456C18.6484 4.30667 18.317 4.232 17.897 4.232ZM20.415 4.12C20.5736 3.28933 21.143 2.874 22.123 2.874L21.969 3.728C21.8196 3.87733 21.689 4.022 21.577 4.162L21.647 4.218C22.039 3.75133 22.4216 3.41067 22.795 3.196C23.1683 2.98133 23.5603 2.874 23.971 2.874C24.335 2.874 24.6383 2.98133 24.881 3.196C25.1236 3.40133 25.287 3.69533 25.371 4.078C25.6696 3.686 26.0196 3.38733 26.421 3.182C26.8316 2.97667 27.2703 2.874 27.737 2.874C28.2876 2.874 28.7216 3.042 29.039 3.378C29.3563 3.714 29.515 4.16667 29.515 4.736C29.515 4.85733 29.4963 5.04867 29.459 5.31L28.787 9.118C28.7216 9.47267 28.5536 9.72933 28.283 9.888C28.0123 10.0467 27.6063 10.126 27.065 10.126L27.891 5.436C27.919 5.296 27.933 5.17 27.933 5.058C27.933 4.778 27.8583 4.568 27.709 4.428C27.569 4.27867 27.3636 4.204 27.093 4.204C26.701 4.204 26.3603 4.33933 26.071 4.61C25.791 4.87133 25.6136 5.226 25.539 5.674L24.923 9.118C24.8576 9.47267 24.6896 9.72933 24.419 9.888C24.1576 10.0467 23.761 10.126 23.229 10.126L24.055 5.436C24.083 5.296 24.097 5.17 24.097 5.058C24.097 4.778 24.0223 4.568 23.873 4.428C23.733 4.27867 23.5276 4.204 23.257 4.204C22.865 4.204 22.5243 4.344 22.235 4.624C21.9456 4.904 21.7636 5.268 21.689 5.716L21.087 9.118C21.0216 9.46333 20.849 9.72 20.569 9.888C20.2983 10.0467 19.897 10.126 19.365 10.126L20.415 4.12ZM33.1034 10.126C32.3008 10.126 31.6428 9.986 31.1294 9.706C30.6254 9.41667 30.3734 9.04333 30.3734 8.586C30.3734 8.25933 30.4761 8.00733 30.6814 7.83C30.8961 7.65267 31.2041 7.55467 31.6054 7.536C31.6148 7.96533 31.7548 8.30133 32.0254 8.544C32.2961 8.77733 32.6788 8.894 33.1734 8.894C33.7334 8.894 34.1628 8.81 34.4614 8.642C34.7694 8.474 34.9234 8.236 34.9234 7.928C34.9234 7.71333 34.8068 7.536 34.5734 7.396C34.3401 7.256 33.9388 7.12067 33.3694 6.99C32.5201 6.794 31.9134 6.54667 31.5494 6.248C31.1854 5.94933 31.0034 5.57133 31.0034 5.114C31.0034 4.414 31.2741 3.868 31.8154 3.476C32.3568 3.07467 33.0988 2.874 34.0414 2.874C34.8254 2.874 35.4694 3.00933 35.9734 3.28C36.4868 3.55067 36.7434 3.896 36.7434 4.316C36.7434 4.91333 36.3234 5.226 35.4834 5.254C35.4648 4.46067 34.9748 4.064 34.0134 4.064C33.5748 4.064 33.2154 4.148 32.9354 4.316C32.6554 4.47467 32.5154 4.68 32.5154 4.932C32.5154 5.11867 32.6134 5.27267 32.8094 5.394C33.0148 5.506 33.3694 5.61333 33.8734 5.716C35.5814 6.08933 36.4354 6.78933 36.4354 7.816C36.4354 8.55333 36.1414 9.12267 35.5534 9.524C34.9748 9.92533 34.1581 10.126 33.1034 10.126ZM43.3449 10.126C42.6729 10.126 42.1269 9.95333 41.7069 9.608C41.2869 9.25333 41.0769 8.796 41.0769 8.236C41.0769 7.69467 41.2169 7.20933 41.4969 6.78C41.7769 6.35067 42.1642 6.01467 42.6589 5.772C43.1629 5.52933 43.7322 5.408 44.3669 5.408C45.2069 5.408 45.8695 5.69733 46.3549 6.276L46.4249 6.206C46.3502 6.10333 46.2382 5.982 46.0889 5.842L46.1589 5.45C46.1775 5.31933 46.1869 5.226 46.1869 5.17C46.1869 4.82467 46.0702 4.56333 45.8369 4.386C45.6035 4.20867 45.2582 4.12 44.8009 4.12C43.8955 4.12 43.1722 4.46067 42.6309 5.142C42.4722 5.086 42.3462 4.99733 42.2529 4.876C42.1595 4.75467 42.1129 4.624 42.1129 4.484C42.1129 4.19467 42.2482 3.92867 42.5189 3.686C42.7989 3.434 43.1722 3.238 43.6389 3.098C44.1055 2.94867 44.6095 2.874 45.1509 2.874C45.9629 2.874 46.5975 3.056 47.0549 3.42C47.5215 3.784 47.7549 4.28333 47.7549 4.918C47.7549 5.07667 47.7409 5.24 47.7129 5.408L47.0689 9.034C47.0035 9.41667 46.8355 9.69667 46.5649 9.874C46.3035 10.042 45.9162 10.126 45.4029 10.126L45.5149 9.524C45.7109 9.36533 45.8415 9.244 45.9069 9.16L45.8649 9.104C45.4822 9.45867 45.0902 9.72 44.6889 9.888C44.2875 10.0467 43.8395 10.126 43.3449 10.126ZM43.9329 8.95C44.4929 8.95 44.9409 8.824 45.2769 8.572C45.6222 8.32 45.7949 7.984 45.7949 7.564C45.7949 7.256 45.6689 7.018 45.4169 6.85C45.1649 6.67267 44.8149 6.584 44.3669 6.584C43.8535 6.584 43.4335 6.71467 43.1069 6.976C42.7895 7.23733 42.6309 7.58267 42.6309 8.012C42.6309 8.32933 42.7382 8.56733 42.9529 8.726C43.1675 8.87533 43.4942 8.95 43.9329 8.95ZM49.6318 4.12C49.7904 3.28933 50.3644 2.874 51.3538 2.874L51.2138 3.728C51.0644 3.85867 50.9291 4.00333 50.8078 4.162L50.8778 4.218C51.2418 3.798 51.6664 3.47133 52.1518 3.238C52.6371 2.99533 53.1364 2.874 53.6498 2.874C54.2564 2.874 54.7464 3.06067 55.1198 3.434C55.4931 3.798 55.6798 4.26933 55.6798 4.848C55.6798 4.988 55.6658 5.142 55.6378 5.31L54.9658 9.118C54.9004 9.46333 54.7278 9.72 54.4478 9.888C54.1678 10.0467 53.7618 10.126 53.2298 10.126L54.0278 5.52C54.0464 5.436 54.0558 5.324 54.0558 5.184C54.0558 4.54933 53.6824 4.232 52.9358 4.232C52.4504 4.232 52.0071 4.386 51.6058 4.694C51.2138 4.99267 50.9804 5.36133 50.9058 5.8L50.3178 9.118C50.2524 9.46333 50.0798 9.72 49.7998 9.888C49.5291 10.0467 49.1231 10.126 48.5818 10.126L49.6318 4.12ZM59.0051 10.126C58.3331 10.126 57.7824 9.93467 57.3531 9.552C56.9331 9.16 56.7231 8.66533 56.7231 8.068C56.7231 7.928 56.7371 7.78333 56.7651 7.634L57.1711 5.352C57.3017 4.60533 57.6611 4.008 58.2491 3.56C58.8464 3.10267 59.5697 2.874 60.4191 2.874C60.7924 2.874 61.1471 2.95333 61.4831 3.112C61.8284 3.26133 62.1084 3.47133 62.3231 3.742L62.3931 3.672C62.3091 3.55067 62.2251 3.45267 62.1411 3.378L62.5331 1.18C62.5984 0.815999 62.7804 0.540666 63.0791 0.354C63.3777 0.167333 63.7884 0.0739993 64.3111 0.0739993L62.7431 8.992C62.6777 9.34667 62.4957 9.62667 62.1971 9.832C61.9077 10.028 61.5344 10.126 61.0771 10.126L61.2171 9.356C61.3384 9.23467 61.4504 9.10867 61.5531 8.978L61.4971 8.922C61.1144 9.342 60.7224 9.65 60.3211 9.846C59.9291 10.0327 59.4904 10.126 59.0051 10.126ZM59.6771 8.754C60.1157 8.754 60.4984 8.64667 60.8251 8.432C61.1611 8.208 61.3571 7.93267 61.4131 7.606L61.8051 5.38C61.8144 5.34267 61.8191 5.28667 61.8191 5.212C61.8191 4.92267 61.6931 4.68933 61.4411 4.512C61.1984 4.32533 60.8717 4.232 60.4611 4.232C59.9757 4.232 59.5837 4.33933 59.2851 4.554C58.9864 4.75933 58.7997 5.058 58.7251 5.45L58.3611 7.536C58.3424 7.66667 58.3331 7.76 58.3331 7.816C58.3331 8.124 58.4451 8.35733 58.6691 8.516C58.9024 8.67467 59.2384 8.754 59.6771 8.754ZM70.8398 10.126C70.0371 10.126 69.3978 9.93467 68.9218 9.552C68.4458 9.16933 68.2078 8.66533 68.2078 8.04C68.2078 7.89067 68.2218 7.74133 68.2498 7.592L68.6138 5.52C68.6978 5.00667 68.9031 4.54933 69.2298 4.148C69.5564 3.74667 69.9671 3.434 70.4618 3.21C70.9658 2.986 71.5118 2.874 72.0998 2.874C72.8464 2.874 73.4531 3.03267 73.9198 3.35C74.3864 3.658 74.6198 4.05933 74.6198 4.554C74.6198 4.87133 74.4844 5.13267 74.2138 5.338C73.9431 5.534 73.5931 5.632 73.1638 5.632C73.1824 5.52 73.1918 5.43133 73.1918 5.366C73.1918 5.03 73.0751 4.75933 72.8418 4.554C72.6084 4.33933 72.2958 4.232 71.9038 4.232C71.4651 4.232 71.0824 4.358 70.7558 4.61C70.4291 4.862 70.2331 5.18867 70.1678 5.59L69.8318 7.494C69.8224 7.54067 69.8178 7.61067 69.8178 7.704C69.8178 8.02133 69.9344 8.278 70.1678 8.474C70.4104 8.66067 70.7324 8.754 71.1338 8.754C71.5724 8.754 71.9551 8.628 72.2818 8.376C72.6084 8.124 72.8091 7.79267 72.8838 7.382C73.2291 7.382 73.5044 7.452 73.7098 7.592C73.9244 7.72267 74.0318 7.89533 74.0318 8.11C74.0318 8.502 73.8964 8.852 73.6258 9.16C73.3551 9.468 72.9771 9.706 72.4918 9.874C72.0158 10.042 71.4651 10.126 70.8398 10.126ZM77.6191 10.126C77.1057 10.126 76.6391 10.0327 76.2191 9.846C75.8084 9.65933 75.4817 9.40267 75.2391 9.076C75.0057 8.74 74.8891 8.36667 74.8891 7.956C74.8891 7.79733 74.8984 7.676 74.9171 7.592L75.2811 5.52C75.4211 4.71733 75.8177 4.078 76.4711 3.602C77.1244 3.11667 77.9364 2.874 78.9071 2.874C79.4484 2.874 79.9244 2.972 80.3351 3.168C80.7551 3.364 81.0771 3.63467 81.3011 3.98C81.5251 4.316 81.6371 4.694 81.6371 5.114C81.6371 5.24467 81.6231 5.38 81.5951 5.52L81.2311 7.592C81.1471 8.08667 80.9417 8.52533 80.6151 8.908C80.2977 9.29067 79.8777 9.58933 79.3551 9.804C78.8417 10.0187 78.2631 10.126 77.6191 10.126ZM77.8711 8.768C78.3657 8.768 78.7764 8.656 79.1031 8.432C79.4391 8.19867 79.6397 7.886 79.7051 7.494L80.0271 5.59C80.0457 5.45933 80.0551 5.366 80.0551 5.31C80.0551 4.974 79.9337 4.708 79.6911 4.512C79.4577 4.316 79.1171 4.218 78.6691 4.218C78.1744 4.218 77.7591 4.344 77.4231 4.596C77.0871 4.848 76.8817 5.17933 76.8071 5.59L76.4851 7.494C76.4664 7.606 76.4571 7.69 76.4571 7.746C76.4571 8.06333 76.5784 8.31533 76.8211 8.502C77.0637 8.67933 77.4137 8.768 77.8711 8.768ZM83.1005 4.12C83.2592 3.28933 83.8332 2.874 84.8225 2.874L84.6825 3.728C84.5332 3.85867 84.3978 4.00333 84.2765 4.162L84.3465 4.218C84.7105 3.798 85.1352 3.47133 85.6205 3.238C86.1058 2.99533 86.6052 2.874 87.1185 2.874C87.7252 2.874 88.2152 3.06067 88.5885 3.434C88.9618 3.798 89.1485 4.26933 89.1485 4.848C89.1485 4.988 89.1345 5.142 89.1065 5.31L88.4345 9.118C88.3692 9.46333 88.1965 9.72 87.9165 9.888C87.6365 10.0467 87.2305 10.126 86.6985 10.126L87.4965 5.52C87.5152 5.436 87.5245 5.324 87.5245 5.184C87.5245 4.54933 87.1512 4.232 86.4045 4.232C85.9192 4.232 85.4758 4.386 85.0745 4.694C84.6825 4.99267 84.4492 5.36133 84.3745 5.8L83.7865 9.118C83.7212 9.46333 83.5485 9.72 83.2685 9.888C82.9978 10.0467 82.5918 10.126 82.0505 10.126L83.1005 4.12ZM92.4738 10.126C91.8018 10.126 91.2512 9.93467 90.8218 9.552C90.4018 9.16 90.1918 8.66533 90.1918 8.068C90.1918 7.928 90.2058 7.78333 90.2338 7.634L90.6398 5.352C90.7705 4.60533 91.1298 4.008 91.7178 3.56C92.3152 3.10267 93.0385 2.874 93.8878 2.874C94.2612 2.874 94.6158 2.95333 94.9518 3.112C95.2972 3.26133 95.5772 3.47133 95.7918 3.742L95.8618 3.672C95.7778 3.55067 95.6938 3.45267 95.6098 3.378L96.0018 1.18C96.0672 0.815999 96.2492 0.540666 96.5478 0.354C96.8465 0.167333 97.2572 0.0739993 97.7798 0.0739993L96.2118 8.992C96.1465 9.34667 95.9645 9.62667 95.6658 9.832C95.3765 10.028 95.0032 10.126 94.5458 10.126L94.6858 9.356C94.8072 9.23467 94.9192 9.10867 95.0218 8.978L94.9658 8.922C94.5832 9.342 94.1912 9.65 93.7898 9.846C93.3978 10.0327 92.9592 10.126 92.4738 10.126ZM93.1458 8.754C93.5845 8.754 93.9672 8.64667 94.2938 8.432C94.6298 8.208 94.8258 7.93267 94.8818 7.606L95.2738 5.38C95.2832 5.34267 95.2878 5.28667 95.2878 5.212C95.2878 4.92267 95.1618 4.68933 94.9098 4.512C94.6672 4.32533 94.3405 4.232 93.9298 4.232C93.4445 4.232 93.0525 4.33933 92.7538 4.554C92.4552 4.75933 92.2685 5.058 92.1938 5.45L91.8298 7.536C91.8112 7.66667 91.8018 7.76 91.8018 7.816C91.8018 8.124 91.9138 8.35733 92.1378 8.516C92.3712 8.67467 92.7072 8.754 93.1458 8.754ZM100.265 2.076C99.9945 2.076 99.7705 2.00133 99.5932 1.852C99.4252 1.69333 99.3412 1.49267 99.3412 1.25C99.3412 0.932666 99.4672 0.657333 99.7192 0.424C99.9712 0.190666 100.274 0.0739993 100.629 0.0739993C100.9 0.0739993 101.119 0.153333 101.287 0.312C101.455 0.461333 101.539 0.652666 101.539 0.886C101.539 1.20333 101.413 1.48333 101.161 1.726C100.909 1.95933 100.61 2.076 100.265 2.076ZM99.1592 3.882C99.2245 3.53667 99.3972 3.28467 99.6772 3.126C99.9572 2.958 100.363 2.874 100.895 2.874L99.8032 9.118C99.7378 9.46333 99.5652 9.72 99.2852 9.888C99.0052 10.0467 98.5945 10.126 98.0532 10.126L99.1592 3.882ZM104.505 10.126C103.936 10.126 103.492 9.97667 103.175 9.678C102.867 9.37933 102.713 8.964 102.713 8.432C102.713 8.236 102.732 8.04933 102.769 7.872L103.413 4.19H102.013C102.088 3.80733 102.218 3.51333 102.405 3.308C102.592 3.10267 102.825 3 103.105 3H103.637L103.861 1.782C103.926 1.43667 104.094 1.18467 104.365 1.026C104.645 0.857999 105.046 0.773999 105.569 0.773999L105.177 3H107.039C106.974 3.41067 106.838 3.714 106.633 3.91C106.428 4.09667 106.143 4.19 105.779 4.19H104.981L104.351 7.816C104.323 7.93733 104.309 8.054 104.309 8.166C104.309 8.37133 104.37 8.52067 104.491 8.614C104.612 8.70733 104.799 8.754 105.051 8.754C105.387 8.754 105.728 8.66533 106.073 8.488C106.176 8.60933 106.227 8.768 106.227 8.964C106.227 9.29067 106.059 9.566 105.723 9.79C105.396 10.014 104.99 10.126 104.505 10.126ZM109.904 2.076C109.633 2.076 109.409 2.00133 109.232 1.852C109.064 1.69333 108.98 1.49267 108.98 1.25C108.98 0.932666 109.106 0.657333 109.358 0.424C109.61 0.190666 109.913 0.0739993 110.268 0.0739993C110.538 0.0739993 110.758 0.153333 110.926 0.312C111.094 0.461333 111.178 0.652666 111.178 0.886C111.178 1.20333 111.052 1.48333 110.8 1.726C110.548 1.95933 110.249 2.076 109.904 2.076ZM108.798 3.882C108.863 3.53667 109.036 3.28467 109.316 3.126C109.596 2.958 110.002 2.874 110.534 2.874L109.442 9.118C109.376 9.46333 109.204 9.72 108.924 9.888C108.644 10.0467 108.233 10.126 107.692 10.126L108.798 3.882ZM113.822 10.126C113.309 10.126 112.842 10.0327 112.422 9.846C112.012 9.65933 111.685 9.40267 111.442 9.076C111.209 8.74 111.092 8.36667 111.092 7.956C111.092 7.79733 111.102 7.676 111.12 7.592L111.484 5.52C111.624 4.71733 112.021 4.078 112.674 3.602C113.328 3.11667 114.14 2.874 115.11 2.874C115.652 2.874 116.128 2.972 116.538 3.168C116.958 3.364 117.28 3.63467 117.504 3.98C117.728 4.316 117.84 4.694 117.84 5.114C117.84 5.24467 117.826 5.38 117.798 5.52L117.434 7.592C117.35 8.08667 117.145 8.52533 116.818 8.908C116.501 9.29067 116.081 9.58933 115.558 9.804C115.045 10.0187 114.466 10.126 113.822 10.126ZM114.074 8.768C114.569 8.768 114.98 8.656 115.306 8.432C115.642 8.19867 115.843 7.886 115.908 7.494L116.23 5.59C116.249 5.45933 116.258 5.366 116.258 5.31C116.258 4.974 116.137 4.708 115.894 4.512C115.661 4.316 115.32 4.218 114.872 4.218C114.378 4.218 113.962 4.344 113.626 4.596C113.29 4.848 113.085 5.17933 113.01 5.59L112.688 7.494C112.67 7.606 112.66 7.69 112.66 7.746C112.66 8.06333 112.782 8.31533 113.024 8.502C113.267 8.67933 113.617 8.768 114.074 8.768ZM119.304 4.12C119.462 3.28933 120.036 2.874 121.026 2.874L120.886 3.728C120.736 3.85867 120.601 4.00333 120.48 4.162L120.55 4.218C120.914 3.798 121.338 3.47133 121.824 3.238C122.309 2.99533 122.808 2.874 123.322 2.874C123.928 2.874 124.418 3.06067 124.792 3.434C125.165 3.798 125.352 4.26933 125.352 4.848C125.352 4.988 125.338 5.142 125.31 5.31L124.638 9.118C124.572 9.46333 124.4 9.72 124.12 9.888C123.84 10.0467 123.434 10.126 122.902 10.126L123.7 5.52C123.718 5.436 123.728 5.324 123.728 5.184C123.728 4.54933 123.354 4.232 122.608 4.232C122.122 4.232 121.679 4.386 121.278 4.694C120.886 4.99267 120.652 5.36133 120.578 5.8L119.99 9.118C119.924 9.46333 119.752 9.72 119.472 9.888C119.201 10.0467 118.795 10.126 118.254 10.126L119.304 4.12ZM128.957 10.126C128.154 10.126 127.496 9.986 126.983 9.706C126.479 9.41667 126.227 9.04333 126.227 8.586C126.227 8.25933 126.33 8.00733 126.535 7.83C126.75 7.65267 127.058 7.55467 127.459 7.536C127.468 7.96533 127.608 8.30133 127.879 8.544C128.15 8.77733 128.532 8.894 129.027 8.894C129.587 8.894 130.016 8.81 130.315 8.642C130.623 8.474 130.777 8.236 130.777 7.928C130.777 7.71333 130.66 7.536 130.427 7.396C130.194 7.256 129.792 7.12067 129.223 6.99C128.374 6.794 127.767 6.54667 127.403 6.248C127.039 5.94933 126.857 5.57133 126.857 5.114C126.857 4.414 127.128 3.868 127.669 3.476C128.21 3.07467 128.952 2.874 129.895 2.874C130.679 2.874 131.323 3.00933 131.827 3.28C132.34 3.55067 132.597 3.896 132.597 4.316C132.597 4.91333 132.177 5.226 131.337 5.254C131.318 4.46067 130.828 4.064 129.867 4.064C129.428 4.064 129.069 4.148 128.789 4.316C128.509 4.47467 128.369 4.68 128.369 4.932C128.369 5.11867 128.467 5.27267 128.663 5.394C128.868 5.506 129.223 5.61333 129.727 5.716C131.435 6.08933 132.289 6.78933 132.289 7.816C132.289 8.55333 131.995 9.12267 131.407 9.524C130.828 9.92533 130.012 10.126 128.957 10.126Z" fill="black"/>
</svg>
