<svg width="25" height="25" viewBox="0 0 25 25" fill="none" xmlns="http://www.w3.org/2000/svg">
<g clip-path="url(#clip0_392_552)">
<path d="M16.6089 0.0534668C15.3208 0.142558 13.8153 0.967028 12.938 2.04065C12.1377 3.01461 11.4793 4.46121 11.736 5.86704C13.1434 5.91083 14.5975 5.06673 15.4401 3.97498C16.2284 2.95874 16.8248 1.5212 16.6089 0.0534668Z" fill="white"/>
<path d="M21.6994 8.15901C20.4627 6.60822 18.7247 5.70825 17.0833 5.70825C14.9164 5.70825 13.9998 6.74563 12.4944 6.74563C10.9421 6.74563 9.76274 5.71127 7.88881 5.71127C6.04809 5.71127 4.08809 6.83624 2.84535 8.76C1.09825 11.469 1.39724 16.5623 4.22852 20.9005C5.24174 22.4528 6.59472 24.1984 8.36446 24.2135C9.93941 24.2286 10.3834 23.2033 12.517 23.1928C14.6507 23.1807 15.0554 24.2271 16.6273 24.2105C18.3985 24.1969 19.8255 22.2626 20.8387 20.7103C21.565 19.5974 21.8353 19.0372 22.3986 17.7808C18.3019 16.221 17.645 10.3953 21.6994 8.15901Z" fill="white"/>
</g>
<defs>
<clipPath id="clip0_392_552">
<rect width="24.1604" height="24.1604" fill="white" transform="translate(0 0.0534668)"/>
</clipPath>
</defs>
</svg>
