<svg width="28" height="28" viewBox="0 0 28 28" fill="none" xmlns="http://www.w3.org/2000/svg">
<path fill-rule="evenodd" clip-rule="evenodd" d="M14 0.25C6.40625 0.25 0.25 6.40625 0.25 14C0.25 21.5938 6.40625 27.75 14 27.75C21.5938 27.75 27.75 21.5938 27.75 14C27.75 6.40625 21.5938 0.25 14 0.25ZM9 12.75C8.66848 12.75 8.35054 12.8817 8.11612 13.1161C7.8817 13.3505 7.75 13.6685 7.75 14C7.75 14.3315 7.8817 14.6495 8.11612 14.8839C8.35054 15.1183 8.66848 15.25 9 15.25H19C19.3315 15.25 19.6495 15.1183 19.8839 14.8839C20.1183 14.6495 20.25 14.3315 20.25 14C20.25 13.6685 20.1183 13.3505 19.8839 13.1161C19.6495 12.8817 19.3315 12.75 19 12.75H9Z" fill="#414141"/>
</svg>
