<svg width="23" height="23" viewBox="0 0 23 23" fill="none" xmlns="http://www.w3.org/2000/svg">
<g clip-path="url(#clip0_392_563)">
<path d="M4.89411 0.41425C4.02766 -0.0646527 3.01033 -0.0535798 2.14941 0.421171L12.2396 9.72933L15.6293 6.33964L4.89411 0.41425Z" fill="white"/>
<path d="M1.14048 1.37354C0.894109 1.77631 0.75293 2.23722 0.75293 2.72581V19.5372C0.75293 20.0106 0.881652 20.4618 1.11418 20.8563L11.2611 10.7094L1.14048 1.37354Z" fill="white"/>
<path d="M20.1244 8.82025L16.8911 7.03613L13.2578 10.668L17.7105 14.7747L20.1258 13.4418C20.995 12.9601 21.5154 12.0964 21.5154 11.1303C21.514 10.1642 20.995 9.30054 20.1244 8.82025Z" fill="white"/>
<path d="M12.2791 11.6477L2.10449 21.8223C2.54602 22.0742 3.03046 22.2071 3.51767 22.2071C3.98827 22.2071 4.46164 22.0881 4.89486 21.8486L16.4342 15.4803L12.2791 11.6477Z" fill="white"/>
</g>
<defs>
<clipPath id="clip0_392_563">
<rect width="22.1471" height="22.1471" fill="white" transform="translate(0.0605469 0.0600586)"/>
</clipPath>
</defs>
</svg>
